<?xml version="1.0" standalone="no"?>
<!DOCTYPE svg PUBLIC "-//W3C//DTD SVG 20010904//EN"
 "http://www.w3.org/TR/2001/REC-SVG-20010904/DTD/svg10.dtd">
<svg version="1.0" xmlns="http://www.w3.org/2000/svg"
 width="356.000000pt" height="356.000000pt" viewBox="0 0 356.000000 356.000000"
 preserveAspectRatio="xMidYMid meet">
<metadata>
Created by potrace 1.11, written by Peter Selinger 2001-2013
</metadata>
<g transform="translate(0.000000,356.000000) scale(0.100000,-0.100000)"
fill="#000000" stroke="none">
<path d="M2570 3553 c-56 -9 -159 -46 -219 -80 -284 -154 -469 -455 -456 -743
15 -349 279 -665 615 -734 88 -18 229 -18 320 0 260 52 469 263 555 560 42
145 57 303 40 409 -43 257 -276 497 -556 570 -60 16 -243 27 -299 18z"/>
<path d="M619 2805 c-2 -2 -20 -6 -39 -9 -60 -9 -162 -44 -238 -81 -40 -19
-76 -35 -80 -35 -4 0 -29 -19 -56 -42 -51 -44 -76 -88 -76 -136 0 -32 53 -122
72 -123 7 0 24 -2 38 -3 14 -2 57 7 95 20 111 37 444 68 532 50 11 -2 43 -7
70 -11 26 -4 59 -8 72 -11 13 -2 45 -6 70 -10 83 -11 88 -12 119 -28 34 -18
77 -23 109 -12 56 18 80 165 36 224 -39 52 -298 170 -433 197 -37 8 -285 16
-291 10z"/>
<path d="M236 1795 c-19 -14 -18 -17 18 -117 91 -249 139 -313 456 -608 68
-63 132 -125 144 -138 11 -12 37 -27 58 -33 74 -19 84 -44 93 -224 6 -111 7
-124 21 -205 13 -76 18 -92 57 -169 40 -80 134 -176 212 -218 107 -56 179 -75
300 -78 249 -7 479 85 594 238 85 112 117 220 119 399 1 56 5 122 8 146 10 66
59 129 136 176 36 23 104 75 149 116 46 41 110 99 144 129 179 161 254 288
258 441 4 159 2 159 -238 99 -211 -54 -418 -96 -512 -104 -35 -4 -73 -8 -85
-10 -149 -29 -951 -22 -1140 10 -272 46 -362 65 -582 126 -151 42 -181 46
-210 24z"/>
</g>
</svg>
