<svg xmlns="http://www.w3.org/2000/svg" version="1.2" baseProfile="tiny" viewBox="0 0 3191.1 380">
  <path fill="none" d="M349.3 288.5c.3-.2.7-.4 1.2-.5.2-.5.3-1.1.6-1.6-.2.5-.4 1.1-.6 1.6-.5.1-.9.3-1.2.5zm-5.6 10.7c-.3.5-.6 1-1 1.4.3-.5.7-.9 1-1.4zm3.1-5.3c-.3.4-.6.9-.9 1.3.3-.5.6-.9.9-1.3zm-1.2 1.8c-.2.3-.3.5-.5.8.1-.2.3-.5.5-.8zm4.3-6.3c-.4.8-.9 1.5-1.4 2.1.5-.7 1-1.4 1.4-2.1z"/>
  <path fill="#FEE936" d="M0 380h390V0H0v380zm192.1-144.3c-22.5-1.1-40.4-19.7-39-44.2 1.3-22.9 19.5-39.6 42.4-39.2 24.8.5 41.5 20.1 41 42.8-.9 24.6-19.7 41.9-44.4 40.6zM370.4 200c.4 5 .5 10 .3 15.1-.4 11.6-1.7 23.2-4.7 34.5-1.3 4.9-2.5 9.9-4.7 14.6-2.1 4.6-3.7 9.3-5.8 13.9-1.2 2.7-2.6 5.4-4.3 7.8-.1.2-.2.3-.3.5-.2.5-.4 1.1-.6 1.6-.2.5-.4.9-.6 1.4-.4.8-.9 1.5-1.4 2.1-.2.3-.3.5-.5.8-.3.5-.7 1-1.1 1.6-.3.4-.6.9-.9 1.3-.1.2-.2.4-.4.5-.2.3-.3.5-.5.8-.3.4-.5.9-.7 1.4-.2.4-.5.8-.7 1.3-.3.5-.6 1-1 1.4-.2.3-.5.5-.7.8-5.8 8.6-12.9 16.2-20.5 23.2-9.3 8.5-19.5 15.8-30.3 22.3-1.1.7-1.6.7-2.3-.5-5.9-9.6-11.8-19.1-17.8-28.7-2-3.1-4.1-6.1-5.9-9.4-1-1.8-2.6-3.3-2.9-5.4-.1-1.1-1.4-1-1.8-1.9-2.2-3.8-4.6-7.6-6.9-11.4-.9-1-1.6-2.2-2.2-3.4-2.2-3.4-4.3-6.9-6.5-10.3-.6-1-1.2-2-1.8-2.9-.1-.2-.2-.3-.3-.5l-2.7-4.2c-4.8-7.6-9.6-15.3-14.4-22.9-.8-1.2 0-1.5.7-2 4.9-3.3 9.4-7.1 13.2-11.7 6.9-8.4 10-18.3 11-28.9.2-1.9.4-3.7.4-5.6 0-1.1.5-1.4 1.5-1.3h113.6c4.2 0 4.2 0 4.5 4.1zM107.8 37.9c9.5-5.8 19.4-10.8 29.8-14.8 11.3-4.3 23-7.5 35-9 13-1.7 25.9-1.7 38.9-.1 11.7 1.5 23.1 4.3 34.1 8.6 5 2 9.9 4.1 14.8 6.5 5.5 2.7 10.9 5.7 16.2 8.7.5.3 1.1.6 1.5 1.2l-.9 1.8-50.7 94.8c-1.3 2.4-2.6 4.8-3.8 7.2-.5 1-1 1.1-2 .7-10.8-4.7-22.1-5.7-33.7-5-6.2.4-11.9 2.2-17.5 4.6-1.6.7-2.4.6-3.3-1.2-11.4-19.8-22.9-39.5-34.3-59.2-8.2-14.1-16.4-28.3-24.6-42.4-.6-1.2-.6-1.7.5-2.4zM18.9 204.1c.1-2.2.4-4.3.3-6.5 0-1.5.6-1.8 1.9-1.7h57.7c19 0 38.1 0 57.1-.1 2 0 2.5.7 2.7 2.5 1.8 16.2 8 30.2 19.9 41.6 1.4 1.3 2.8 2.7 4.4 3.7 1 .6.9 1.1.3 2.1-2.6 4-4.8 8.1-7.5 12.1-2.1 3.1-4.1 6.3-6.1 9.5-2.3 3.8-4.6 7.5-6.9 11.3-3.7 6.1-7.5 12.1-11.3 18.1-10.2 16.4-20.5 32.8-30.7 49.3-.8 1.4-1.4 1.7-2.9.8-13.7-8.3-26.4-17.9-37.5-29.5-8.4-8.8-15.6-18.6-21.6-29.3-2-3.6-3.9-7.3-5.7-11-2.8-5.7-5.1-11.6-7-17.7-5.5-17.9-7.7-36.4-7.1-55.2z"/>
  <path fill="#1F1F1E" d="M33.3 277.1c1.8 3.7 3.7 7.3 5.7 11 5.9 10.7 13.1 20.5 21.6 29.3 11.1 11.6 23.8 21.1 37.5 29.5 1.5.9 2.1.6 2.9-.8 10.2-16.5 20.4-32.9 30.7-49.3 3.8-6 7.6-12 11.3-18.1 2.3-3.8 4.6-7.6 6.9-11.3 2-3.2 4-6.4 6.1-9.5 2.7-3.9 4.9-8.1 7.5-12.1.7-1 .8-1.5-.3-2.1-1.7-1-3-2.3-4.4-3.7-11.9-11.4-18.1-25.4-19.9-41.6-.2-1.8-.7-2.5-2.7-2.5-19 .1-38.1.1-57.1.1H21.4c-1.3 0-1.9.2-1.9 1.7 0 2.1-.2 4.3-.3 6.5-.7 18.8 1.6 37.3 7.3 55.3 1.7 5.9 4 11.9 6.8 17.6zm98.5-194.6c11.5 19.7 23 39.4 34.3 59.2 1 1.7 1.8 1.8 3.3 1.2 5.6-2.4 11.3-4.2 17.5-4.6 11.6-.7 22.9.3 33.7 5 1 .5 1.5.3 2-.7 1.2-2.4 2.5-4.8 3.8-7.2l50.7-94.8c.3-.6.6-1.1.9-1.8-.3-.6-.9-.8-1.5-1.2-5.3-3-10.7-6-16.2-8.7-4.8-2.4-9.8-4.5-14.8-6.5-11-4.3-22.4-7.1-34.1-8.6-13-1.7-25.9-1.6-38.9.1-12 1.6-23.7 4.7-35 9-10.4 4-20.3 9-29.8 14.8-1.1.7-1.1 1.2-.5 2.2 8.3 14.3 16.4 28.5 24.6 42.6z"/>
  <path fill="#080808" d="M252.4 195.9c-1 0-1.4.3-1.5 1.3-.1 1.9-.3 3.7-.4 5.6-1 10.7-4.1 20.5-11 28.9-3.8 4.6-8.3 8.4-13.2 11.7-.7.5-1.5.8-.7 2 4.9 7.6 9.6 15.3 14.4 22.9 1.3-.6 2-.3 2.2 1.2.2 1.2 1.6 1.6 1.9 3 .2 1.2.8 2.3.7 3.5 2.2 3.4 4.3 6.9 6.5 10.3 2.4 0 1.8 2.1 2.2 3.4 2.3 3.8 4.7 7.5 6.9 11.4.5.8 1.7.7 1.8 1.9.2 2.2 1.9 3.7 2.9 5.4 1.8 3.2 4 6.2 5.9 9.4 5.9 9.5 11.9 19.1 17.8 28.7.7 1.2 1.2 1.2 2.3.5 10.8-6.5 21-13.8 30.3-22.3 7.6-7 14.7-14.6 20.5-23.2-.2-1.9.8-2.9 2.5-3.5.2-.5.4-.9.7-1.4.2-.3.3-.6.5-.8.1-.2.2-.4.4-.5.3-.4.6-.9.9-1.3.4-.5.7-1 1.1-1.6.2-.3.3-.5.5-.8-.3-1.4-.1-2.4.8-3 .3-.2.7-.4 1.2-.5.2-.5.3-1.1.6-1.6.1-.2.2-.3.3-.5 1.7-2.5 3.1-5.1 4.3-7.8 2-4.6 3.7-9.3 5.8-13.9 2.1-4.7 3.3-9.7 4.7-14.6 3-11.3 4.3-22.8 4.7-34.5.2-5 .1-10.1-.3-15.1-.3-4.1-.3-4.1-4.5-4.1H254.9c-.9-.1-1.7-.1-2.5-.1z"/>
  <path fill="#1F1F1E" d="M195.5 152.4c-22.9-.5-41.1 16.3-42.4 39.2-1.4 24.5 16.5 43.1 39 44.2 24.7 1.2 43.5-16.1 44.4-40.6.5-22.7-16.2-42.3-41-42.8zm46.8 117.1c-.2-1.5-1-1.8-2.2-1.2l2.7 4.2c.3 0 .7 0 .3.5.6 1 1.2 2 1.8 2.9.1-1.2-.5-2.4-.7-3.5-.3-1.3-1.8-1.7-1.9-2.9zm106.1 22c.6-.7 1-1.4 1.4-2.1.2-.4.4-.9.6-1.4-.5.1-.9.3-1.2.5-.9.6-1.1 1.6-.8 3zm-97-5.2c.6 1.2 1.3 2.4 2.2 3.4-.5-1.4.2-3.4-2.2-3.4zm90.6 15.1c.3-.3.5-.5.7-.8.4-.5.7-.9 1-1.4.3-.4.5-.8.7-1.3-1.7.6-2.6 1.6-2.4 3.5z"/>
  <path fill="#080808" d="M242.7 272.5c.1.2.2.3.3.5.4-.5 0-.5-.3-.5z"/>
  <path fill="#F00" d="M469.4 113.8h58c10.3 0 19.9 2.1 28.9 6.2s16.9 9.6 23.6 16.5c6.7 6.9 12 14.9 15.9 24 3.9 9.1 5.8 18.7 5.8 28.7 0 9.9-1.9 19.4-5.7 28.5-3.8 9.1-9.1 17.2-15.8 24.1-6.7 6.9-14.6 12.5-23.6 16.6-9 4.1-18.7 6.2-29.1 6.2h-58V113.8zm39.2 117.6h9c6.8 0 12.9-1.1 18.2-3.2 5.3-2.1 9.8-5.1 13.5-8.8 3.7-3.7 6.5-8.2 8.4-13.3 1.9-5.1 2.9-10.8 2.9-16.9 0-6-1-11.6-3-16.8-2-5.2-4.8-9.7-8.5-13.4-3.7-3.7-8.2-6.7-13.5-8.8-5.3-2.1-11.3-3.2-18-3.2h-9v84.4zm204 7h-56l-9 26.2h-41.8l57.4-150.8H706l57.4 150.8h-41.8l-9-26.2zm-10.4-29.8l-17.6-50.2-17.6 50.2h35.2zm78.4 56V113.8h39.2l72.4 92.2v-92.2h39v150.8h-39l-72.4-92.2v92.2h-39.2zm258.4-84.4h77.8c0 8-.3 15.3-1 21.8s-2 12.6-4 18.2c-2.8 7.9-6.6 14.8-11.4 20.9-4.8 6.1-10.4 11.1-16.9 15.2-6.5 4.1-13.6 7.2-21.3 9.3-7.7 2.1-15.9 3.2-24.4 3.2-11.7 0-22.4-1.9-32.1-5.8-9.7-3.9-18-9.3-24.9-16.3-6.9-7-12.3-15.4-16.2-25.2-3.9-9.8-5.8-20.6-5.8-32.5 0-11.7 1.9-22.5 5.7-32.3 3.8-9.8 9.2-18.2 16.2-25.1 7-6.9 15.4-12.3 25.3-16.2 9.9-3.9 20.9-5.8 33-5.8 15.7 0 29.5 3.4 41.4 10.2 11.9 6.8 21.3 17.3 28.2 31.6l-37.2 15.4c-3.5-8.3-8-14.2-13.5-17.8-5.5-3.6-11.8-5.4-18.9-5.4-5.9 0-11.2 1.1-16 3.3-4.8 2.2-8.9 5.3-12.3 9.4-3.4 4.1-6.1 9-8 14.7-1.9 5.7-2.9 12.1-2.9 19.2 0 6.4.8 12.3 2.5 17.8s4.2 10.2 7.5 14.2 7.5 7.1 12.4 9.3c4.9 2.2 10.7 3.3 17.2 3.3 3.9 0 7.6-.4 11.2-1.3 3.6-.9 6.8-2.3 9.7-4.2 2.9-1.9 5.2-4.4 7.1-7.5 1.9-3.1 3.1-6.8 3.8-11.2H1039v-30.4zm188.4-33.2h-46.6v25.2h44v33.2h-44v26h46.6v33.2h-85.8V113.8h85.8V147zM1381 264.6h-48.8l-37.4-58v58h-39.2V113.8h61c8.4 0 15.7 1.2 22 3.7 6.3 2.5 11.4 5.8 15.5 10.1s7.1 9.2 9.2 14.8c2.1 5.6 3.1 11.6 3.1 18 0 11.5-2.8 20.8-8.3 27.9-5.5 7.1-13.7 12-24.5 14.5l47.4 61.8zm-86.2-83.4h7.4c7.7 0 13.7-1.6 17.8-4.8 4.1-3.2 6.2-7.8 6.2-13.8s-2.1-10.6-6.2-13.8c-4.1-3.2-10.1-4.8-17.8-4.8h-7.4v37.2zm97.4-3.2c0-3.2.6-6.2 1.8-9.1 1.2-2.9 2.9-5.4 5-7.5 2.1-2.1 4.6-3.8 7.5-5 2.9-1.2 5.9-1.8 9.1-1.8s6.2.6 9.1 1.8c2.9 1.2 5.4 2.9 7.5 5 2.1 2.1 3.8 4.6 5 7.5 1.2 2.9 1.8 5.9 1.8 9.1 0 3.2-.6 6.2-1.8 9.1-1.2 2.9-2.9 5.4-5 7.5-2.1 2.1-4.6 3.8-7.5 5-2.9 1.2-5.9 1.8-9.1 1.8s-6.2-.6-9.1-1.8c-2.9-1.2-5.4-2.9-7.5-5-2.1-2.1-3.8-4.6-5-7.5-1.2-2.9-1.8-5.9-1.8-9.1zm0 67.4c0-3.2.6-6.2 1.8-9.1 1.2-2.9 2.9-5.4 5-7.5 2.1-2.1 4.6-3.8 7.5-5 2.9-1.2 5.9-1.8 9.1-1.8s6.2.6 9.1 1.8c2.9 1.2 5.4 2.9 7.5 5 2.1 2.1 3.8 4.6 5 7.5 1.2 2.9 1.8 5.9 1.8 9.1s-.6 6.2-1.8 9.1c-1.2 2.9-2.9 5.4-5 7.5-2.1 2.1-4.6 3.8-7.5 5-2.9 1.2-5.9 1.8-9.1 1.8s-6.2-.6-9.1-1.8c-2.9-1.2-5.4-2.9-7.5-5-2.1-2.1-3.8-4.6-5-7.5-1.2-2.9-1.8-5.9-1.8-9.1z"/>
  <path d="M1619.2 147h-46.6v25.2h44v33.2h-44v26h46.6v33.2h-85.8V113.8h85.8V147zm71.4 37.2l-47-70.4h48.4l20.4 39 25.2-39h48.4l-49.8 70.4 56.2 80.4h-47.8l-30.2-49.2-35.4 49.2h-47.4l59-80.4zm156.8 80.4h-39.2V113.8h62.4c16.9 0 29.9 4.4 38.9 13.2 9 8.8 13.5 21.2 13.5 37.2 0 16-4.5 28.4-13.5 37.2s-22 13.2-38.9 13.2h-23.2v50zm0-81.6h13c14.4 0 21.6-6.3 21.6-18.8s-7.2-18.8-21.6-18.8h-13V183zm182.2-36H1983v25.2h44v33.2h-44v26h46.6v33.2h-85.8V113.8h85.8V147zm153.6 117.6h-48.8l-37.4-58v58h-39.2V113.8h61c8.4 0 15.7 1.2 22 3.7 6.3 2.5 11.4 5.8 15.5 10.1s7.1 9.2 9.2 14.8c2.1 5.6 3.1 11.6 3.1 18 0 11.5-2.8 20.8-8.3 27.9-5.5 7.1-13.7 12-24.5 14.5l47.4 61.8zm-86.2-83.4h7.4c7.7 0 13.7-1.6 17.8-4.8 4.1-3.2 6.2-7.8 6.2-13.8s-2.1-10.6-6.2-13.8c-4.1-3.2-10.1-4.8-17.8-4.8h-7.4v37.2zm141.8-67.4v150.8h-39.2V113.8h39.2zm24.8 150.8l25.6-150.8h38.8l30.2 80.4 30-80.4h38.8l25.6 150.8h-39l-13-86.8-35.6 86.8h-15.6l-33.8-86.8-13 86.8h-39zM2563.2 147h-46.6v25.2h44v33.2h-44v26h46.6v33.2h-85.8V113.8h85.8V147zm28.2 117.6V113.8h39.2L2703 206v-92.2h39v150.8h-39l-72.4-92.2v92.2h-39.2zM2830.8 147v117.6h-39.2V147h-32.2v-33.2H2863V147h-32.2zm135 91.4h-56l-9 26.2H2859l57.4-150.8h42.8l57.4 150.8h-41.8l-9-26.2zm-10.4-29.8l-17.6-50.2-17.6 50.2h35.2zm117.6-94.8v117.6h47v33.2h-86.2V113.8h39.2z"/>
</svg>
