<svg viewBox="0 0 128 128" xmlns="http://www.w3.org/2000/svg"><circle cx="64" cy="64" r="50" fill="#E3E3E3"/><path d="M54.8 77l1.7-1-1.9.5c-2.8.8-3.2 1.7-3.2 2.4.2 1.8 4.8 3.2 10.1 3.2 2.8 0 6.9-.4 11.1-2.2l.6-.2-.6-.2c-1.9-.8-3.4-1.6-3.4-1.6l-.1-.1H69c-3.4.6-5.5.9-7.7.9-1.4 0-2.9-.1-5-.3-1.9-.2-2.1-.6-2.1-.7 0-.3.3-.6.6-.7zM74.5 73.1l-.7-.3c-1.5-.5-2.4-1.5-2.5-1.5l-.1-.1h-.1c-4.1.8-7.3 1.1-10.5 1.1-1.8 0-3.6-.1-6-.4-1.6-.2-2-.6-2-.8-.1-.4.5-1 .7-1.2l1.2-.9-1.5.5c-2.5.8-3.7 1.7-3.5 2.7.3 1.7 4.7 2.8 10.8 2.8 4.5 0 9.3-.7 13.4-1.9h.8z" fill="#3969B2"/><path d="M63 50.5c-.8 2.5 0 5.3 2.5 8.1.8.9 1.2 1.9 1.1 2.9-.2 1.9-1.8 3.3-1.8 3.3L63 66.3l2.1-1.1c.2-.1 4.3-2.2 5-5.4.3-1.3 0-2.6-.8-3.8l-.4-.6c-1.3-1.9-2.4-3.3-2-5 .5-2.3 3.6-4.9 10.1-8.7l1.5-.9-1.7.4c-.6.2-11.9 3-13.8 9.3z" fill="#F3492C"/><path d="M59.9 88.1c13.3 0 22.7-2.5 23.2-4.9.1-.4-.1-1.1-1.3-1.7l-1.7-.8 1.4 1.2s.4.3.3.7c-.1.3-.4.9-2.2 1.4-3.5 1.2-11.5 2-19.4 2-7.4 0-13.1-.6-15.6-1.7-.3-.1-.5-.3-.5-.4.1-.5 2.2-1.4 3.7-1.7 1-.2 1.6-.2 1.9-.2h.1l.9.1-.7-.7c-.4-.3-1-.4-1.8-.4-2.9 0-8.4 2-8.6 3.8-.1.9 1 1.6 3.3 1.9 5.7.9 11.4 1.4 17 1.4zM57.4 68.6c6.1 0 11.8-.6 15.9-1.7h.1c1.2-.8 2.8-1.5 2.8-1.5l2-.9-2.2.5s-4.7.8-9.3 1.2c-3.2.3-6.6.4-9.5.4-2.2 0-4.1-.1-5.3-.3-2.2-.3-2.2-.7-2.2-.7 0-.6 3.2-1.7 6.2-2.5l1.6-.4-1.6-.1h-.4c-1.4 0-5.1.2-9.4 2.3-.4.2-1.4.7-1.3 1.4.2 1.8 6.9 2.3 12.6 2.3z" fill="#3969B2"/><path d="M77 63.4l-.4.7.7-.3s.4-.2 1.3-.3c.2 0 .4-.1.7-.1 1.4 0 3.1.9 3.5 2.6.3 1.2.2 4.4-6.8 8h-.1v.1c0 .1-.1.2-.2.2l-.8.7 1-.3c7.9-2.1 10.4-5.8 10-8.6-.3-2.4-2.5-4.1-5.3-4.1-.8 0-1.6.1-2.4.4-.8.4-1.2 1-1.2 1z" fill="#3969B2"/><path d="M62.7 63l.9.8-.5-1.1c-.5-1.2-1.4-2.4-2.2-3.5-2.7-3.9-5.5-7.8 2.1-13.8 5-3.9 7.6-7.8 7.8-11.5.2-3.3-1.6-5.1-1.7-5.2l-.6-.7.2.9c1.7 6.7-2.9 10.3-7.4 13.8-2.2 1.8-4.5 3.6-6 5.7-3 4.6 1.8 9.5 7.4 14.6z" fill="#F3492C"/><path d="M85.4 84.8s-1 1.9-9 3.4c-4.6.9-10 1.3-15.6 1.3-4.6 0-9.1-.3-12.5-.9l-.9-.2.8.6c.2.1 1.8 1.2 8.9 1.7 2 .1 4.2.2 6.3.2 10.7 0 22.3-1.6 22.6-6.1l.1-1.4-.7 1.4z" fill="#3969B2"/></svg>