<svg xmlns="http://www.w3.org/2000/svg" version="1" width="1000" height="1000">
  <path d="M495 39c-19 1-22 2-66 27a4736 4736 0 0 1-61 35l-18 11-119 68-35 20a6693 6693 0 0 0-70 40c-9 5-24 21-29 32-10 20-10 7-10 227 0 194 0 206 5 217 7 19 16 31 30 40l10 7a276 276 0 0 1 35 19l11 6a789 789 0 0 0 58 34l20 12a2624 2624 0 0 1 99 57l13 7a1414 1414 0 0 0 59 34c40 23 43 25 58 28 11 3 15 3 26 1l27-9 29-17a3733 3733 0 0 0 78-45 20195 20195 0 0 0 221-127c3 0 18-12 25-20 10-10 16-23 19-38 3-17 4-394 0-411-3-14-10-28-18-38-10-10-15-14-57-37l-26-15-105-61-23-13-25-14-43-25-60-34c-29-17-37-20-58-18z" fill="none"/>
  <path d="M495 39c-19 1-22 3-66 28a4736 4736 0 0 1-61 35l-18 10-119 68-35 21a6693 6693 0 0 0-70 40c-9 5-24 20-29 31-10 20-10 8-10 228 0 193 0 206 5 217 7 18 16 30 30 40l10 6a276 276 0 0 1 35 20l11 6a789 789 0 0 0 58 34l20 11a2624 2624 0 0 1 99 57l13 8a1414 1414 0 0 0 59 34c40 23 43 24 58 28 11 2 15 2 26 0 8-1 24-6 27-9l29-17a3733 3733 0 0 0 78-45 20195 20195 0 0 0 221-127c3 0 18-12 25-19 10-11 16-23 19-38 3-17 4-394 0-411-3-15-10-28-18-38-10-11-15-14-57-38l-26-14-105-61-23-13-25-15-43-25-60-34c-29-16-37-19-58-18z" fill="none" stroke="#fff" stroke-linecap="round" stroke-linejoin="round" stroke-width="96"/>
  <path d="M495 38c-19 1-22 3-66 28a4736 4736 0 0 1-61 35l-18 11-119 67-35 21a6693 6693 0 0 0-70 40c-9 5-24 20-29 31-10 20-10 8-10 228 0 194 0 206 5 217 7 18 16 30 30 40l10 6a276 276 0 0 1 35 20l11 6a789 789 0 0 0 58 34l20 11a2624 2624 0 0 1 99 57l13 8a1414 1414 0 0 0 59 34c40 23 43 24 58 28 11 2 15 3 26 1 8-2 24-7 27-10l29-17a3733 3733 0 0 0 78-45 20195 20195 0 0 0 221-127c3 0 18-12 25-19 10-10 16-23 19-38 3-17 4-394 0-411-3-14-10-28-18-38-10-10-15-14-57-38l-26-14-105-61-23-13-25-15-43-24-60-35c-29-16-37-19-58-18z" fill="#9b4f96" fill-rule="evenodd"/>
  <path d="M102 736c10 16 15 15 59 41a4723 4723 0 0 1 61 35l18 11 118 68 35 20 34 20 36 21c9 6 30 11 42 10 22-1 11 4 201-106 168-97 179-103 186-112 13-16 19-29 20-47l1-11a291 291 0 0 1-1-41v-12a1582 1582 0 0 0 0-67v-23a2592 2592 0 0 1 0-114 409 409 0 0 1 0-38v-46c0-45 0-49-5-64-2-6-5-9-7-13L100 731l2 5z" fill="#68217a" fill-rule="evenodd"/>
  <path d="M903 728c8-17 9-21 9-72V388a8294 8294 0 0 0 1-80c0-11-7-29-13-40L500 500l400 232 3-4z" fill="#813787" fill-rule="evenodd"/>
  <path d="M482 227a275 275 0 1 0 254 418l4-7-57-33-59-33-8 8c-15 22-41 42-67 51-20 7-25 7-47 7a128 128 0 0 1-96-38 139 139 0 0 1 212-177l5 5 10-4a5945 5945 0 0 0 107-63l-9-14a278 278 0 0 0-249-120zm256 206v18h-17v35h17v34h-17v36h17v17h35v-17h35v17h35v-17h18v-36h-18v-34h18v-35h-18v-18h-35v18h-35v-18h-35zm35 53h35v34h-35v-34z" fill="#fff" fill-rule="evenodd"/>
</svg>
