<svg xmlns="http://www.w3.org/2000/svg" viewBox="0 0 142.19 142.19"><title>Rust_programming_language_black_logo</title><path d="M141.21 69.35l-6-3.7c-.05-.58-.11-1.16-.17-1.74l5.16-4.82a2.07 2.07 0 0 0 .62-1.91 2 2 0 0 0-1.3-1.52l-6.56-2.45c-.16-.57-.33-1.13-.51-1.7l4.09-5.68a2 2 0 0 0 .23-2 2.06 2.06 0 0 0-1.57-1.25l-6.91-1.12c-.27-.52-.55-1-.83-1.55l2.9-6.38a2.05 2.05 0 0 0-1.94-2.91l-7 .25q-.55-.69-1.11-1.35l1.61-6.83a2.06 2.06 0 0 0-2.47-2.48l-6.84 1.62c-.44-.38-.89-.75-1.34-1.11l.24-7a2 2 0 0 0-2.9-1.94l-6.38 2.9-1.55-.83-1.13-6.91a2.06 2.06 0 0 0-3.23-1.34l-5.68 4.09c-.56-.18-1.12-.35-1.69-.51l-2.46-6.52a2.05 2.05 0 0 0-3.4-.68l-4.81 5.11-1.74-.17-3.7-6a2.05 2.05 0 0 0-3.49 0l-3.7 6-1.74.17-4.82-5.11a2.05 2.05 0 0 0-3.43.68l-2.45 6.56c-.57.16-1.13.33-1.69.51l-5.65-4.09a2 2 0 0 0-2-.23 2.07 2.07 0 0 0-1.25 1.57l-1.1 6.91-1.56.83-6.37-2.9a2 2 0 0 0-2 .16 2.06 2.06 0 0 0-.91 1.78l.25 7q-.69.54-1.35 1.11l-6.83-1.62a2.06 2.06 0 0 0-2.48 2.48l1.61 6.83c-.37.45-.74.89-1.1 1.35l-7-.25a2.06 2.06 0 0 0-1.78.91 2 2 0 0 0-.16 2l2.9 6.38c-.28.51-.56 1-.83 1.55l-6.93 1.14a2.06 2.06 0 0 0-1.34 3.23l4.09 5.68c-.18.57-.35 1.13-.51 1.7L2.66 55.7a2 2 0 0 0-1.3 1.52 2.1 2.1 0 0 0 .62 1.87l5.11 4.82c0 .58-.1 1.18-.15 1.74l-6 3.7a2.05 2.05 0 0 0 0 3.49l6 3.69c.05.56.15 1.16.15 1.74l-5.11 4.82a2.07 2.07 0 0 0-.62 1.9 2 2 0 0 0 1.3 1.52l6.56 2.46c.16.56.33 1.13.51 1.69l-4.09 5.65a2.06 2.06 0 0 0 1.34 3.23l6.91 1.12c.27.53.55 1 .83 1.56l-2.9 6.38a2 2 0 0 0 .16 2 2.05 2.05 0 0 0 1.78.91l7-.24 1.11 1.34-1.61 6.84a2.06 2.06 0 0 0 2.48 2.47l6.83-1.61c.44.37.89.74 1.35 1.1l-.25 7a2.06 2.06 0 0 0 .91 1.78 2 2 0 0 0 2 .16l6.37-2.9c.52.28 1 .56 1.56.83l1.12 6.91a2.07 2.07 0 0 0 1.25 1.57 2 2 0 0 0 2-.23l5.68-4.09c.57.18 1.13.35 1.7.51l2.45 6.56a2 2 0 0 0 1.52 1.29 2.06 2.06 0 0 0 1.91-.61l4.77-5.1 1.74.17 3.7 6a2.05 2.05 0 0 0 3.49 0l3.69-6 1.74-.17 4.82 5.11a2.05 2.05 0 0 0 3.42-.68l2.46-6.56c.56-.16 1.13-.33 1.69-.51l5.68 4.09a2.06 2.06 0 0 0 3.23-1.34l1.13-6.91 1.55-.83 6.38 2.9a2 2 0 0 0 2.9-1.94l-.24-7 1.34-1.1 6.84 1.61a2.06 2.06 0 0 0 2.47-2.47l-1.61-6.84c.37-.44.74-.89 1.1-1.34l7 .24a2 2 0 0 0 1.94-2.9l-2.9-6.38c.28-.52.56-1 .83-1.56l6.91-1.12a2 2 0 0 0 1.57-1.24 2.06 2.06 0 0 0-.23-2l-4.09-5.68c.18-.56.35-1.13.51-1.69l6.56-2.46a2.05 2.05 0 0 0 .68-3.42l-5.12-4.8c.06-.58.12-1.16.17-1.74l6-3.69a2.06 2.06 0 0 0 1-1.75 2 2 0 0 0-1-1.74zm-39.95 49.51a4.23 4.23 0 1 1 5-3.25 4.22 4.22 0 0 1-5 3.25zm-2-13.71a3.84 3.84 0 0 0-4.57 3l-2.12 9.89a52.18 52.18 0 0 1-43.35-.21l-2.13-9.93a3.84 3.84 0 0 0-4.57-3l-8.73 1.87a49.9 49.9 0 0 1-4.51-5.32h42.46c.48 0 .8-.08.8-.52v-15c0-.44-.32-.52-.8-.52H59.31v-9.52h13.44c1.23 0 6.56.35 8.27 7.17.53 2.09 1.7 8.91 2.5 11.09.8 2.45 4.06 7.34 7.52 7.34h21.17a4.24 4.24 0 0 0 .77-.07 52.87 52.87 0 0 1-4.82 5.65l-8.93-1.92zm-58.79 13.51a4.23 4.23 0 1 1 3.25-5 4.22 4.22 0 0 1-3.25 5zM24.36 53.31a4.22 4.22 0 1 1-5.57-2.15 4.24 4.24 0 0 1 5.57 2.15zM19.4 65.09l9.1-4a3.87 3.87 0 0 0 2-5.09l-1.92-4.31h7.37v33.2H21.09a52 52 0 0 1-2-14.26 54.14 54.14 0 0 1 .31-5.54zm39.92-3.23v-9.77h17.54c.91 0 6.4 1 6.4 5.15 0 3.41-4.21 4.63-7.68 4.63zm63.77 8.77c0 1.3 0 2.59-.14 3.86h-5.33c-.54 0-.75.35-.75.88v2.45c0 5.76-3.25 7-6.1 7.33s-5.72-1.13-6.09-2.79c-1.6-9-4.27-10.92-8.48-14.25 5.23-3.32 10.66-8.21 10.66-14.76 0-7.08-4.85-11.54-8.15-13.72a23.13 23.13 0 0 0-11.16-3.67H32.37a51.88 51.88 0 0 1 29.08-16.42l6.5 6.82a3.84 3.84 0 0 0 5.44.13l7.28-7a52 52 0 0 1 35.58 25.35l-5 11.24a3.86 3.86 0 0 0 2 5.09l9.59 4.26c.17 1.7.25 3.42.25 5.16zM67.95 13.74a4.23 4.23 0 1 1-.14 6 4.22 4.22 0 0 1 .14-6zm49.43 39.77a4.22 4.22 0 1 1 2.14 5.58 4.21 4.21 0 0 1-2.14-5.58z"/></svg>