<svg xmlns="http://www.w3.org/2000/svg" viewBox="0 0 278.24 277.81"><defs><style>.a{fill:#fed142;}.b{fill:#3571a3;}</style></defs><title>387</title><path class="a" d="M133.1 277.68c-33.84-1.23-54.78-11.26-60.11-28.8l-.62-2-.09-34.38c-.1-39.34-.06-40.14 2-46.4 3.82-11.44 12.86-18.81 27-22l3.13-.71 38.86-.17c27.85-.13 39.39-.26 40.72-.49 7.78-1.35 12.88-3.35 17.68-7 5.72-4.31 10.45-11.69 12.56-19.61 1.59-5.95 1.54-5.3 1.72-26.2l.15-19.45h28l2.71.76c14.57 4.06 25.14 17.86 29.64 38.67 1.73 8 1.75 8.3 1.75 28.72 0 19.87 0 20-1.39 26.56a68.79 68.79 0 0 1-5.82 17c-5.39 10.82-13.32 18.15-23.36 21.56-5.73 1.94-.93 1.78-57.34 1.94l-50.82.15v9.24l33.7.13 33.69.14.14 16.58c.08 9.11 0 17.36-.07 18.31a20.39 20.39 0 0 1-2.66 7.45 36.75 36.75 0 0 1-8.82 8.84c-9 6-22.85 9.67-41 10.89-6.11.41-14.78.53-21.33.29zm46.74-21.48a12.12 12.12 0 1 0-13.87-10 12.43 12.43 0 0 0 11.7 10.28 18.65 18.65 0 0 0 2.17-.26zM35.1 207.16a35.22 35.22 0 0 1-20.49-12.61C4.5 182.07-.59 161.28.1 135.15c.4-16.28 2.83-28.36 7.78-38.64 6.33-13.23 15.87-21.11 28.74-23.73 2.82-.57 3-.57 52.61-.55 27.39 0 50-.06 50.24-.15s.45-.76.45-4.77c0-2.52 0-4.62-.07-4.65s-15.23-.13-33.77-.21l-33.7-.17-.07-17.52c-.07-19.18-.09-19 1.55-22.48C79.56 10.07 96.33 2.64 123.2.45c1.94-.16 7.2-.36 11.69-.45 29.75-.58 51.58 4.86 63.05 15.72a40.79 40.79 0 0 1 3.68 4 34.46 34.46 0 0 1 4.66 9.41l.62 2.17v36.18c0 33.74 0 36.32-.49 38.73a44.64 44.64 0 0 1-3.2 9.83c-4.1 8.13-11.66 14-21.69 16.81-6.5 1.83-3.55 1.71-46.63 1.9-42.79.19-40.2.09-46.2 1.78-11.65 3.29-20.21 12.37-23.69 25.11-1.56 5.73-1.53 5.2-1.7 26.23l-.2 19.57h-13c-9.85 0-13.53 0-15-.32zm71.19-162.57a12.13 12.13 0 1 0-16.94-13.13 12.15 12.15 0 0 0 8.08 13.59 9.85 9.85 0 0 0 4.3.48 8.74 8.74 0 0 0 4.56-.94z"/><path class="b" d="M35.1 207.16a35.22 35.22 0 0 1-20.49-12.61C4.5 182.07-.59 161.28.1 135.15c.4-16.28 2.83-28.36 7.78-38.64 6.33-13.23 15.87-21.11 28.74-23.73 2.82-.57 3-.57 52.61-.55 27.39 0 50-.06 50.24-.15s.45-.76.45-4.77c0-2.52 0-4.62-.07-4.65s-15.23-.13-33.77-.21l-33.7-.17-.07-17.52c-.07-19.18-.09-19 1.55-22.48C79.56 10.07 96.33 2.64 123.2.45c1.94-.16 7.2-.36 11.69-.45 29.75-.58 51.58 4.86 63.05 15.72a40.79 40.79 0 0 1 3.68 4 34.46 34.46 0 0 1 4.66 9.41l.62 2.17v36.18c0 33.74 0 36.32-.49 38.73a44.64 44.64 0 0 1-3.2 9.83c-4.1 8.13-11.66 14-21.69 16.81-6.5 1.83-3.55 1.71-46.63 1.9-42.79.19-40.2.09-46.2 1.78-11.65 3.29-20.21 12.37-23.69 25.11-1.56 5.73-1.53 5.2-1.7 26.23l-.2 19.57h-13c-9.85 0-13.53 0-15-.32zm71.19-162.57a12.13 12.13 0 1 0-16.94-13.13 12.15 12.15 0 0 0 8.08 13.59 9.85 9.85 0 0 0 4.3.48 8.74 8.74 0 0 0 4.56-.94z"/></svg>