<svg xmlns="http://www.w3.org/2000/svg" viewBox="0 0 329.44 275.68"><defs><style>.a{fill:#d63a2e;}.b{fill:#f34336;}.c{fill:#d73a2e;}.d{fill:#f3584d;}</style></defs><title>rubby</title><path class="a" d="M0 82.08c5-3.87 9.05-8.77 13.44-13.27Q45.39 36.08 77.2 3.22c1.6-1.65 3-3.24 5.78-3.22 26.66.17 53.32.17 80 .22-1.22 1.36-2.37 2.77-3.65 4.06Q122.46 41.15 85.6 78c-1.29 1.28-2.42 2.71-3.63 4.08l-1 1-80.27.1-.4.19-.3-.29zM165 274.08c-1.61 3.09-2.33 1-3.15-.54l-1.07-1.38.05.09c.32-3-1.15-5.45-2.26-8q-14.72-34-29.43-68.09c-10.89-25.29-21.83-50.57-32.53-75.95C91.4 107.83 85.27 95.85 81 83.08h165c.21 1.57-.48 2.9-1.08 4.28q-16.21 37.4-32.4 74.82-21.37 49.55-42.52 99.17c-1.49 3.52-4.46 6.74-3.62 11.09v-.08c-1.18-.01-1.33.82-1.38 1.72z"/><path class="b" d="M166.39 272.44c-.84-4.35 2.13-7.57 3.62-11.09q21-49.68 42.48-99.17 16.14-37.44 32.4-74.82c.6-1.38 1.29-2.71 1.08-4.28h83.38c-10.76 12.69-21.45 25.44-32.3 38.06Q233 195.62 168.84 269.99c-.75.88-1.63 1.63-2.45 2.45zM81 83.08c4.26 12.77 10.39 24.75 15.61 37.12 10.7 25.38 21.64 50.66 32.53 75.95q14.67 34.07 29.43 68.09c1.11 2.58 2.58 5 2.26 8-12.24-14.27-24.55-28.48-36.72-42.82Q63.69 158.17 3.33 86.79c-1-1.12-1.73-2.4-2.59-3.61z"/><path class="c" d="M329.35 83.08H245c0-2.53-2.15-3.64-3.62-5.12Q209 45.5 176.52 13.08C172.3 8.85 168.2 4.51 164.04.22Q204.23.15 244.4.05a5.72 5.72 0 0 1 4.44 1.7q39.74 39.68 79.55 79.33c.55.5 1.32 1 .96 2z"/><path class="d" d="M164 .22c4.16 4.29 8.26 8.63 12.48 12.86q32.41 32.46 64.86 64.88c1.47 1.48 3.58 2.59 3.62 5.12H82v-1c1.21-1.37 2.34-2.8 3.63-4.08q36.84-36.87 73.71-73.72c1.28-1.29 2.43-2.7 3.65-4.06z"/><path class="b" d="M165 274.08c0-.92.19-1.75 1.4-1.74zM160.79 272.18l1.07 1.38zM82 82.08v1h-1z"/></svg>