<svg xmlns="http://www.w3.org/2000/svg" viewBox="0 0 2057.91 372.45"><defs><style>.a{fill:#231f20;}.b{fill:#fff;stroke:#010101;stroke-miterlimit:10;}.c{fill:#040303;}.d{fill:#030303;}.e{fill:#0e0c0c;}.f{fill:#fbdada;}</style></defs><title>miscreant</title><path class="a" d="M689.2,333V321q25.59,0,25.6-20V228.2q0-44.4-33.2-44.4-28.8,0-39.6,33.2v78q0,26,26,26v12H584V321q24.39,0,24.4-27.6V238.6q0-54.79-33.2-54.8-40,0-40,48.8v66.8q0,21.6,26,21.6v12h-82V321q22.4,0,22.4-20V199q0-12.39-27.2-12.4V176.2l57.6-14c1.06,1.07,1.6,3.74,1.6,8v24q6.39-12,20.8-22t34-10a48,48,0,0,1,15.4,2.8,67.55,67.55,0,0,1,15.2,7.4A54.68,54.68,0,0,1,631,183a31.1,31.1,0,0,1,6.6,12.8q7.59-15.2,23.4-24.4a64.68,64.68,0,0,1,33-9.2q24,0,38.4,15.2t14.4,42.8V301q0,20,26,20v12Z" transform="translate(-66.47 -52.79)"/><path class="a" d="M798.79,333V321q27.62,0,27.61-24.4V217q0-31.59-24.4-31.6V174.6l58-12.4v136q0,22.8,30.4,22.8v12ZM840.4,118.2q-21.21,0-21.2-24.4Q819.2,71,842,71q21.6,0,21.59,22.8Q863.59,118.2,840.4,118.2Z" transform="translate(-66.47 -52.79)"/><path class="a" d="M1018,215.4q-18.4-41.19-48.8-41.2a38.56,38.56,0,0,0-21.6,6q-9.21,6-9.2,20,0,8,7.4,13.64a90.33,90.33,0,0,0,18.4,10.43q11,4.8,23.8,9.61a145.8,145.8,0,0,1,23.8,11.44,68.75,68.75,0,0,1,18.4,15.83q7.39,9.23,7.4,22.86a51.51,51.51,0,0,1-4.4,21.65,48.14,48.14,0,0,1-12.2,16.44,64.46,64.46,0,0,1-18,11,89.77,89.77,0,0,1-21.4,5.81q-20,0-35.6-10.4-8.81,6.79-24,8.8a290.74,290.74,0,0,1-6.4-62.4h10.8a137.77,137.77,0,0,0,9.6,24.2,56.2,56.2,0,0,0,11.6,15.6A37,37,0,0,0,962,323a62.55,62.55,0,0,0,18,2.4q33.19,0,33.2-26a29.81,29.81,0,0,0-2.6-13,24,24,0,0,0-8-9.2,73.46,73.46,0,0,0-13.4-7.2q-8-3.39-18.8-7-8.4-2.79-18-7a93.28,93.28,0,0,1-17.8-10.2A54.88,54.88,0,0,1,921,231.6a33.74,33.74,0,0,1-5.4-19,60.35,60.35,0,0,1,3.2-20,42.94,42.94,0,0,1,9.8-16,44.61,44.61,0,0,1,17-10.6q10.39-3.8,24.8-3.8,17.19,0,33.6,9.6a45.43,45.43,0,0,1,15.6-8,201.91,201.91,0,0,1,7.2,51.6Z" transform="translate(-66.47 -52.79)"/><path class="a" d="M1204.79,299.4a52.47,52.47,0,0,1-11.6,18.6,68.72,68.72,0,0,1-17,12.8,80.78,80.78,0,0,1-19.8,7.4,89,89,0,0,1-20,2.4q-17.61,0-31.6-6.6a67.51,67.51,0,0,1-23.6-18.2,80.77,80.77,0,0,1-14.6-27.2,109.29,109.29,0,0,1-5-33.6,115.65,115.65,0,0,1,5.4-35.6,84.54,84.54,0,0,1,16.4-29.6,77.3,77.3,0,0,1,27.6-20.2q16.59-7.4,39-7.4a66.48,66.48,0,0,1,19,2.8,61.15,61.15,0,0,1,16.8,7.8,39.72,39.72,0,0,1,11.8,12.2,29.4,29.4,0,0,1,4.4,15.6q0,8-6.8,13.8a22.35,22.35,0,0,1-14.8,5.8Q1164,220.2,1164,202a47.07,47.07,0,0,1,.6-5.24,49.86,49.86,0,0,0,.6-7.27q0-8.06-7.4-11.7a34.59,34.59,0,0,0-15.4-3.63q-11.61,0-19.8,6.22a50,50,0,0,0-13.6,16,80.2,80.2,0,0,0-8,21.87,109.57,109.57,0,0,0-2.6,23.26,132,132,0,0,0,3.2,29.88,78.11,78.11,0,0,0,9.6,24.07,47.05,47.05,0,0,0,16.4,16q10,5.81,24,5.81,26.79,0,42.8-24Z" transform="translate(-66.47 -52.79)"/><path class="a" d="M1222.79,333V321q26,0,26-22.8v-84q0-28.8-27.6-28.8V174.6q15.19-3.19,30.71-6.2t30.49-6.2v38.4l2,1.6a41.71,41.71,0,0,1,5.37-12,72.29,72.29,0,0,1,10.34-13,66.75,66.75,0,0,1,13.74-10.6,31.16,31.16,0,0,1,15.91-4.4q30.24,0,30.24,27.6,0,22.8-18.4,22.8-16.41,0-16.4-14.8,0-6.39,1.2-9.6h-7.14q-11.88,0-19,7.6a51.16,51.16,0,0,0-10.91,18.4,106.46,106.46,0,0,0-5.15,22.6q-1.38,11.8-1.78,19.8v42.8q0,21.6,30.8,21.6v12Z" transform="translate(-66.47 -52.79)"/><path class="a" d="M1522,293.4q-10.41,22.41-28,34.8t-41.6,12.4q-20,0-35.2-6.8a72.75,72.75,0,0,1-25.4-18.4,77.34,77.34,0,0,1-15.4-27.6,109.2,109.2,0,0,1-5.2-34,105.57,105.57,0,0,1,5.6-34.4,96.45,96.45,0,0,1,15.8-29.2,77.33,77.33,0,0,1,24.6-20.4,67.55,67.55,0,0,1,32-7.6,105.28,105.28,0,0,1,22.6,2.6A59.12,59.12,0,0,1,1494,175q10.4,7.6,18,21.8t10,37.4a30.5,30.5,0,0,1-1.2,8.8h-106.4q-7.61,0-7.6,6a90.56,90.56,0,0,0,4,27.2,73.3,73.3,0,0,0,11.2,22.4,51.31,51.31,0,0,0,17.6,15,49.56,49.56,0,0,0,23.2,5.4q16.8,0,29-9.6a110.21,110.21,0,0,0,21.4-22.4Zm-54.4-62.4q16.4,0,16.4-16.8a48,48,0,0,0-10.2-26.6q-9-11.4-26.2-11.4a34.11,34.11,0,0,0-16.8,4.2,41.88,41.88,0,0,0-13,11.2,50.39,50.39,0,0,0-8.2,16,62.14,62.14,0,0,0-2.8,18.6q0,4.8,8.8,4.8Z" transform="translate(-66.47 -52.79)"/><path class="a" d="M1710.39,316.2q-6,21.21-32,21.2-22.8,0-28.8-26-28.8,26-61.2,26-21.21,0-31.2-9t-10-28.6q0-49.2,99.2-67.2V217q0-39.19-30.6-39.2-13.27,0-22.94,4.4t-9.66,16.8a9.63,9.63,0,0,1,3.6,5,20.9,20.9,0,0,1,1.2,7q0,15.21-18.4,15.2a16.52,16.52,0,0,1-11.6-4.4q-4.8-4.4-4.8-13.6a31.16,31.16,0,0,1,5.62-17.6,54.37,54.37,0,0,1,14.64-14.6,79.81,79.81,0,0,1,20.87-10,79,79,0,0,1,24.27-3.8q33.3,0,47.35,12.4t14,41.2v86.8q0,14.81,13.6,14.8A20.7,20.7,0,0,0,1706,313Zm-62.4-70a168.57,168.57,0,0,0-24.55,4.2,84,84,0,0,0-21.53,8.4,46.19,46.19,0,0,0-15.29,13.8q-5.83,8.4-5.83,20.8,0,26,25.35,26,11.27,0,18.71-3.4a33.19,33.19,0,0,0,12.07-9,44,44,0,0,0,7.24-12.4A73.48,73.48,0,0,0,1648,281Z" transform="translate(-66.47 -52.79)"/><path class="a" d="M1833.58,333V321q26,0,26-16.8V238.6q0-54.79-39.2-54.8-40,0-40,48.8v71.6q0,16.8,28.8,16.8v12h-84.8V321q22.41,0,22.4-18.4v-102q0-14-21.6-14h-5.6V176.2l57.6-14q1.6,1.61,1.6,8v24a65.6,65.6,0,0,1,8.2-11.8,50.22,50.22,0,0,1,12.4-10.2,72.35,72.35,0,0,1,17.4-7.2,85,85,0,0,1,22.8-2.8,53.64,53.64,0,0,1,16.4,3,57,57,0,0,1,17.6,9.6,53.51,53.51,0,0,1,14,17q5.61,10.41,5.6,25.2v88.4q0,15.6,26,15.6v12Z" transform="translate(-66.47 -52.79)"/><path class="a" d="M2052.78,292.2a117.47,117.47,0,0,1-6,19,47.16,47.16,0,0,1-9.6,14.8,40.31,40.31,0,0,1-15,9.6q-9,3.39-21.4,3.4-19.6,0-31-9.4t-11.4-30.2v-114h-26l1.6-12q18.39-3.6,29.6-21a118.86,118.86,0,0,0,16-40.2l12.4-1.6v59.2h31.6a54.22,54.22,0,0,0,10.2-.88c3.06-.58,5.8-1.22,8.2-1.92v18.4h-50V290.6c0,3.2.13,6.34.4,9.4a26.13,26.13,0,0,0,2.2,8.6,14.09,14.09,0,0,0,5.8,6.4q4,2.4,11.2,2.4a30.84,30.84,0,0,0,20.8-8,33.21,33.21,0,0,0,11.2-20.4Z" transform="translate(-66.47 -52.79)"/><path class="a" d="M2098.78,339q-27.21,0-27.2-26t27.2-26q25.59,0,25.6,26T2098.78,339Z" transform="translate(-66.47 -52.79)"/><ellipse class="b" cx="266.24" cy="83.89" rx="78.2" ry="79.45"/><path class="c" d="M367.52,250.33c-.08,11.75-4.17,22-11.17,31.27a103.77,103.77,0,0,1-13.28,14.28c-5.21,4.71-10.5,9.34-15.76,14-4,3.54-7.79,7.35-12,10.58-5.75,4.39-10.74,9.6-16.12,14.37a3.09,3.09,0,0,0-.87,1.8q-1.94,14.34-3.79,28.68c-.05.35-.06.7-.09,1.05a64.47,64.47,0,0,1-5.74,22.42c-5.32,11.69-14,20.23-25.22,26.31A82.57,82.57,0,0,1,238,423.62a108.57,108.57,0,0,1-15.56,1.6,66.64,66.64,0,0,1-20.21-3,60.93,60.93,0,0,1-21.72-11,55.5,55.5,0,0,1-19.4-30.81,85.93,85.93,0,0,1-2.24-15.31c-.43-7.25-.92-14.49-1.38-21.73-.29-4.43-.31-4.5-3.75-7.26a17.58,17.58,0,0,0-3.08-2.27c-3.57-1.74-6.32-4.47-9.15-7.13-7.29-6.84-14.63-13.62-21.87-20.52A313.4,313.4,0,0,1,95,280.36a66.91,66.91,0,0,1-10.49-18.17c-3-7.36-5.7-14.82-8.59-22.22a1.1,1.1,0,0,1,.49-1.58c.54-.34,1.06-.71,1.59-1.07a8.21,8.21,0,0,1,7.37-1.19q12.9,3.81,25.94,7.14c6.62,1.68,13.31,3.08,20,4.49,6.18,1.3,12.38,2.54,18.59,3.64,5.14.91,10.3,1.66,15.47,2.33,8.41,1.1,16.88,1.43,25.35,1.84,19.06.91,38.12.72,57.18.52q9.32-.1,18.63-.71,8.85-.56,17.67-1.62c7.65-.94,15.32-1.88,22.89-3.31,8.41-1.58,16.75-3.62,25.08-5.62,9.4-2.26,18.75-4.7,28.12-7.05a5.4,5.4,0,0,1,6.45,4.24C367.08,244.77,367.25,247.56,367.52,250.33ZM225.19,314.55l-.29,0c-.21-2.12-.43-4.23-.61-6.35a51.39,51.39,0,0,0-2.53-13.12,25.36,25.36,0,0,0-1.52-3.31,2.11,2.11,0,0,0-1.84-1.12c-3.69-.33-7.37-.79-11.07-1.11-5.71-.49-11.43-1-17.15-1.32-4.24-.24-8.48-.27-12.72-.25-2,0-4,0-5.73,1.09a19.69,19.69,0,0,0-6.88,6.54,8,8,0,0,0-1.26,3.54c-.3,6.61-.54,13.24-.59,19.86-.11,13.42.33,26.83,1.56,40.21a113.54,113.54,0,0,0,2.15,15.14c1.41,6.12,3.66,11.86,7.91,16.63,2.47,2.78,4.87,5.64,7.55,8.19,13.3,12.66,29.09,18.36,47.46,16.86a81.81,81.81,0,0,0,19.16-4,75.42,75.42,0,0,0,20-9.57c7.43-5.25,12.55-12.06,14.64-21.08,1.61-6.95,3-13.94,4-21,.88-6,1.92-12,2.05-18.13.25-11.79.81-23.58.6-35.38a49.81,49.81,0,0,0-.26-5.74,34.82,34.82,0,0,0-1.35-6.27,9.43,9.43,0,0,0-6.84-6.35,27.65,27.65,0,0,0-8.44-.9c-2.08.09-4.16.3-6.22.56-5.17.63-10.32,1.46-15.5,1.93-3.28.3-6.61.12-9.92.1-1.68,0-3.36-.29-5-.17a8.28,8.28,0,0,0-7.61,5.44,19.06,19.06,0,0,0-1.14,3.82C226.86,304.37,226,309.46,225.19,314.55Z" transform="translate(-66.47 -52.79)"/><path class="d" d="M129.47,131.12a105.72,105.72,0,0,1,44.18,10.35,191.91,191.91,0,0,1,18.14,9.92,6.44,6.44,0,0,1,2.79,3.43,24,24,0,0,1,1.26,9.09,19.45,19.45,0,0,1-1.28,7.15c-1.41,3.35-3.65,5.77-7.4,6.42a11.7,11.7,0,0,1-6.63-1A68.29,68.29,0,0,0,162.92,172c-6.09-.82-12.15-1.77-18.22-2.65-2.64-.38-5.27-.79-7.92-1.09a20.23,20.23,0,0,0-3.65,0q-6.15.47-12.3,1-8.56.78-17.13,1.63a64.39,64.39,0,0,0-8.11,1,87.84,87.84,0,0,0-8.74,2.79,27,27,0,0,1-9.84,1.9,6.24,6.24,0,0,1-5.24-2.54,43.56,43.56,0,0,1-4.33-6.51,9.68,9.68,0,0,1-.72-6.44,20.46,20.46,0,0,1,8.63-12.82,63.83,63.83,0,0,1,10.35-5.68c5.66-2.64,11.25-5.45,17.24-7.33A82,82,0,0,1,122,131.58C124.49,131.41,127,131.27,129.47,131.12Z" transform="translate(-66.47 -52.79)"/><path class="e" d="M334.76,217.88c-22.15,0-39.44-6.17-54.25-18.91a85.9,85.9,0,0,1-25.92-39.55,76.76,76.76,0,0,1-3.76-21.71A69.73,69.73,0,0,1,256.11,110a95.62,95.62,0,0,1,23.14-34A85.21,85.21,0,0,1,310.6,56.48a65.68,65.68,0,0,1,16.28-3.42c21.93-1.73,41.21,4.88,58.12,18.63a74.33,74.33,0,0,1,22.58,30.46A61.47,61.47,0,0,1,412,127a113.82,113.82,0,0,1-8.73,41.83A86.44,86.44,0,0,1,381,200.29a66.54,66.54,0,0,1-31.6,16A78.77,78.77,0,0,1,334.76,217.88Zm-2.82-6.5c3.13-.18,6.26-.29,9.39-.54a60.29,60.29,0,0,0,16.37-3.76c13.64-5.08,24.29-14,32.26-26a92.13,92.13,0,0,0,15.39-59,64.16,64.16,0,0,0-9.27-28.91c-7.8-12.88-18.8-22.11-32.51-28.19a68.06,68.06,0,0,0-23.83-5.86,64.08,64.08,0,0,0-26.59,4.35,97.2,97.2,0,0,0-43,32.08,66.23,66.23,0,0,0-12.07,23.75,10.86,10.86,0,0,0-.33,1.7c-.33,4-.61,8-1,12a49.2,49.2,0,0,0,.51,11.82,77.32,77.32,0,0,0,7.1,22.48c7.37,15.13,18.07,27.22,32.86,35.47A67.15,67.15,0,0,0,331.94,211.38Z" transform="translate(-66.47 -52.79)"/><path class="f" d="M225.19,314.55c.85-5.09,1.67-10.18,2.57-15.26a19.06,19.06,0,0,1,1.14-3.82,8.28,8.28,0,0,1,7.61-5.44c1.67-.12,3.35.16,5,.17,3.31,0,6.64.2,9.92-.1,5.18-.47,10.33-1.3,15.5-1.93,2.06-.26,4.14-.47,6.22-.56a27.65,27.65,0,0,1,8.44.9,9.43,9.43,0,0,1,6.84,6.35,34.82,34.82,0,0,1,1.35,6.27,49.81,49.81,0,0,1,.26,5.74c.21,11.8-.35,23.59-.6,35.38-.13,6.13-1.17,12.11-2.05,18.13-1,7.06-2.39,14.05-4,21-2.09,9-7.21,15.83-14.64,21.08a75.42,75.42,0,0,1-20,9.57,81.81,81.81,0,0,1-19.16,4c-18.37,1.5-34.16-4.2-47.46-16.86-2.68-2.55-5.08-5.41-7.55-8.19-4.25-4.77-6.5-10.51-7.91-16.63a113.54,113.54,0,0,1-2.15-15.14c-1.23-13.38-1.67-26.79-1.56-40.21.05-6.62.29-13.25.59-19.86a8,8,0,0,1,1.26-3.54,19.69,19.69,0,0,1,6.88-6.54c1.78-1.07,3.78-1.09,5.73-1.09,4.24,0,8.48,0,12.72.25,5.72.32,11.44.83,17.15,1.32,3.7.32,7.38.78,11.07,1.11a2.11,2.11,0,0,1,1.84,1.12,25.36,25.36,0,0,1,1.52,3.31,51.39,51.39,0,0,1,2.53,13.12c.18,2.12.4,4.23.61,6.35Z" transform="translate(-66.47 -52.79)"/><path class="c" d="M332.25,109.5c10.28.27,18,3.78,23.33,11.63,9.79,14.45,2.1,34.58-14.83,39.05-13.28,3.5-26.92-3.08-31.9-15.56a25.37,25.37,0,0,1,17.78-34.28A52.55,52.55,0,0,1,332.25,109.5Z" transform="translate(-66.47 -52.79)"/></svg>