<svg xmlns="http://www.w3.org/2000/svg" viewBox="0 0 544.8 538.8">
  <defs>
    <style>
      .a{fill:#fff}
    </style>
  </defs>
  <path class="a" d="M544.8 538.8H0V0h544.8zm-212-207a1 1 0 0 0 .7-1 1 1 0 0 0 .7-1c0 .3.3.6.2.8l-1.5 6a1.4 1.4 0 0 1-.5.6 5 5 0 0 1-.8.5c.2.5.7.2 1 .3a14.3 14.3 0 0 0 1.8 0c.2 0 .5 0 .6-.3-.9-.8-.9-.8-.7-1.6l1.5-6c.2-.8.6-1.2 1.4-1.3v-.2a1 1 0 0 0-.2-.2 5.7 5.7 0 0 0-.8 0c-1.4 0-1.5 0-2 1.5a1 1 0 0 0-.7 1 1 1 0 0 0-.7 1 1.2 1.2 0 0 0-.7 1 2.3 2.3 0 0 0-1 1.6 1 1 0 0 0-.6 1c-.8.2-.9.2-1-.4-.2-1.6-.5-3.3-.6-5-.3-2-.4-2-2.4-1.8h-.2l-.3.3a2.4 2.4 0 0 0 .2.2c.7.3.8.3.6.9l-1.4 5.8c-.2 1-.5 1.7-1.5 1.9a.3.3 0 0 0-.1.2.3.3 0 0 0 .2.2h2.3s.2 0 .2-.2a.3.3 0 0 0-.1-.2c-.7-.3-.7-.9-.5-1.4l1.4-5.5.3-.2.1.6.9 5.8c0 .4 0 1 .5 1 .2 0 .5-.4.6-.7l.8-1.5a1 1 0 0 0 .6-1 2 2 0 0 0 1-1.7 1 1 0 0 0 .8-1zm0-14.8a1 1 0 0 0 .7-1 1 1 0 0 0 .7-1c0 .3.3.6.2.8l-1.5 6a1.4 1.4 0 0 1-.5.6 6 6 0 0 1-.8.5c.2.5.7.2 1 .2h1.8c.2 0 .5.1.6-.2-.9-.8-.9-.8-.7-1.7l1.5-5.9c.2-.8.6-1.3 1.4-1.3v-.3l-.2-.2a5.7 5.7 0 0 0-.8 0c-1.4 0-1.5 0-2 1.5a1 1 0 0 0-.7 1 1 1 0 0 0-.7 1 1.1 1.1 0 0 0-.7 1 2.3 2.3 0 0 0-1 1.7 1 1 0 0 0-.6 1c-.8.2-.9.2-1-.4-.2-1.7-.5-3.3-.6-5-.3-2-.4-2-2.4-1.8a.3.3 0 0 0-.2 0l-.3.2a1.6 1.6 0 0 0 .2.2c.7.4.8.4.6 1l-1.4 5.8c-.2.9-.5 1.6-1.5 1.8l-.1.3.2.2h2.3l.2-.2a.3.3 0 0 0-.1-.3c-.7-.2-.7-.8-.5-1.4l1.4-5.5s.2 0 .3-.2l.1.7.9 5.8c0 .3 0 .9.5 1 .2 0 .5-.5.6-.7a15.7 15.7 0 0 0 .8-1.5 1 1 0 0 0 .6-1 2 2 0 0 0 1-1.7 1 1 0 0 0 .8-1zm-73.3-2.6h.1c.4 0 .8-.5 1.2 0s.2.9.1 1.3l-.2.5-.3 1a.9.9 0 0 0 1.1 1 1.5 1.5 0 0 0 1.2-1v-.2h-.3l-.5.6c-.2.2-.3.1-.3.1l-.2-.4.5-2c.3-1.2-.7-1.7-1.7-1.4a3 3 0 0 0-.8.5l-.9-.4a1 1 0 0 0-1.3.3 1.8 1.8 0 0 0-.3.6l.1.3a1 1 0 0 0 .3-.1l.5-.6c.5.2.2.6.2.9l-.2 1a8.4 8.4 0 0 0-.3 1.3l.3.5.5-.4a7.5 7.5 0 0 0 .3-1zm124.3-216c.3 0 .6 0 .6.5l-.5 2.3a4.5 4.5 0 0 0 0 .8l.2.2h.3a1.7 1.7 0 0 0 .4-.6l.4-1.7a2.3 2.3 0 0 1 1-1.4 1.2 1.2 0 0 1 .9 0c.3 0 .3.4.3.6l-.2 1-.3 1.5a.8.8 0 0 0 .2.6c.1.1.5-.1.6-.4l.4-1.6a2.7 2.7 0 0 1 .9-1.5c.3-.3 1-.5 1.2-.2a1.8 1.8 0 0 1 .1 1 3.5 3.5 0 0 1-.2.7 8.2 8.2 0 0 0-.3 1 1 1 0 0 0 1.3 1c.2 0 .3-.2.5-.4a3 3 0 0 0 .4-.5v-.4l-.3.2a5.7 5.7 0 0 0-.3.6c-.3 0-.7.1-.6-.4l.4-1.6c.3-1.4-.3-2-1.7-1.7a2.9 2.9 0 0 0-.6.2.7.7 0 0 1-.8 0 2 2 0 0 0-2-.1 1.5 1.5 0 0 1-1.2 0 .9.9 0 0 0-1.2.3l-.4.6v.2l.3-.1a5 5 0 0 0 .3-.6zm-31.1 224.3c-.8 0-1-.2-.8-.8l.5-1.5a11 11 0 0 0 .4-2 1.4 1.4 0 0 0-1.2-1.6 2.1 2.1 0 0 0-1.8.4c-.5.3-.8.5-1.4 0a1.8 1.8 0 0 0-2.5 0c-.3.2-.6.5-1.1 0-.7-.6-1.3-.5-1.7-.1a2.4 2.4 0 0 0-.7 2l.7-1a3.5 3.5 0 0 1 .3-.6.4.4 0 0 1 .3 0l.3.2a7.3 7.3 0 0 1-.1 1.3l-.7 3a3.2 3.2 0 0 0-.2.8l.3.3a.8.8 0 0 0 .6-.2 1.4 1.4 0 0 0 .3-.6 21.7 21.7 0 0 0 .5-2 5.2 5.2 0 0 1 1.4-2.9h.5c1-.1 1.4.2 1.2 1.2l-.6 2.8a7.3 7.3 0 0 0-.2 1.3.6.6 0 0 0 .3.4.6.6 0 0 0 .5-.2 3.4 3.4 0 0 0 .3-1l.8-2.7a2.4 2.4 0 0 1 1.8-1.8c.6-.2 1.1.2 1 .8a15.5 15.5 0 0 1-.5 2.2l-.4 1.6a1.2 1.2 0 0 0 2 .8c.9-.8.9-.8.7-1.7zm0 14.8c-.8 0-1-.1-.8-.7l.5-1.6a11.2 11.2 0 0 0 .4-2 1.4 1.4 0 0 0-1.2-1.6 2.2 2.2 0 0 0-1.8.4c-.5.3-.8.5-1.4 0a1.8 1.8 0 0 0-2.5 0c-.3.2-.6.5-1.1 0-.7-.5-1.3-.5-1.7 0a2.4 2.4 0 0 0-.7 2l.7-1a3.4 3.4 0 0 1 .3-.6.4.4 0 0 1 .3 0l.3.1a7.2 7.2 0 0 1-.1 1.3l-.7 3a3.3 3.3 0 0 0-.2.8l.3.4a.8.8 0 0 0 .6-.2 1.5 1.5 0 0 0 .3-.6l.5-2.1a5.1 5.1 0 0 1 1.4-2.8 4.3 4.3 0 0 1 .5-.1c1 0 1.4.2 1.2 1.2l-.6 2.8a7.6 7.6 0 0 0-.2 1.3.6.6 0 0 0 .3.5.6.6 0 0 0 .5-.3 3.3 3.3 0 0 0 .3-1l.8-2.7a2.4 2.4 0 0 1 1.8-1.8c.6-.2 1.1.2 1 .9a15.8 15.8 0 0 1-.5 2l-.4 1.7a1.1 1.1 0 0 0 1 1.3 1 1 0 0 0 1-.4c.9-.9 1-.9.7-1.7l-.8 1.5zM377 129h-.7a2.2 2.2 0 0 0-2.9-.4l-.6.4-.6-.5a1.1 1.1 0 0 0-1.4 0 1.6 1.6 0 0 0-.6 1.8l.8-1.3h.3l.2.1a3.6 3.6 0 0 1 0 1l-.8 3.1a3.7 3.7 0 0 0 0 1 .5.5 0 0 0 .2.4.5.5 0 0 0 .5-.1 2.3 2.3 0 0 0 .4-.8l.6-2.7a2.8 2.8 0 0 1 1.5-2 1.7 1.7 0 0 1 1.1 0c.5 0 .4.5.4 1l-.6 2.5c0 .6-.2 1.1-.3 1.7 0 .1.1.3.3.3a.8.8 0 0 0 .5 0 1.3 1.3 0 0 0 .3-.7l.5-2.1a7.2 7.2 0 0 1 1-2.5 8.3 8.3 0 0 1 1.1-.4c.8-.2 1.3.2 1.1 1l-.6 2.3a8.4 8.4 0 0 0-.3 1.4 1 1 0 0 0 1.3 1.1 2 2 0 0 0 1-.5 1.4 1.4 0 0 0 .5-1.5.7.7 0 0 0-.4.4 2.9 2.9 0 0 1-.4.7 1 1 0 0 1-.7.3c-.3 0-.3-.4-.2-.6a7.3 7.3 0 0 1 .2-.8l.6-2a1.8 1.8 0 0 0-.3-2 2 2 0 0 0-2.4-.1 3.5 3.5 0 0 0-.7.5zm-.4 71.5h-.2c-.2.1-.5.4-.7.1a1 1 0 0 1 0-.8c0-.5.3-1 .5-1.5a11.8 11.8 0 0 0 .4-1.7 1.6 1.6 0 0 0-1.6-1.8 3.5 3.5 0 0 0-2.1.8c-1.5-1-1.8-1-3.4-.3a.8.8 0 0 1-1-.1c-1-.7-1.7-.5-2.2.7a2.5 2.5 0 0 0-.1.6v.3c0 .1.3 0 .4 0l.5-1.3a.5.5 0 0 1 .4-.1.5.5 0 0 1 .3.4 6.4 6.4 0 0 1-.2 1.1l-.8 3.5c0 .4.2.8.4.7a1.2 1.2 0 0 0 .6-.5 4.7 4.7 0 0 0 .3-1l.6-2.4a2.8 2.8 0 0 1 1.6-1.9c.7-.3 1.4 0 1.3.9l-.5 2.4-.4 2a.6.6 0 0 0 .3.5.6.6 0 0 0 .6-.3 8 8 0 0 0 .4-1.2l.6-2.5a2.7 2.7 0 0 1 1.6-1.8.9.9 0 0 1 1.3 1 4.4 4.4 0 0 1-.1.8l-.6 1.8a5.2 5.2 0 0 0-.3 1.1 1.1 1.1 0 0 0 1.5 1.2c.3 0 .5-.4.8-.6a1.7 1.7 0 0 0 .7-1.2l-.1-.3-.3.2-.5 1.2zm81.5 69.8a3.2 3.2 0 0 0-.3.5c-.3 1-.3 1.1-1.3 1.1H350.6a.9.9 0 0 1-.5-.3 2 2 0 0 1-.2-.7 6.5 6.5 0 0 0-5-5h-.2a.7.7 0 0 1-.6-1 5.2 5.2 0 0 1 .3-1.2c.2-.8.6-1.5.9-2.2.2-.5 0-.7-.5-.8s-.8-.4-.7-1v-1V185c0-2-.1-2 2-2h15.4c.9 0 1-.1 1-1V146.8c0-1.5 0-1.5-1.5-1.5h-16.5a.5.5 0 0 1-.5-.7 5.9 5.9 0 0 1 .3-1.3l1-2.1c.1-.5 0-.8-.5-.9s-.8-.4-.8-1v-33.5-1c0-1 0-1 .9-1.2a7 7 0 0 0 2.5-1.1 6.7 6.7 0 0 0 2.5-3.9c.3-1 .6-1.2 1.6-.9l2 .8 1.2.5a.4.4 0 0 0 .7-.3v-.3c.2-.8.2-.8.9-.8h13.3a12.8 12.8 0 0 0 1.5-.2s.2-.1.1-.2l-.1-.3a10.6 10.6 0 0 0-1.5-.1h-13.5a.6.6 0 0 1-.7-.6 1.8 1.8 0 0 0 0-.3c-.2-.6-.3-.7-.8-.5l-2.8 1.1c-1.5.6-1.7.4-2-1a6.5 6.5 0 0 0-4.4-4.7l-.7-.2c-.5-.2-.7-.4-.6-1a6.7 6.7 0 0 1 .4-1.5l.8-2c.1-.2.1-.6-.2-.6-1 0-1-.7-1-1.4v-1-34c0-2.7-.3-2.5 2.4-2.5h34.9c1 0 1.1-.1 1.2-1.1v-.9V29v-1.2c0-.6-.2-.8-.8-.9h-71.7c-1.8 0-1.8 0-1.8 2v17a.7.7 0 0 0 .6.7h33.6a.6.6 0 0 1 .6.7V83.8a3 3 0 0 1-.1 1.3c-.2.2-.7.2-1.1.3a.4.4 0 0 0-.3.5l.3 1 1 2.4c.3.8.2 1-.6 1.3h-.5a6.6 6.6 0 0 0 0 13h.5c.7.2.8.4.8 1v34a5.7 5.7 0 0 1 0 1.1.8.8 0 0 1-.4.5 2.8 2.8 0 0 1-.7 0c-.4.2-.6.4-.4.8l1 2.6c.6 1.5.5 1.6-1 1.6h-15c-2 0-2 0-2 2V181c0 2 0 2 2.1 2H341c2.2 0 2.2-.1 2.2 2.1v74.8a.6.6 0 0 1-.7.6h-.3c-.6.2-.7.3-.5 1l1 2.3a9.1 9.1 0 0 1 .4 1.1.6.6 0 0 1-.5.8l-1 .2a6.6 6.6 0 0 0-4.4 4 4.6 4.6 0 0 0-.2.9c-.2.8-.4 1-1.3.7l-2.2-1c-.7-.3-.8-.2-1 .6s-.2.8-1 .8h-27.2a3 3 0 0 0-.7.1l-.1.2s0 .4.2.4a13.4 13.4 0 0 0 1.6.1h26.2c.7 0 .7 0 1 .9 0 .2 0 .4.2.7 1-.5 1.9-.9 2.9-1.2s1-.3 1.3.7l.2.5a6.7 6.7 0 0 0 6.3 4.7 6.6 6.6 0 0 0 6.3-4.7c.5-1.7.4-1.5 2-1.5h104.4c1.4 0 1.4 0 2 1.5l1.3-.6 2.4-.8c.8-.2 1.1-.1 1.4.7v.5a6.7 6.7 0 0 0 4.8 4.6c1.2.4 1.2.4 1.3 1.6v34.2c0 .7-.1.7-.9 1s-.7.3-.4.9l.8 2a4.2 4.2 0 0 1 .3 1.1.7.7 0 0 1-.4.5 4 4 0 0 1-.7.3 6.5 6.5 0 0 0-4.7 4.8c-.3 1.1-.5 1.3-1.7 1a9.6 9.6 0 0 1-1.3-.4l-1.8-.8c-.3-.1-.5 0-.7.3-.3 1-.3 1-1.3 1.1h-44.1c-.7 0-1 .2-1 .5s.6.4 1 .4h44.4a.9.9 0 0 1 1 .8c.1.6.3.7.8.4l2.5-1c1.4-.4 1.7-.3 2.1 1.1a6.6 6.6 0 0 0 4.6 4.6l.8.2a.6.6 0 0 1 .5.6v34.4c0 1.3 0 1.3-1.3 1.8v.2l1 2.9c.5 1.4.4 1.6-1 1.6H453c-2.5 0-2.3 0-2.3 2.3v33.5c0 2.2-.1 2.2 2.1 2.2h15.5c.7 0 .9.2 1 1V436a8.7 8.7 0 0 1-.1 1 .6.6 0 0 1-.6.6h-.5a.4.4 0 0 0-.3.7l1 2.3a6.7 6.7 0 0 1 .3 1.5.6.6 0 0 1-.3.4 13.5 13.5 0 0 1-1.7.1h-30.7c-2.2 0-2 0-2.1 2.2v5.8c0 .7-.3.9-.8.7l-3-1.2c-.7-.3-.8 0-1 .5 0 .8-.1.8-.7.9h-9.6a9.3 9.3 0 0 0-1.5.1l-.2.3.1.3a9.3 9.3 0 0 0 1.5.1h9.8c.4 0 .6.3.7.7.3.8.3.8 1.1.5l1.6-.7a10 10 0 0 1 1.2-.4.5.5 0 0 1 .8.5v5.9c0 2.3-.2 2.3 2.3 2.3h31.8c.6 0 .7.2.7.7a7.9 7.9 0 0 1 0 .8v23.5c0 1.2 0 1.2-1.3 1.6l-.2.2.6 1.4a21.7 21.7 0 0 1 .8 2.2c.3 1.3.1 1.6-1.2 1.6h-16c-1.6 0-1.7 0-1.7 1.7v16.4c0 1.6 0 1.7 1.7 1.7h34.6c2 0 2 0 2-2v-15.7-.5c0-1.4-.2-1.5-1.6-1.6h-16c-.5 0-.8-.3-.7-.9a5.4 5.4 0 0 1 .2-1l1-2.5.3-.9-.2-.1c-1.3-.3-1.3-.3-1.3-1.6v-.9-21.7c0-2.7-.3-2.5 2.4-2.5h31.1c.6 0 .9-.2 1-1v-15.3-.8c-.1-1-.2-1.2-1.2-1.2h-32.5c-.7 0-1-.3-.7-1l1-2.5.3-.6c.2-.6.1-.7-.4-.9-1-.2-1-.2-1-1.1v-22c0-2 0-1.9 2-1.9h14.4c2.2 0 2 0 2-2.1v-33.2c0-2.8.4-2.7-2.6-2.7h-14a10.8 10.8 0 0 1-1.5 0 .5.5 0 0 1-.2-.4 2.5 2.5 0 0 1 .1-.8l1.2-3c.1-.4 0-.6-.4-.6s-.7-.1-.9-.3-.1-.7-.2-1a5.2 5.2 0 0 1 0-.7v-32.8a3.2 3.2 0 0 1 .3-1.6c.2-.4.8-.4 1.3-.6a6.6 6.6 0 0 0 0-12.6l-1.5-.5a6.5 6.5 0 0 1 .6-1.8l.7-1.8c.3-.6.2-.7-.4-.8-1-.3-1-.3-1-1v-.7-33.2c0-1.2-.2-1.6 1.5-2a6.4 6.4 0 0 0 4.7-6.4 6.6 6.6 0 0 0-4.8-6.3l-.5-.1c-.9-.3-1-.5-.7-1.4l.8-2 .5-1c.2-.3 0-.7-.4-.8s-.7 0-.9-.3-.1-.6-.2-1V111.4c0-2.3-.2-2.2 2.2-2.2h16.5c1.9 0 1.9 0 1.9-2V91.7c0-2.2.1-2.2-2.3-2.2h-17.6c-.6 0-.7-.3-.6-.7l.9-2.3c.2-.6.6-1 .5-1.6-1.5-.4-1.5-.4-1.5-2V48.5 47a.6.6 0 0 1 .7-.6h18c1.8 0 1.8 0 1.8-1.7V28.6c0-1.9 0-1.9-1.9-1.9h-38c-2 0-2 0-2 2v15.7c0 2.2 0 2.1 2.1 2.1h17.6c.6 0 .8.2.8 1v35.3c0 1.4 0 1.4-1.3 1.8l-.1.2.5 1.4.6 1.4c.5 1.6.3 1.8-1.2 1.7h-17c-2 0-2 0-2 2V107c0 2.2-.1 2.2 2 2.2H467c2.2 0 2.1-.2 2.1 2v148.6a.6.6 0 0 1-.5.6h-.1c-1 .3-1 .3-.6 1.1l.8 1.7a10.5 10.5 0 0 1 .4 1.5.7.7 0 0 1-.5.9l-.7.2a6.5 6.5 0 0 0-4.7 4.8c-.3 1.3-.5 1.4-1.9 1l-2-.9zm-247.4 4l1.4-.6 2.4-.9c.5-.2 1.2.2 1.7-.4-.4-.9-1.2-.3-1.8-.6a17.1 17.1 0 0 0-2-.8l-1-.5c-.6-.2-.7-.1-.9.4-.3 1-.3 1-1.2 1h-25.6a.8.8 0 0 1-.8-.6l-.3-.8a6.7 6.7 0 0 0-4.5-4.6l-.8-.2a.5.5 0 0 1-.4-.6 7 7 0 0 1 .3-1.2l1-2.3c.2-.5.1-.7-.5-.8-.9-.3-1-.3-1-1v-74.8c0-2 0-2 2-2h15.7c.7 0 .8-.2.9-1v-34.5-1c0-1.1-.1-1.2-1.2-1.2H178c-1 0-1.2-.3-.9-1.3l.7-1.9.5-1c.2-.4 0-.7-.4-.8-1-.3-1-.3-1.1-1.3v-33.5a5 5 0 0 1 0-1.2 1 1 0 0 1 .6-.6 3.6 3.6 0 0 1 .8-.2 6.6 6.6 0 0 0 4.6-4.5l.3-1a.6.6 0 0 1 .7-.5l2.4.8 1.7.8c.5-1.6.5-1.6 2.1-1.6h12.5a10.6 10.6 0 0 0 1.5-.2l.1-.2-.1-.3a10.7 10.7 0 0 0-1.5-.1h-12.7c-1.4 0-1.4 0-1.7-1.3l-.2-.3-1 .4-2.7 1c-.9.3-1 0-1.2-.6a3.6 3.6 0 0 0-.2-.7 6.6 6.6 0 0 0-4.7-4.6l-.8-.2a.5.5 0 0 1-.4-.7 10 10 0 0 1 .4-1.2l1-2.4c.1-.5 0-.6-.5-.8-1-.3-1-.3-1-1V48.5v-1.2c0-.6.2-.8.8-.8H213.4c2 0 2 0 2-2V28.8a10.2 10.2 0 0 0-.1-1.3.8.8 0 0 0-.8-.8H143c-2 0-2 0-2 2v15.1c0 2.9-.2 2.7 2.7 2.7H175c.6 0 .8.2.8.8V84.2c0 .8 0 .8-.8 1-.6.2-.7.4-.4.9l1 2.5c.5 1.4.4 1.6-1 2a6.6 6.6 0 0 0-4.9 6.3 6.5 6.5 0 0 0 4.8 6.4c1.4.4 1.3.6 1.3 1.9V139.5a.5.5 0 0 1-.4.6 3.3 3.3 0 0 0-.4 0c-.5.2-.6.4-.4.8l1 2.4c.7 2 0 1.8-1.3 1.8h-15c-2 0-2 0-2 2v33.8c0 2 0 2 2 2h13.9c3.1 0 2.7-.3 2.7 2.6v73.6c0 1.2 0 1.2-1.3 1.7l-.1.2 1.1 2.9c.5 1.3.4 1.4-1 1.8a6.3 6.3 0 0 0-4.6 4.6c-.5 1.9-.8 1.4-2.1 1l-2-.8-1-.3c-.5 1.6-.5 1.6-2.2 1.6H69.2c-2.3 0-2.1.2-2.1-2.1V185c0-2.2-.2-2 2-2h14.6c1.9 0 1.9 0 1.9-2v-34c0-2 0-1.8-2-1.8H68.3c-1.3 0-1.4-.2-1-1.5l1.2-2.8c.2-.4 0-.6-.4-.7s-.7-.1-.9-.3 0-.6-.1-1V105.7v-1.3a.8.8 0 0 1 .6-.8l.7-.2a6.6 6.6 0 0 0 4.6-4.5c0-.3 0-.6.2-.9a.7.7 0 0 1 .8-.5 10.5 10.5 0 0 1 1.5.4l2.2 1c.4.1.5 0 .7-.4.3-1 .3-1 1.3-1H92.5a12.6 12.6 0 0 0 1.5-.1l.2-.2s0-.4-.2-.4a13.4 13.4 0 0 0-1.6-.1H79.5c-.9 0-1-.2-1-.9s-.3-.8-1-.5l-2.1.9a14.3 14.3 0 0 1-1.5.4c-.3.1-.6 0-.7-.5 0-.2 0-.4-.2-.6a6.6 6.6 0 0 0-4.8-4.9c-.2 0-.5 0-.7-.2a.6.6 0 0 1-.4-.6 12.5 12.5 0 0 1 .5-1.6l1-2.2a.4.4 0 0 0-.4-.6 3.3 3.3 0 0 1-.3 0c-.8-.2-.8-.2-.8-.9V83 49c0-2.6-.3-2.4 2.4-2.4H104.8a1 1 0 0 0 1-1 3.8 3.8 0 0 0 0-.6V28.7a5 5 0 0 0-.2-1.2.7.7 0 0 0-.7-.6H33.1c-1.8 0-1.8 0-1.8 1.8V46a.7.7 0 0 0 .7.6h33.5a.6.6 0 0 1 .7.7V84.3c0 .8 0 .8-1 1-.5.2-.6.3-.3.9l1 2.5c.4 1.3.5 1.6-1 2a6.5 6.5 0 0 0-5 6.4 6.7 6.7 0 0 0 5 6.4c1.2.4 1.2.4 1.2 1.6v34.2c0 .7 0 .7-.8 1s-.7.2-.5.9l.8 1.8a9.6 9.6 0 0 1 .4 1.3c.2.6 0 .9-.6 1H49.8c-2.2 0-2-.2-2 2V181c0 2-.2 2 2 2h15.7a.6.6 0 0 1 .7.7V271.9a.8.8 0 0 0 .8.7h95.7c1.6 0 1.6 0 2.1 1.5l1.1-.4 2.2-.8c1-.4 1.5-.3 1.6.8a2.2 2.2 0 0 0 .2.5 6.6 6.6 0 0 0 12.7 0l.2-1a.6.6 0 0 1 .6-.6h25.3c1.5 0 1.5 0 2 1.6zM403.5 327l-.7.5a5 5 0 0 0-2.2 4.6v6a4.7 4.7 0 0 1-2.4 4.9l-.2.5.6.2a4.8 4.8 0 0 0 3.4-4.3v-1.3-6.4a4.3 4.3 0 0 1 1.9-3.9l.4-.3c.5-.4.5-.6 0-1l-1-.8a3.9 3.9 0 0 1-1.3-3v-1.3-6.4a4.8 4.8 0 0 0-3.2-4.7 1 1 0 0 0-.5 0 .4.4 0 0 0-.3.1.3.3 0 0 0 0 .3 5.7 5.7 0 0 0 .8.7 3.9 3.9 0 0 1 1.8 3.5v7.5a4.6 4.6 0 0 0 1.8 3.7l1 1zM78.7 128.7l1.2 2.8a.6.6 0 0 1-.2.8 1.4 1.4 0 0 0-.3.4l.4.2h2.5a.6.6 0 0 0 .4-.2c.2-.2-.1-.3-.2-.3a1.2 1.2 0 0 1-1-.8l-.8-1.7c-1-2.8-1.2-1.9.8-4.2A4.7 4.7 0 0 1 84 124l.3-.3-.3-.3h-2c-.4 0-.5.2-.3.7.1.3.2.5 0 .7a12.3 12.3 0 0 1-2 2.1 6.2 6.2 0 0 1-1-1.8.8.8 0 0 1 .4-1.1.3.3 0 0 0-.1-.5H76a.3.3 0 0 0-.2.2l.2.2a1.7 1.7 0 0 1 1.2 1.3l.7 1.7c.5 1.3.8 1.1-.4 2.3l-1.3 1.5a5 5 0 0 1-2.8 1.9.3.3 0 0 0 0 .2.3.3 0 0 0 .1.2h2.2a.7.7 0 0 0 .4-.1c.3-.3 0-.4-.1-.5a.9.9 0 0 1 0-.7c.7-1 1.6-1.8 2.6-2.9zM356 125a3.4 3.4 0 0 1 1.5 2l.6 1.2c.6 1.5.6 1.5-.4 2.5l-1 1.1a5.5 5.5 0 0 1-3 2.2.4.4 0 0 0-.1.2l.1.2h2.4c.3 0 .4-.2.3-.4a.8.8 0 0 1 .1-1.2l1-1.1c1.5-1.6 1.4-1.6 2.3.5l.2.6a.8.8 0 0 1-.3 1.1.3.3 0 0 0 0 .5h3a.3.3 0 0 0 .1-.2.3.3 0 0 0-.1-.2 1.8 1.8 0 0 1-1.2-1.3l-1.2-2.8a1.2 1.2 0 0 1 .3-1.5l1.7-1.8a8.3 8.3 0 0 1 1.2-1l1-.5c-.3-.4-.8-.2-1.2-.2a3.8 3.8 0 0 0-.6 0c-.7 0-.7 0-.7.8a.7.7 0 0 1-.1.5 8.7 8.7 0 0 1-2.2 2.1l-.9-2c-.2-.5 0-.7.3-.9s.3-.4 0-.5a9.3 9.3 0 0 0-3 .1zm124.1 168a26.4 26.4 0 0 1 4.1 0 1.7 1.7 0 0 1 .5 0 1.4 1.4 0 0 1 1.2 1.3 5 5 0 0 0 .3.8c.5-.1.3-.6.4-1a6.7 6.7 0 0 0 0-1c0-.6-.1-.8-.7-.8H479c-.4 0-.7.3-.5.8l1.4 3.2c.6 1.3.7 1.2-.5 2.3l-2.5 2.2a3 3 0 0 0-.5.7.5.5 0 0 0 .1.4 3.3 3.3 0 0 0 .8 0h4.6c2.7 0 2.2.4 3.2-2.3a2 2 0 0 0 .2-.5l-.2-.2a.2.2 0 0 0-.1 0 2.3 2.3 0 0 0-.3.4 3.2 3.2 0 0 1-3.3 1.9h-3c-.2 0-.5 0-.6-.4l.8-.7 2.5-2.3c.8-.8.7-.7.4-1.6L480 293zM188 124.4c.5.3 1 .5 1.1.8l1.6 3.7-2 2.3a4 4 0 0 1-.3.4 4.8 4.8 0 0 1-2.4 1.7l-.3.3a.5.5 0 0 0 .3.2h2.2c.3 0 .4-.3.2-.6s-.2-.5 0-.7a18.1 18.1 0 0 1 2.6-2.7 10.6 10.6 0 0 1 1.3 2.8l-.2.5c-.1.1-.5.3-.3.6a.6.6 0 0 0 .5.1h2.3a.3.3 0 0 0 .2 0l.2-.2a.3.3 0 0 0-.2-.3 1.8 1.8 0 0 1-1.2-1.2l-.4-1.1c-1.2-3.1-1.4-2 .8-4.6a5.2 5.2 0 0 1 2.5-1.7l.1-.3a7 7 0 0 0-2-.1c-.5 0-.5 0-.5.8a1.2 1.2 0 0 1-.2.6 4.8 4.8 0 0 1-.5.6c-1.7 1.8-1.5 1.8-2.4-.5a.8.8 0 0 1 .3-1 .3.3 0 0 0-.1-.5 14.1 14.1 0 0 0-3.2 0zm68 194.3h-.1a5 5 0 0 0 0-1.1 9.2 9.2 0 0 0-.7-2.5 2.6 2.6 0 0 0-4.7 0 4 4 0 0 0-.3.8 9.8 9.8 0 0 0 0 5.3 3.5 3.5 0 0 0 .5 1 2.6 2.6 0 0 0 4.4 0 3.8 3.8 0 0 0 .5-1.1l.4-2.4zm99.5-122.3l-.4-.9-1-2.5c-.2-.5 0-.8.4-1a.3.3 0 0 0 .1-.3l-.2-.2h-2.7l-.3.2.2.3a1.5 1.5 0 0 1 1 1.2l.9 2.2c.7 2 .7 2 .1 4a.5.5 0 0 0 0 .1 1 1 0 0 1-1.1 1c-.2 0-.4 0-.3.3a.4.4 0 0 0 .2.2h3l.3-.2c.1-.2-.1-.3-.3-.3-.3 0-.5-.2-.5-.5a6 6 0 0 1 1.2-3.5l2.8-3.1a11 11 0 0 1 1.2-1.1c.3-.3 1-.2.9-.6s-.7-.2-1.1-.3a3.8 3.8 0 0 0-1 0c-.4 0-.5.3-.3.6a.5.5 0 0 1 0 .8c-1 1-2 2.2-3.1 3.6zm-167.3-.1a17 17 0 0 1-1.5-3.7c0-.2.2-.4.3-.5s.5-.2.3-.5l-.4-.2h-2.2c-.2 0-.5 0-.6.2-.1.4.3.3.5.5a2.1 2.1 0 0 1 .6.7l1.4 3.7a3.9 3.9 0 0 1 0 1.5 10.2 10.2 0 0 1-.3 1.3c0 .7-.4 1.2-1.2 1.2l-.2.3.2.2h3l.3-.3-.2-.2c-.4 0-.8-.1-.7-.6.3-1.4.5-2.8 1.6-3.8l1.9-2.1a5.2 5.2 0 0 1 2.6-2 .3.3 0 0 0 .1-.3.3.3 0 0 0-.1-.2 7.3 7.3 0 0 0-2.6 0c.8.8.3 1.3-.2 1.9l-1.9 2.1-.7.7zm238.2-99.4l-.5 1a3 3 0 0 1-2.8 1.8 11.6 11.6 0 0 1-1.2 0c-.4 0-.6-.3-.5-.7l1-4.4.7-2.5a1 1 0 0 1 1-.8 1.2 1.2 0 0 0 .2 0c.2-.1.5-.1.4-.4l-.4-.2h-2.8c-.2 0-.4.2-.5.3l.3.3c.3.1.6.3.5.7l-1.8 6.9a1 1 0 0 1-1 .9l-.3.2c.1.1.3.3.5.3h5.7a1.4 1.4 0 0 0 .8-.4 4.9 4.9 0 0 0 .7-3zm-185.8-.2a6.3 6.3 0 0 0-.7 1.3 3 3 0 0 1-2.7 1.7h-1.2c-.5 0-.7-.2-.6-.8l1.7-6.8a1 1 0 0 1 1-.8l.6-.3c0-.5-.4-.4-.7-.4h-2.4c-.2 0-.5 0-.6.2-.1.4.3.4.5.5.4.2.3.5.2.9l-1.6 6.3c-.1.8-.4 1.3-1.3 1.3a.3.3 0 0 0-.1.2.4.4 0 0 0 .2.2 1.7 1.7 0 0 0 .5.1h4.3c2.2 0 2 0 2.6-1.8a2.3 2.3 0 0 0 .3-1.8zM131 97l-.2-.1-.6 1a3.1 3.1 0 0 1-3.1 1.8h-.9c-.5 0-.7-.2-.5-.7.4-2.1 1-4.2 1.5-6.2.2-1 .5-1.6 1.6-1.6a.2.2 0 0 0 .1 0l.1-.3a.3.3 0 0 0-.2-.2h-3.3c-.1 0-.2 0-.2.2a.3.3 0 0 0 0 .2c.7.2.8.7.6 1.2l-1.5 6c-.2.8-.4 1.4-1.4 1.5v.2a.4.4 0 0 0 .2.2 6 6 0 0 0 .8.1h3c3.4 0 2.7.5 3.9-2.9a3.3 3.3 0 0 0 0-.4zm-58.5 95.4c1.3.7 1.3.7 1.6 1.6a20.8 20.8 0 0 0 1 2.3c.7 1.5.3 2.9-.2 4.3a1.4 1.4 0 0 1-.5.6l-.7.3c0 .5.5.3.8.3H77a.3.3 0 0 0 .2-.2.3.3 0 0 0-.1-.2c-.8-.2-.8-.7-.6-1.3a6.6 6.6 0 0 1 1.8-3.5l2-2.4a9.6 9.6 0 0 1 1.4-1.1 10 10 0 0 1 1-.5c-.3-.5-.8-.2-1.2-.3a1.7 1.7 0 0 0-.5 0 2.6 2.6 0 0 0-.8.2v.6a1.8 1.8 0 0 1-.2.7 10.8 10.8 0 0 1-.9 1l-2 2c-.8-.6-.8-1.7-1.3-2.6a3 3 0 0 1-.2-.8.6.6 0 0 1 .4-.6.3.3 0 0 0 .1-.3l-.1-.2a16.4 16.4 0 0 0-3.4 0zm128.2 7.4a10.1 10.1 0 0 1 1.8-2 20 20 0 0 0 1.6-1.7 2.9 2.9 0 0 0 .2-3.3 3 3 0 0 0-3.3-1.2 2.6 2.6 0 0 0-1.9 2.6.7.7 0 0 0 .6.7 1 1 0 0 0 .7-.2 1.3 1.3 0 0 0 .1-.8l-.1-.3c-.4-.6-.3-.8 0-1.1a1.6 1.6 0 0 1 2.7.9 3 3 0 0 1-.3 2.6 18 18 0 0 1-1.4 1.9l-2 2.4a.4.4 0 0 0 .2.6h3.9c.6 0 .9-.1 1-.8 0-.4.2-.9-.1-1.3-.7.9-.7 1-1.6 1h-2.1zm7-68.1h-.3a1 1 0 0 1-1.2.9h-1.6a.5.5 0 0 1-.5-.2.5.5 0 0 1 .2-.5l2.2-2a4.7 4.7 0 0 0 1.2-1.8 2.8 2.8 0 0 0-2-3.7 2.7 2.7 0 0 0-3.4 2.1 1.6 1.6 0 0 0 0 .7.8.8 0 0 0 1 .5.7.7 0 0 0 .4-.9 2.8 2.8 0 0 0-.2-.4c-.3-.6-.2-.9.2-1.1a1.6 1.6 0 0 1 2.5.8 2.7 2.7 0 0 1 .1 1.8 5.8 5.8 0 0 1-1.2 2.2l-2 2.3a7.6 7.6 0 0 0-.7.8.4.4 0 0 0 .3.6h3.2c1.6 0 1.6 0 1.8-1.6a2 2 0 0 0 0-.5zM253.4 338h3a.8.8 0 0 0 .8-.5l1-2.7-.2-.2h-.1l-.6 1.2a2.7 2.7 0 0 1-2.3 1.5 12.5 12.5 0 0 1-1.5 0c-.5 0-.7-.3-.6-.8l.7-2.8 1-3.9a1 1 0 0 1 .8-1 2.3 2.3 0 0 0 .7-.2c0-.5-.5-.3-.8-.3h-2.2c-.2 0-.5 0-.6.2-.1.4.3.3.5.4s.3.5.2.8l-1.6 6.5c-.2.7-.5 1.1-1.2 1.2l-.3.3a1.3 1.3 0 0 0 .5.2zm20.5-6.2a6 6 0 0 0-.6 0c-.4 0-.6.2-.5.7a2 2 0 0 1 0 .6c0 .2-.2.5-.3.5a1.7 1.7 0 0 1-.7-.4.4.4 0 0 1 0-.3c0-.3.3-.7 0-1a2 2 0 0 0-1-.1 5.7 5.7 0 0 0-1.2 0 .5.5 0 0 0-.3.4.5.5 0 0 0 .2.4 3.7 3.7 0 0 1 2 1.7.7.7 0 0 1 0 1c-.6.7-1 1.6-2 1.8-.2 0-.3.3-.3.4a.5.5 0 0 0 .3.4 5.6 5.6 0 0 0 1.2 0c1 0 1 0 1-1v-.2a6.2 6.2 0 0 1 .7-.9c.1-.1.7.4.7.8v.7l.2.6a14.8 14.8 0 0 0 2 0c.1 0 .3-.2.3-.4a.5.5 0 0 0-.2-.4c-1-.2-1.6-1.2-2.1-2a.7.7 0 0 1-.1-.6c.4-.6.7-1.4 1.5-1.7.4-.1.7-.2.8-.6s-.4-.4-1-.4zm114.6-10.7l-1.2 1.5a.5.5 0 0 1-.5 0 .5.5 0 0 1-.2-.4l.6-1.7a11.2 11.2 0 0 0 .4-2.1 1.4 1.4 0 0 0-1.3-1.6 2 2 0 0 0-1.6.3c-.5.4-.9.5-1.4 0a1 1 0 0 0-1.4 0 1.6 1.6 0 0 0-.6 1.7l.8-1.2h.3l.3.2a6.4 6.4 0 0 1-.1 1.1l-.7 3a3.7 3.7 0 0 0-.1 1 .5.5 0 0 0 .3.3.6.6 0 0 0 .4-.2 1.6 1.6 0 0 0 .3-.6l.4-1.4a15.9 15.9 0 0 1 .5-2 2.2 2.2 0 0 1 2-1.6.7.7 0 0 1 .9.7 9.2 9.2 0 0 1-.3 1.8c-.2.6-.5 1.3-.6 2a1.1 1.1 0 0 0 .3 1.1 1.3 1.3 0 0 0 1.4.2 2.2 2.2 0 0 0 1.1-2.1zm0 14.8l-1.2 1.6a.4.4 0 0 1-.7-.4l.5-1.6a13 13 0 0 0 .5-2.3 1.4 1.4 0 0 0-1.3-1.5 2 2 0 0 0-1.6.3c-.5.3-.9.5-1.4 0a1 1 0 0 0-1.4-.1 1.5 1.5 0 0 0-.6 1.8l.8-1.3h.3l.3.2a5.5 5.5 0 0 1-.1 1.1l-.7 3a4.2 4.2 0 0 0-.1 1l.3.3a.6.6 0 0 0 .4-.1 1.5 1.5 0 0 0 .3-.6l.4-1.5.5-1.8a2.4 2.4 0 0 1 1.8-1.7c.6-.2 1 .2 1 .8a10.2 10.2 0 0 1-.3 1.8l-.6 1.7a1.2 1.2 0 0 0 .5 1.4 1.3 1.3 0 0 0 1.4 0 2.2 2.2 0 0 0 1-2zm11.8-209.7v.1l.4.1c1 .1 1 .1 1 1v5c0 .8-.2 1.5-1.2 1.6l-.2.2.2.2h3.7a.3.3 0 0 0 0-.3l-.2-.1c-.8 0-1-.6-1-1.4V127a8.5 8.5 0 0 0-.1-1.3c0-.1-.4-.4-.5-.3l-2.1.8v.1zm-1.1 69.7v-3.7c0-.4-.3-.5-.8-.4l-1.8.8-.1.2.1.1a2.6 2.6 0 0 0 .5 0c.8 0 .9 0 .9.8v5.6c0 .8 0 .9-1 1a1.8 1.8 0 0 0-.3.2.3.3 0 0 0-.1.2s0 .2.2.2h3.6l.2-.2a.3.3 0 0 0-.2-.3c-.3 0-.8 0-1-.2a1.9 1.9 0 0 1-.2-1.1v-3.2zM93.4 123.6l-2.4.8a.3.3 0 0 0-.2.3l.2.2h1.2a2.6 2.6 0 0 1 .1.5v6a1.1 1.1 0 0 1 0 .4 1.2 1.2 0 0 1-.5.5l-.6.1-.3.3.3.2h2.1l1.5-.1a.2.2 0 0 0 .2-.1c0-.1 0-.2-.2-.3a2.6 2.6 0 0 0-.4 0c-.7-.2-.8-.3-.8-1v-1.1-4.9l-.2-1.8zm182 44.3a2.1 2.1 0 0 0-2.1-2.1 2.2 2.2 0 0 0-2.1 2.1 2.2 2.2 0 0 0 2.2 2.2 2.1 2.1 0 0 0 2-2.2zM244 272.4a2.1 2.1 0 0 0 4.2 0 2.1 2.1 0 1 0-4.2 0zm16.7-106.6a2.2 2.2 0 1 0 2.2 2 2.3 2.3 0 0 0-2.2-2zm-12.6 2.1a2.2 2.2 0 0 0-2-2.1 2.2 2.2 0 1 0 2 2.1zm10.4 104.5a2.2 2.2 0 0 0 2.2 2.1 2.2 2.2 0 1 0 0-4.3 2.2 2.2 0 0 0-2.2 2.2zm17.2 0a2.2 2.2 0 0 0-2-2.1 2.2 2.2 0 1 0 2 2.1zM272 72.8a2.1 2.1 0 1 0-2-2.1 2 2 0 0 0 2 2.1zm-27.5-4.2a2.1 2.1 0 1 0-.2 4.2 2.1 2.1 0 1 0 .2-4.2zm16.8 2a2 2 0 0 0-2.2-2 2 2 0 0 0-2 2.2 2 2 0 0 0 2.1 2 2 2 0 0 0 2.1-2.1zm52 261.4l-.7-.2c-.7-.2-.8-.2-.8-.8a6.6 6.6 0 0 1 0-1.2 2.5 2.5 0 0 1 .3-.8c.2-.4.6-.4.8 0l.3.4a.9.9 0 0 0 .6 0 .5.5 0 0 0 .3-.7.8.8 0 0 0-.4-.5 2.1 2.1 0 0 0-3 1.6 3.4 3.4 0 0 0 0 1c0 .6-.4.9-.8 1.1.2.5.8.5.8 1.1v3.4a1 1 0 0 1-.6 1l-.2.5h1.9l1-.1c0-.7-1-.5-1-1.1V334c0-1.4 0-1.4 1.4-2zm-.1-14.7l-.3-.3c-1.1-.3-1.1-.3-1.1-1.4a3 3 0 0 1 0-.6 3.4 3.4 0 0 1 .3-.8c.2-.4.6-.4.8 0l.3.4a.8.8 0 0 0 .6 0 .7.7 0 0 0 .3-.5c0-.2-.2-.5-.4-.6a2.1 2.1 0 0 0-3 1.5v1.2c0 .2-.1.6-.3.6-.7.3-.7.5 0 .9.2 0 .3.5.3.7v2.2a2.9 2.9 0 0 1-.8 2.5h2.8v-.3a1.7 1.7 0 0 1-1-1.8 26.8 26.8 0 0 0 0-2.7.7.7 0 0 1 .7-.8 3.3 3.3 0 0 0 .8-.1zM88.7 193.5v.2l.8.1c.6 0 .8.1.8.7v5.8a.8.8 0 0 1-.8 1 1.5 1.5 0 0 0-.5.1v.3h3.7a.7.7 0 0 0 0-.3.2.2 0 0 0-.2 0c-1-.2-1-.8-1-1.6v-5.5a10 10 0 0 0-.1-1.4.3.3 0 0 0-.5-.3l-2.2.9zm279.7 126.1l1.1-.6 4.9-2.3a7.8 7.8 0 0 0 1-.6.3.3 0 0 0 0-.3.3.3 0 0 0-.3-.1 4.4 4.4 0 0 0-.8.2l-2.7 1.3-3.5 1.6a5.7 5.7 0 0 0-.6.4c-.5.2-.5.6 0 .8l7.4 3.5a.5.5 0 0 0 .4 0l.2-.2a.2.2 0 0 0 0-.1 5.3 5.3 0 0 0-.7-.5l-5-2.4-1.4-.7zM217.7 101.4v-.4l1.2-1.1a8.2 8.2 0 0 0 1.2-1.2 1.8 1.8 0 0 0-.4-2.4 2.5 2.5 0 0 0-2.2-.5A2 2 0 0 0 216 97a.7.7 0 0 0 .2 1 .6.6 0 0 0 .5 0c.3-.2.3-.5.3-.8 0-.7 0-.8.5-1a1.3 1.3 0 0 1 1.8 1.4 2.9 2.9 0 0 1-.5 1.3 7.6 7.6 0 0 1-1 1l-1.5 1.7a.5.5 0 0 0-.1.4.5.5 0 0 0 .4.2h2.8a.8.8 0 0 0 .9-.7 10.9 10.9 0 0 0 0-1.1c-.7 1.2-1.7.9-2.6 1zm122 233v5.4a5.7 5.7 0 0 0 0 1.2.7.7 0 0 0 .4.4 3 3 0 0 0 1 0l.4-.2-.3-.4c-.8 0-.8-.6-.8-1.3V330c0-1-.3-2 1-2.3v-.3a1 1 0 0 0-1.7.9v6zM408 131v-5.4-1.1a.6.6 0 0 0-.6-.6 1.7 1.7 0 0 0-.5 0l-.7.2c-.2.4.2.5.5.5a.7.7 0 0 1 .5.8v10.2c0 .9 0 1.7-1 2h-.2l.2.3a6.4 6.4 0 0 0 1.2 0 .6.6 0 0 0 .5-.5v-1.2zM84.9 198.3v6.2c0 .7.2.8.9.9a2.5 2.5 0 0 0 .7-.1l.2-.2s0-.3-.2-.3c-.7-.2-1-.6-.9-1.4v-10.2a2.5 2.5 0 0 1 0-.7 1.1 1.1 0 0 1 .4-.5 6.5 6.5 0 0 1 .6-.3v-.3a8.3 8.3 0 0 0-1-.1.6.6 0 0 0-.7.6v6.4zm11.6.2v-6.3c0-.8-.2-1-1-1-.2 0-.7.1-.7.3-.1.3.2.4.5.5a.7.7 0 0 1 .5.7v10.9c0 .5-.2 1-.7 1a.6.6 0 0 0-.3.2.3.3 0 0 0-.1.2l.2.3a.4.4 0 0 0 .2 0h.3c1 0 1.1-.2 1.1-1v-5.8zm243.1 121V326.1a.6.6 0 0 0 .5.5 4.2 4.2 0 0 0 1 0c.2 0 .3-.2.4-.3l-.2-.2c-.8-.1-1-.6-1-1.3v-10.4c0-.7.2-1 .8-1.2l.2-.4-.2-.2a4.6 4.6 0 0 0-.8 0c-.5 0-.7.3-.7.8v6.2zm17 15v-6.1c0-.9-.2-1-1-1-.3 0-.7 0-.8.2-.1.5.4.4.6.6a1 1 0 0 1 .4.5 7.7 7.7 0 0 1 0 1.2v8.9a5.3 5.3 0 0 1-.1 1.6c-.1.3-.6.4-1 .6v.3a1 1 0 0 0 1.9-.8v-6zm0-14.7v-4.4-2.2a.6.6 0 0 0-.6-.6 5.7 5.7 0 0 0-.9 0l-.2.1s0 .4.2.4c.7.2.8.6.8 1.3V325c0 .5-.1.9-.7 1a.7.7 0 0 0-.3.1.3.3 0 0 0 0 .3l.1.2a.4.4 0 0 0 .2 0 5 5 0 0 0 .7 0c.5 0 .7-.2.8-.8l-.1-6zM199.2 130v5.5a5.7 5.7 0 0 0 0 1.2.7.7 0 0 0 .5.4 5 5 0 0 0 1.1 0l.2-.2-.1-.3c-.9 0-1-.6-1-1.4v-10.1c0-.7 0-1.2.9-1.4l.2-.4c0-.2-.2-.1-.3-.1a4.6 4.6 0 0 0-.8 0 .6.6 0 0 0-.7.6v1.2zm11.7.2v-5-1.4a.6.6 0 0 0-.7-.6 4.7 4.7 0 0 0-.9 0l-.2.1c0 .1 0 .4.2.4.8.2.9.7.9 1.4v10.1c0 .8-.1 1.3-1 1.4a.1.1 0 0 0-.1.2v.3a1.1 1.1 0 0 0 1.8-.9v-6zm156.3.6v5.9c0 1 .2 1.2 1.3 1.2a.8.8 0 0 0 .3-.1.5.5 0 0 0 .2-.2v-.3c-.6-.2-1-.4-1-1.1v-10.8c0-.5 0-.9.6-1 .2 0 .4-.2.3-.4s-.2-.2-.4-.2c-1.1-.1-1.3 0-1.3 1.1v6zm-268.5-1.4v-5.2-1.4a.6.6 0 0 0-.7-.6 2.1 2.1 0 0 0-.7 0 1.7 1.7 0 0 0-.4.4l.3.3c.6 0 .8.4.8 1v10.3c0 .8 0 1.5-1 1.5l-.1.1c-.1.1 0 .1 0 .2l.1.2a5.5 5.5 0 0 0 1 .1.6.6 0 0 0 .7-.6v-1.2-5.1zm-11.7-.1v6.3c0 .5.2.7.7.7a1.7 1.7 0 0 0 .5 0l.6-.2-.4-.5a.8.8 0 0 1-.7-.9v-10.2-.7c0-.5.1-.9.7-1a.5.5 0 0 0 .3 0 .3.3 0 0 0 0-.3.3.3 0 0 0-.1-.3 4.7 4.7 0 0 0-.8 0c-.6 0-.8.2-.8.7a8.4 8.4 0 0 0 0 1zm109 67.9v5.3l.1 1.4a.5.5 0 0 0 .6.5 2.6 2.6 0 0 0 .8 0c.2 0 .3-.2.5-.4l-.4-.2c-.7 0-.8-.5-.8-1v-10.3a4.7 4.7 0 0 1 0-1 .9.9 0 0 1 .5-.4 4.8 4.8 0 0 1 .6-.3v-.3a.3.3 0 0 0-.2-.2h-.5c-.9 0-1 .1-1.1 1v5.9zm208.3.1v-5-1.1c0-.7-.3-.9-1-1a1.4 1.4 0 0 0-.5 0 .6.6 0 0 0-.4.3.4.4 0 0 0 .3.4c.7 0 .9.5.9 1.1v10.6c0 .7-.2 1.1-1 1.2l-.2.3.4.3a1.7 1.7 0 0 0 .5 0c.7 0 1-.2 1-.9v-1.2zm-196.6 0v-5.2-1.3a.5.5 0 0 0-.6-.5 3.8 3.8 0 0 0-.8 0 .5.5 0 0 0-.4.2l.2.4c.8 0 1 .5 1 1.2v10.5c0 .7-.3 1-1 1.2l-.2.3a.5.5 0 0 0 .4.3 2 2 0 0 0 .6 0c.6 0 .7-.2.8-.7a7.9 7.9 0 0 0 0-.9zm155.7 0v6.6a.5.5 0 0 0 .6.5 6.7 6.7 0 0 0 1 0l.2-.2-.1-.4c-.8 0-1-.5-1-1.1v-10.1-1a.6.6 0 0 1 .5-.6 1.2 1.2 0 0 0 .5-.1.3.3 0 0 0 0-.3v-.2a5 5 0 0 0-1.3 0 .7.7 0 0 0-.4.4 6.3 6.3 0 0 0 0 1.2zM104.1 97.5c-.4-1-.5-1.7-.9-2.3a2 2 0 0 0-3.2-.7A3.4 3.4 0 0 0 99 96a.4.4 0 0 0 0 .3.3.3 0 0 0 .3 0l.7-.7a2 2 0 0 1 3.2.8 6.6 6.6 0 0 1 .3 1.4 9.4 9.4 0 0 1-.5 3.7c-.3.9-.2 1.4 0 1.3.6-.2.6-.7.6-1.2A24.9 24.9 0 0 1 106 95a1.7 1.7 0 0 0 0-.3v-.1h-.2a6.7 6.7 0 0 0-.5.8l-1 2.2zm271.9-1l.5-.6a2.2 2.2 0 0 1 2.3-.8 2.3 2.3 0 0 1 1.5 1.9 1.9 1.9 0 0 1 0 .4 7.5 7.5 0 0 1-.1 3 12 12 0 0 0-.4 1.4 3.8 3.8 0 0 0 0 .9l.1.2a.3.3 0 0 0 .3-.1 7.5 7.5 0 0 0 .4-1.3 21.1 21.1 0 0 1 1.7-5.4l.6-1.3a1.2 1.2 0 0 0 0-.3h-.2l-.9 1.5c-.2.4-.3 1-.8 1.3l-.2-.8a9.6 9.6 0 0 0-.6-1.4 2 2 0 0 0-3.1-.7 3.1 3.1 0 0 0-1.3 1.8l.2.4zm36.4 352.3h-1.5a2.6 2.6 0 0 0-2.6 1.5v.4h.3a2.4 2.4 0 0 1 1.6-.9c.7 0 1 .2.8.9l-.9 2.9a5 5 0 0 0-.2 1.1l.3.4a.5.5 0 0 0 .5-.2 6.9 6.9 0 0 0 .4-1.2l.7-3.1c0-.7.2-.7.9-.8l1.6-.1c.2 0 .3-.3.4-.5s-.2-.3-.3-.3l-2-.1zM208.7 96.4a9 9 0 0 1 1.1-1 2 2 0 0 1 3 .9 3.4 3.4 0 0 1 .2.6 5.6 5.6 0 0 1 0 3.1l-.6 2.7a.3.3 0 0 0 .2.2.3.3 0 0 0 .2-.1 11 11 0 0 0 .6-1.8 19.5 19.5 0 0 1 1.5-4.7l.7-1.4c0-.2.1-.4-.3-.6l-1.5 3.2-.5-1.5a7 7 0 0 0-.7-1.3 1.7 1.7 0 0 0-1.7-.8 2.8 2.8 0 0 0-2.3 2.3l.1.2zm151 238v6.4c0 .2 0 .5.4.4a.5.5 0 0 0 .3-.4 11.8 11.8 0 0 0 0-1.3v-10.1-1a1.5 1.5 0 0 0 0-.5.4.4 0 0 0-.3-.2l-.2.1a9.8 9.8 0 0 0-.1 1.3v5.3zm-38.3.2V329a6.3 6.3 0 0 0-.1-1.1l-.3-.1a.3.3 0 0 0-.2.1 7.5 7.5 0 0 0 0 1.2v10.7a9 9 0 0 0 0 1.2l.2.2.4-.3a4.8 4.8 0 0 0 0-1v-5.4zm38.3-15v6.3c0 .2 0 .5.4.4a.5.5 0 0 0 .3-.4 11.8 11.8 0 0 0 0-1.3v-10-1a1.3 1.3 0 0 0 0-.5.3.3 0 0 0-.3-.2l-.2.1a9.8 9.8 0 0 0-.1 1.3v5.2zm-38.3.2v-5.7a5.6 5.6 0 0 0 0-1 .3.3 0 0 0-.3-.2l-.3.1a6.5 6.5 0 0 0 0 1.2v11a4.8 4.8 0 0 0 0 1l.3.2.2-.2a9.2 9.2 0 0 0 .1-1.2v-5.2zm49.8 13.7h3.5a5.4 5.4 0 0 0 1-.2l.1-.1-.1-.3a2.9 2.9 0 0 0-.8-.1h-7a3.7 3.7 0 0 0-.8 0 .3.3 0 0 0-.2.3.3.3 0 0 0 .2.3 5.4 5.4 0 0 0 1 0h3.1zm31.3-237c1.2.4 1.2.4 1.2 1.3v3.2a.8.8 0 0 1-.6.8.3.3 0 0 0-.2.3.3.3 0 0 0 .3.1h1.8l.6-.1c.1-.4-.3-.4-.5-.4s-.4-.4-.4-.7v-3.4c0-2 .1-2.1-2.2-1zm-295.5 0c1.1.4 1.1.4 1.1 1.3v3.1c0 .4 0 .7-.5.8-.1 0-.4 0-.3.4l.4.1h2.2a.3.3 0 0 0 .2-.2.3.3 0 0 0-.2-.2c-.6 0-.7-.4-.7-1v-3.3c0-1.9 0-1.9-1.9-1.2l-.3.3zm201.4 226.6a3.4 3.4 0 0 1-.7-2.7V318c0-1-.1-1.1-1.2-1a3.6 3.6 0 0 0-.8.3c.7.4 1 .8 1 1.5v1.8a3.2 3.2 0 0 1-.8 2.6zm0 14.8a2.8 2.8 0 0 1-.7-2.3V333c0-1.4-.1-1.5-1.5-1.2l-.3.2a2.2 2.2 0 0 1 .7 2v1.8c0 .6.1 1.4-.6 1.8l.1.3a6 6 0 0 0 2.3 0zm-18.9-5c-1.1-.8-1.2-.8-1.2-2v-3c0-1.8-.2-1.5-1.4-1.1-.2 0-.6 0-.5.3l.6.2a.7.7 0 0 1 .3.5v3.2c0 1 0 1-1 1.8a14.9 14.9 0 0 0 3.2 0zm100.9-202.3h-3.2a3.8 3.8 0 0 0-.8.1v.4a3.2 3.2 0 0 0 .8.2h6.2a3.2 3.2 0 0 0 .8-.2l.2-.2-.2-.2a1.4 1.4 0 0 0-.5-.1zm-19 204.9h-3.2a8.4 8.4 0 0 0-1 0 .3.3 0 0 0-.2.2.3.3 0 0 0 .1.3 2.1 2.1 0 0 0 .7.2h7.2a1.8 1.8 0 0 0 .6-.2.3.3 0 0 0 .2-.2.3.3 0 0 0-.2-.3 2 2 0 0 0-.5 0zm15-137.7h3a3.3 3.3 0 0 0 .8 0l.3-.4-.2-.2a4.6 4.6 0 0 0-.9-.1h-5.3a12 12 0 0 0-1.4 0 .4.4 0 0 0-.3.3l.3.4h3.7zm10.3-97.8v.1h2.5a3.4 3.4 0 0 0 .6-.1l.1-.1v-.3a1 1 0 0 0-.5-.1h-4.9a1.3 1.3 0 0 0-.4 0 .3.3 0 0 0-.2.3l.1.2zm-116 230.2h-2.9l-.2.2a.3.3 0 0 0 .2.2 1.3 1.3 0 0 0 .5.1h4.7a1.3 1.3 0 0 0 .5-.1.3.3 0 0 0 .1-.2.3.3 0 0 0-.1-.3zm26.3-16.5a.8.8 0 0 0-.7.8.8.8 0 0 0 .8.7.7.7 0 0 0 .6-.8.8.8 0 0 0-.7-.7zm.8 15.6a.8.8 0 0 0-.8-.7.8.8 0 0 0-.7.7.8.8 0 0 0 .7.7.7.7 0 0 0 .8-.7zm-43.3 5.3a.7.7 0 1 0-1.4-.4.7.7 0 1 0 1.4.4zM117.1 96a.7.7 0 0 0-.7.8.7.7 0 0 0 .8.6.7.7 0 1 0-.1-1.4zm109.7 0a.7.7 0 0 0-.7.8.8.8 0 0 0 .8.6.7.7 0 0 0 .6-.7.7.7 0 0 0-.7-.7zm186.6.7a.7.7 0 0 0-.8-.7.7.7 0 1 0 0 1.4.8.8 0 0 0 .8-.7z"/>
  <path d="M458 270.3l1.3.5 2 .7c1.4.5 1.6.4 1.9-.9a6.5 6.5 0 0 1 4.7-4.8c.2 0 .5 0 .7-.2a.7.7 0 0 0 .5-.9 10.5 10.5 0 0 0-.4-1.4l-.8-1.7c-.3-.9-.3-.9.6-1.2h.1a.6.6 0 0 0 .5-.5V111.3c0-2.3 0-2.2-2-2.2h-16.3c-2.2 0-2.1 0-2.1-2.1V91.3c0-2 0-2 2-2h17c1.5 0 1.7-.1 1.2-1.8l-.6-1.4-.6-1.3.2-.2c1.3-.5 1.3-.5 1.3-1.8V48.3v-.9c0-.7-.2-.9-.9-1h-17.5c-2.2 0-2.1 0-2-2.1V28.6c0-2 0-2 2-2h38c1.9 0 1.9 0 1.9 1.9v16.1c0 1.8 0 1.8-1.8 1.8h-18.2a.6.6 0 0 0-.7.6v35.6c0 1.5 0 1.5 1.5 2 .1.6-.3 1-.5 1.5l-.8 2.4c-.2.4 0 .6.5.7h17.7c2.3 0 2.2 0 2.2 2.2V107c0 2 0 2-1.8 2h-16.6c-2.3 0-2.1-.2-2.1 2.1V259.2l.1 1c.1.3.6.2 1 .3s.5.3.3.7l-.5 1.1-.8 2c-.2 1-.1 1.1.7 1.4h.5a6.6 6.6 0 0 1 4.9 6.4 6.4 6.4 0 0 1-4.8 6.4c-1.6.4-1.4.8-1.4 2V314.3c0 .8 0 .8.9 1 .6.2.7.4.5.9l-.8 1.8a6.5 6.5 0 0 0-.5 1.8l1.4.5a6.6 6.6 0 0 1 0 12.6c-.4.2-1.1.2-1.3.6a3.2 3.2 0 0 0-.2 1.6v32.8a5.2 5.2 0 0 0 0 .7c0 .3 0 .8.2 1s.5.2.9.3.4.2.3.6l-1.2 3a2.5 2.5 0 0 0-.1.8.5.5 0 0 0 .2.3 10.8 10.8 0 0 0 1.6.1h14c3 0 2.6-.1 2.6 2.7v33.2c0 2 .2 2.1-2 2.1H472c-2 0-2 0-2 2v21.8c0 1 0 1 1 1.2.6.2.7.3.5.8l-.3.7-1 2.5c-.3.9 0 1 .6 1h32.5c1 0 1.1.1 1.2 1.2v16.3c0 .7-.2 1-.9 1H472.5c-2.7 0-2.4-.2-2.4 2.5V486.3c0 1.3 0 1.3 1.3 1.6l.2.1-.3 1-1 2.4a5.4 5.4 0 0 0-.2 1c0 .6.1.9.7 1h16c1.3 0 1.5.1 1.6 1.5v16.2c0 2-.1 2-2 2h-34.6c-1.6 0-1.7 0-1.7-1.7V495c0-1.6 0-1.7 1.7-1.7h16c1.4 0 1.6-.3 1.3-1.6a21.7 21.7 0 0 0-.8-2.3l-.6-1.3.2-.2c1.3-.4 1.3-.4 1.3-1.6v-23.4a7.9 7.9 0 0 0 0-.9c0-.5-.2-.7-.7-.7h-31.9c-2.5 0-2.3 0-2.3-2.3v-4.9-1a.5.5 0 0 0-.7-.5 10 10 0 0 0-1.3.4l-1.5.7c-.9.3-.9.3-1.2-.5 0-.4-.3-.6-.6-.6h-9.8a9.3 9.3 0 0 1-1.5-.2l-.1-.3.1-.2a9.3 9.3 0 0 1 1.5-.2H428.8c.4 0 .7-.1.8-.8.1-.6.2-.8 1-.6l3 1.2c.5.2.7 0 .8-.6v-6c0-2.2-.1-2 2-2h30.7a13.5 13.5 0 0 0 1.7-.1.6.6 0 0 0 .4-.5 6.7 6.7 0 0 0-.4-1.5l-1-2.3a.4.4 0 0 1 .4-.6l.5-.1a.6.6 0 0 0 .5-.6 8.7 8.7 0 0 0 0-1v-21.7-.8c0-.8-.2-1-.9-1h-15.5c-2.2 0-2 0-2-2.1V377c0-2.3-.2-2.2 2.2-2.3h14.8c1.4 0 1.6-.2 1.1-1.6l-1.1-2.9.1-.2c1.3-.4 1.3-.4 1.3-1.8v-33.4-1a.6.6 0 0 0-.5-.5l-.8-.3a6.6 6.6 0 0 1-4.6-4.5c-.5-1.4-.7-1.6-2.2-1.1l-2.5 1c-.5.2-.7.2-.8-.4a.9.9 0 0 0-1-.9h-44.5c-.3 0-.7 0-.8-.4s.2-.4.9-.4h44.1c1 0 1 0 1.3-1.1.1-.4.3-.5.6-.4l1.9.8a9.6 9.6 0 0 0 1.3.5c1.1.3 1.3 0 1.6-1a6.5 6.5 0 0 1 4.7-4.9 4 4 0 0 0 .8-.2.7.7 0 0 0 .3-.5 4.2 4.2 0 0 0-.2-1.2l-.9-2c-.3-.7-.2-.7.5-.9s.8-.2.8-1v-34.2c0-1.1 0-1.1-1.3-1.5a6.7 6.7 0 0 1-4.7-4.7v-.5c-.3-.8-.6-1-1.4-.7l-2.4.9-1.4.5c-.5-1.5-.5-1.5-2-1.5H351.8c-1.7 0-1.6-.1-2 1.5a6.6 6.6 0 0 1-6.4 4.7 6.7 6.7 0 0 1-6.3-4.6l-.2-.5c-.3-1-.4-1-1.4-.7s-1.8.7-2.8 1.2l-.3-.7c-.2-.9-.2-.9-1-.9h-26a13.4 13.4 0 0 1-1.7-.1l-.2-.4c0-.2.1-.2.2-.2a3 3 0 0 1 .7 0h27c.8 0 .8 0 1-1s.3-.7 1-.4l2.2.9c1 .3 1.2 0 1.3-.7a4.6 4.6 0 0 1 .3-.8 6.6 6.6 0 0 1 4.4-4c.3-.2.6-.2 1-.3a.6.6 0 0 0 .4-.8 9.1 9.1 0 0 0-.3-1.1l-1-2.3c-.4-.7-.2-.8.5-1h.3a.6.6 0 0 0 .6-.6V185c0-2.2 0-2-2-2h-14.4c-2 0-2 0-2-2v-33.8c0-2.1 0-2 2-2h15c1.4 0 1.5-.2 1-1.6l-1.1-2.6c-.2-.4 0-.7.4-.8a2.8 2.8 0 0 0 .7 0 .8.8 0 0 0 .4-.5 5.7 5.7 0 0 0 0-1.2v-33-.8c0-.8-.1-1-.8-1-.1 0-.3 0-.5-.2a6.6 6.6 0 0 1 0-12.9h.5c.8-.3 1-.5.7-1.3l-1-2.5-.4-1a.4.4 0 0 1 .3-.4c.4-.1 1-.1 1-.4a3 3 0 0 0 .3-1.2v-35-1.7a.6.6 0 0 0-.7-.6H309a.7.7 0 0 1-.7-.7v-1.2-16c0-1.8 0-1.8 1.9-1.9H381.8c.6 0 .7.3.8.9v17.7c0 1-.2 1.1-1.2 1.2h-34.9c-2.7 0-2.5-.3-2.5 2.4v35c0 .7.1 1.3 1 1.4.4 0 .4.4.3.7l-.9 2a6.7 6.7 0 0 0-.3 1.4c-.1.6 0 .8.6 1l.7.2a6.5 6.5 0 0 1 4.4 4.8c.3 1.3.5 1.5 2 1l2.8-1.2c.5-.2.6-.1.8.5a1.8 1.8 0 0 1 0 .3.6.6 0 0 0 .7.7h13.5a10.6 10.6 0 0 1 1.5 0l.1.3-.1.3a12.8 12.8 0 0 1-1.5.1h-13.3c-.7 0-.7 0-1 .8v.3a.4.4 0 0 1-.6.3l-1.3-.5-2-.7c-1-.3-1.3-.2-1.5.9a6.7 6.7 0 0 1-2.5 3.9 7 7 0 0 1-2.4 1.1c-.9.3-.9.3-1 1.2v34.5c0 .6.2 1 .9 1s.6.3.4.8l-.9 2.2a5.9 5.9 0 0 0-.3 1.3.5.5 0 0 0 .5.6h16.5c1.5 0 1.5 0 1.5 1.6v35.2c0 .8-.2 1-1 1H346c-2 0-2 0-2 1.9v74.8c0 .5.3.7.8.8s.6.4.4.9l-.9 2.1a5.2 5.2 0 0 0-.3 1.4.7.7 0 0 0 .6.8l.3.1a6.5 6.5 0 0 1 5 5 2 2 0 0 0 .2.6.9.9 0 0 0 .5.4h105.9c1 0 1 0 1.3-1.1a3.2 3.2 0 0 1 .3-.3zm11.7 105.3h-16.2c-2.1 0-2 0-2 2v32c0 2.2-.1 2.2 2.1 2.2H487c.4 0 .7-.3.7-.8v-33.5c0-1.8 0-1.9-1.8-1.9h-16.2zM343.7 146h-16.5c-1.6 0-1.7-.1-1.7 1.6v32.7c0 1.7 0 1.7 1.7 1.7h32.7c1.8 0 1.8 0 1.8-1.9v-32.3c0-1.8 0-1.8-1.8-1.8h-16.2zm1.8-100.5h34c2.4 0 2.2.1 2.2-2.2V29.7c0-2.2.2-2.1-2.1-2.1H309.8c-.5 0-.6.2-.7.7v15.4a11.6 11.6 0 0 0 0 1.2.6.6 0 0 0 .7.6h1.7zm123.9 398h-33c-1 0-1.2.1-1.2 1.1v8.3a96 96 0 0 0 0 6.5c0 .7.3.9.8.9H502.6c1 0 1.1-.1 1.2-1.2v-13.7-1.2a.6.6 0 0 0-.6-.7h-1.7zm.2-398h18.2c2 0 2 0 2-1.9V29.5v-1c0-.6-.2-.8-.8-.9h-38.5c-.8 0-1 .2-1 1V43.3c0 2.4-.2 2.3 2.3 2.3zm.1 62.7h18.4c1.7 0 1.7 0 1.7-1.7V92.2c0-2 0-2-2-2H450.2a.6.6 0 0 0-.6.6v15.8c0 1.5 0 1.5 1.5 1.6h1.4zm-.5 404h16.6c1.7 0 1.7 0 1.8-1.7V496v-1a.6.6 0 0 0-.7-.7H452c-.8 0-1 .1-1 1V510c0 2.2 0 2.1 2 2.1zm-129-415.6h2.2c.5 0 .8-.2.8-.7v-4.2c0-.4-.3-.6-.8-.5a5.8 5.8 0 0 0-4.6 4 2.2 2.2 0 0 0-.1 1 .6.6 0 0 0 .4.4h2.1zm.2 175.2h2c.7 0 .8-.2.8-.8v-4c0-.5-.3-.7-.8-.6a5.7 5.7 0 0 0-4 2.9 8 8 0 0 0-.7 1.8.5.5 0 0 0 .5.7h2.2zm0-174.4h-2.2a.6.6 0 0 0-.6.7 5.7 5.7 0 0 0 4.7 4.6c.6 0 .9-.1.9-.7v-3c0-1.5 0-1.5-1.7-1.6h-1.1zm0 175.3h-2.1c-.5 0-.7.3-.6.7a5.7 5.7 0 0 0 4.6 4.6c.6 0 .9-.2.9-.7v-3.9c0-.6-.3-.7-.9-.8s-1.2 0-1.9 0zm126-.9h1.9c.6 0 .8-.2.9-.7v-4c0-.5-.3-.7-.8-.6a5.8 5.8 0 0 0-4.6 4.7c0 .3.1.6.5.6h2.2zm3.6-2.9v2.3a.5.5 0 0 0 .5.6h4.4c.2 0 .4-.3.4-.4a1.8 1.8 0 0 0 0-.9 5.8 5.8 0 0 0-4-4c-1.1-.3-1.3-.1-1.3 1v1.4zm-3.6 3.8h-1.9c-.7 0-.7.2-.6.9a5.7 5.7 0 0 0 3.4 4 4.8 4.8 0 0 0 1.2.3.6.6 0 0 0 .7-.5v-1.8c0-3.4.3-2.9-2.8-3zm3.7 2.7v2.2c0 .1.2.3.4.3a1.8 1.8 0 0 0 .8 0 5.8 5.8 0 0 0 4-4 1.2 1.2 0 0 0 0-.7c0-.2-.2-.5-.4-.5h-4.3c-.4 0-.6.4-.6.7v2zm-3.8 50.8h2.1c.5 0 .8-.2.8-.7v-3.9c0-.6-.4-.9-1-.7a5.9 5.9 0 0 0-4 3.5 6.3 6.3 0 0 0-.3 1.1.5.5 0 0 0 .5.7h1.9zm.1 1h-2c-.4 0-.5.3-.5.7a5.3 5.3 0 0 0 1.4 2.8 5.9 5.9 0 0 0 3.2 1.8.5.5 0 0 0 .7-.5v-4c0-.5-.3-.8-.7-.8h-2zm3.7-3.7v2c0 .5.2.7.7.7h3.9c.6 0 .8-.3.7-.9a5.8 5.8 0 0 0-4.7-4.5.5.5 0 0 0-.6.6v2zm-123.5-51.6h2a.5.5 0 0 0 .6-.6 5.7 5.7 0 0 0-4.6-4.8c-.4 0-.6.1-.6.6v2.2c0 3-.3 2.5 2.6 2.5zM344 93.8V96a.6.6 0 0 0 .6.6h4a.5.5 0 0 0 .5-.5 5.8 5.8 0 0 0-4.2-4.7c-.6-.2-.8 0-.9.7v1.7zm126.1 238.6a5.5 5.5 0 0 0 5.1-3.8 3.8 3.8 0 0 0 .2-.8c0-.3 0-.6-.4-.6h-4.3a.5.5 0 0 0-.6.5 40 40 0 0 0 0 4.7zm-126-57.1v2c0 .5.3.7.8.6a5.8 5.8 0 0 0 4.3-4.6.5.5 0 0 0-.6-.6H345c-.7 0-.9.1-.9.7v1.9zm0-175.2v1.8c0 .6.4 1 1.1.7a5.9 5.9 0 0 0 3.8-3.5 4.7 4.7 0 0 0 .2-1c.1-.4-.1-.6-.5-.7h-2c-3 0-2.6-.3-2.6 2.7zM210.7 274.2c-.5-1.5-.5-1.5-2-1.5h-25.2a.6.6 0 0 0-.6.5l-.3 1a6.6 6.6 0 0 1-12.6 0 2.2 2.2 0 0 1-.2-.4c0-1.2-.6-1.3-1.6-.9l-2.2.9-1.1.4c-.5-1.5-.5-1.5-2.1-1.5H67a.8.8 0 0 1-.8-.8v-86.5-1.8a.6.6 0 0 0-.7-.6H49.9c-2.3 0-2.2 0-2.2-2.1v-33.6c0-2.3 0-2.1 2.1-2.1H65.5c.4 0 .7-.3.6-1a9.6 9.6 0 0 0-.4-1.2L65 141c-.3-.6-.2-.7.5-.9s.8-.2.8-1V105.8v-.8c0-1.2 0-1.2-1.2-1.5a6.7 6.7 0 0 1-5-6.5 6.5 6.5 0 0 1 5-6.4c1.5-.4 1.4-.7 1-2l-1-2.5c-.3-.5-.2-.6.3-.8 1-.3 1-.3 1-1V48.7v-1.7a.6.6 0 0 0-.7-.6H32a.7.7 0 0 1-.6-.7V28.6c0-1.9 0-1.9 1.8-1.9H105a.7.7 0 0 1 .7.7 5 5 0 0 1 .2 1.1V45a3.8 3.8 0 0 1 0 .6 1 1 0 0 1-1 1H69.5c-2.7 0-2.4-.3-2.4 2.4v35.5c0 .5 0 .6.8.8a3.3 3.3 0 0 0 .3 0 .4.4 0 0 1 .3.6l-.9 2.2a12.5 12.5 0 0 0-.5 1.6.6.6 0 0 0 .4.7l.7.2a6.6 6.6 0 0 1 4.8 4.8l.2.7c.1.4.4.6.7.5a14.3 14.3 0 0 0 1.5-.4l2.2-.9c.8-.3.7-.2.8.6s.2.8 1.2.8h12.8a13.4 13.4 0 0 1 1.7.1l.2.4-.2.2a12.6 12.6 0 0 1-1.5.1H79.8c-1 0-1 0-1.4 1-.1.5-.3.6-.7.4l-2.2-1a10.5 10.5 0 0 0-1.4-.4.7.7 0 0 0-1 .6l-.1.8a6.6 6.6 0 0 1-4.6 4.6l-.7.1a.8.8 0 0 0-.6.9V138.9l.1 1c.1.3.6.2 1 .3s.5.3.3.7l-1.1 2.8c-.5 1.3-.4 1.4.9 1.5h15.3c2 0 2-.1 2 1.9v33.8c0 2 0 2-1.9 2H69.2c-2.3 0-2.1 0-2.1 2.1v84.8c0 2.2-.1 2 2 2h93.6c1.7 0 1.7 0 2.2-1.5l1 .3 2 .8c1.2.4 1.5.9 2-1a6.3 6.3 0 0 1 4.7-4.6c1.4-.4 1.4-.5 1-1.8l-1.2-3 .2-.1c1.2-.5 1.2-.5 1.3-1.7v-1-72.6c0-3 .3-2.7-2.8-2.7h-13.8c-2 0-2 0-2-1.9v-33.9c0-2 0-2 2-2h15c1.3 0 2 .3 1.2-1.8l-1-2.3c-.2-.5 0-.7.5-.8a3.3 3.3 0 0 1 .3 0 .5.5 0 0 0 .5-.6V105.2c0-1.3 0-1.4-1.4-1.8a6.5 6.5 0 0 1-4.8-6.4 6.6 6.6 0 0 1 4.9-6.4c1.4-.4 1.5-.6 1-2l-1-2.5c-.2-.5-.1-.7.4-.8.9-.3.9-.3.9-1.1V48.8v-1.5c0-.5-.2-.8-.8-.8h-31.3c-3 0-2.7.2-2.7-2.6V28.7c0-2 0-2 2-2H214.6a.8.8 0 0 1 .7.8 10.2 10.2 0 0 1 .1 1.3v15.7c0 1.9 0 2-2 2H177.6c-.6 0-.8.2-.9.9V84.2c0 .8 0 .8 1 1 .6.2.7.4.5.8l-1 2.4a10 10 0 0 0-.3 1.3.5.5 0 0 0 .4.6l.8.3a6.6 6.6 0 0 1 4.7 4.6 3.6 3.6 0 0 1 .2.6c0 .7.4 1 1.2.6l2.6-1 1.1-.3.1.2c.4 1.3.4 1.3 1.8 1.3h12.6a10.7 10.7 0 0 1 1.5.2l.1.2-.1.3a10.6 10.6 0 0 1-1.5.1H190c-1.6 0-1.6 0-2 1.6l-1.8-.7-2.3-.8a.6.6 0 0 0-.8.4l-.3 1a6.6 6.6 0 0 1-4.6 4.5 3.6 3.6 0 0 0-.8.2 1 1 0 0 0-.5.6 5 5 0 0 0 0 1.2v33.5c0 1 0 1 1 1.3.4.2.5.4.4.8l-.5 1-.7 2c-.3.9 0 1.1 1 1.2H194c1 0 1 .1 1.1 1.2v35.5c0 .7-.2 1-.9 1h-15.6c-2 0-2 0-2 2v74.7c0 .8 0 .8 1 1.1.5.2.6.3.4.8l-1 2.3a7 7 0 0 0-.3 1.2.5.5 0 0 0 .4.6l.8.2a6.7 6.7 0 0 1 4.6 4.6l.2.8a.8.8 0 0 0 .8.6h25.6c1 0 1 0 1.2-1 .2-.5.3-.6.8-.4l1.1.5a17.1 17.1 0 0 1 2 .8c.6.3 1.4-.2 1.8.6-.5.6-1.2.2-1.7.4l-2.4 1zM48.5 164v15.8c0 2.2-.1 2.1 2.2 2.1h32c2.1 0 2 .1 2-2.1V148v-1.3c0-.4-.2-.7-.7-.7H50.5c-2 0-2-.1-2 2zM176.3 146h-16.1c-2 0-2-.2-2 2V180c0 2.2-.1 2.1 2 2.1h32c2.3 0 2.2 0 2.2-2v-32c0-2.1 0-2-2-2h-16zM68.7 27.6H33.5c-1.2 0-1.3.1-1.4 1.3v15.7c0 .7.2.9 1 1h70.5c1.2 0 1.3-.1 1.3-1.4V30.1c0-2.8.2-2.5-2.4-2.5H68.7zm109.6 18h34.3c2.1 0 2 0 2-2V29.6v-1c0-.7-.1-.8-.7-.9H143c-.9 0-1 .2-1 1V44.6c0 .7.2.9.9 1h1.6zm1 51h2.4c.4 0 .5-.2.5-.5a5.8 5.8 0 0 0-4.8-4.8c-.4 0-.6.1-.6.5v4c0 .7.2.8 1 .9h1.6zm-116 0h2c.7 0 1-.1 1-.7v-4c0-.5-.3-.7-.8-.6a5.9 5.9 0 0 0-4.7 4.7c0 .4.1.6.5.7h2zm116 175.2h2.3a.5.5 0 0 0 .4-.5 5.7 5.7 0 0 0-4.7-4.8c-.3 0-.6 0-.6.4v4.3a.6.6 0 0 0 .7.6zm-2.6-171.7v1.7c0 .9.3 1 1.1 1a5.9 5.9 0 0 0 4.3-4.7c0-.3 0-.6-.4-.6h-4.3a.6.6 0 0 0-.7.6v2zM63.4 97.5h-1.2c-1.6 0-1.7 0-1.1 1.7a5.4 5.4 0 0 0 1.4 2 5.2 5.2 0 0 0 2.9 1.6c.5 0 .8-.2.8-.6v-3.9c0-.7-.2-.8-1-.8h-1.8zM175.8 269V267c0-.4-.2-.5-.7-.5a5.5 5.5 0 0 0-3.5 2.2 4.7 4.7 0 0 0-1 2.5c0 .4 0 .7.5.7h4.2c.4 0 .5-.3.5-.7v-2zm3.7 3.6h-2c-.7 0-.7.2-.7.7v4c0 .4.3.6.8.5a5.8 5.8 0 0 0 4.4-4.5c.1-.5 0-.7-.6-.8s-1.3 0-1.9 0zm-6.3 0h-2a.6.6 0 0 0-.7.7 5.6 5.6 0 0 0 3.2 4.1 5.4 5.4 0 0 0 1.4.4.5.5 0 0 0 .7-.4v-4.2a.6.6 0 0 0-.6-.6zm2.7-178.9v-2c0-.4-.3-.6-.7-.5a5.7 5.7 0 0 0-4.6 4.7c0 .4.1.6.5.6h3.6c1.2 0 1.1 0 1.2-1.3v-1.5zM69.8 96.6h1.7c.8 0 1 0 .8-1.1a5.8 5.8 0 0 0-3.6-4 4.4 4.4 0 0 0-1.1-.3.4.4 0 0 0-.5.4V96c0 .4.3.6.7.6zm-2.7 3.6v1.8c0 .6.3.8.8.7a5.8 5.8 0 0 0 4.5-4.5c0-.4-.1-.7-.5-.7h-4.2c-.4 0-.6.3-.6.7v2zm106-2.7h-1.8c-.6 0-.9.3-.7 1a5.8 5.8 0 0 0 3.8 4.1 2.8 2.8 0 0 0 .8.2.5.5 0 0 0 .6-.5v-4.2a.6.6 0 0 0-.6-.6h-2z"/>
  <path d="M403.5 327l-1-.8a4.6 4.6 0 0 1-1.9-3.8v-5.9-1.5a3.9 3.9 0 0 0-1.8-3.6 5.7 5.7 0 0 1-.8-.6.3.3 0 0 1 0-.3.4.4 0 0 1 .3-.2 1 1 0 0 1 .5 0 4.8 4.8 0 0 1 3.2 4.8v7.7a3.9 3.9 0 0 0 1.4 3c.2.3.6.5.9.7.5.4.5.7 0 1l-.4.4a4.3 4.3 0 0 0-2 3.9c.1 2.1 0 4.2 0 6.4v1.3a4.8 4.8 0 0 1-3.3 4.2l-.6-.1.2-.6a4.7 4.7 0 0 0 2.4-4.8v-6a5 5 0 0 1 2.2-4.6l.7-.6zM78.8 128.7c-1 1.1-2 2-2.7 3a.9.9 0 0 0 0 .5c0 .2.4.3.1.6a.7.7 0 0 1-.4.1h-2.2a.3.3 0 0 1-.2-.2.3.3 0 0 1 .1-.3 5 5 0 0 0 2.7-1.8l1.4-1.5c1.1-1.2.9-1 .4-2.3l-.7-1.7a1.7 1.7 0 0 0-1.3-1.3s-.1-.2 0-.2a.3.3 0 0 1 .1-.3H79a.3.3 0 0 1 0 .5.8.8 0 0 0-.3 1.2 6.2 6.2 0 0 0 1 1.8 12.3 12.3 0 0 0 2-2c.2-.3.1-.5 0-.8-.3-.6-.2-.7.3-.7h2l.3.3-.3.3a4.7 4.7 0 0 0-2.6 1.8c-2 2.3-1.8 1.4-.7 4.2l.7 1.7a1.2 1.2 0 0 0 1 .8c.2 0 .4 0 .3.3a.6.6 0 0 1-.5.2h-2.5l-.4-.2a1.4 1.4 0 0 1 .3-.4.6.6 0 0 0 .3-.8l-1.2-2.8zM356 125a9.3 9.3 0 0 1 3 0c.3 0 .3.2 0 .4s-.5.4-.3.8l1 2.1a8.7 8.7 0 0 0 2.1-2.2.7.7 0 0 0 .1-.4c0-.8 0-.8.7-.8a3.8 3.8 0 0 1 .7 0c.4 0 .8-.2 1.1.2l-1 .6a8.3 8.3 0 0 0-1.2.9l-1.7 1.8a1.2 1.2 0 0 0-.3 1.5l1.2 2.8a1.8 1.8 0 0 0 1.2 1.3.3.3 0 0 1 .1.2.3.3 0 0 1-.1.2h-2.9a.3.3 0 0 1 0-.5.8.8 0 0 0 .2-1.1l-.2-.6c-1-2.1-.8-2.1-2.3-.5l-1 1a.8.8 0 0 0-.1 1.3c.1.2 0 .4-.3.4h-2.3l-.2-.2a.4.4 0 0 1 .2-.2 5.5 5.5 0 0 0 2.9-2.2l1-1c1-1.1 1-1.1.4-2.6l-.5-1.2a3.4 3.4 0 0 0-1.5-2zM480.1 293l1.4 3.3c.4 1 .4.9-.3 1.5l-2.5 2.3-.8.8c.1.4.4.3.6.3h3a3.2 3.2 0 0 0 3.3-1.9 2.3 2.3 0 0 1 .2-.4.2.2 0 0 1 .2 0l.1.3a2 2 0 0 1 0 .4c-1 2.7-.6 2.3-3.3 2.4h-4.6a3.3 3.3 0 0 1-.8-.1.5.5 0 0 1-.2-.4 3 3 0 0 1 .6-.6l2.5-2.3c1.2-1 1-1 .5-2.2l-1.4-3.3c-.2-.4 0-.7.5-.8h6.7c.6 0 .8.3.8.9a6.7 6.7 0 0 1 0 1c-.1.3 0 .8-.5 1a5 5 0 0 1-.2-1 1.4 1.4 0 0 0-1.2-1.2 1.7 1.7 0 0 0-.5 0 26.4 26.4 0 0 0-4 0zM188 124.4a14.1 14.1 0 0 1 3-.1.3.3 0 0 1 .2.4.8.8 0 0 0-.4 1c1 2.3.8 2.3 2.5.6a4.8 4.8 0 0 0 .5-.7 1.2 1.2 0 0 0 .2-.6c0-.8 0-.8.5-.8a7 7 0 0 1 2 .1l-.1.4a5.2 5.2 0 0 0-2.5 1.7c-2.2 2.5-2 1.5-.8 4.5l.4 1.1a1.8 1.8 0 0 0 1.2 1.3.3.3 0 0 1 .2.3l-.2.2a.3.3 0 0 1-.2 0H192a.6.6 0 0 1-.4-.2c-.2-.3.1-.3.3-.5l.2-.5a10.6 10.6 0 0 0-1.3-2.8 18.1 18.1 0 0 0-2.6 2.6c-.2.3-.2.5 0 .8s.1.5-.2.6h-2.2a.5.5 0 0 1-.3-.2l.3-.4a4.8 4.8 0 0 0 2.4-1.7 4 4 0 0 0 .3-.3l2-2.3-1.6-3.7c-.1-.4-.6-.5-1-.8zM376.8 200.6l-.8.5a1.1 1.1 0 0 1-1.5-1.2 5.2 5.2 0 0 1 .3-1.1l.6-1.8a4.4 4.4 0 0 0 .1-.8.9.9 0 0 0-1.3-1 2.7 2.7 0 0 0-1.6 1.8l-.6 2.5a8 8 0 0 1-.4 1.3.6.6 0 0 1-.6.2.6.6 0 0 1-.3-.4c0-.7.3-1.4.4-2l.5-2.5c0-.8-.6-1.2-1.3-.9a2.8 2.8 0 0 0-1.6 2l-.6 2.4a4.7 4.7 0 0 1-.3 1 1.2 1.2 0 0 1-.6.5c-.2 0-.5-.4-.4-.8l.8-3.5a6.4 6.4 0 0 0 .2-1.1.5.5 0 0 0-.2-.4.5.5 0 0 0-.5.1l-.5 1.2-.3.2-.1-.3a2.5 2.5 0 0 1 .1-.7c.5-1.1 1.1-1.4 2.3-.7a.8.8 0 0 0 .9 0c1.6-.7 1.9-.6 3.4.4a3.5 3.5 0 0 1 2-.8 1.6 1.6 0 0 1 1.7 1.8 11.8 11.8 0 0 1-.4 1.7l-.5 1.6a1 1 0 0 0 0 .7c.2.3.5 0 .8 0l.1-.1zM255.9 318.7l-.4 2.3a3.8 3.8 0 0 1-.5 1.2 2.6 2.6 0 0 1-4.4 0 3.5 3.5 0 0 1-.5-1 9.8 9.8 0 0 1 0-5.3 4 4 0 0 1 .3-.8 2.6 2.6 0 0 1 4.6 0 9.2 9.2 0 0 1 .7 2.4 5 5 0 0 1 0 1.2zm-1.5-.3v-2.3a2.6 2.6 0 0 0-.5-1.3 1.3 1.3 0 0 0-2.3 0 3.3 3.3 0 0 0-.4 1.5v4.4a4.3 4.3 0 0 0 .3 1.3 1.4 1.4 0 0 0 2.6-.1 3.7 3.7 0 0 0 .3-1.1v-2.4zM355.4 196.4l3-3.6a.5.5 0 0 0 0-.8c-.1-.3 0-.5.3-.6a3.8 3.8 0 0 1 1 0c.4 0 1-.2 1.2.3s-.7.4-1 .6a11 11 0 0 0-1.2 1l-2.8 3.2a6 6 0 0 0-1.1 3.5c0 .3.2.4.5.5.1 0 .4 0 .2.3l-.2.2h-3a.4.4 0 0 1-.2-.2c-.2-.2 0-.3.2-.3a1 1 0 0 0 1.2-1 .5.5 0 0 1 0-.1c.6-2 .6-2-.2-4l-.8-2.2a1.5 1.5 0 0 0-1-1.2l-.2-.3.3-.2h2.7s.2 0 .2.2a.3.3 0 0 1-.1.2c-.5.3-.6.6-.4 1.1l1 2.5.4.9zM188 196.2l.9-.7 1.9-2.2c.4-.5 1-1 .1-1.8a7.3 7.3 0 0 1 2.6 0 .3.3 0 0 1 .2.1.3.3 0 0 1-.2.3 5.2 5.2 0 0 0-2.6 2c-.6.7-1.2 1.5-1.9 2.1-1 1.1-1.3 2.5-1.5 3.9-.1.4.3.5.6.5l.3.2-.4.3h-3l-.2-.2.2-.2c.8 0 1.1-.6 1.3-1.3a10.2 10.2 0 0 0 .3-1.3 3.9 3.9 0 0 0 0-1.5l-1.4-3.6a2.1 2.1 0 0 0-.7-.7c-.1-.2-.6-.2-.4-.6l.6-.1h2.2l.4.1c.1.3-.2.4-.3.5s-.3.4-.3.5a17 17 0 0 0 1.4 3.7zM426.3 97a4.9 4.9 0 0 1-.7 3 1.4 1.4 0 0 1-.8.3H419l-.6-.3.4-.3a1 1 0 0 0 1-.9l1.8-6.8c0-.4-.2-.6-.5-.7l-.3-.4.5-.2h2.8c.2 0 .4 0 .4.2.1.3-.2.3-.4.3a1.2 1.2 0 0 1-.3 0 1 1 0 0 0-.9.9l-.6 2.4-1.1 4.4c-.1.5 0 .7.5.7a11.6 11.6 0 0 0 1.2 0 3 3 0 0 0 2.8-1.7l.5-1zM240.5 96.7a2.3 2.3 0 0 1-.3 1.8c-.6 1.8-.4 1.8-2.6 1.8h-4.3a1.7 1.7 0 0 1-.5 0 .4.4 0 0 1-.2-.3.3.3 0 0 1 .1-.2c.9 0 1.2-.6 1.3-1.3l1.6-6.3c.1-.4.2-.7-.2-.9-.2-.1-.6-.1-.5-.5l.6-.2h2.4c.3 0 .7-.1.7.4l-.6.3a1 1 0 0 0-1 .8l-1.7 6.8c-.1.5 0 .8.6.8h1.2a3 3 0 0 0 2.7-1.7 6.3 6.3 0 0 1 .7-1.3zM131 97a3.3 3.3 0 0 1 0 .5c-1.3 3.3-.6 2.8-4 2.8h-3a6 6 0 0 1-.8 0 .4.4 0 0 1-.2-.3v-.2c1 0 1.2-.7 1.4-1.4l1.5-6c.2-.6.2-1-.5-1.3a.3.3 0 0 1-.1-.2l.2-.2h3.3a.3.3 0 0 1 .2.2v.2a.2.2 0 0 1-.2.1c-1.1 0-1.4.7-1.6 1.6l-1.5 6.2c-.1.5 0 .7.6.7h.8a3.1 3.1 0 0 0 3.1-1.8l.6-1zM72.5 192.4a16.4 16.4 0 0 1 3.4-.1l.1.2a.3.3 0 0 1-.1.3.6.6 0 0 0-.4.6 3 3 0 0 0 .2.8c.5.9.5 2 1.3 2.7l2-2a10.8 10.8 0 0 0 .9-1 1.8 1.8 0 0 0 .3-.8l-.1-.6a2.6 2.6 0 0 1 .8-.2 1.7 1.7 0 0 1 .5 0c.4 0 .9-.3 1.2.2a10 10 0 0 0-1 .6 9.6 9.6 0 0 0-1.3 1l-2.1 2.4a6.6 6.6 0 0 0-1.8 3.6c-.2.6-.1 1 .6 1.3a.3.3 0 0 1 0 .2.3.3 0 0 1-.1.2h-2.4c-.3 0-.7.2-.8-.3l.7-.4a1.4 1.4 0 0 0 .5-.6c.5-1.3.9-2.7.1-4.2a20.8 20.8 0 0 1-.9-2.3c-.3-.9-.3-.9-1.6-1.6zM200.7 199.8h2c1 0 1 0 1.7-1 .3.5.1 1 0 1.3 0 .7-.2 1-1 1l-3.8-.1a.4.4 0 0 1-.2-.6l2-2.5a18 18 0 0 0 1.5-1.8 3 3 0 0 0 .3-2.6 1.6 1.6 0 0 0-2.7-1c-.4.4-.4.6 0 1.2v.2a1.3 1.3 0 0 1 0 .8 1 1 0 0 1-.8.2.7.7 0 0 1-.5-.7 2.6 2.6 0 0 1 1.8-2.5 3 3 0 0 1 3.3 1.1 2.9 2.9 0 0 1-.1 3.3 20 20 0 0 1-1.7 1.7 10.1 10.1 0 0 0-1.8 2zM207.6 131.7a2 2 0 0 1 0 .5c0 1.6 0 1.6-1.8 1.6h-3.1a.4.4 0 0 1-.3-.6 7.6 7.6 0 0 1 .6-.8l2.1-2.4a5.8 5.8 0 0 0 1.2-2.1 2.7 2.7 0 0 0-.1-1.8 1.6 1.6 0 0 0-2.5-.8c-.4.2-.5.5-.3 1a2.8 2.8 0 0 1 .3.5.7.7 0 0 1-.5 1 .8.8 0 0 1-1-.6 1.6 1.6 0 0 1 0-.7 2.7 2.7 0 0 1 3.5-2 2.8 2.8 0 0 1 2 3.6 4.7 4.7 0 0 1-1.2 1.7l-2.2 2.1a.5.5 0 0 0-.2.4.5.5 0 0 0 .4.3h1.7a1 1 0 0 0 1.1-.9h.3zM253.4 338h-2.9a1.3 1.3 0 0 1-.4-.2l.3-.3c.7-.1 1-.6 1.2-1.2l1.6-6.6c0-.2.1-.5-.2-.7s-.6 0-.5-.4c0-.2.4-.2.6-.2h2.2c.3 0 .7-.2.8.3a2.3 2.3 0 0 1-.7.2 1 1 0 0 0-.9 1l-1 3.9-.6 2.8c-.2.4 0 .7.5.7a12.5 12.5 0 0 0 1.5 0 2.7 2.7 0 0 0 2.3-1.4l.7-1.2h.1l.2.2-1 2.7a.8.8 0 0 1-.8.5zM330.5 335.6l-.7 1.5c-.1.2-.4.6-.7.6-.5 0-.4-.6-.4-.9l-.9-5.8-.1-.6-.3.1-1.5 5.6c-.1.5-.1 1 .6 1.4a.3.3 0 0 1 0 .2l-.1.2h-2.3a.3.3 0 0 1-.2-.2.3.3 0 0 1 .1-.3c1-.1 1.3-1 1.5-1.8l1.4-5.8c.2-.6.1-.6-.6-1a2.4 2.4 0 0 1-.2-.1l.3-.3h.2c2-.1 2.1-.1 2.3 1.8l.7 5c.1.6.2.6 1 .4zM330.5 320.8a15.7 15.7 0 0 1-.7 1.4c-.1.3-.4.7-.7.7-.5 0-.4-.6-.4-1l-.9-5.7-.1-.7-.3.2-1.5 5.5c-.1.6-.1 1.2.6 1.4a.3.3 0 0 1 0 .3l-.1.2h-2.3l-.2-.2.1-.3c1-.2 1.3-1 1.5-1.8l1.4-5.9c.2-.5.1-.5-.6-.9a1.6 1.6 0 0 1-.2-.2l.3-.3a.3.3 0 0 1 .2 0c2 0 2.1 0 2.3 1.9l.7 5c.1.6.2.6 1 .4zM273.9 331.8h.6c.6 0 1 .2.9.5s-.4.4-.7.5c-.8.3-1.1 1.1-1.6 1.7a.7.7 0 0 0 0 .7c.7.8 1.1 1.7 2.3 2a.5.5 0 0 1 .2.4l-.3.3a14.8 14.8 0 0 1-2 0c-.1 0-.3-.3-.3-.5v-.8c0-.4-.5-.9-.7-.7a6.2 6.2 0 0 0-.7.9v.1c0 1.1 0 1.1-1 1.1a5.6 5.6 0 0 1-1.1 0 .5.5 0 0 1-.3-.4c0-.2 0-.4.2-.4 1-.3 1.5-1.2 2-1.9a.7.7 0 0 0 0-1 3.7 3.7 0 0 0-2-1.6.5.5 0 0 1-.2-.4.5.5 0 0 1 .3-.4 5.7 5.7 0 0 1 1.2 0 2 2 0 0 1 1 .1c.3.2 0 .6 0 1a.4.4 0 0 0 0 .2 1.7 1.7 0 0 0 .7.5l.4-.5a2 2 0 0 0 0-.6c0-.5 0-.7.4-.7a6 6 0 0 1 .7 0zM388.5 321.1a2.2 2.2 0 0 1-1.1 2 1.3 1.3 0 0 1-1.5-.2 1.1 1.1 0 0 1-.3-1.2l.6-2a9.2 9.2 0 0 0 .3-1.7.7.7 0 0 0-.8-.7 2.2 2.2 0 0 0-2 1.6 15.9 15.9 0 0 0-.6 2c0 .5-.2 1-.3 1.4a1.6 1.6 0 0 1-.3.6.6.6 0 0 1-.5.2.5.5 0 0 1-.3-.3 3.7 3.7 0 0 1 .1-1l.7-3a6.4 6.4 0 0 0 .1-1.1l-.2-.2h-.3l-.8 1.2a1.6 1.6 0 0 1 .5-1.7 1 1 0 0 1 1.4 0c.5.6 1 .4 1.5 0a2 2 0 0 1 1.6-.3 1.4 1.4 0 0 1 1.3 1.7 11.2 11.2 0 0 1-.4 2l-.6 1.9a.5.5 0 0 0 .2.3.5.5 0 0 0 .5 0l1.2-1.5zM388.5 336a2.2 2.2 0 0 1-1 2 1.3 1.3 0 0 1-1.4 0 1.2 1.2 0 0 1-.5-1.4l.6-1.8a10.2 10.2 0 0 0 .3-1.8c0-.6-.4-.9-1-.8a2.4 2.4 0 0 0-1.8 1.8c-.3.6-.4 1.2-.5 1.8l-.4 1.5a1.5 1.5 0 0 1-.3.5.6.6 0 0 1-.4.2c-.2 0-.3-.2-.3-.3a4.2 4.2 0 0 1 0-1l.8-3a5.5 5.5 0 0 0 0-1.1c0-.1 0-.2-.2-.2h-.3l-.8 1.2a1.5 1.5 0 0 1 .6-1.7 1 1 0 0 1 1.4 0c.5.6.9.4 1.4 0a2 2 0 0 1 1.6-.3 1.4 1.4 0 0 1 1.3 1.6 13 13 0 0 1-.5 2.3l-.5 1.6a.4.4 0 0 0 .7.3l1.2-1.5zM377.1 129.1a7.2 7.2 0 0 0-1 2.5l-.5 2.1a1.3 1.3 0 0 1-.3.6.8.8 0 0 1-.6.1l-.2-.3c0-.6.2-1.1.3-1.7l.6-2.6c0-.4 0-.9-.4-1a1.7 1.7 0 0 0-1.1 0 2.8 2.8 0 0 0-1.5 2l-.7 2.8a2.3 2.3 0 0 1-.3.8.5.5 0 0 1-.5 0 .5.5 0 0 1-.2-.3 3.7 3.7 0 0 1 0-1l.8-3a3.6 3.6 0 0 0 0-1l-.2-.3-.3.1-.8 1.3a1.6 1.6 0 0 1 .6-1.8 1.1 1.1 0 0 1 1.4 0l.6.5.6-.3a2.2 2.2 0 0 1 3 .2c0 .2.3.1.6.2zM346 332.1a1.8 1.8 0 0 1 2.4 0c.6.4 1 .3 1.4 0a2.2 2.2 0 0 1 1.8-.4 1.4 1.4 0 0 1 1.2 1.5 11.2 11.2 0 0 1-.4 2l-.5 1.6c-.1.6 0 .7.8.8l.2.1a1 1 0 0 1-1 .4 1.1 1.1 0 0 1-1.1-1.3c0-.5.3-1 .4-1.5a15.8 15.8 0 0 0 .5-2.2c.1-.6-.4-1-1-.9a2.4 2.4 0 0 0-1.8 1.9l-.7 2.7a3.3 3.3 0 0 1-.4 1 .6.6 0 0 1-.5.2.6.6 0 0 1-.3-.4 7.6 7.6 0 0 1 .2-1.3l.6-2.8c.1-1-.1-1.3-1.2-1.2a4.3 4.3 0 0 0-.5 0l-.2-.2zM346 317.3a1.8 1.8 0 0 1 2.4 0c.6.4 1 .2 1.4 0a2.1 2.1 0 0 1 1.8-.4 1.4 1.4 0 0 1 1.2 1.5 11 11 0 0 1-.4 2l-.5 1.6c-.1.6 0 .7.8.8l.2.1a1.2 1.2 0 0 1-2.1-.9c0-.5.3-1 .4-1.6a15.5 15.5 0 0 0 .5-2c.1-.8-.4-1-1-1a2.4 2.4 0 0 0-1.8 1.8l-.7 2.8a3.4 3.4 0 0 1-.4 1 .6.6 0 0 1-.5.2.6.6 0 0 1-.3-.5 7.3 7.3 0 0 1 .2-1.3l.6-2.7c.1-1-.1-1.3-1.2-1.3l-.5.1-.2-.2zM334.3 315c.5-1.4.6-1.5 2-1.5a5.7 5.7 0 0 1 .8 0l.3.2v.3c-1 0-1.3.5-1.5 1.4-.4 2-1 3.9-1.5 5.8-.2 1-.2 1 .7 1.7 0 .3-.4.2-.6.3h-1.8c-.4 0-.8.2-1-.3a6 6 0 0 0 .8-.5 1.4 1.4 0 0 0 .5-.6l1.5-6-.2-.7zM400.3 126.2v-.1l2.1-.9c.2 0 .5.2.5.3a8.5 8.5 0 0 1 0 1.4v5.7c0 .8.3 1.3 1.1 1.3l.3.2a.3.3 0 0 1 0 .2h-3.8l-.1-.1.1-.3c1 0 1.3-.7 1.2-1.6v-4.9c0-.9 0-.9-1-1h-.3l-.1-.2zM334.3 329.9c.5-1.5.6-1.6 2-1.6a5.7 5.7 0 0 1 .8 0 1 1 0 0 1 .3.3v.2c-1 0-1.3.6-1.5 1.4-.4 2-1 3.9-1.5 5.9-.2.8-.2.8.7 1.6 0 .3-.4.3-.6.3a14.3 14.3 0 0 1-1.8 0c-.4 0-.8.2-1-.3a5 5 0 0 0 .8-.4 1.4 1.4 0 0 0 .5-.7l1.5-6-.2-.7zM399.2 196v3.1a1.9 1.9 0 0 0 .2 1.1c.2.2.7.2 1 .3a.3.3 0 0 1 .2.2l-.2.2h-3.7l-.2-.2a.3.3 0 0 1 .2-.2 1.8 1.8 0 0 1 .3 0c.9-.3.9-.3 1-1.2v-5.5c0-.8 0-.8-1-.8a2.6 2.6 0 0 1-.4 0l-.2-.1.1-.3 1.9-.7c.4-.2.7 0 .7.4v3.6zM93.5 123.6v7.9c0 .6.2.7.8.9a2.6 2.6 0 0 1 .5 0l.1.3a.2.2 0 0 1 0 .1l-1.6.1h-2.2l-.2-.2.2-.3h.7a1.2 1.2 0 0 0 .4-.6 1.1 1.1 0 0 0 0-.5v-5.8a2.6 2.6 0 0 0 0-.6H91l-.2-.2a.3.3 0 0 1 .2-.2zM275.4 167.9a2.1 2.1 0 0 1-2 2.2 2.2 2.2 0 0 1-2.2-2.2 2.2 2.2 0 0 1 2.1-2.1 2.1 2.1 0 0 1 2.1 2zM243.9 272.4a2.1 2.1 0 1 1 2 2.2 2.2 2.2 0 0 1-2-2.2zM260.6 165.8a2.2 2.2 0 1 1 0 4.3 2.2 2.2 0 0 1 0-4.3zM248 168a2.2 2.2 0 0 1-2.1 2 2.2 2.2 0 1 1 0-4.2 2.2 2.2 0 0 1 2.1 2.1zM258.4 272.4a2.2 2.2 0 1 1 4.4 0 2.3 2.3 0 0 1-2.2 2.2 2.2 2.2 0 0 1-2.2-2.2zM275.6 272.4a2.2 2.2 0 1 1-2-2.2 2.2 2.2 0 0 1 2 2.2zM271.9 72.8a2.1 2.1 0 1 1 2.2-2 2 2 0 0 1-2.2 2zM244.4 68.6a2.1 2.1 0 1 1-2.2 2 2.1 2.1 0 0 1 2.2-2zM261.2 70.7a2 2 0 0 1-2 2.1 2 2 0 0 1-2.2-2 2 2 0 0 1 2-2.2 2 2 0 0 1 2.2 2zM313.1 332c-1.4.6-1.4.6-1.4 2.1v2.7c0 .5 1 .4 1 1l-1 .2h-2l.3-.5a1 1 0 0 0 .6-1v-3.4c0-.6-.7-.6-.8-1 .4-.3.8-.6.8-1.2a3.4 3.4 0 0 1 0-1 2.1 2.1 0 0 1 3-1.6.8.8 0 0 1 .4.5.5.5 0 0 1-.3.7.9.9 0 0 1-.6 0l-.3-.4c-.3-.4-.6-.5-.8 0a2.5 2.5 0 0 0-.3.8 6.6 6.6 0 0 0 0 1.1c0 .7 0 .7.7.9zM313 317.4a3.3 3.3 0 0 1-.6.2.7.7 0 0 0-.7.7 26.8 26.8 0 0 1 0 2.7 1.7 1.7 0 0 0 1 1.9v.2H310a2.9 2.9 0 0 0 .8-2.4v-2.2c0-.3-.1-.7-.3-.8-.7-.3-.7-.5 0-.8.2 0 .2-.4.2-.6l.1-1.2a2.1 2.1 0 0 1 3-1.6c.2 0 .4.4.4.7a.7.7 0 0 1-.3.5.8.8 0 0 1-.6 0l-.3-.5c-.2-.4-.6-.4-.8 0a3.4 3.4 0 0 0-.3.8 3 3 0 0 0 0 .7c0 1 0 1 1.1 1.4l.2.3zM391.6 101.8l-.5.5a1 1 0 0 1-1.2-1 8.2 8.2 0 0 1 .3-1 3.5 3.5 0 0 0 .2-.9 1.8 1.8 0 0 0-.2-.9c-.2-.3-.8-.1-1.2.2a2.7 2.7 0 0 0-.8 1.5l-.4 1.6c-.1.3-.5.5-.7.4a.8.8 0 0 1-.2-.6l.3-1.5.2-1c0-.4 0-.6-.3-.6a1.2 1.2 0 0 0-.8 0 2.3 2.3 0 0 0-1 1.4l-.5 1.7a1.7 1.7 0 0 1-.3.5h-.3l-.3-.1a4.5 4.5 0 0 1 0-.8l.5-2.3c0-.4-.3-.4-.5-.5h-.2a.9.9 0 0 1 1.2-.3 1.5 1.5 0 0 0 1.3 0 2 2 0 0 1 2 .1.7.7 0 0 0 .7 0 2.9 2.9 0 0 1 .6-.2c1.4-.3 2 .3 1.7 1.6 0 .6-.3 1.1-.4 1.7s.3.4.7.4zM88.7 193.5l2.2-.9a.3.3 0 0 1 .4.3 10 10 0 0 1 0 1.4v5.5c0 .8.2 1.4 1.2 1.5a.2.2 0 0 1 .1.1.7.7 0 0 1 .1.3H88.8l.1-.3a1.5 1.5 0 0 1 .5-.2.8.8 0 0 0 .7-.9v-5.8c0-.6 0-.6-.7-.7h-.8zM368.4 319.6l1.4.8 5 2.3a5.3 5.3 0 0 1 .7.5.2.2 0 0 1 0 .1l-.2.3a.5.5 0 0 1-.4 0l-7.4-3.5c-.5-.2-.4-.7 0-1a5.7 5.7 0 0 1 .6-.2l3.5-1.7 2.7-1.2a4.4 4.4 0 0 1 .8-.3.3.3 0 0 1 .3.1.3.3 0 0 1 0 .3 7.8 7.8 0 0 1-1 .6l-4.9 2.3-1.1.6zM217.7 101.4c1 0 1.9.3 2.7-1a10.9 10.9 0 0 1-.1 1.2.8.8 0 0 1-.8.7h-2.9a.5.5 0 0 1-.4-.2.5.5 0 0 1 .1-.5l1.5-1.5a7.6 7.6 0 0 0 1-1.1 2.9 2.9 0 0 0 .5-1.3 1.3 1.3 0 0 0-1.8-1.4c-.5.1-.6.3-.5 1 0 .3 0 .6-.3.7a.6.6 0 0 1-.5 0 .7.7 0 0 1-.1-.9 2 2 0 0 1 1.4-1.2 2.5 2.5 0 0 1 2.3.5 1.8 1.8 0 0 1 .3 2.4 8.2 8.2 0 0 1-1.1 1.2l-1.3 1.1v.3zM339.6 334.4v-6a1 1 0 0 1 1.8-.8v.3c-1.3.3-1 1.4-1 2.3v9.4c0 .6 0 1.2.8 1.3l.3.3-.4.3a3 3 0 0 1-1 0 .7.7 0 0 1-.4-.4 5.7 5.7 0 0 1-.1-1.2v-5.4zM408 131v6.4a.6.6 0 0 1-.5.5 6.4 6.4 0 0 1-1.1 0l-.2-.3v-.1c1.2-.2 1.2-1 1.2-2v-9.2-1a.7.7 0 0 0-.6-.7c-.2 0-.6-.1-.5-.5l.8-.2a1.7 1.7 0 0 1 .5 0 .6.6 0 0 1 .5.5v1.2zM84.9 198.3V193v-1.2a.6.6 0 0 1 .7-.6 8.3 8.3 0 0 1 1 0v.5a6.5 6.5 0 0 0-.6.3 1.1 1.1 0 0 0-.3.4 2.5 2.5 0 0 0 0 .7v10.3c0 .7 0 1.1.8 1.3l.2.3-.2.2a2.5 2.5 0 0 1-.7 0c-.7 0-.9-.1-1-.8v-4-2.2zM96.5 198.5v5.8c0 1-.2 1-1.1 1h-.3a.4.4 0 0 1-.2 0l-.2-.2a.3.3 0 0 1 .1-.3.6.6 0 0 1 .3-.1c.6-.1.7-.5.7-1v-.8-9.1-1a.7.7 0 0 0-.5-.8c-.3 0-.6-.2-.5-.5l.7-.2c.8 0 1 .1 1 1v6.2zM339.6 319.5v-5-1.1c0-.4.2-.7.7-.8a4.6 4.6 0 0 1 .8 0l.3.2-.2.4c-.7.1-.9.5-.9 1.2v10.4c0 .7.2 1.1 1 1.3l.3.2-.4.3a4.2 4.2 0 0 1-1 0 .6.6 0 0 1-.5-.5v-1.2-5.4zM356.6 334.5v6a1 1 0 0 1-1.8.8v-.3c.3-.2.8-.3 1-.6a5.3 5.3 0 0 0 0-1.6v-9a7.7 7.7 0 0 0 0-1.1 1 1 0 0 0-.4-.5c-.2-.2-.7-.1-.6-.6.1-.2.5-.2.8-.2.8 0 1 .1 1 1v6zM356.6 319.8v6c0 .6-.3.8-.8.9a5 5 0 0 1-.7 0 .4.4 0 0 1-.2 0c0-.2-.2-.2-.2-.3a.3.3 0 0 1 .1-.3.7.7 0 0 1 .3-.1c.6-.1.7-.5.7-1v-7.7-3c0-.5 0-1-.8-1.2l-.2-.3.2-.2a5.7 5.7 0 0 1 .9 0 .6.6 0 0 1 .6.6V319.8zM199.2 130v-5-1.1a.6.6 0 0 1 .7-.6 4.6 4.6 0 0 1 .8 0l.3.1-.2.4c-.8.2-.9.7-.9 1.4v10.1c0 .8.1 1.3 1 1.5l.1.2c0 .1 0 .2-.2.2a5 5 0 0 1-1.1 0 .7.7 0 0 1-.4-.4 5.7 5.7 0 0 1-.1-1.2v-5.5zM210.9 130.3v6a1.1 1.1 0 0 1-1.8.8v-.3a.1.1 0 0 1 .1 0c.9-.2 1-.8 1-1.5v-10.1c0-.7-.1-1.3-.9-1.4l-.2-.4.3-.1a4.7 4.7 0 0 1 .8 0 .6.6 0 0 1 .7.6v6.3zM367.2 131v-6c0-1 .2-1.2 1.3-1.1.2 0 .4 0 .5.2s-.1.4-.4.4c-.6.1-.7.5-.7 1v10.8c0 .8.5 1 1 1.1l.2.3a.5.5 0 0 1-.3.2.8.8 0 0 1-.3.1c-1 0-1.3 0-1.3-1.2V131zM98.7 129.5v6.4a.6.6 0 0 1-.7.6 5.5 5.5 0 0 1-1-.1l-.1-.3v-.1-.1c1 0 1-.7 1-1.5v-10-.4c0-.6 0-1-.7-1l-.3-.3a1.7 1.7 0 0 1 .4-.3 2.1 2.1 0 0 1 .7 0 .6.6 0 0 1 .7.6v6.5zM87 129.4V124a8.4 8.4 0 0 1 0-1c0-.5.2-.7.8-.7a4.7 4.7 0 0 1 .8 0 .3.3 0 0 1 .2.3.3.3 0 0 1-.1.3.5.5 0 0 1-.3 0c-.6 0-.7.5-.7 1V135a.8.8 0 0 0 .7.9c.2 0 .5.1.4.4s-.4.2-.6.2a1.7 1.7 0 0 1-.5 0c-.5 0-.7-.2-.7-.7v-2.3zM196 197.3v-5.9c0-.9.3-1 1.2-1h.5a.3.3 0 0 1 .1.2h.1v.4a4.8 4.8 0 0 0-.6.2.9.9 0 0 0-.4.5 4.7 4.7 0 0 0 0 1v10.2c0 .5 0 1 .7 1l.3.3c-.1 0-.2.3-.4.3a2.6 2.6 0 0 1-.8 0 .5.5 0 0 1-.6-.5v-1.4-5.3zM404.3 197.5v6.1c0 .7-.2.9-1 .9a1.7 1.7 0 0 1-.5 0l-.4-.3c0-.2.2-.3.3-.3.7 0 .8-.5.8-1.2v-10.6c0-.6-.1-1-.8-1.1a.4.4 0 0 1-.3-.4.6.6 0 0 1 .4-.2 1.4 1.4 0 0 1 .5 0c.7 0 1 .2 1 .9v1.1zM207.7 197.5v5.5a7.9 7.9 0 0 1 0 .8c0 .5-.2.7-.7.7a2 2 0 0 1-.7 0 .5.5 0 0 1-.4-.2l.2-.4c.8 0 1-.5 1-1.1v-10.6c0-.6-.2-1.1-1-1.2 0 0-.2-.2-.1-.3a.5.5 0 0 1 .3-.3 3.8 3.8 0 0 1 .8 0 .5.5 0 0 1 .6.5v6.6zM363.4 197.4v-5.3a6.3 6.3 0 0 1 0-1.2.7.7 0 0 1 .5-.5 5 5 0 0 1 1.1 0l.2.3a.3.3 0 0 1 0 .3 1.2 1.2 0 0 1-.6.1.6.6 0 0 0-.5.6v11.1c0 .6.3 1 1 1l.1.5c0 .2 0 .2-.2.2a6.7 6.7 0 0 1-1 0 .5.5 0 0 1-.5-.6v-1.3zM104.1 97.5l1-2.2a6.7 6.7 0 0 1 .5-.8h.3c.1 0 0 0 0 .1a1.7 1.7 0 0 1-.1.3 24.9 24.9 0 0 0-2.3 6.8c-.1.5-.1 1-.6 1.2-.3.1-.3-.4 0-1.3a9.4 9.4 0 0 0 .5-3.7 6.6 6.6 0 0 0-.3-1.4 2 2 0 0 0-3.3-.9l-.7.8a.3.3 0 0 1-.3 0 .4.4 0 0 1 0-.3 3.4 3.4 0 0 1 1.1-1.6 2 2 0 0 1 3.3.7c.4.6.5 1.3 1 2.3zM376 96.5l-.2-.3a3.1 3.1 0 0 1 1.2-1.8 2 2 0 0 1 3.2.7 9.6 9.6 0 0 1 .5 1.4l.3.8c.5-.3.6-.9.8-1.3l.9-1.6h.1l.2.1a1.2 1.2 0 0 1-.1.3l-.6 1.3a21.1 21.1 0 0 0-1.7 5.4 7.5 7.5 0 0 1-.5 1.3.3.3 0 0 1-.2.1l-.2-.3a3.8 3.8 0 0 1 0-.8 12 12 0 0 1 .5-1.4 7.5 7.5 0 0 0 .2-3 1.9 1.9 0 0 0 0-.4 2.3 2.3 0 0 0-1.6-1.8 2.2 2.2 0 0 0-2.3.8zM412.4 448.8l2 .1.3.4-.3.4-1.7.2c-.5 0-.8 0-1 .7l-.6 3.1a6.9 6.9 0 0 1-.4 1.3.5.5 0 0 1-.5.1l-.3-.3a5 5 0 0 1 .2-1.2l.9-2.9c.2-.6 0-.9-.8-.8a2.4 2.4 0 0 0-1.6.8h-.3v-.3a2.6 2.6 0 0 1 2.6-1.6h1.5zM208.7 96.4l-.1-.1a2.8 2.8 0 0 1 2.3-2.3 1.7 1.7 0 0 1 1.7.7 7 7 0 0 1 .7 1.4l.5 1.4 1.5-3.1c.4.1.3.3.2.5l-.6 1.4a19.5 19.5 0 0 0-1.5 4.8 11 11 0 0 1-.6 1.7.3.3 0 0 1-.2.1.3.3 0 0 1-.2-.2c.2-.9.3-1.8.6-2.6a5.6 5.6 0 0 0 0-3.2 3.4 3.4 0 0 0-.2-.6 2 2 0 0 0-3-.9 9 9 0 0 0-1 1zM359.8 334.4v-5.2a9.8 9.8 0 0 1 0-1.3l.3-.2a.4.4 0 0 1 .2.2 1.5 1.5 0 0 1 .2.5v11a11.8 11.8 0 0 1-.1 1.4.5.5 0 0 1-.3.3c-.3.1-.3-.2-.3-.4v-2.5zM321.5 334.5v5.4a4.8 4.8 0 0 1-.1 1l-.3.2-.3-.1a9 9 0 0 1 0-1.2V334v-5a7.5 7.5 0 0 1 0-1.2.3.3 0 0 1 .3-.2l.2.2a6.3 6.3 0 0 1 .2 1.1v5.5zM359.8 319.5v-5.2a9.8 9.8 0 0 1 0-1.3l.3-.1a.3.3 0 0 1 .2.2 1.3 1.3 0 0 1 .2.5v11a11.8 11.8 0 0 1-.1 1.3.5.5 0 0 1-.3.4c-.3 0-.3-.2-.3-.4v-2.5zM321.5 319.8v5.2a9.2 9.2 0 0 1-.1 1.1l-.2.2-.4-.2a4.8 4.8 0 0 1 0-1v-11a6.5 6.5 0 0 1 0-1.1l.3-.1a.3.3 0 0 1 .3.2 5.6 5.6 0 0 1 0 1v5.7z"/>
  <path d="M377 129a3.5 3.5 0 0 1 .6-.6 2 2 0 0 1 2.3.2 1.8 1.8 0 0 1 .4 2l-.6 1.9a7.3 7.3 0 0 0-.3.8c0 .2 0 .6.3.6a1 1 0 0 0 .7-.3 2.9 2.9 0 0 0 .4-.7.7.7 0 0 1 .3-.4 1.4 1.4 0 0 1-.5 1.5 2 2 0 0 1-1 .5 1 1 0 0 1-1.2-1.1 8.4 8.4 0 0 1 .4-1.5l.6-2.2c.2-.7-.4-1.2-1.1-1a8.3 8.3 0 0 0-1.1.4zM371.3 333.4H368a5.4 5.4 0 0 1-1 0 .3.3 0 0 1-.2-.3.3.3 0 0 1 .1-.2 3.7 3.7 0 0 1 .8-.2h7a2.9 2.9 0 0 1 .8.2l.2.2-.1.2a5.4 5.4 0 0 1-1 .1h-3.5zM402.5 96.5c2.3-1 2.2-.8 2.2 1.2v3.3c0 .3 0 .6.4.7s.6 0 .5.4l-.6.2h-1.8a.3.3 0 0 1-.3-.2.3.3 0 0 1 .2-.3.8.8 0 0 0 .6-.8v-3.2c0-.9 0-.9-1.2-1.3zM346.1 332.3a5.1 5.1 0 0 0-1.4 2.8l-.5 2a1.5 1.5 0 0 1-.3.7.8.8 0 0 1-.6.2l-.3-.4a3.3 3.3 0 0 1 .2-.8l.7-3a7.2 7.2 0 0 0 0-1.3l-.2-.1a.4.4 0 0 0-.3 0 3.4 3.4 0 0 0-.3.6l-.7 1a2.4 2.4 0 0 1 .7-2c.4-.5 1-.5 1.6 0 .6.6.9.2 1.3 0l.1.3zM346.1 317.5a5.2 5.2 0 0 0-1.4 2.8 21.7 21.7 0 0 1-.5 2 1.4 1.4 0 0 1-.3.7.8.8 0 0 1-.6.1l-.3-.3a3.2 3.2 0 0 1 .2-.8l.7-3a7.3 7.3 0 0 0 0-1.3l-.2-.2a.4.4 0 0 0-.3 0 3.5 3.5 0 0 0-.3.6l-.7 1a2.4 2.4 0 0 1 .7-2c.4-.4 1-.4 1.6.2.6.4.9.1 1.3 0l.1.2zM107 96.5l.3-.2c1.9-.7 1.9-.7 1.9 1.2v3.4c0 .5.1.8.7.9a.3.3 0 0 1 .2.2.3.3 0 0 1-.2.2h-2.2l-.4-.1c-.1-.4.2-.4.3-.4.5-.1.5-.4.5-.8v-3.2c0-.8 0-.8-1-1.2zM308.4 323H306a3.2 3.2 0 0 0 .7-2.5v-1.9c0-.7-.3-1-.9-1.4a3.6 3.6 0 0 1 .8-.3c1-.1 1.2 0 1.2 1v2.5a3.4 3.4 0 0 0 .7 2.7zM308.4 337.9a6 6 0 0 1-2.3 0l-.1-.3c.7-.4.6-1 .6-1.8V334a2.2 2.2 0 0 0-.7-2l.3-.2c1.4-.3 1.5-.2 1.5 1.3v2.5a2.8 2.8 0 0 0 .7 2.3zM289.5 332.9a14.9 14.9 0 0 1-3.1 0c1-.8 1-.8 1-1.8v-3.2a.7.7 0 0 0-.4-.5l-.6-.2c0-.4.4-.3.6-.4 1.1-.4 1.4-.6 1.4 1v3.3c0 1 0 1 1.1 1.8zM390.4 130.6h3.3a1.4 1.4 0 0 1 .5 0l.2.3s0 .2-.2.2a3.2 3.2 0 0 1-.8.1h-6.2a3.2 3.2 0 0 1-.8-.1v-.3-.1a3.8 3.8 0 0 1 .8-.1h3.2zM371.3 335.5h3.7a2 2 0 0 1 .5 0 .3.3 0 0 1 .2.3.3.3 0 0 1-.1.2 1.8 1.8 0 0 1-.7.2h-7.2a2.1 2.1 0 0 1-.6-.2.3.3 0 0 1-.2-.3.3.3 0 0 1 .2-.2 8.4 8.4 0 0 1 1 0h3.2zM386.4 197.8h-3.7l-.3-.4a.4.4 0 0 1 .3-.2 12 12 0 0 1 1.4-.1h5.4a4.6 4.6 0 0 1 .8 0l.2.3-.3.4a3.3 3.3 0 0 1-.8 0h-3zM259.4 314.4a3 3 0 0 1 .8-.6c1-.3 2 .2 1.7 1.5l-.5 2 .2.3h.3l.5-.7c.2-.2.2 0 .3 0v.2a1.5 1.5 0 0 1-1.2 1 .9.9 0 0 1-1-1l.2-1 .2-.5c.1-.4.3-.9 0-1.3s-.9 0-1.3 0h-.2z"/>
  <path d="M259.5 314.4l-1 2.3a7.5 7.5 0 0 1-.2 1l-.5.3c-.1-.2-.3-.3-.3-.5a8.4 8.4 0 0 1 .3-1.3l.2-1c0-.4.3-.7-.2-.8l-.5.5a1 1 0 0 1-.3.1v-.3a1.8 1.8 0 0 1 .2-.5 1 1 0 0 1 1.3-.4l1 .5zM396.7 100h-2.6l-.2-.2a.3.3 0 0 1 .2-.3 1.3 1.3 0 0 1 .5 0h4.8a1 1 0 0 1 .5.1v.3a3.4 3.4 0 0 1-.7.2h-2.5zM280.6 330.2h2.9a.3.3 0 0 1 .1.2.3.3 0 0 1-.1.2 1.3 1.3 0 0 1-.5.1h-4.7a1.3 1.3 0 0 1-.5 0 .3.3 0 0 1-.2-.3l.2-.2h2.8zM307 313.7a.8.8 0 0 1 .7.7.7.7 0 0 1-.6.8.8.8 0 0 1-.8-.7.8.8 0 0 1 .7-.8zM307.8 329.3a.7.7 0 0 1-.8.8.8.8 0 0 1-.7-.8.8.8 0 0 1 .7-.7.8.8 0 0 1 .8.7zM264.5 334.6a.7.7 0 1 1-.5-1 .7.7 0 0 1 .5 1zM117 96a.7.7 0 1 1 .2 1.4.7.7 0 0 1-.8-.6.7.7 0 0 1 .7-.8zM226.8 96a.7.7 0 0 1 .7.7.7.7 0 0 1-.6.7.8.8 0 0 1-.8-.6.7.7 0 0 1 .7-.8zM413.4 96.7a.8.8 0 0 1-.7.7.7.7 0 1 1 0-1.4.7.7 0 0 1 .7.7zM376.6 200.4l.5-1.2.3-.2v.3a1.7 1.7 0 0 1-.6 1.2zM332.2 332.9a2 2 0 0 1-1 1.7 2.3 2.3 0 0 1 1-1.7zM332.2 318a2 2 0 0 1-1 1.7 2.3 2.3 0 0 1 1-1.6zM352.7 322.7l.8-1.5c.2.8.2.8-.6 1.7zM352.7 337.5l.8-1.5c.2.8.2.8-.6 1.7zM383.9 98.5a5 5 0 0 1-.2.6h-.3l.3-.8zM391.5 101.7a5.7 5.7 0 0 1 .2-.6l.3-.1v.4a3 3 0 0 1-.4.4zM333.6 316a1 1 0 0 1 .7-1 1 1 0 0 1-.7 1zM333 317a1 1 0 0 1 .6-1 1 1 0 0 1-.7 1zM332.2 318a1.1 1.1 0 0 1 .7-1 1 1 0 0 1-.7 1zM331.2 319.7a1 1 0 0 1-.7 1 1 1 0 0 1 .7-1zM333.6 330.9a1 1 0 0 1 .7-1 1 1 0 0 1-.7 1zM333.6 330.9a1 1 0 0 1-.7 1 1 1 0 0 1 .7-1zM332.2 333a1.2 1.2 0 0 1 .7-1 1 1 0 0 1-.7 1zM330.6 335.6a1 1 0 0 1 .6-1 1 1 0 0 1-.6 1z"/>
  <path class="a" d="M469.7 375.7H486c1.8 0 1.9 0 1.9 1.8V411c-.1.5-.3.7-.8.8s-.9 0-1.3 0h-32c-2.3 0-2.2 0-2.2-2.2v-32c0-2 0-2 2-2zm10.3 18.8l-3.3 2.3c-.3 0-.6 0-.5-.4a6.5 6.5 0 0 1 .3-1.5 11.4 11.4 0 0 1 .9-1.4h-2.2a2.8 2.8 0 0 1 0 2.2l-.6 2.6a3.1 3.1 0 0 1-1.1 2 6.9 6.9 0 0 0 2.2 0 5.3 5.3 0 0 1-.2-1.4 3.3 3.3 0 0 1 .6-1.2 4.7 4.7 0 0 1 .7-.6c.2 0 .5 0 .6.2a7.5 7.5 0 0 1 .7 1.2c.2.5.7 1 .3 1.5l.3.3a4.2 4.2 0 0 0 1.8 0 14.2 14.2 0 0 1-2-3.5.6.6 0 0 1 .2-.9l1.5-1.2c.6-.3 1.3-.3 1.7-1a2.5 2.5 0 0 0-.4-.1h-.7c-.7 0-.7 0-.8.9zm-10-2.7c-1 1-1.3 1.2-2.3 1.2-.6 0-.8-.3-.7-1a6.4 6.4 0 0 1 1-2.6l2.8-.1a1.4 1.4 0 0 1 1.5 1.4 8.6 8.6 0 0 0 .2.9l.2-.4.2-1.6c0-.6 0-.9-.7-.9h-6.6a.3.3 0 0 0-.2.2l.1.3c.7.4.7.4.6 1l-1.5 6c-.2.8-.4 1.5-1.4 1.6l-.1.2a.3.3 0 0 0 .2.2 1.7 1.7 0 0 0 .5 0h4.2c3.4 0 2.6.6 4-2.7a3 3 0 0 0 0-.8 5.7 5.7 0 0 0-.5.8 3.3 3.3 0 0 1-3.6 2.2h-.3c-2.2 0-2-.2-1.6-1.8l.5-1.7a.8.8 0 0 1 .8-.6h1a.7.7 0 0 1 .7.6l.2.9a6.9 6.9 0 0 0 .8-3.3zM343.7 146h16.2c1.8 0 1.8 0 1.8 1.8v32.4c0 1.8 0 1.8-1.8 1.8h-32.7c-1.7 0-1.7 0-1.7-1.7v-32.7c0-1.7 0-1.6 1.7-1.6zm9.8 19.5l2.2-1.2v-.2l-1.2-.1a.4.4 0 0 0-.3.1l-.4.7a3.4 3.4 0 0 1-.4.5l-1 .7-.8.4c-.5.2-.7.9-1.4.7l.2-1.5a2.1 2.1 0 0 1 .3-.8 5.6 5.6 0 0 1 .8-.8h-2c-.3 0-.5.1-.3.4a.8.8 0 0 1 .2.6l-1.1 4.6c0 .2-.4.4-.6.6a1.7 1.7 0 0 0-.2.3l.3.2h1.7c.2 0 .4-.2.2-.5-.6-.7-.2-1.4.2-2 .7-1 1.4-.9 2 .2l.5.9a.8.8 0 0 1 0 1l.2.3a3.9 3.9 0 0 0 1.8-.1 22 22 0 0 1-2-3.4 1 1 0 0 1 .1-1zm-7.7-.2l-.7 1.3a2.8 2.8 0 0 1-2.4 1.5h-2.5c-.3 0-.5-.3-.5-.6l.8-3a.7.7 0 0 1 .7-.5 7.6 7.6 0 0 1 1.2 0 .6.6 0 0 1 .6.6l.2.9a9.3 9.3 0 0 0 .8-3.5c-1.2 1.5-1.4 1.5-3 1.1a2 2 0 0 1 0-.5 6.8 6.8 0 0 1 .9-2.8l3.2-.1a1.1 1.1 0 0 1 1.1 1l.2 1.4a7 7 0 0 0 .5-2.6.5.5 0 0 0-.5-.5h-6.9l-.2.2a.3.3 0 0 0 .2.3c.3.2.8.2.6.8l-1.7 7a.8.8 0 0 1-.1.2 3.7 3.7 0 0 1-.6.6 5.7 5.7 0 0 1-.7.3c.1.4.5.3.8.3h5.4a4.2 4.2 0 0 0 1 0 1.4 1.4 0 0 0 .7-.4 6.2 6.2 0 0 0 .9-3zM345.5 45.5H310a.6.6 0 0 1-.7-.6 11.6 11.6 0 0 1 0-1.1V29.4v-1c0-.5.2-.7.7-.8s1 0 1.4 0h68.4c2.2 0 2 0 2 2.1v13.7c0 2.3.3 2.2-2 2.2zm-20.3-11.1a1 1 0 0 0-.7 1 1.1 1.1 0 0 0-.7 1 2.3 2.3 0 0 0-1 1.6c-.4.1-.8.1-.8-.4l-.8-5.5c-.2-1.5-.2-1.5-1.7-1.5a7.7 7.7 0 0 0-.8 0 .3.3 0 0 0-.2.2v.3c.8.2 1 .5.7 1.2l-1.4 5.7c-.2.8-.5 1.5-1.4 1.7a.3.3 0 0 0-.2.2l.2.2h2.3c.1 0 .2 0 .2-.2a.3.3 0 0 0 0-.2c-.8-.3-.8-.7-.6-1.4l1.3-5.2a6.9 6.9 0 0 1 .4-1l.4 2.3.6 4.7a4.7 4.7 0 0 0 .2.6.4.4 0 0 0 .6.1 4 4 0 0 0 1-1.8 2 2 0 0 0 1-1.7 1 1 0 0 0 .6-1 1 1 0 0 0 .7-1 1.1 1.1 0 0 0 .7-1l1-.9-1.5 6.5a1 1 0 0 1-.7.7 2 2 0 0 0-.6.3c0 .5.5.3.8.3h2c.2 0 .5 0 .6-.2.1-.4-.3-.3-.5-.4-.5-.2-.4-.5-.3-.8l1.6-6.7a1 1 0 0 1 .9-1 .9.9 0 0 0 .3 0 .4.4 0 0 0 .2-.3.3.3 0 0 0-.2-.2 11.7 11.7 0 0 0-1.6 0 1 1 0 0 0-.7.4 5.8 5.8 0 0 0-1.3 2.4 1 1 0 0 0-.6 1zm10.5 0c.5 0 .8.3.7.7l-.7 3-.3 1.8c0 .2.2.4.4.5s.3-.1.4-.2a1.9 1.9 0 0 0 .3-.6l.5-2.1a4.7 4.7 0 0 1 1.7-3 3 3 0 0 1 .5 0c.8 0 1 .3 1 1a4.6 4.6 0 0 1-.1.8l-.7 2.8a3.3 3.3 0 0 0 0 1s.1.2.3.2a.3.3 0 0 0 .3 0 4.5 4.5 0 0 0 .4-1l1.1-3.8a.6.6 0 0 0 0-.5 4 4 0 0 0-1.2-.9 1.7 1.7 0 0 0-1.8.2c-.5.2-1 .7-1.7-.1a1 1 0 0 0-1.3 0 2.7 2.7 0 0 0-.5.7 6.2 6.2 0 0 0-.2 1c.6 0 .4-.5.6-.8a3 3 0 0 0 .3-.6zm30.8-2.2v6.6c0 .6 0 .7-.8.9-.2 0-.6 0-.5.4l.6.1h3l.3-.2-.2-.2c-1.2-.4-1.2-.4-1.2-1.6v-5.5c0-.6.2-1.1-.3-1.6l-1.4.5c-.2 0-.5 0-.8.2a.3.3 0 0 0-.1.2.3.3 0 0 0 .2.2h1.2zM332 36.7v6.4c0 .4.3.6.8.7a1.7 1.7 0 0 0 .5 0c.2 0 .5-.2.5-.3s-.1-.4-.3-.4a.8.8 0 0 1-.8-1V32v-.7c0-.5.2-.9.7-1a.6.6 0 0 0 .3 0 .3.3 0 0 0 0-.6 4.6 4.6 0 0 0-.9 0c-.5 0-.7.2-.8.6a8.4 8.4 0 0 0 0 1zm41 0v-5.2a11.6 11.6 0 0 0 0-1.2c0-.5-.3-.6-.8-.7a4.6 4.6 0 0 0-.9.1l-.2.2a.3.3 0 0 0 .1.3 1.1 1.1 0 0 1 1 1.2V42c0 .7-.2 1-.9 1.2l-.2.3.2.2a4.6 4.6 0 0 0 .9.1c.5 0 .7-.2.7-.7v-1.2zm-27 1.6a13.5 13.5 0 0 1-.8 1.2.9.9 0 0 1-.7.3c-.4 0-.3-.4-.2-.7l.5-1.5a15.1 15.1 0 0 0 .4-2.2 1.2 1.2 0 0 0-.6-1.2 2 2 0 0 0-2.1 0 .3.3 0 0 0-.1.1l.2.2h.3c1-.2 1.4.1 1.2 1.1a16.2 16.2 0 0 1-.5 2 12.5 12.5 0 0 0-.4 1.4 1.2 1.2 0 0 0 1.6 1.3 2.4 2.4 0 0 0 1-.7 1.2 1.2 0 0 0 .2-1.3zM355 37h2.9a6.5 6.5 0 0 0 1-.1l.1-.2a.8.8 0 0 0-.2-.4.6.6 0 0 0-.3 0h-7a.6.6 0 0 0-.3 0l-.1.2.2.4a2 2 0 0 0 .7 0h3zM469.4 443.5H503a.6.6 0 0 1 .6.6V459.1c0 1-.1 1.1-1.2 1.2H436c-.6 0-.8-.3-.8-.9V453v-2-6.3c0-1 0-1 1.1-1.1h33zm18 9.7a11 11 0 0 0-.2-1.2c-.6-1.8-1.6-2.6-3.4-2.1a3 3 0 0 1-.3 0c-.4.2-.7 0-.7-.4V448a5.6 5.6 0 0 0-.2-1.2.6.6 0 0 0-.5-.3.7.7 0 0 0-.5.3 3 3 0 0 0 0 1v7a7.9 7.9 0 0 0 0 1c0 .3.3.5.7.4a3.3 3.3 0 0 1 1.6.1 2.4 2.4 0 0 0 3-1.4 9.7 9.7 0 0 0 .4-1.7zm11.6-3.6a8.5 8.5 0 0 0-1.2.2 1.7 1.7 0 0 0-1.3 1 1.8 1.8 0 0 0 1 2.3 11.8 11.8 0 0 0 1.6.5c.5.2.8.5.8 1s-.4.8-1 .8a4.8 4.8 0 0 1-1-.2l-1-.2a.5.5 0 0 0-.4.2.7.7 0 0 0 0 .5.4.4 0 0 0 .2.2 4 4 0 0 0 3.2.3 1.7 1.7 0 0 0 1.2-1.4 2 2 0 0 0-1.3-2.2l-1.6-.5a.6.6 0 0 1-.5-.8 1 1 0 0 1 .5-.6 2.1 2.1 0 0 1 1 0l1.1.2a.5.5 0 0 0 .4-.3.6.6 0 0 0 0-.4.7.7 0 0 0-.5-.3l-1.3-.3zm-43.2 0l-1 .2a1.8 1.8 0 0 0-1.5 1.5 1.9 1.9 0 0 0 1.1 1.9 8.5 8.5 0 0 0 1.1.4 5.2 5.2 0 0 1 .8.2.8.8 0 0 1-.2 1.5 5.2 5.2 0 0 1-1.3 0c-.4 0-.7-.2-1.1-.3a.3.3 0 0 0-.3.2.8.8 0 0 0 0 .4.3.3 0 0 0 .1.3 3.8 3.8 0 0 0 3.4.3 1.7 1.7 0 0 0 1-1.3 2 2 0 0 0-1.3-2.3c-.6-.2-1.1-.3-1.6-.6a.8.8 0 0 1-.4-.6.9.9 0 0 1 .4-.6 2 2 0 0 1 1-.1l1.2.2.4-.2a1 1 0 0 0-.1-.6.7.7 0 0 0-.5-.2l-1.2-.3zm6.2 5.6c-.8 0-1 0-1.1-.8v-2.8a.7.7 0 0 1 .6-.7c.4-.1 1 .1 1.1-.5s-.7-.5-1.1-.6-.5-.2-.6-.5l-.1-.5c0-.3-.2-.7-.6-.6a.6.6 0 0 0-.5.5 1.2 1.2 0 0 1-.9 1.3.4.4 0 0 0 0 .8c.7.1.8.5.8 1v2.4a5.3 5.3 0 0 0 .2 1.3 1.4 1.4 0 0 0 .4.7 2.2 2.2 0 0 0 2.5-.4.6.6 0 0 0-.1-.5h-.6zm32.8 0a1.6 1.6 0 0 1-.3 0c-.6 0-.9-.1-.9-.7v-2.1c0-1.3 0-1.3 1.3-1.6h.1s.3-.2.3-.4a.5.5 0 0 0-.2-.4 1.3 1.3 0 0 0-.6-.1.9.9 0 0 1-1-1 1 1 0 0 0-.2-.4l-.3-.3a1.2 1.2 0 0 0-.6.3v.3a1.2 1.2 0 0 1-1 1.2.4.4 0 0 0 .2.8.8.8 0 0 1 .7 1v2.3a7.3 7.3 0 0 0 .2 1.5 1 1 0 0 0 1.1.8 8.4 8.4 0 0 0 1.5-.2.5.5 0 0 0 .2-.2c.1-.2.2-.3.1-.5l-.3-.2h-.3zm-50-8.3c0-.2-.2-.4-.3-.5a1.7 1.7 0 0 0-2 .8 3 3 0 0 0-.5 1.8 1 1 0 0 1-.5.9c-.5.3-.5.7 0 .9a1 1 0 0 1 .5 1v2.8a5 5 0 0 0 .1 1.2.6.6 0 0 0 .5.3.6.6 0 0 0 .5-.3 7.3 7.3 0 0 0 .1-1.4v-2.8a.7.7 0 0 1 .7-.8c.3 0 .8 0 .8-.4.1-.6-.4-.5-.8-.6-.6-.2-.7-.3-.7-.9 0-1.2 0-1.2 1.3-1.6l.4-.4zm4.5 6v2.7a.6.6 0 0 0 .5.6.6.6 0 0 0 .6-.6l.1-2.5a2.3 2.3 0 0 1 1.4-2.1 4.6 4.6 0 0 0 .7-.4.5.5 0 0 0 .1-.4c0-.2-.3-.4-.4-.4a2.2 2.2 0 0 0-1 .3.8.8 0 0 1-1.1-.2c-.4-.3-1 0-1 .5v2.6zm23.3-2.8h-2a2.2 2.2 0 0 0-2 1.6.2.2 0 0 0 0 .1c.2 0 .3.1.4 0l.5-.3a2 2 0 0 1 1.4-.4.5.5 0 0 1 .5.6l-.4 1.5-.6 2.2a1 1 0 0 0 .2.8c.1.2.6-.1.7-.5a8 8 0 0 0 .2-.8l.6-3c.2-.7.3-.8 1-.9l1.5-.1a.7.7 0 0 0 .5-.4c0-.3-.2-.4-.5-.4zm17.3 3v-1-1.5c0-.5-.1-.6-.5-.7s-.7.2-.7.8v4a8.4 8.4 0 0 0 0 1 .6.6 0 0 0 1.2 0v-2.5zm-42.8 0v-2a2.5 2.5 0 0 0 0-.8.7.7 0 0 0-.6-.3.7.7 0 0 0-.5.3 1.8 1.8 0 0 0-.1.8v4a2.5 2.5 0 0 0 .1.8.5.5 0 0 0 .4.3.8.8 0 0 0 .5-.3 1 1 0 0 0 .2-.6v-2.2zm42.9-5.8c0-.5-.3-.7-.8-.6a.6.6 0 0 0-.6.6c0 .5.3.7.8.6a.6.6 0 0 0 .5-.6zM447 447a.6.6 0 0 0-.5-.6.6.6 0 0 0-.7.4.6.6 0 0 0 .6.8.6.6 0 0 0 .6-.6zM469.6 45.5h-17.9c-2.4 0-2.2.1-2.2-2.3V30v-1.3c0-.8.2-1 1-1h38.4c.4 0 .8.2.8.8v15.2c0 1.9 0 1.9-2 1.9h-18.1zm-7-12.5a1.1 1.1 0 0 0-.7 1 2.3 2.3 0 0 0-1 1.7 1 1 0 0 0-.7 1 1 1 0 0 0-.6 1 1 1 0 0 0-.2 0c-.7.4-.7.4-.8-.3l-.7-5.1c-.2-1.7-.4-1.8-2.2-1.7-.2 0-.6 0-.6.3l.5.3c.4.2.3.6.2.9l-1.4 5.9c-.2.8-.5 1.6-1.5 1.7a.3.3 0 0 0-.1.3.4.4 0 0 0 .2.2h2.3l.3-.3a.3.3 0 0 0-.2-.2c-.7-.2-.7-.8-.5-1.4l1.4-5.5h.3a1.9 1.9 0 0 1 .2.4l.7 5.1c0 .6-.1 1.5.6 1.6.6 0 .7-.7 1-1.2a5.7 5.7 0 0 0 .4-1 1 1 0 0 0 .7-1 1 1 0 0 0 .7-1 2.1 2.1 0 0 0 1-1.7 1 1 0 0 0 .6-1 1 1 0 0 0 .7-1c0 .2.3.5.2.7l-1.5 6a1 1 0 0 1-1 1c-.2 0-.5 0-.4.3l.5.2h2.8l.2-.3-.2-.2c-.7-.4-.7-.4-.6-1l1.6-6.3a1.3 1.3 0 0 1 1.2-1.2l.2-.4-.2-.1a8.6 8.6 0 0 0-1 0c-1.2 0-1.3 0-1.8 1.4a1 1 0 0 0-.6 1zm18.8 7c-.4 0-.7-.1-.6-.6a4.4 4.4 0 0 1 .2-.8l.7-2.2c.4-1.8-.4-2.6-2.2-2.3l-.5.2a2.2 2.2 0 0 0-.4.2c-.4.3-.7.4-1.2 0a2 2 0 0 0-2.1-.3l-.3.2.3.2c1.3-.1 1.6 0 1.4 1.3a9.3 9.3 0 0 1-.2 1.1l-.6 2.5a2 2 0 0 0 0 .6.3.3 0 0 0 .2.2.6.6 0 0 0 .5 0 1.3 1.3 0 0 0 .3-.5c.2-.8.5-1.5.6-2.3a4.8 4.8 0 0 1 1.7-3 1.8 1.8 0 0 1 .3 0c1 0 1.4.4 1.2 1.4a15 15 0 0 1-.5 1.7l-.4 1.3a1.2 1.2 0 0 0 .4 1.4 1 1 0 0 0 1.4 0 2.1 2.1 0 0 0 1.1-1.6v-.3l-.4.2zm-12.8-3.3V43c0 .6.2.8.9.8a2 2 0 0 0 .6 0 .6.6 0 0 0 .3-.4l-.1-.2c-.8 0-1-.6-1-1.3V31.5c0-.7.2-1.2 1-1.2l.2-.3-.2-.2a6.4 6.4 0 0 0-1-.1.6.6 0 0 0-.7.6v1.2zm17 0v-5.3-1.2a.6.6 0 0 0-.6-.5 4.2 4.2 0 0 0-1 0l-.3.3.2.2c.8 0 1 .6 1 1.3V42c0 .6 0 1-.8 1-.2 0-.4.2-.3.5l.4.2a4 4 0 0 0 .8 0 .5.5 0 0 0 .6-.5 8.3 8.3 0 0 0 0-1v-5.5zm-14-.6l.8-1.4a.5.5 0 0 1 .4-.1.5.5 0 0 1 .3.4 5.7 5.7 0 0 1-.2 1.1l-.8 3.3c-.1.6 0 1 .4 1s.5-.4.6-.7l.3-.8 1-3.4a.8.8 0 0 0-.1-.6c-.5-.6-1-1.1-1.7-.8a1.4 1.4 0 0 0-.8.6 1.3 1.3 0 0 0-.3 1.4zM469.7 108.2H451c-1.4 0-1.5 0-1.5-1.5V91.9v-1a.6.6 0 0 1 .6-.6H488c1.9 0 2 0 1.9 2v14.3c0 1.6 0 1.7-1.7 1.7h-18.4zm.6-6.4c.7-.2 1.3-.4 1.9.1.3.3.8 0 1-.2a1.4 1.4 0 0 0 .4-1.7 7.8 7.8 0 0 1-.5 1 .6.6 0 0 1-.4.2l-.2-.2a4.7 4.7 0 0 1 0-.8v-2.4a2.1 2.1 0 0 0-1-1.8 2.8 2.8 0 0 0-2.8-.2 1.5 1.5 0 0 0-1 1.3.7.7 0 0 0 .7.7.6.6 0 0 0 .7-.5 4.5 4.5 0 0 0-.1-.5c0-.5 0-.7.4-.7a1.5 1.5 0 0 1 1.9 1.4.6.6 0 0 1-.5.6c-.4.2-.9.2-1.3.3a3 3 0 0 0-1.9 1.3 1.4 1.4 0 0 0 0 1.6 1.9 1.9 0 0 0 1.3.7c.5.1 1 .3 1.5-.2zm-8.3-.4a1 1 0 0 0 .9.7 2.8 2.8 0 0 0 1.9-.4 3.3 3.3 0 0 0 1.6-3.4 3.2 3.2 0 0 0-2.3-2.6 5.7 5.7 0 0 0-2 .2c-.7.1-1.4-.4-2.1-.1-.3 0-.4.3-.2.5a1.3 1.3 0 0 1 .7 1v6a.8.8 0 0 1-.5.8c-.2 0-.5 0-.3.4l.4.2h1.9l.4-.2c0-.3-.2-.3-.4-.4l-.3-.4c0-.8-.3-1.6.3-2.3zm17-5.5a13.6 13.6 0 0 0-1.8-.2 2.9 2.9 0 0 0-2.7 1.9 3.2 3.2 0 0 0 .5 3.5 2.7 2.7 0 0 0 3 .9 1.4 1.4 0 0 1 1.3 0 3.3 3.3 0 0 0 1.5 0 .4.4 0 0 0 .2-.3.3.3 0 0 0-.1-.2 1 1 0 0 1-.7-1.2v-1.5V93c0-.6-.2-.8-.8-.8-.4 0-.9-.1-1 .3 0 .2.3.4.5.6a1.3 1.3 0 0 1 .2.6V96zM469.2 512.2h-16.1c-2.2 0-2.1 0-2.1-2.1v-13.7-1.2c0-.7.2-.9 1-1H487a.6.6 0 0 1 .6.8v15.5c0 1.7 0 1.7-1.8 1.7zm1.8-5c.3 0 .6.3.9.5a1.1 1.1 0 0 0 1.6-.4 3.7 3.7 0 0 0 .3-1l-.1-.3a.2.2 0 0 0-.2 0 2 2 0 0 0-.1.4 5.5 5.5 0 0 1-.2.6l-.3.1-.3-.3c0-1 .3-2.1.4-3.1a2 2 0 0 0-1.6-2.3 2.6 2.6 0 0 0-2.5.7 1.6 1.6 0 0 0-.4.9 1 1 0 0 0 .3.6.6.6 0 0 0 .8-.3 1.2 1.2 0 0 0 .1-.6.6.6 0 0 1 .5-.8 1.2 1.2 0 0 1 1.7 1 .9.9 0 0 1-.7 1.1 19.3 19.3 0 0 0-2.3.6 2.3 2.3 0 0 0-1.4 1.4 1.2 1.2 0 0 0 .2 1.3 2 2 0 0 0 1.7.6c.7 0 1.4 0 1.7-.8zm-2.8-6l.3-.3.2-2.2-.5-.4a4.2 4.2 0 0 0-1 0h-5c-2.3 0-2-.3-2.6 2.2a.5.5 0 0 0 0 .2c0 .2-.1.5.3.4l.1-.3a3.8 3.8 0 0 0 .2-.4c.3-1.3 1.3-1.7 2.8-1.6a.6.6 0 0 1 .6.7v.4l-1 6-.2.6a.8.8 0 0 1-.7.7l-.8.1-.2.2.3.3h4.2a.3.3 0 0 0 .1 0 .2.2 0 0 0 0-.2v-.1a4.5 4.5 0 0 0-.5-.3c-1-.2-1-.2-.8-1.1l1-5.6a4.6 4.6 0 0 1 .2-1 .9.9 0 0 1 .3-.6 2.6 2.6 0 0 1 2.1.2c.5.3.5.7.6 1.2-.1.2 0 .5 0 .8zm7.1 3.2c.4.7-.3 1.3-.3 2a1.9 1.9 0 0 1-.6 1.6 1.3 1.3 0 0 0 .6 2.3 5.4 5.4 0 0 0 2 .3 4.3 4.3 0 0 0 2.4-.6 1.7 1.7 0 0 0 .9-1.7 1.5 1.5 0 0 0-1.3-1.4 12.3 12.3 0 0 0-1.5-.2h-1.2a.6.6 0 0 1-.5-.8c0-.3.3-.4.6-.4a4 4 0 0 0 .9.2 2.6 2.6 0 0 0 2.6-2.7 1.8 1.8 0 0 1 0-.6.6.6 0 0 1 .5-.4l.6.3c.2 0 .4 0 .5-.2a.6.6 0 0 0-.2-.5 1 1 0 0 0-.7-.2 4 4 0 0 1-2.5.1 2.4 2.4 0 0 0-2.8 2.9zM340.2 96.6H338a.6.6 0 0 1-.3-.4 2.2 2.2 0 0 1 0-1 5.8 5.8 0 0 1 4.7-4c.5-.1.8 0 .8.5V96c0 .5-.3.7-.8.7h-2.2zM340.4 271.8h-2.2a.5.5 0 0 1-.5-.7 8 8 0 0 1 .6-1.8 5.7 5.7 0 0 1 4-3c.6 0 .8.2.9.7v4c0 .6-.3.8-.9.8h-2zM340.4 97.5h1.2c1.6 0 1.6 0 1.6 1.5v3c0 .6-.3.8-.8.8a5.7 5.7 0 0 1-4.7-4.7.6.6 0 0 1 .5-.6h2.2zM340.4 272.7h1.9c.6 0 .9.2.9.7v3.9c0 .6-.4.8-1 .7a5.7 5.7 0 0 1-4.6-4.5c0-.5.2-.8.7-.8h2.1zM466.5 271.8h-2.2c-.3 0-.5-.3-.4-.6a5.8 5.8 0 0 1 4.5-4.7c.5-.1.8 0 .8.6v4c0 .6-.2.7-.9.7h-1.8zM470 268.9v-1.3c0-1.2.2-1.4 1.3-1a5.8 5.8 0 0 1 4 4 1.8 1.8 0 0 1 0 .8l-.3.4h-4.4a.5.5 0 0 1-.5-.6V269zM466.4 272.7c3.1 0 2.8-.5 2.8 2.9v1.8a.6.6 0 0 1-.7.5 4.8 4.8 0 0 1-1.2-.3 5.7 5.7 0 0 1-3.4-4c-.1-.7 0-1 .6-1h1.9zM470 275.4v-2c0-.4.2-.7.7-.7h4.3l.4.4a1.2 1.2 0 0 1 0 .7 5.8 5.8 0 0 1-4 4 1.8 1.8 0 0 1-.8 0c-.2 0-.5-.2-.5-.3v-2.2zM466.3 326.2h-1.9a.5.5 0 0 1-.5-.7 6.3 6.3 0 0 1 .3-1.1 5.9 5.9 0 0 1 4-3.5c.7-.2 1 0 1 .7v3.9c0 .4-.3.7-.7.7h-2.2zM466.4 327.2h2c.5 0 .8.2.8.7v4a.5.5 0 0 1-.7.5 5.9 5.9 0 0 1-3.2-1.8 5.3 5.3 0 0 1-1.4-2.8c0-.4.1-.6.5-.7h2zM470 323.4v-2a.5.5 0 0 1 .7-.5 5.8 5.8 0 0 1 4.7 4.5c0 .5-.1.8-.7.8h-3.9c-.5 0-.7-.2-.7-.7v-2zM346.6 271.8c-2.9 0-2.5.4-2.6-2.5V267c0-.5.2-.7.7-.6a5.7 5.7 0 0 1 4.5 4.9.5.5 0 0 1-.5.5zM344 93.8V92c0-.8.3-1 1-.8a5.8 5.8 0 0 1 4.2 4.7.5.5 0 0 1-.5.6h-4a.6.6 0 0 1-.6-.7v-2.1zM470.1 332.4a40 40 0 0 1 0-4.7.5.5 0 0 1 .5-.5h4.4c.3 0 .4.3.4.6a3.8 3.8 0 0 1-.2.8 5.5 5.5 0 0 1-5 3.8zM344 275.3v-1.9c0-.6.2-.7 1-.7h3.6a.5.5 0 0 1 .6.6 5.8 5.8 0 0 1-4.4 4.6c-.4 0-.7-.1-.7-.6v-2zM344 100c0-3-.3-2.5 2.6-2.6h2c.4 0 .6.3.6.7a4.7 4.7 0 0 1-.3 1 5.9 5.9 0 0 1-3.8 3.6c-.7.2-1 0-1-.8v-1.8zM48.5 164v-16c0-2.1 0-2 2-2H84c.4 0 .7.2.7.7V179.9c0 2.2 0 2.1-2 2.1h-32c-2.3 0-2.2 0-2.2-2zm28 1.5l2.2-1.1v-.3h-1.2a.4.4 0 0 0-.3 0l-.4.8a3.4 3.4 0 0 1-.4.5l-1 .7-.8.3c-.4.3-.7.9-1.4.7l.2-1.5a2.6 2.6 0 0 1 .3-.8 5.6 5.6 0 0 1 .8-.8h-2c-.3 0-.5.2-.2.5a.8.8 0 0 1 .1.6l-1.1 4.5c0 .2-.4.4-.6.6a1.7 1.7 0 0 0-.2.3l.3.2h1.7c.2 0 .5-.2.3-.4-.7-.8-.3-1.4.1-2 .7-1 1.4-1 2 .1l.5 1a.8.8 0 0 1 0 .9l.2.3a3.9 3.9 0 0 0 1.8 0 20.5 20.5 0 0 1-2-3.5 1 1 0 0 1 .2-1zm-9.4-3.6c-1.2 1.5-1.3 1.5-2.6 1.5-.4 0-.6-.2-.5-.7l.6-2.4a.7.7 0 0 1 .7-.6H68c.9 0 1 .4 1.3 1.1 0 .4-.1.8.4 1.1l.2-2c0-.6-.1-.9-.7-.9h-6.4a.5.5 0 0 0-.4.2c-.2.3.1.4.3.5.4 0 .5.3.4.7l-1.6 6.7-.2.3a.8.8 0 0 1-.7.6 2 2 0 0 0-.5.1v.4a3.8 3.8 0 0 0 .8.2h4a6 6 0 0 0 2.8-.3c.5-1 1-1.9 1.3-2.9l-.1-.3-.9 1.4a2.7 2.7 0 0 1-2.2 1.4 10.2 10.2 0 0 1-3 0 11.3 11.3 0 0 1 .7-3.5.7.7 0 0 1 .5-.4 10.3 10.3 0 0 1 1.6 0l.3.4c.1.1 0 .6.4.6a8.6 8.6 0 0 0 .8-3.2zM176.3 146h16.2c2 0 1.9-.1 1.9 2v32c0 2 .1 2-2.1 2h-32c-2.2 0-2.1 0-2.1-2.1V148c0-2.2 0-2 2-2h16.1zm9.3 19.7l-1 .6-1.6.9c-.3-.8.2-1.4.3-2a1.2 1.2 0 0 1 .1-.4c.4-.8.4-.8-.5-.8h-.9a3.9 3.9 0 0 1 .1 1.2l-1 4.2a1 1 0 0 1-.7.9l-.2.2a.3.3 0 0 0 .3.2h1.8c.3 0 .3-.3.1-.5l-.2-.2a2.3 2.3 0 0 1 1.5-2.4.5.5 0 0 1 .5.1c.4.8 1.2 1.5 1 2.6-.1.3.1.4.3.4a3 3 0 0 0 .7 0c.3 0 .6 0 .8-.2.2-.3-.3-.4-.4-.6l-1.5-2.8a.6.6 0 0 1 .2-.8l.4-.4 1.5-.9c.5-.3 1-.3 1.3-1h-1.3l-.4.2c0 .8-.9 1-1.2 1.5zm-6.5-3.4a4 4 0 0 0 .5-2.2c0-.8-.1-1-1-1h-6a.8.8 0 0 0-.3 0 .3.3 0 0 0-.2.2.3.3 0 0 0 .1.3.7.7 0 0 1 .6 1l-1.7 6.7a1 1 0 0 1-1 .8.6.6 0 0 0-.2.1.4.4 0 0 0-.1.3 4.5 4.5 0 0 0 .9.2h5.5a3.3 3.3 0 0 0 .9 0 1.3 1.3 0 0 0 .5-.4 9.4 9.4 0 0 0 1.1-3 3.6 3.6 0 0 0-1 1.4 2.8 2.8 0 0 1-2.1 1.4h-2.7c-.4 0-.5-.3-.5-.6l.8-3a.7.7 0 0 1 .4-.4 8.4 8.4 0 0 1 1.7 0l.3.5a4.8 4.8 0 0 1 .2.8 5.9 5.9 0 0 0 .9-3.3c-.1 0-.3 0-.3.2-.4 1-1.3 1.1-2.2 1-.5 0-.7-.2-.6-.6.3-1 .2-2.2 1-2.8s1.8-.2 2.7-.2a2.1 2.1 0 0 1 .5 0 1.1 1.1 0 0 1 1 1.1l.3 1.4zM68.7 27.6h33.9c2.6 0 2.4-.3 2.4 2.5v14.1c0 1.3-.1 1.3-1.4 1.4H33.1c-.6 0-.9-.2-1-1V28.9c0-1.2.2-1.3 1.5-1.3h1.3zM64 34.4a1 1 0 0 0-.6 1 1.1 1.1 0 0 0-.7 1 2.3 2.3 0 0 0-1 1.6c-.4.1-.8.1-.8-.4L60 32c-.2-1.5-.2-1.5-1.7-1.5a7.6 7.6 0 0 0-.8 0 .3.3 0 0 0-.2.2v.3c.8.2 1 .5.7 1.2L56.7 38c-.2.8-.5 1.5-1.4 1.7a.3.3 0 0 0-.2.2l.2.2h2.3c.1 0 .2 0 .2-.2a.3.3 0 0 0 0-.2c-.8-.3-.8-.7-.6-1.4l1.3-5.2a6.9 6.9 0 0 1 .4-1l.4 2.3.6 4.7a3.6 3.6 0 0 0 .2.6.4.4 0 0 0 .5.1 4 4 0 0 0 1.1-1.8 2 2 0 0 0 1-1.7 1 1 0 0 0 .7-1 1 1 0 0 0 .7-1 1.1 1.1 0 0 0 .6-1l1.1-.8-1.6 6.5a1 1 0 0 1-.6.7 2 2 0 0 0-.7.3c.1.4.5.3.8.3h2c.2 0 .6 0 .6-.2.2-.5-.3-.3-.5-.4-.4-.2-.3-.5-.3-.9l1.7-6.6a1 1 0 0 1 .8-1 .9.9 0 0 0 .4 0 .4.4 0 0 0 .1-.3.3.3 0 0 0-.1-.2 11.7 11.7 0 0 0-1.7 0 1 1 0 0 0-.7.4 5.8 5.8 0 0 0-1.3 2.3 1 1 0 0 0-.7 1zm12.1-2.1v6.6a.7.7 0 0 1-.7.8 2 2 0 0 0-.7.2c.1.5.5.3.8.3h3a.3.3 0 0 0 .3-.2l-.2-.2h-.1c-1-.3-1-.3-1.1-1.2v-.8-5a12 12 0 0 0-.1-1.4.3.3 0 0 0-.5-.4l-2 .8a.3.3 0 0 0-.1.3.3.3 0 0 0 .2.1h1.2zm-5.3 4.4v6.2c0 .7.2 1 1 1l.8-.3c.2-.5-.4-.4-.6-.6a1 1 0 0 1-.4-.4 3.3 3.3 0 0 1 0-.9v-10c0-.8 0-1.4 1-1.5 0 0 .1-.1 0-.2v-.2a5.5 5.5 0 0 0-1-.1.6.6 0 0 0-.7.6 8.4 8.4 0 0 0 0 1l-.1 5.4zm11.7 0v-4.3-1.9c0-.6-.2-.8-1-.9a1.6 1.6 0 0 0-.5 0l-.3.3a.4.4 0 0 0 .2.4c.7 0 .9.5.9 1.1V42c0 .7-.2 1-1 1.1 0 0-.2.3-.1.4a.6.6 0 0 0 .3.3 2.5 2.5 0 0 0 .7 0c.5 0 .7-.2.8-.7a7.9 7.9 0 0 0 0-.9zM178.3 45.5h-35.5c-.6 0-.9-.2-1-.9V29.3v-.7c0-.8.3-1 1-1h71c.6 0 .7.2.7.8v15.2c0 2 .1 2-2 2zM174.5 33a1.1 1.1 0 0 0-.6 1 2.3 2.3 0 0 0-1 1.7 1 1 0 0 0-.7 1 1 1 0 0 0-.7 1 .6.6 0 0 0-.1 0c-.8.4-.8.4-.9-.3l-.7-5.1c-.3-1.7-.3-1.8-2.1-1.7-.3 0-.6 0-.7.3l.5.3c.4.2.4.6.3.9l-1.4 5.9c-.3.8-.6 1.6-1.6 1.7v.3a.3.3 0 0 0 .2.2h2.3l.2-.3a.3.3 0 0 0-.1-.2c-.8-.2-.7-.8-.6-1.4l1.5-5.5h.3a1.9 1.9 0 0 1 .1.4l.8 5.1c0 .6-.2 1.5.5 1.6.6 0 .8-.7 1-1.2a7.5 7.5 0 0 0 .5-1 1 1 0 0 0 .6-1 1 1 0 0 0 .7-1 2.1 2.1 0 0 0 1-1.7 1 1 0 0 0 .7-1 1 1 0 0 0 .7-1l.2.7-1.5 6a1 1 0 0 1-1 1c-.2 0-.5 0-.4.3a.6.6 0 0 0 .4.2h2.9l.2-.3-.2-.2c-.7-.4-.8-.4-.6-1l1.5-6.3a1.3 1.3 0 0 1 1.3-1.2l.2-.4-.3-.1a8.4 8.4 0 0 0-1 0c-1.2 0-1.2 0-1.7 1.4a1.1 1.1 0 0 0-.7 1zm14.4 5c-.8 1-.8 1-2.1 1h-1.2a.4.4 0 0 1-.2-.1.3.3 0 0 1 0-.3l1.5-1.6a16.2 16.2 0 0 0 1.6-1.7 2.8 2.8 0 0 0 0-3.3 3 3 0 0 0-3.3-1 2.6 2.6 0 0 0-1.7 2.4.7.7 0 0 0 .5.8 1 1 0 0 0 .8-.2.7.7 0 0 0 0-1l-.3-.3a.6.6 0 0 1 0-.5 1.6 1.6 0 0 1 2.7 0 3 3 0 0 1 .4 1.2 3.5 3.5 0 0 1-.9 2.6l-2 2.5-1 1.1a.4.4 0 0 0 .2.7h4.2a.7.7 0 0 0 .5-.4 2.7 2.7 0 0 0 .3-1.9zm-8.4-1.4V43c0 .6.2.8.9.8a2.1 2.1 0 0 0 .6 0 .6.6 0 0 0 .3-.4.3.3 0 0 0-.1-.2c-.8 0-1-.6-1-1.3V31.5c0-.7.2-1.2 1-1.3l.2-.2-.2-.3a6.6 6.6 0 0 0-1 0 .6.6 0 0 0-.6.6v1.1zm11.6.2v-5.4-1.2a.6.6 0 0 0-.6-.6 5.5 5.5 0 0 0-1 .1l-.2.3.2.3c.8 0 1 .5 1 1.2v10.4c0 .7-.2 1.2-1 1.3h-.1a.3.3 0 0 0 0 .2l.1.3a6.6 6.6 0 0 0 1 0 .6.6 0 0 0 .7-.5V42v-5.2zM179.4 96.6h-1.7c-.7 0-1-.1-1-.8v-4c0-.4.3-.6.7-.5A5.8 5.8 0 0 1 182 96c0 .3 0 .5-.4.5h-2.4zM63.3 96.6h-2c-.4 0-.6-.3-.5-.7a5.9 5.9 0 0 1 4.7-4.7c.5 0 .7.1.7.6v4c0 .6-.2.8-.8.8h-2zM179.4 271.8h-2a.6.6 0 0 1-.7-.6V267c0-.3.3-.5.6-.4a5.7 5.7 0 0 1 4.7 4.8.5.5 0 0 1-.4.5h-2.2zM176.7 100.1v-2a.6.6 0 0 1 .7-.6h4.3c.4 0 .5.3.4.6a5.9 5.9 0 0 1-4.3 4.6c-.8.2-1 0-1.1-1v-1.6zM63.4 97.5h1.8c.6 0 1 .1 1 .8v3.8c0 .5-.3.7-.8.6a5.2 5.2 0 0 1-2.9-1.5 5.4 5.4 0 0 1-1.4-2c-.5-1.6-.4-1.8 1.2-1.8zM175.8 269.1v2c0 .4-.1.7-.6.7h-4.1c-.4 0-.6-.3-.6-.7a4.7 4.7 0 0 1 1.1-2.6 5.5 5.5 0 0 1 3.5-2c.5-.1.7 0 .7.4v2.2zM179.5 272.7h1.9c.6 0 .7.2.6.7a5.8 5.8 0 0 1-4.4 4.6c-.5 0-.8-.1-.9-.6v-4c0-.5.3-.7.8-.7h2zM173.2 272.7h2a.6.6 0 0 1 .6.6v4.2a.5.5 0 0 1-.7.5 5.4 5.4 0 0 1-1.4-.5 5.6 5.6 0 0 1-3.2-4 .6.6 0 0 1 .6-.8h2zM175.9 93.8v1.6c0 1.2 0 1.2-1.2 1.2H171c-.4 0-.6-.2-.5-.6a5.7 5.7 0 0 1 4.6-4.7c.4 0 .7 0 .7.5v2zM69.8 96.6h-2c-.4 0-.7-.2-.7-.6v-4.4a.4.4 0 0 1 .5-.3 4.4 4.4 0 0 1 1.1.2 5.8 5.8 0 0 1 3.6 4c.3 1 0 1.2-.8 1.2h-1.7zM67.1 100.2v-2c0-.4.2-.7.6-.7h4.2c.4 0 .5.3.5.7a5.8 5.8 0 0 1-4.5 4.5c-.5.1-.8 0-.8-.7v-1.8zM173.2 97.5h2a.6.6 0 0 1 .6.6v4.2a.5.5 0 0 1-.6.4 2.8 2.8 0 0 1-.8-.1 5.8 5.8 0 0 1-3.8-4.2c-.1-.6 0-1 .7-1h1.9zM254.4 318.4v2.4a3.7 3.7 0 0 1-.3 1 1.4 1.4 0 0 1-2.6.2 4.3 4.3 0 0 1-.3-1.3v-4.4a3.3 3.3 0 0 1 .4-1.4 1.3 1.3 0 0 1 2.3 0 2.6 2.6 0 0 1 .5 1.2v2.3z"/>
  <path d="M470 391.8a6.9 6.9 0 0 1-.8 3.3l-.2-.8a.7.7 0 0 0-.7-.7h-1a.8.8 0 0 0-.8.7l-.5 1.6c-.4 1.7-.6 1.8 1.6 1.8h.3a3.3 3.3 0 0 0 3.6-2.2 5.7 5.7 0 0 1 .5-.8 3 3 0 0 1 0 .8c-1.5 3.4-.6 2.8-4 2.8h-4.2a1.7 1.7 0 0 1-.5 0 .3.3 0 0 1-.2-.2l.1-.3c1 0 1.2-.8 1.4-1.6l1.5-5.9c.1-.6.1-.6-.6-1v-.3a.3.3 0 0 1 .1-.2h6.6c.6 0 .8.2.7.8l-.2 1.7-.2.4a8.6 8.6 0 0 1-.2-1 1.4 1.4 0 0 0-1.5-1.4l-2.9.2a6.4 6.4 0 0 0-.8 2.6c-.2.7 0 .9.6 1 1-.1 1.2-.2 2.3-1.3zM476.8 397a4.7 4.7 0 0 0-.7.7 3.3 3.3 0 0 0-.6 1.2 5.3 5.3 0 0 0 .2 1.3 6.9 6.9 0 0 1-2.2 0 3.1 3.1 0 0 0 1-2l.7-2.6a2.8 2.8 0 0 0 0-2.1h2.2a11.4 11.4 0 0 0-.9 1.4 6.5 6.5 0 0 0-.3 1.5c0 .4.2.4.5.4a2 2 0 0 1 .1.2z"/>
  <path d="M476.7 396.8l3.3-2.3.2.2-1.5 1.2a.6.6 0 0 0-.2.9 14.2 14.2 0 0 0 2 3.4 4.2 4.2 0 0 1-1.9 0l-.2-.2c.4-.6 0-1-.3-1.6a7.5 7.5 0 0 0-.7-1.1c0-.2-.4-.2-.6-.3a2 2 0 0 0 0-.2z"/>
  <path d="M480 394.5c.1-1 .1-1 .8-1h.7a2.5 2.5 0 0 1 .4.2c-.4.6-1.1.6-1.7 1zM345.8 165.3a6.2 6.2 0 0 1-.9 3 1.4 1.4 0 0 1-.7.4 4.2 4.2 0 0 1-1 0h-5.4c-.3 0-.6.1-.8-.3a5.7 5.7 0 0 0 .7-.3 3.7 3.7 0 0 0 .6-.5.8.8 0 0 0 .1-.3l1.7-6.9c.2-.6-.3-.6-.6-.8a.3.3 0 0 1-.2-.2l.2-.2h6.9a.5.5 0 0 1 .5.5 7 7 0 0 1-.4 2.6l-.3-1.5a1.1 1.1 0 0 0-1.1-1l-3.2.1a6.8 6.8 0 0 0-1 2.8 2 2 0 0 0 0 .5c1.7.4 1.9.4 3.1-1a9.3 9.3 0 0 1-.8 3.4l-.2-.9a.6.6 0 0 0-.6-.5 7.6 7.6 0 0 0-1.2 0 .7.7 0 0 0-.7.5l-.8 3c0 .3.2.5.5.5h2.5a2.8 2.8 0 0 0 2.4-1.5zM352.5 166.2a1 1 0 0 0 0 1 22 22 0 0 0 1.9 3.3 3.9 3.9 0 0 1-1.9.1l-.1-.3a.8.8 0 0 0 0-1l-.5-.9c-.6-1-1.3-1.2-2-.1-.4.5-.8 1.2-.2 2 .2.2 0 .4-.3.4h-1.6l-.3-.2a1.7 1.7 0 0 1 .2-.3c.2-.2.5-.3.6-.6l1-4.5a.8.8 0 0 0 0-.6c-.3-.3 0-.5.1-.5h2a5.6 5.6 0 0 0-.7.8 2.1 2.1 0 0 0-.3.8l-.2 1.5c.6.2 1-.4 1.4-.7l.7-.3zM353.4 165.4a3.4 3.4 0 0 0 .4-.5l.4-.8a.4.4 0 0 1 .3 0h1.3v.2l-2.3 1.2z"/>
  <path d="M352.4 166l1-.7.1.2-1 .7zM322.8 38a4 4 0 0 1-1 2 .4.4 0 0 1-.6-.2 4.7 4.7 0 0 1-.1-.6l-.7-4.7c0-.6-.2-1.3-.4-2.2a6.9 6.9 0 0 0-.4 1l-1.3 5.1c-.2.7-.1 1.1.6 1.4a.3.3 0 0 1 0 .2l-.1.2h-2.4l-.2-.2a.3.3 0 0 1 .2-.2c1-.2 1.2-.9 1.4-1.7l1.5-5.7c.1-.7 0-1-.7-1.2v-.3a.3.3 0 0 1 .2-.2 7.7 7.7 0 0 1 .8 0c1.4 0 1.4 0 1.6 1.5l.8 5.5c0 .5.4.5.9.4zM325.8 33.4a5.8 5.8 0 0 1 1.3-2.4 1 1 0 0 1 .7-.3 11.7 11.7 0 0 1 1.7 0 .3.3 0 0 1 .1.2.4.4 0 0 1-.1.2.9.9 0 0 1-.4.1 1 1 0 0 0-.8 1l-1.7 6.6c0 .3-.1.7.3.9.2 0 .7 0 .5.4l-.6.2h-2c-.3 0-.7.1-.8-.3a2 2 0 0 1 .7-.3 1 1 0 0 0 .6-.7l1.6-6.5-1 .8zM366.5 32.3h-1.2a.3.3 0 0 1-.2-.3.3.3 0 0 1 .1-.2l.8-.2 1.4-.5c.5.5.3 1 .3 1.6v5.5c0 1.2 0 1.2 1.2 1.6l.2.2-.3.2h-3l-.6-.1c-.1-.5.3-.3.5-.4.7-.2.8-.3.8-.9v-6.5zM332 36.7v-5.3a8.4 8.4 0 0 1 0-1c0-.5.2-.7.7-.7a4.6 4.6 0 0 1 .8 0 .3.3 0 0 1 .1.5.6.6 0 0 1-.3.2c-.5 0-.7.4-.7.9V42.2a.8.8 0 0 0 .8 1c.2 0 .5 0 .3.4s-.3.2-.5.2a1.7 1.7 0 0 1-.5 0c-.5 0-.8-.2-.8-.7v-2.3-4zM372.8 36.7v6.4c0 .4-.2.7-.7.7a4.6 4.6 0 0 1-.9 0l-.2-.2.2-.4c.7-.1 1-.5 1-1.2V31.5a1.1 1.1 0 0 0-1-1.3.3.3 0 0 1-.2-.2l.2-.3a4.6 4.6 0 0 1 .9 0c.5 0 .7.1.7.6a11.6 11.6 0 0 1 0 1.2zM346 38.3a1.2 1.2 0 0 1-.4 1.3 2.4 2.4 0 0 1-.9.8 1.2 1.2 0 0 1-1.6-1.3 12.5 12.5 0 0 1 .4-1.5 16.2 16.2 0 0 0 .6-2c0-1-.3-1.2-1.3-1.1h-.3l-.2-.1a.3.3 0 0 1 .1-.1 2 2 0 0 1 2 0 1.2 1.2 0 0 1 .7 1.2 15.1 15.1 0 0 1-.4 2.1l-.5 1.6c-.1.3-.1.6.2.7a.9.9 0 0 0 .7-.3 13.5 13.5 0 0 0 .8-1.3zM338.7 34.5a4.7 4.7 0 0 0-1.7 3l-.5 2a1.9 1.9 0 0 1-.3.7l-.4.2c-.1 0-.4-.3-.4-.5l.3-1.8.7-3c0-.4-.2-.7-.7-.7l-.2-.2a1 1 0 0 1 1.3 0c.7.7 1.2.2 1.8 0z"/>
  <path d="M338.6 34.3a1.7 1.7 0 0 1 1.7-.2 4 4 0 0 1 1.2 1 .6.6 0 0 1 0 .4l-1 3.9a4.5 4.5 0 0 1-.5.9.3.3 0 0 1-.3 0l-.4-.2a3.3 3.3 0 0 1 0-1l.7-2.8a4.6 4.6 0 0 0 .2-.9c0-.6-.2-1-1-1a3 3 0 0 0-.5 0zM355 37h-3a2 2 0 0 1-.7 0l-.2-.3c0-.1 0-.2.2-.3a.6.6 0 0 1 .3 0h6.9a.6.6 0 0 1 .3 0 .8.8 0 0 1 .3.4l-.2.2a6.5 6.5 0 0 1-1 .1H355zM335.7 34.5a3 3 0 0 1-.3.6c-.2.3 0 .9-.6.9a6.2 6.2 0 0 1 .2-1 2.7 2.7 0 0 1 .5-.7zM323.8 36.4a2 2 0 0 1-1 1.7 2.3 2.3 0 0 1 1-1.7zM324.5 35.4a1 1 0 0 1 .7-1 1 1 0 0 1-.7 1zM324.5 35.4a1 1 0 0 1-.7 1 1.1 1.1 0 0 1 .7-1zM325.2 34.4a1 1 0 0 1 .6-1 1.1 1.1 0 0 1-.6 1zM487.3 453.2a9.7 9.7 0 0 1-.5 1.7 2.4 2.4 0 0 1-3 1.4 3.3 3.3 0 0 0-1.6 0c-.4 0-.6-.2-.7-.6a7.9 7.9 0 0 1 0-.8v-7.1a3 3 0 0 1 .1-1 .7.7 0 0 1 .5-.3.6.6 0 0 1 .5.3 5.6 5.6 0 0 1 .1 1.2v1.5c0 .5.3.6.8.5a3 3 0 0 0 .3-.1c1.8-.5 2.8.3 3.3 2a11 11 0 0 1 .2 1.3zm-4.5-.1v1.1a1.3 1.3 0 0 0 1.9 1 2.7 2.7 0 0 0 .5-4.1 1.6 1.6 0 0 0-1.8-.2 1.2 1.2 0 0 0-.6 1.3zM499 449.6l1.2.3a.7.7 0 0 1 .4.3.6.6 0 0 1 0 .4.5.5 0 0 1-.3.3l-1.1-.3a2.1 2.1 0 0 0-1 .1 1 1 0 0 0-.5.6.6.6 0 0 0 .4.8c.6.2 1.1.2 1.6.5a2 2 0 0 1 1.4 2.2 1.7 1.7 0 0 1-1.2 1.4 4 4 0 0 1-3.2-.3.4.4 0 0 1-.2-.2.7.7 0 0 1 0-.5.5.5 0 0 1 .4-.2l1 .2a4.8 4.8 0 0 0 1 .2c.6 0 1-.4 1-.9s-.3-.7-.8-.9a11.8 11.8 0 0 1-1.6-.5 1.8 1.8 0 0 1-1-2.2 1.7 1.7 0 0 1 1.3-1 8.5 8.5 0 0 1 1.1-.3zM455.8 449.6l1.2.2a.7.7 0 0 1 .4.3 1 1 0 0 1 .1.6l-.4.2-1.1-.3a2 2 0 0 0-1 .1.9.9 0 0 0-.5.7.8.8 0 0 0 .4.6l1.6.5a2 2 0 0 1 1.4 2.4 1.7 1.7 0 0 1-1 1.3 3.8 3.8 0 0 1-3.4-.3.3.3 0 0 1-.2-.3.8.8 0 0 1 .1-.5.3.3 0 0 1 .3-.1l1 .3a5.2 5.2 0 0 0 1.4 0 .8.8 0 0 0 .2-1.5 5.2 5.2 0 0 0-.8-.3 8.5 8.5 0 0 1-1.1-.3 1.9 1.9 0 0 1-1.1-2 1.8 1.8 0 0 1 1.5-1.5h1zM462 455.2h.6a.6.6 0 0 1 .2.6 2.2 2.2 0 0 1-2.5.4 1.4 1.4 0 0 1-.5-.7 5.3 5.3 0 0 1-.2-1.3V452c0-.6 0-1-.7-1.1a.4.4 0 0 1 0-.8 1.2 1.2 0 0 0 .8-1.3.6.6 0 0 1 .5-.5c.5 0 .6.3.6.6l.1.5c.1.3.3.4.6.5s1.2-.1 1.1.6-.7.4-1 .5a.7.7 0 0 0-.7.7v2.8c0 .7.3.9 1 .8zM494.8 455.2h.3l.4.3-.1.4a.5.5 0 0 1-.3.2 8.4 8.4 0 0 1-1.5.3 1 1 0 0 1-1-.8 7.3 7.3 0 0 1-.3-1.5v-2.3a.8.8 0 0 0-.7-1 .4.4 0 0 1-.1-.8 1.2 1.2 0 0 0 .9-1.2v-.4a1.2 1.2 0 0 1 .6-.2l.4.3a1 1 0 0 1 .1.4.9.9 0 0 0 1 1 1.3 1.3 0 0 1 .6 0 .5.5 0 0 1 .2.5l-.2.4c-.1.2-.1 0-.2 0-1.3.3-1.3.3-1.3 1.5v2.2c0 .6.3.7 1 .7a1.6 1.6 0 0 0 .2 0zM444.9 447l-.4.3c-1.3.4-1.4.5-1.3 1.7 0 .6 0 .6.7.8.4.1.9 0 .8.7 0 .4-.5.3-.8.4a.7.7 0 0 0-.7.7v2.9a7.3 7.3 0 0 1-.1 1.3.6.6 0 0 1-.5.4.6.6 0 0 1-.5-.4 5 5 0 0 1 0-1.1v-2.9a1 1 0 0 0-.7-1c-.5-.2-.4-.6 0-.9a1 1 0 0 0 .6-.9 3 3 0 0 1 .4-1.7 1.7 1.7 0 0 1 2-.8c.2 0 .3.2.5.4zM449.3 453v-2.6c0-.5.5-.8.9-.4a.8.8 0 0 0 1.1.1 2.2 2.2 0 0 1 1-.3c.1 0 .4.2.4.4a.5.5 0 0 1 0 .4 4.6 4.6 0 0 1-.8.4 2.3 2.3 0 0 0-1.4 2.1v2.5a.6.6 0 0 1-.7.6.6.6 0 0 1-.5-.6V453zM472.6 450.1h2c.3 0 .5.2.4.4a.7.7 0 0 1-.4.4l-1.5.2c-.7 0-.9.1-1 .8l-.6 3a8 8 0 0 1-.2.9c-.1.3-.6.6-.8.4a1 1 0 0 1-.1-.7c.1-.8.4-1.5.6-2.3l.4-1.4a.5.5 0 0 0-.5-.7 2 2 0 0 0-1.5.4l-.5.4c-.2.1-.2 0-.2 0a.2.2 0 0 1 0-.2 2.2 2.2 0 0 1 1.9-1.6h2zM489.8 453.2v2.5a.6.6 0 0 1-1 0 8.4 8.4 0 0 1-.2-1v-3.3-.7c0-.6.3-.8.7-.8s.5.4.6.7v2.5zM447.1 453.1v2.2a1 1 0 0 1-.2.6.8.8 0 0 1-.5.3.5.5 0 0 1-.4-.3 2.5 2.5 0 0 1-.1-.8v-4a1.8 1.8 0 0 1 .1-.8.7.7 0 0 1 .5-.3.7.7 0 0 1 .5.3 2.5 2.5 0 0 1 .1.8v2zM490 447.3a.6.6 0 0 1-.6.6c-.5 0-.8-.1-.8-.6a.6.6 0 0 1 .5-.7c.5 0 .8.2.8.7zM447.1 447.1a.6.6 0 0 1-.7.6.6.6 0 0 1-.5-.8.6.6 0 0 1 .7-.4.6.6 0 0 1 .5.6zM459.6 37.7a5.7 5.7 0 0 1-.4 1c-.3.5-.5 1.4-1 1.3-.8-.2-.5-1-.6-1.6l-.8-5.1a1.9 1.9 0 0 0-.1-.5l-.3.1-1.4 5.5c-.2.6-.2 1.2.5 1.4a.3.3 0 0 1 .1.2l-.2.2h-2.3a.4.4 0 0 1-.3-.2.3.3 0 0 1 .1-.2c1-.2 1.4-.9 1.6-1.8l1.4-5.8c0-.3.1-.7-.3-.9l-.5-.4c0-.3.4-.3.7-.3 1.8 0 1.9 0 2.1 1.8l.7 5.1c.1.7.2.7.9.3a1 1 0 0 1 .1 0zM463.3 32c.5-1.3.5-1.4 1.7-1.4a8.6 8.6 0 0 1 1 0l.3.2-.2.3a1.3 1.3 0 0 0-1.3 1.2c-.4 2.2-1 4.3-1.5 6.4-.2.6-.1.6.6 1l.2.2-.2.2H461l-.4-.1c-.1-.4.2-.4.4-.4a1 1 0 0 0 1-.9l1.5-6-.2-.8zM468.6 36.7v-5.3-1.1a.6.6 0 0 1 .7-.6 6.4 6.4 0 0 1 1 0l.1.3-.1.3c-.8 0-1 .5-1 1.2V42c0 .7.1 1.2 1 1.3 0 0 .1.2 0 .2a.6.6 0 0 1-.2.4 2 2 0 0 1-.7 0c-.6 0-.8-.1-.8-.7v-1.2zM485.6 36.8v5.5a8.3 8.3 0 0 1 0 1 .5.5 0 0 1-.7.5 4 4 0 0 1-.8 0l-.4-.2c0-.3.1-.5.4-.5.7 0 .7-.5.7-1v-6.7-3.9c0-.7-.1-1.2-1-1.3l-.2-.2.3-.3a4.2 4.2 0 0 1 1 0 .6.6 0 0 1 .6.5v1.2zM479.2 34.5a4.8 4.8 0 0 0-1.7 3c-.1.7-.3 1.5-.6 2.2a1.3 1.3 0 0 1-.3.6.6.6 0 0 1-.5 0 .3.3 0 0 1-.2-.3 2 2 0 0 1 0-.6l.6-2.4a9.3 9.3 0 0 0 .2-1.2c.2-1.2 0-1.4-1.3-1.3l-.4-.2.3-.2a2 2 0 0 1 2.2.3c.4.5.7.3 1 0a2.2 2.2 0 0 1 .6-.2 1.1 1.1 0 0 0 .1.3zM471.6 36.1a1.3 1.3 0 0 1 .2-1.4 1.4 1.4 0 0 1 .7-.6c.8-.3 1.3.3 1.7.8a.8.8 0 0 1 0 .6c-.2 1.1-.6 2.2-1 3.4l-.1.8c-.1.3-.3.6-.7.6s-.5-.3-.3-1l.7-3.2a5.7 5.7 0 0 0 .2-1.1.5.5 0 0 0-.3-.4.5.5 0 0 0-.4.1l-.8 1.4z"/>
  <path d="M481.6 40.2a1 1 0 0 1-1.4 0 1.2 1.2 0 0 1-.4-1.4c0-.4.3-.8.4-1.3a15 15 0 0 0 .5-1.7c.2-1-.1-1.3-1.2-1.4a1.8 1.8 0 0 0-.3 0 1.1 1.1 0 0 1-.1-.1l.4-.3c1.8-.2 2.6.6 2.2 2.4l-.7 2.2a4.4 4.4 0 0 0-.2.8c0 .4.2.6.6.6z"/>
  <path d="M481.4 40l1-1.5.3-.1v.3a2.1 2.1 0 0 1-1.1 1.5zM461 35.7a2.3 2.3 0 0 1 1-1.7 2.1 2.1 0 0 1-1 1.7zM461 35.7a1 1 0 0 1-.7 1 1 1 0 0 1 .6-1zM462.6 33a1 1 0 0 1-.7 1 1.1 1.1 0 0 1 .7-1zM462.6 33a1 1 0 0 1 .7-1 1 1 0 0 1-.7 1zM459.6 37.7a1 1 0 0 1 .7-1 1 1 0 0 1-.7 1zM462 101.4c-.6.7-.4 1.5-.3 2.3l.3.3c.1.1.5.1.4.4l-.5.2h-1.8c-.2 0-.4 0-.5-.2 0-.3.2-.3.4-.4a.8.8 0 0 0 .4-.8v-5.9a1.3 1.3 0 0 0-.6-1c-.2-.2 0-.5.1-.6.8-.2 1.5.3 2.2.2a5.7 5.7 0 0 1 2-.2 3.2 3.2 0 0 1 2.3 2.6 3.3 3.3 0 0 1-1.6 3.4 2.8 2.8 0 0 1-2 .4 1 1 0 0 1-.8-.7 4.2 4.2 0 0 1 .5 0 1.7 1.7 0 0 0 2.2-.8 3.7 3.7 0 0 0 0-3.6 2 2 0 0 0-.4-.5 1.3 1.3 0 0 0-1.4-.3c-.6.2-1.2.5-1.2 1.3a8.8 8.8 0 0 0 .3 4zM479 95.9v-2.2a1.3 1.3 0 0 0-.1-.6c-.2-.2-.6-.4-.5-.5.1-.5.6-.3 1-.4.6 0 .8.2.8.8v7.3a1 1 0 0 0 .7 1.2.3.3 0 0 1 0 .2.4.4 0 0 1-.1.3 3.3 3.3 0 0 1-1.5 0 1.4 1.4 0 0 0-1.3 0 2.7 2.7 0 0 1-3-1 3.2 3.2 0 0 1-.5-3.4 2.9 2.9 0 0 1 2.7-2 13.6 13.6 0 0 1 1.9.3zm0 2.9v-1.3a1.6 1.6 0 0 0-1.2-1.4 1.7 1.7 0 0 0-1.8 1 4 4 0 0 0 0 3.5 1.6 1.6 0 0 0 1.7 1 1.8 1.8 0 0 0 1.4-1.6v-1.2zM470.4 101.8c-.4.5-1 .3-1.5.2a1.9 1.9 0 0 1-1.3-.7 1.4 1.4 0 0 1 0-1.6 3 3 0 0 1 1.9-1.3c.4-.1.9-.1 1.3-.3a.6.6 0 0 0 .4-.6 1.5 1.5 0 0 0-1.8-1.4c-.4 0-.5.2-.4.7a4.5 4.5 0 0 1 0 .5.6.6 0 0 1-.7.5.7.7 0 0 1-.6-.7 1.5 1.5 0 0 1 1-1.3 2.8 2.8 0 0 1 2.7.2 2.1 2.1 0 0 1 1 1.8v2.4a4.7 4.7 0 0 0 .1.8l.2.2a.6.6 0 0 0 .4-.2 7.8 7.8 0 0 0 .4-1 1.4 1.4 0 0 1-.3 1.7c-.3.3-.7.5-1 .2-.7-.5-1.3-.3-1.9-.1l.7-1c.4-.8.4-1.9 0-2a2 2 0 0 0-2 .7 1.3 1.3 0 0 0 .7 2.1 5.1 5.1 0 0 0 .7.2zM468.2 501.1l-.1-.8c0-.5-.1-1-.6-1.2a2.6 2.6 0 0 0-2-.2.9.9 0 0 0-.5.5 4.6 4.6 0 0 0-.2 1l-1 5.7c0 .9 0 .9.8 1.1a4.5 4.5 0 0 1 .6.2v.2a.2.2 0 0 1 0 .1.3.3 0 0 1-.2 0h-4.2l-.3-.2.3-.2c.3 0 .5 0 .8-.2a.8.8 0 0 0 .7-.6l.2-.7 1-6v-.3a.6.6 0 0 0-.6-.7c-1.5 0-2.5.3-2.8 1.5a3.8 3.8 0 0 1-.2.5l-.2.3c-.3 0-.2-.2-.2-.4a.5.5 0 0 1 0-.2c.6-2.5.3-2.2 2.6-2.3h5a4.2 4.2 0 0 1 1 .1c.2 0 .4.3.4.4l-.1 2.2-.2.2zM475.3 504.4a2.4 2.4 0 0 1 2.8-2.8 4 4 0 0 0 2.4-.2 1 1 0 0 1 .8.2.6.6 0 0 1 .1.5c0 .2-.3.3-.5.3l-.6-.3a.6.6 0 0 0-.4.3 1.8 1.8 0 0 0 0 .7 2.6 2.6 0 0 1-2.7 2.6 4 4 0 0 1-.8-.1c-.3-.1-.5 0-.6.3a.6.6 0 0 0 .5.8h1.2a12.3 12.3 0 0 1 1.4.3 1.5 1.5 0 0 1 1.3 1.3 1.7 1.7 0 0 1-.9 1.7 4.3 4.3 0 0 1-2.4.6 5.4 5.4 0 0 1-2-.3 1.3 1.3 0 0 1-.5-2.3 1.9 1.9 0 0 0 .6-1.6c0-.7.7-1.3.3-2zm1.9 3.3a8.6 8.6 0 0 0-1.4.1 1.2 1.2 0 0 0-1 1 1 1 0 0 0 .9 1.2 3.3 3.3 0 0 0 3.1-.5c.3-.3.6-.6.4-1a1.4 1.4 0 0 0-.7-.6 6.5 6.5 0 0 0-1.3-.1zm1.5-4.4c0-.7-.1-1-.5-1.2a1 1 0 0 0-1.1.2 2.2 2.2 0 0 0-.6 2.4 1 1 0 0 0 .6.4 1 1 0 0 0 1.2-.5 8 8 0 0 0 .4-1.2zM471 507c-.2.9-1 1-1.6 1a2 2 0 0 1-1.7-.7 1.2 1.2 0 0 1-.2-1.2 2.3 2.3 0 0 1 1.4-1.4 19.3 19.3 0 0 1 2.3-.7.9.9 0 0 0 .7-1 1.2 1.2 0 0 0-1.7-1 .6.6 0 0 0-.5.7 1.2 1.2 0 0 1 0 .7.6.6 0 0 1-.9.3 1 1 0 0 1-.3-.7 1.6 1.6 0 0 1 .4-.9 2.6 2.6 0 0 1 2.5-.6 2 2 0 0 1 1.6 2.2l-.4 3.1.3.4.3-.2a5.5 5.5 0 0 0 .2-.6 2 2 0 0 1 .1-.3.2.2 0 0 1 .1-.1l.2.2a3.7 3.7 0 0 1-.3 1 1.1 1.1 0 0 1-1.6.4l-.9-.5.5-1.3c.2-.5.3-.9 0-1.2s-.9 0-1.3.2a2.1 2.1 0 0 0-1.4 1.5.8.8 0 0 0 .8 1.1 10.7 10.7 0 0 0 1.5-.3zM67.1 162a8.6 8.6 0 0 1-.7 3.2c-.5-.1-.3-.5-.4-.7l-.3-.3a10.3 10.3 0 0 0-1.7-.1.7.7 0 0 0-.4.4 11.3 11.3 0 0 0-.8 3.5 10.2 10.2 0 0 0 3 0 2.7 2.7 0 0 0 2.3-1.3l.8-1.5.2.4-1.3 2.9a6 6 0 0 1-2.8.2h-4a3.8 3.8 0 0 1-.8-.1l-.1-.2.1-.2a2 2 0 0 1 .5-.1.8.8 0 0 0 .7-.7l.1-.3 1.7-6.7c0-.4 0-.6-.4-.7-.2 0-.5-.1-.4-.4a.5.5 0 0 1 .4-.3h6.4c.6 0 .8.3.8.9l-.3 2c-.5-.3-.3-.7-.4-1-.2-.8-.5-1.1-1.3-1.2h-2.6a.7.7 0 0 0-.8.6 51 51 0 0 0-.6 2.5c0 .4.1.6.6.6 1.2 0 1.4 0 2.5-1.5zM75.5 166.2a1 1 0 0 0 0 1 20.5 20.5 0 0 0 1.9 3.3 3.9 3.9 0 0 1-1.8.1l-.2-.3a.8.8 0 0 0 0-1l-.5-.9c-.6-1-1.2-1.2-2-.1-.4.5-.8 1.2-.1 2 .2.2 0 .4-.3.4h-1.7l-.3-.2a1.7 1.7 0 0 1 .2-.3c.2-.2.5-.3.6-.6l1.1-4.5a.8.8 0 0 0-.2-.6c-.2-.3 0-.5.2-.5h2.1a5.6 5.6 0 0 0-.8.8 2.6 2.6 0 0 0-.3.8l-.2 1.5c.7.2 1-.4 1.4-.7l.8-.3zM76.4 165.4a3.4 3.4 0 0 0 .4-.5l.4-.8a.4.4 0 0 1 .3 0h1.3v.2l-2.3 1.2z"/>
  <path d="M75.4 166l1-.7.1.2-1 .7zM179 162.3l-.1-1.4a1.1 1.1 0 0 0-1-1.2 2.1 2.1 0 0 0-.5 0c-1 0-2-.3-2.8.3s-.7 1.8-1 2.8c0 .4.2.6.6.6 1 0 1.8 0 2.2-1 0-.2.2-.2.3-.3a5.9 5.9 0 0 1-.8 3.3 4.8 4.8 0 0 0-.2-.7c0-.2-.2-.5-.3-.5a8.4 8.4 0 0 0-1.7 0 .7.7 0 0 0-.4.4l-.8 3c0 .3 0 .5.4.5h2.7a2.8 2.8 0 0 0 2.2-1.4 3.6 3.6 0 0 1 1-1.4 9.4 9.4 0 0 1-1.1 3 1.3 1.3 0 0 1-.5.4 3.3 3.3 0 0 1-.9 0h-5.5a4.5 4.5 0 0 1-.8 0 .2.2 0 0 1-.1-.2.4.4 0 0 1 0-.2.6.6 0 0 1 .3-.1 1 1 0 0 0 1-.8l1.7-6.7a.7.7 0 0 0-.6-1 .3.3 0 0 1-.1-.3.3.3 0 0 1 .2-.2.8.8 0 0 1 .3 0h6c.9 0 1 .2 1 1a4 4 0 0 1-.6 2zM185.7 165.9l-.4.4a.6.6 0 0 0-.2.8l1.5 2.8c.1.2.6.3.4.6-.2.2-.5.2-.8.2a3 3 0 0 1-.7 0c-.2 0-.4-.1-.4-.4.3-1.1-.5-1.8-1-2.6a.5.5 0 0 0-.4-.1 2.3 2.3 0 0 0-1.5 2.4l.2.2c.2.2.2.5 0 .5h-2a.3.3 0 0 1-.2-.2s0-.2.2-.2a1 1 0 0 0 .7-.9l1-4.2a3.9 3.9 0 0 0 0-1.1l.8-.1c.9 0 .9 0 .5.8a1.2 1.2 0 0 0-.1.4c-.1.6-.6 1.3-.3 2l1.6-1 1-.5zM185.6 165.7c.3-.6 1.1-.7 1.2-1.5l.4-.2h1.3c-.4.6-1 .7-1.4 1l-1.4.8zM61.7 38a4 4 0 0 1-1 2 .4.4 0 0 1-.6-.2 3.6 3.6 0 0 1-.2-.6l-.7-4.7-.3-2.2a6.9 6.9 0 0 0-.5 1l-1.3 5.1c-.1.7-.1 1.1.6 1.4a.3.3 0 0 1 .1.2l-.2.2h-2.3L55 40a.3.3 0 0 1 .1-.2c1-.2 1.3-.9 1.4-1.7l1.5-5.7c.2-.7 0-1-.6-1.2-.1 0-.2-.2-.1-.3a.3.3 0 0 1 .2-.2 7.6 7.6 0 0 1 .8 0c1.4 0 1.5 0 1.7 1.5l.7 5.5c.1.5.5.5.9.4zM64.7 33.4A5.8 5.8 0 0 1 66 31a1 1 0 0 1 .7-.3 11.7 11.7 0 0 1 1.6 0 .3.3 0 0 1 .2.2.4.4 0 0 1-.2.2.9.9 0 0 1-.3.1 1 1 0 0 0-.8 1l-1.7 6.6c0 .3-.2.7.3.9.2 0 .6 0 .5.4l-.6.2h-2c-.3 0-.7.1-.8-.3a2 2 0 0 1 .7-.3 1 1 0 0 0 .6-.7l1.6-6.5-1.1.9zM76.1 32.3H75a.3.3 0 0 1-.2-.2.3.3 0 0 1 0-.3l2-.7a.3.3 0 0 1 .5.3 12 12 0 0 1 .2 1.3v5.9c0 .8 0 .8 1 1l.2.1.2.3a.3.3 0 0 1-.2.2h-3c-.3 0-.7.1-.8-.3a2 2 0 0 1 .7-.3.7.7 0 0 0 .6-.8v-6.5zM70.8 36.7v-5.4a8.4 8.4 0 0 1 0-1 .6.6 0 0 1 .7-.6 5.5 5.5 0 0 1 1 0l.1.3-.1.2c-.9.1-1 .7-1 1.5v10a3.3 3.3 0 0 0 0 .9 1 1 0 0 0 .4.4c.2.2.8.1.6.6l-.9.2c-.7 0-.9-.2-.9-.9v-6.2zM82.5 36.7v5.6a7.9 7.9 0 0 1 0 .8c0 .5-.2.7-.8.7a2.5 2.5 0 0 1-.6 0 .6.6 0 0 1-.4-.2l.2-.4c.7 0 1-.5 1-1.1V31.5c0-.7-.2-1.1-1-1.2a.4.4 0 0 1-.2-.3l.4-.3a1.6 1.6 0 0 1 .4 0c.8 0 1 .2 1 .9v6.2zM61.7 38a2.3 2.3 0 0 1 1-1.6 2 2 0 0 1-1 1.7zM62.7 36.4a1.1 1.1 0 0 1 .7-1 1 1 0 0 1-.7 1zM63.4 35.4a1 1 0 0 1 .7-1 1 1 0 0 1-.7 1z"/>
  <path d="M64 34.4a1 1 0 0 1 .7-1 1.1 1.1 0 0 1-.7 1zM189 38a2.7 2.7 0 0 1-.3 1.9.7.7 0 0 1-.5.3H184a.4.4 0 0 1-.2-.6l1-1.1 2-2.5a3.5 3.5 0 0 0 .9-2.6 3 3 0 0 0-.4-1.3 1.6 1.6 0 0 0-2.7.1.6.6 0 0 0 0 .5l.3.4a.7.7 0 0 1 0 .9 1 1 0 0 1-.8.2.7.7 0 0 1-.5-.8 2.6 2.6 0 0 1 1.7-2.4 3 3 0 0 1 3.3 1 2.8 2.8 0 0 1 0 3.3A16.2 16.2 0 0 1 187 37l-1.5 1.5a.3.3 0 0 0 0 .3.4.4 0 0 0 .2.2h1.2c1.2 0 1.2 0 2-1zM171.5 37.7a7.5 7.5 0 0 1-.4 1c-.3.5-.5 1.4-1 1.3-.8-.2-.5-1-.6-1.6l-.7-5.1a1.9 1.9 0 0 0-.2-.5l-.3.1-1.4 5.5c-.2.6-.2 1.2.5 1.4a.3.3 0 0 1 .2.2l-.3.2H165a.3.3 0 0 1-.2-.2v-.2c1-.2 1.4-.9 1.6-1.8l1.4-5.8c0-.3.2-.7-.2-.9l-.5-.4c0-.3.4-.3.6-.3 1.8 0 1.9 0 2.2 1.8l.7 5.1c0 .7 0 .7.8.3a.6.6 0 0 1 .2 0zM175.2 32c.5-1.3.6-1.4 1.7-1.4a8.4 8.4 0 0 1 1 0l.3.2-.2.3a1.3 1.3 0 0 0-1.2 1.3l-1.6 6.3c-.2.7-.1.7.6 1l.2.2-.2.3h-2.9a.6.6 0 0 1-.4-.2c-.1-.3.2-.3.4-.3a1 1 0 0 0 1-1l1.5-6-.2-.7zM180.5 36.7v-5.3-1.1a.6.6 0 0 1 .7-.6 6.6 6.6 0 0 1 1 0l.1.3-.1.3c-.8 0-1 .5-1 1.2V42c0 .7.1 1.2 1 1.3a.3.3 0 0 1 0 .2.6.6 0 0 1-.2.4 2.1 2.1 0 0 1-.7 0c-.6 0-.8-.1-.8-.7v-1.2zM192.1 36.8v6.4a.6.6 0 0 1-.6.6 6.6 6.6 0 0 1-1 0l-.2-.3a.3.3 0 0 1 0-.2l.2-.1c.8 0 1-.5 1-1.3V31.5c0-.7-.2-1.2-1-1.2l-.2-.3.2-.2a5.5 5.5 0 0 1 1-.1.6.6 0 0 1 .6.6v6.5zM173.8 34a2.1 2.1 0 0 1-1 1.7 2.3 2.3 0 0 1 1-1.7zM172.8 35.7a1 1 0 0 1-.6 1 1 1 0 0 1 .6-1z"/>
  <path d="M171.5 37.7a1 1 0 0 1 .7-1 1 1 0 0 1-.7 1zM173.9 34a1.1 1.1 0 0 1 .6-1 1 1 0 0 1-.6 1zM175.2 32a1 1 0 0 1-.7 1 1.1 1.1 0 0 1 .7-1z"/>
  <path class="a" d="M482.8 453v-.8a1.2 1.2 0 0 1 .7-1.2 1.6 1.6 0 0 1 1.7.1 2.7 2.7 0 0 1-.5 4.2 1.3 1.3 0 0 1-1.9-1V453zM462 101.4a8.8 8.8 0 0 1-.4-4c0-.7.6-1 1.2-1.2a1.3 1.3 0 0 1 1.4.3 2 2 0 0 1 .4.5 3.7 3.7 0 0 1 0 3.5 1.7 1.7 0 0 1-2.2 1 4.2 4.2 0 0 0-.5-.1zM479 98.8v1.2a1.8 1.8 0 0 1-1.4 1.6 1.6 1.6 0 0 1-1.7-1 4 4 0 0 1 0-3.5 1.7 1.7 0 0 1 1.9-1 1.6 1.6 0 0 1 1.2 1.4v1.3zM470.4 101.8a5.1 5.1 0 0 1-.7-.1 1.3 1.3 0 0 1-.7-2.2 2 2 0 0 1 2-.7c.4.2.5 1.3 0 2l-.6 1zM477.2 507.8a6.5 6.5 0 0 1 1.3 0 1.4 1.4 0 0 1 .7.7c.3.4 0 .7-.3 1a3.3 3.3 0 0 1-3.2.5 1 1 0 0 1-.8-1.1 1.2 1.2 0 0 1 1-1 8.6 8.6 0 0 1 1.3-.1zM478.7 503.4a8 8 0 0 1-.4 1.3 1 1 0 0 1-1.2.5 1 1 0 0 1-.6-.5 2.2 2.2 0 0 1 .6-2.3 1 1 0 0 1 1-.2c.5 0 .6.4.6 1.2zM471 507a10.7 10.7 0 0 1-1.4.4.8.8 0 0 1-.9-1.1 2.1 2.1 0 0 1 1.5-1.5c.4-.1.9-.5 1.2-.2s.2.8 0 1.3l-.4 1.2z"/>
</svg>
