<svg xmlns="http://www.w3.org/2000/svg" viewBox="0 0 488.22 153.17">
  <defs>
    <style>
      .a,.d,.g{fill:none;}.b{clip-path:url(#a);}.c{fill:#d7e3bf;}.d,.g{stroke:#010101;stroke-linecap:round;stroke-linejoin:round;}.d{stroke-width:0.61px;}.e,.h{fill:#010101;}.f{fill:#fad7bb;}.g{stroke-width:0.14px;}.h{fill-rule:evenodd;}.i{fill:#d8d9d8;}
    </style>
    <clipPath id="a" transform="translate(-9.93 -12.17)">
      <path class="a" d="M9.23 11.56h489.61v156.27H9.23z"/>
    </clipPath>
  </defs>
  <title>
    stream
  </title>
  <g class="b">
    <path class="c" d="M16.95 44.63h22.14v22.14H16.95z"/>
    <path class="d" d="M16.95 44.63h22.14v22.14H16.95z"/>
    <path class="e" d="M26.36 53.47a7.89 7.89 0 0 0 .37-1.32c0-.16-.1-.21-.29-.24l-.44-.08a.17.17 0 0 1 .06-.28h1.82v.16a7.27 7.27 0 0 0 .54 1.61l1.12 2.76c.22.53.41 1 .54 1.25.08 0 .13-.13.19-.31l.88-2.78a12.17 12.17 0 0 0 .53-2c0-.2 0-.28-.28-.32l-.43-.09a.2.2 0 0 1 .07-.28h2.3a.23.23 0 0 1 0 .28h-.27a1.2 1.2 0 0 0-.58.2 10.26 10.26 0 0 0-.91 2.23l-.8 2.48c-.38 1.17-.5 1.6-.7 2.28a.33.33 0 0 1-.27.07c-.14-.44-.3-.93-1-2.7l-.88-2.13c-.3-.73-.57-1.46-.74-1.83a3.48 3.48 0 0 0-.35 1l-.87 2.88c-.23.76-.42 1.65-.47 1.84-.09.37.17.41.54.45h.26a.21.21 0 0 1 0 .28h-2.43a.19.19 0 0 1 0-.28h.28a1.14 1.14 0 0 0 .54-.19 6 6 0 0 0 .84-2.12z"/>
    <path class="c" d="M77.86.3h66.58v22.14H77.86z"/>
    <path class="d" d="M77.86.3h66.58v22.14H77.86z"/>
    <path class="e" d="M105.98 10.7a5.64 5.64 0 0 0 .47-1.48c0-.16-.1-.22-.31-.25l-.52-.08a.19.19 0 0 1 .06-.28h1.96a5.77 5.77 0 0 0 .06 2.16l.18 1.43c.12 1 .19 1.54.24 2 .43-.52.85-1.09 1.28-1.63l1.76-2.27a5.7 5.7 0 0 0 1.08-1.72 5.62 5.62 0 0 0 .69 0h1.12c.09.06.06.21 0 .28h-.26c-.39.07-.55.13-.67.25a4.2 4.2 0 0 0-.51 1.37l-1 3.43a8.28 8.28 0 0 0-.32 1.38c0 .18.13.28.44.3h.38a.19.19 0 0 1 0 .28h-2.76a.19.19 0 0 1 0-.28h.29a1.19 1.19 0 0 0 .61-.21 5.14 5.14 0 0 0 .57-1.41l.89-2.9c.18-.56.33-1.06.42-1.4l-1 1.35-1.69 2.18a25.22 25.22 0 0 0-1.77 2.49.17.17 0 0 1-.21 0 20.9 20.9 0 0 0-.18-2.26l-.38-3.72c-.18.4-.34.86-.51 1.32l-.83 2.24a9.36 9.36 0 0 0-.67 2.07c0 .12.06.21.33.25l.48.08a.28.28 0 0 1 0 .28h-2.47c-.07-.07-.07-.24 0-.28h.3a.84.84 0 0 0 .63-.3 24.73 24.73 0 0 0 1.34-3.18zm10.09 2.6c0-.66 0-.87-.47-.91h-.47a.13.13 0 0 1 0-.21 4.47 4.47 0 0 0 1.6-.56.12.12 0 0 1 .1 0v4.98c0 .75 0 .91.42.94h.41c.06.06 0 .21 0 .24h-2.31c-.07 0-.08-.18 0-.24h.4c.41 0 .42-.19.42-.94z"/>
    <path class="f" d="M77.86 44.63h66.58v49.88H77.86z"/>
    <path class="d" d="M77.86 44.63h66.58v49.88H77.86z"/>
    <path class="e" d="M105.68 68.23c0 .41 0 .44.41.44h1c.77 0 .95-.1 1.09-.81l.07-.37c.1-.12.47-.12.55 0v3.14a.42.42 0 0 1-.55 0l-.07-.37c-.15-.71-.33-.83-1.09-.83h-1c-.4 0-.41 0-.41.46v1.76a2.68 2.68 0 0 0 .24 1.4c.19.27.47.38 1.55.38 1.29 0 1.79 0 2.6-1.72a.36.36 0 0 1 .55.07 8.38 8.38 0 0 1-.62 2.37h-7.88a.42.42 0 0 1 0-.52l.69-.1c.67-.1.75-.19.75-1.55V66.5c0-1.35-.09-1.43-.75-1.57l-.37-.07a.37.37 0 0 1 0-.52h7.26c0 .24.12 1.3.19 2.29-.06.16-.4.19-.55.06a3.43 3.43 0 0 0-.56-1.17 1.94 1.94 0 0 0-1.45-.46h-1.16c-.49 0-.49 0-.49.58zm8.78 2.74c.29-.91.31-1.06-.17-1.15l-.22.01a.15.15 0 0 1 .06-.24h2.15a.15.15 0 0 1 0 .24h-.21c-.57.12-.61.18-.92 1.15l-.41 1.28c-.07.21-.06.27.17.27a.91.91 0 0 0 .42-.1 7 7 0 0 0 1-.84l1-.92c.52-.5.63-.64.63-.72s-.11-.09-.23-.12h-.18a.16.16 0 0 1 0-.24h2.07a.15.15 0 0 1 0 .24h-.2a3 3 0 0 0-.65.17 7.1 7.1 0 0 0-1.72 1.3l-1.24 1.14c-.17.15-.18.16-.08.37l1.07 2.13c.26.53.42.74.88.8h.25a.16.16 0 0 1 0 .24h-2.1v-.24h.25c.33 0 .29-.14.1-.52l-1-2c-.2-.4-.3-.44-.39-.44s-.26.09-.32.27l-.4 1.53c-.28.9-.31 1.11.18 1.15h.27a.18.18 0 0 1 0 .24h-2.31a.16.16 0 0 1 0-.24h.3c.47 0 .56-.17.87-1.15z"/>
    <path class="c" d="M77.86 122.19h89.04v22.19H77.86z"/>
    <path class="d" d="M77.86 122.19h89.04v22.19H77.86z"/>
    <path class="e" d="M124.46 130.7a12.46 12.46 0 0 0-.5 1.48c0 .09-.27.08-.3 0 .21-1-.07-1.48-1.21-1.48a4 4 0 0 0-2.84 1.24 5 5 0 0 0-1.31 3.31c0 1.57.74 2.43 2.15 2.43a2.72 2.72 0 0 0 2.39-1.55c.11 0 .23 0 .27.08a10.08 10.08 0 0 1-.72 1.56 5.94 5.94 0 0 0-.88.12 6.28 6.28 0 0 1-1.08.13 2.8 2.8 0 0 1-3.11-3 4.64 4.64 0 0 1 1.59-3.33 5.58 5.58 0 0 1 3.73-1.35 5 5 0 0 1 1.82.36zm1.75 4.54c0-.66 0-.87-.47-.91h-.47a.13.13 0 0 1 0-.21 4.46 4.46 0 0 0 1.6-.56.12.12 0 0 1 .1 0v4.98c0 .75 0 .91.42.94h.41c.06.06 0 .21 0 .24h-2.31c-.07 0-.08-.18 0-.24h.4c.41 0 .42-.19.42-.94z"/>
    <path class="g" d="M144.72 147.05v5.54"/>
    <path class="e" d="M157.32 151.73a1.1 1.1 0 0 1-.42.07c-.68 0-1-.42-1-1.32v-2.42h-.46a4.18 4.18 0 0 0-.86.07l-.11-.45a2 2 0 0 1 1.16-.23h2.44l-.1.61h-1.3v2.4c0 .58.23.72.49.72h.18z"/>
    <path class="g" d="M165.63 149.76h-4.66"/>
    <path class="h" d="M167.18 149.77l-2.05 1.06a2.35 2.35 0 0 0 0-2.11l2.05 1.05"/>
    <path class="g" d="M150.6 149.76h-4.27"/>
    <path class="h" d="M144.71 149.77l2.05-1.05a2.77 2.77 0 0 0 0 2.11l-2.05-1.05"/>
    <path class="c" d="M222.17.41h38.78V22.6h-38.78z"/>
    <path class="d" d="M222.17.41h38.78V22.6h-38.78z"/>
    <path class="e" d="M236.3 10.7a5.64 5.64 0 0 0 .47-1.48c0-.16-.1-.22-.31-.25l-.52-.08a.19.19 0 0 1 .06-.28h1.96a5.77 5.77 0 0 0 .06 2.16l.18 1.43c.12 1 .19 1.54.24 2 .43-.52.85-1.09 1.28-1.63l1.76-2.27a5.7 5.7 0 0 0 1.08-1.72 5.62 5.62 0 0 0 .69 0h1.12c.09.06.06.21 0 .28h-.25c-.39.07-.55.13-.67.25a4.2 4.2 0 0 0-.51 1.37l-1 3.43a8.28 8.28 0 0 0-.32 1.38c0 .18.13.28.44.3h.38a.19.19 0 0 1 0 .28h-2.76a.19.19 0 0 1 0-.28h.29a1.19 1.19 0 0 0 .61-.21 5.14 5.14 0 0 0 .57-1.41l.89-2.9c.18-.56.33-1.06.42-1.4l-1 1.35-1.69 2.18a25.22 25.22 0 0 0-1.77 2.49.17.17 0 0 1-.21 0 20.9 20.9 0 0 0-.18-2.26l-.38-3.72c-.18.4-.34.86-.51 1.32l-.83 2.24a9.36 9.36 0 0 0-.67 2.07c0 .12.06.21.33.25l.48.08a.28.28 0 0 1 0 .28h-2.47c-.07-.07-.07-.24 0-.28h.3a.84.84 0 0 0 .63-.3 24.73 24.73 0 0 0 1.34-3.18zm11.45 6.92a1.37 1.37 0 0 0 .91-.21 1.29 1.29 0 0 0 .31-.4.2.2 0 0 1 .21.06 4.33 4.33 0 0 1-.45 1.18h-3.74a.14.14 0 0 1-.07-.13s0-.07.11-.11a8 8 0 0 0 1.48-1.4 4.27 4.27 0 0 0 1.39-2.67c0-.88-.43-1.42-1.21-1.42a1.42 1.42 0 0 0-1.26 1 .16.16 0 0 1-.23-.13 2 2 0 0 1 2-1.37 1.51 1.51 0 0 1 1.6 1.58 3.34 3.34 0 0 1-1 2.13l-.59.68c-.8.91-.88 1.07-.88 1.13s0 .09.3.09z"/>
    <path class="f" d="M222.17 44.74h66.52v49.88h-66.52z"/>
    <path class="d" d="M222.17 44.74h66.52v49.88h-66.52z"/>
    <path class="e" d="M249.88 68.23c0 .41 0 .44.41.44h1c.77 0 .95-.1 1.09-.81l.07-.37c.1-.12.47-.12.55 0v3.14a.42.42 0 0 1-.55 0l-.07-.37c-.15-.71-.33-.83-1.09-.83h-1c-.4 0-.41 0-.41.46v1.76a2.69 2.69 0 0 0 .24 1.4c.19.27.47.38 1.55.38 1.29 0 1.79 0 2.6-1.72a.36.36 0 0 1 .55.07 8.37 8.37 0 0 1-.62 2.37h-7.88a.42.42 0 0 1 0-.52l.7-.1c.67-.1.75-.19.75-1.55V66.5c0-1.35-.09-1.43-.75-1.57l-.37-.07a.37.37 0 0 1 0-.52h7.26c0 .24.12 1.3.19 2.29-.06.16-.4.19-.55.06a3.41 3.41 0 0 0-.56-1.17 1.94 1.94 0 0 0-1.45-.46h-1.18c-.49 0-.49 0-.49.58zm8.77 3.19c.29-.91.31-1.06-.17-1.15h-.22a.15.15 0 0 1 .06-.24h2.15a.15.15 0 0 1 0 .24h-.19c-.57.12-.61.18-.92 1.15l-.41 1.28c-.07.21-.06.27.17.27a.91.91 0 0 0 .42-.1 7.06 7.06 0 0 0 1-.84l1-.92c.52-.5.63-.64.63-.72s-.11-.09-.23-.12h-.18a.16.16 0 0 1 0-.24h2.07a.15.15 0 0 1 0 .24h-.2a3 3 0 0 0-.65.17 7.11 7.11 0 0 0-1.72 1.3l-1.19 1.14c-.17.15-.18.16-.08.37l1.08 2.13c.26.53.42.74.88.8h.25a.16.16 0 0 1 0 .24h-2.1v-.24h.25c.33 0 .29-.14.1-.52l-1-2c-.2-.4-.3-.44-.39-.44s-.26.09-.32.27l-.48 1.53c-.28.9-.31 1.11.18 1.15h.27a.18.18 0 0 1 0 .24h-2.31a.16.16 0 0 1 0-.24h.3c.47 0 .56-.17.87-1.15z"/>
    <path class="c" d="M222.17 122.36h60.97v22.14h-60.97z"/>
    <path class="d" d="M222.17 122.36h60.97v22.14h-60.97z"/>
    <path class="e" d="M254.34 130.7a12.28 12.28 0 0 0-.5 1.48c0 .09-.27.08-.3 0 .21-1-.07-1.48-1.21-1.48a4 4 0 0 0-2.84 1.24 5 5 0 0 0-1.31 3.31c0 1.57.74 2.43 2.15 2.43a2.72 2.72 0 0 0 2.38-1.55c.11 0 .23 0 .27.08a10.06 10.06 0 0 1-.72 1.56 5.94 5.94 0 0 0-.88.12 6.27 6.27 0 0 1-1.08.13 2.79 2.79 0 0 1-3.11-3 4.64 4.64 0 0 1 1.59-3.33 5.58 5.58 0 0 1 3.73-1.35 5 5 0 0 1 1.83.36zm2.62 8.87a1.37 1.37 0 0 0 .91-.21 1.28 1.28 0 0 0 .31-.4.19.19 0 0 1 .21.06 4.31 4.31 0 0 1-.45 1.18h-3.74a.14.14 0 0 1-.07-.13s0-.07.11-.11a8 8 0 0 0 1.48-1.4 4.27 4.27 0 0 0 1.39-2.67c0-.88-.43-1.42-1.21-1.42a1.42 1.42 0 0 0-1.26 1 .16.16 0 0 1-.23-.13 2 2 0 0 1 2-1.37 1.51 1.51 0 0 1 1.6 1.58 3.34 3.34 0 0 1-1 2.13l-.59.68c-.8.91-.88 1.07-.88 1.13s0 .09.3.09z"/>
    <path class="c" d="M365.91.41h105.36V22.6H365.91z"/>
    <path class="d" d="M365.91.41h105.36V22.6H365.91z"/>
    <path class="e" d="M413.22 10.7a5.63 5.63 0 0 0 .47-1.48c0-.16-.1-.22-.31-.25l-.52-.08a.19.19 0 0 1 .06-.28h1.96a5.77 5.77 0 0 0 .06 2.16l.18 1.43c.12 1 .19 1.54.24 2 .43-.52.85-1.09 1.28-1.63l1.76-2.27a5.72 5.72 0 0 0 1.08-1.72 5.6 5.6 0 0 0 .69 0h1.12c.09.06.06.21 0 .28h-.25c-.39.07-.55.13-.67.25a4.2 4.2 0 0 0-.51 1.37l-1 3.43a8.39 8.39 0 0 0-.32 1.38c0 .18.13.28.44.3h.38a.19.19 0 0 1 0 .28h-2.76a.19.19 0 0 1 0-.28h.29a1.19 1.19 0 0 0 .61-.21 5.13 5.13 0 0 0 .57-1.41l.89-2.9c.18-.56.33-1.06.42-1.4l-1 1.35-1.69 2.18a25.14 25.14 0 0 0-1.78 2.49.17.17 0 0 1-.21 0 20.66 20.66 0 0 0-.18-2.26l-.45-3.68c-.18.4-.34.86-.51 1.32l-.83 2.24a9.34 9.34 0 0 0-.67 2.07c0 .12.05.21.33.25l.48.08a.28.28 0 0 1 0 .28h-2.47c-.07-.07-.07-.24 0-.28h.3a.84.84 0 0 0 .63-.3 24.92 24.92 0 0 0 1.34-3.18zm8.79 7.47a.37.37 0 0 1 .38-.38c.23 0 .36.19.47.35a.54.54 0 0 0 .51.29 2.06 2.06 0 0 0 1.7-1.9c0-.85-.41-1.58-1.25-1.58a1.41 1.41 0 0 0-1 .48.25.25 0 0 1-.21-.34 8.21 8.21 0 0 0 1.55-.84 1.2 1.2 0 0 0 .51-.93.79.79 0 0 0-.8-.83 1.55 1.55 0 0 0-1.31.85.16.16 0 0 1-.2-.14 2 2 0 0 1 1.71-1.19c.8 0 1.35.43 1.35 1.12 0 .4-.16.78-1 1.24 0 .1 0 .14.12.15a1.45 1.45 0 0 1 1.41 1.49 2.59 2.59 0 0 1-.94 1.92 3.28 3.28 0 0 1-2 .83c-.48.01-1-.14-1-.59z"/>
    <path class="f" d="M365.91 44.74h66.52v49.88h-66.52z"/>
    <path class="d" d="M365.91 44.74h66.52v49.88h-66.52z"/>
    <path class="e" d="M393.57 68.23c0 .41 0 .44.41.44h1c.77 0 .95-.1 1.09-.81l.07-.37c.1-.12.47-.12.55 0v3.14a.42.42 0 0 1-.55 0l-.07-.37c-.15-.71-.33-.83-1.09-.83h-1c-.4 0-.41 0-.41.46v1.76a2.69 2.69 0 0 0 .24 1.4c.19.27.47.38 1.55.38 1.29 0 1.79 0 2.6-1.72a.36.36 0 0 1 .55.07 8.37 8.37 0 0 1-.62 2.37h-7.88a.42.42 0 0 1 0-.52l.7-.1c.67-.1.75-.19.75-1.55V66.5c0-1.35-.09-1.43-.75-1.57l-.37-.07a.37.37 0 0 1 0-.52h7.26c0 .24.12 1.3.19 2.29-.06.16-.4.19-.55.06a3.41 3.41 0 0 0-.56-1.17 1.94 1.94 0 0 0-1.45-.46h-1.16c-.49 0-.49 0-.49.58zm8.78 3.19c.29-.91.31-1.06-.17-1.15h-.22a.15.15 0 0 1 .06-.24h2.15a.15.15 0 0 1 0 .24h-.19c-.57.12-.61.18-.92 1.15l-.41 1.28c-.07.21-.06.27.17.27a.91.91 0 0 0 .42-.1 7 7 0 0 0 1-.84l1-.92c.52-.5.63-.64.63-.72s-.11-.09-.23-.12h-.18a.16.16 0 0 1 0-.24h2.07a.14.14 0 0 1 0 .24h-.2a3 3 0 0 0-.65.17 7.11 7.11 0 0 0-1.72 1.3l-1.24 1.14c-.17.15-.18.16-.08.37l1.07 2.13c.26.53.42.74.88.8h.25a.16.16 0 0 1 0 .24h-2.1v-.24h.25c.33 0 .29-.14.1-.52l-1-2c-.2-.4-.3-.44-.39-.44s-.26.09-.32.27l-.48 1.53c-.28.9-.31 1.11.18 1.15h.27a.18.18 0 0 1 0 .24h-2.31a.16.16 0 0 1 0-.24h.3c.47 0 .56-.17.87-1.15z"/>
    <path class="c" d="M365.91 122.03h122v22.14h-122z"/>
    <path class="d" d="M365.91 122.03h122v22.14h-122z"/>
    <path class="e" d="M428.99 130.26a12.28 12.28 0 0 0-.5 1.48c0 .09-.27.08-.3 0 .21-1-.07-1.48-1.21-1.48a4 4 0 0 0-2.84 1.24 5 5 0 0 0-1.31 3.31c0 1.57.74 2.43 2.15 2.43a2.72 2.72 0 0 0 2.38-1.55c.11 0 .23 0 .27.08a10.06 10.06 0 0 1-.72 1.56 5.94 5.94 0 0 0-.88.12 6.27 6.27 0 0 1-1.08.13 2.79 2.79 0 0 1-3.11-3 4.64 4.64 0 0 1 1.59-3.33 5.58 5.58 0 0 1 3.73-1.35 5 5 0 0 1 1.83.36zm-.04 9.41a.37.37 0 0 1 .38-.38c.23 0 .36.19.47.35a.54.54 0 0 0 .51.29 2.06 2.06 0 0 0 1.74-1.9c0-.85-.41-1.58-1.25-1.58a1.41 1.41 0 0 0-1 .48.25.25 0 0 1-.21-.34 8.18 8.18 0 0 0 1.55-.84 1.21 1.21 0 0 0 .51-.93.79.79 0 0 0-.8-.83 1.55 1.55 0 0 0-1.31.85.16.16 0 0 1-.2-.14 2 2 0 0 1 1.76-1.17c.8 0 1.35.43 1.35 1.12 0 .4-.16.78-1 1.24 0 .1 0 .14.12.15a1.45 1.45 0 0 1 1.41 1.49 2.59 2.59 0 0 1-.94 1.92 3.28 3.28 0 0 1-2 .83c-.57-.01-1.09-.16-1.09-.61z"/>
    <path class="d" d="M111.43 22.44v18.92"/>
    <path class="h" d="M111.43 44.63l-2.16-4.33a4.94 4.94 0 0 0 4.33 0l-2.16 4.33"/>
    <path class="d" d="M111.43 94.51v23.8"/>
    <path class="h" d="M111.43 121.58l-2.16-4.33a4.94 4.94 0 0 0 4.33 0l-2.16 4.33"/>
    <path class="d" d="M255.4 22.61v18.86"/>
    <path class="h" d="M255.4 44.74l-2.16-4.33a4.94 4.94 0 0 0 4.33 0l-2.16 4.33"/>
    <path class="d" d="M255.4 94.95v23.8"/>
    <path class="h" d="M255.4 122.03l-2.16-4.33a4.6 4.6 0 0 0 4.33 0l-2.16 4.33"/>
    <path class="d" d="M61.27 55.73h13.32"/>
    <path class="h" d="M77.86 55.73l-4.33 2.16a4.94 4.94 0 0 0 0-4.33l4.33 2.16"/>
    <path class="d" d="M399.15 22.61v18.86"/>
    <path class="h" d="M399.14 44.74l-2.16-4.33a4.94 4.94 0 0 0 4.33 0l-2.16 4.33"/>
    <path class="d" d="M399.15 94.62v23.85"/>
    <path class="h" d="M399.14 121.69l-2.16-4.33a4.6 4.6 0 0 0 4.33 0l-2.16 4.33"/>
    <path class="g" d="M166.91 147.16v5.55m94.04-5.44v5.55m20.58-2.83h-4.66"/>
    <path class="h" d="M283.14 149.99l-2.07 1.05a2.35 2.35 0 0 0 0-2.11l2.11 1.05"/>
    <path class="g" d="M266.77 149.99h-4.27"/>
    <path class="h" d="M260.94 149.99l2.13-1.06a2.05 2.05 0 0 0 0 2.11l-2.11-1.05"/>
    <path class="g" d="M283.14 147.27v5.55"/>
    <path class="e" d="M272.88 152.18a1.08 1.08 0 0 1-.42.07c-.68 0-1-.42-1-1.32v-2.42h-.47a4.18 4.18 0 0 0-.86.07l-.11-.45a2 2 0 0 1 1.16-.23h2.45l-.1.61h-1.32v2.4c0 .58.23.72.49.72h.18z"/>
    <path class="g" d="M465.55 147.55v5.54m20.75-2.77h-4.66"/>
    <path class="h" d="M487.91 150.32l-2.11 1.05a2.35 2.35 0 0 0 0-2.11l2.11 1.05"/>
    <path class="g" d="M471.44 150.26h-4.28"/>
    <path class="h" d="M465.55 150.27l2.11-1.05a2.35 2.35 0 0 0 0 2.11l-2.11-1.05"/>
    <path class="g" d="M487.75 147.55v5.54"/>
    <path class="e" d="M477.54 152.18a1.08 1.08 0 0 1-.42.07c-.68 0-1-.42-1-1.32v-2.42h-.47a4.18 4.18 0 0 0-.86.07l-.11-.45a2 2 0 0 1 1.16-.23h2.45l-.1.61h-1.32v2.4c0 .58.23.72.49.72h.18z"/>
    <path class="i" d="M50.18 44.63h11.1v22.14h-11.1z"/>
    <path class="d" d="M50.18 44.63h11.1v22.14h-11.1z"/>
    <path class="e" d="M57.46 52.75a5.2 5.2 0 0 1 .55 2.42 6.06 6.06 0 0 1-.34 2 2.27 2.27 0 0 1-2.19 1.79 2.07 2.07 0 0 1-1.75-1 4.76 4.76 0 0 1-.74-2.81 5.42 5.42 0 0 1 .49-2.4 2.16 2.16 0 0 1 2-1.37 2.12 2.12 0 0 1 1.98 1.37zm-.82 5.08a8.2 8.2 0 0 0 .3-2.52 9.86 9.86 0 0 0-.18-2.1q-.34-1.46-1.26-1.46t-1.26 1.5a10.07 10.07 0 0 0-.17 2.1 8.37 8.37 0 0 0 .18 2q.35 1.37 1.3 1.37a1.11 1.11 0 0 0 1.09-.89z"/>
    <path class="i" d="M39.08 44.63h11.1v22.14h-11.1z"/>
    <path class="d" d="M39.08 44.63h11.1v22.14h-11.1z"/>
    <path class="e" d="M45.07 51.5a.4.4 0 0 1 0 .06v6.52q0 .42.22.53a2.25 2.25 0 0 0 .83.14v.15h-3.05v-.17a1.79 1.79 0 0 0 .85-.18.76.76 0 0 0 .2-.63v-5a1 1 0 0 0-.06-.4.28.28 0 0 0-.28-.14 1.17 1.17 0 0 0-.37.08l-.42.17v-.15l2-1h.08z"/>
    <path class="c" d="M160.75 44.91h22.19v22.14h-22.19z"/>
    <path class="d" d="M160.75 44.91h22.19v22.14h-22.19z"/>
    <path class="e" d="M170.07 53.92a7.89 7.89 0 0 0 .37-1.32c0-.16-.1-.21-.29-.24l-.44-.09a.17.17 0 0 1 .06-.28h1.82v.16a7.27 7.27 0 0 0 .54 1.61l1.12 2.76c.22.53.41 1 .54 1.25.08 0 .13-.13.19-.31l.88-2.78a12.17 12.17 0 0 0 .53-2c0-.2 0-.28-.28-.32l-.43-.07a.2.2 0 0 1 .07-.28h2.3a.23.23 0 0 1 0 .28h-.26a1.2 1.2 0 0 0-.58.2 10.26 10.26 0 0 0-.91 2.23l-.8 2.48c-.38 1.17-.5 1.6-.7 2.28a.33.33 0 0 1-.27.07c-.14-.44-.3-.93-1-2.7l-.88-2.13c-.3-.73-.57-1.46-.74-1.83a3.46 3.46 0 0 0-.35 1l-.87 2.88c-.23.76-.42 1.65-.47 1.84-.09.37.17.41.54.45h.26a.21.21 0 0 1 0 .28h-2.42a.19.19 0 0 1 0-.28h.28a1.14 1.14 0 0 0 .54-.19 6 6 0 0 0 .84-2.12z"/>
    <path class="i" d="M194.04 44.91h11.04v22.14h-11.04z"/>
    <path class="d" d="M194.04 44.91h11.04v22.14h-11.04z"/>
    <path class="e" d="M201.16 53.19a5.2 5.2 0 0 1 .55 2.42 6.06 6.06 0 0 1-.34 2 2.27 2.27 0 0 1-2.19 1.79 2.07 2.07 0 0 1-1.75-1 4.76 4.76 0 0 1-.74-2.81 5.42 5.42 0 0 1 .49-2.4 2.16 2.16 0 0 1 2-1.37 2.12 2.12 0 0 1 1.98 1.37zm-.82 5.07a8.2 8.2 0 0 0 .3-2.52 9.86 9.86 0 0 0-.18-2.1q-.34-1.46-1.26-1.46t-1.26 1.5a10.07 10.07 0 0 0-.18 2.11 8.37 8.37 0 0 0 .18 2q.35 1.37 1.3 1.37a1.11 1.11 0 0 0 1.09-.9z"/>
    <path class="i" d="M182.94 44.91h11.1v22.14h-11.1z"/>
    <path class="d" d="M182.94 44.91h11.1v22.14h-11.1z"/>
    <path class="e" d="M185.82 59.21a35.23 35.23 0 0 0 2.69-3 3.18 3.18 0 0 0 .71-1.88 1.62 1.62 0 0 0-.43-1.22 1.43 1.43 0 0 0-1-.42 1.5 1.5 0 0 0-1.2.54 3.13 3.13 0 0 0-.49.91h-.23a2.82 2.82 0 0 1 .92-1.73 2.27 2.27 0 0 1 1.39-.48 2 2 0 0 1 1.48.58 1.94 1.94 0 0 1 .57 1.41 2.83 2.83 0 0 1-.61 1.71 36.75 36.75 0 0 1-2.66 2.93h2.49a1.54 1.54 0 0 0 .73-.12 1.62 1.62 0 0 0 .48-.61l.14.06-.6 1.51h-4.33z"/>
    <path class="d" d="M205.08 55.84h13.76"/>
    <path class="h" d="M222.16 55.83l-4.38 2.16a4.94 4.94 0 0 0 0-4.33l4.38 2.17"/>
    <path class="c" d="M304.89 44.91h22.19v22.14h-22.19z"/>
    <path class="d" d="M304.89 44.91h22.19v22.14h-22.19z"/>
    <path class="e" d="M314.25 53.92a7.84 7.84 0 0 0 .37-1.32c0-.16-.1-.21-.29-.24l-.44-.09a.17.17 0 0 1 .06-.28h1.82v.16a7.29 7.29 0 0 0 .54 1.61l1.12 2.76c.22.53.41 1 .54 1.25.08 0 .13-.13.19-.31l.88-2.78a12.17 12.17 0 0 0 .53-2c0-.2 0-.28-.28-.32l-.43-.07a.2.2 0 0 1 .07-.28h2.3a.23.23 0 0 1 0 .28h-.26a1.19 1.19 0 0 0-.58.2 10.25 10.25 0 0 0-.91 2.23l-.8 2.48c-.38 1.17-.5 1.6-.7 2.28a.33.33 0 0 1-.27.07c-.14-.44-.3-.93-1-2.7l-.88-2.13c-.3-.73-.57-1.46-.74-1.83a3.47 3.47 0 0 0-.35 1l-.87 2.88c-.23.76-.42 1.65-.47 1.84-.09.37.17.41.54.45h.25a.21.21 0 0 1 0 .28h-2.42a.19.19 0 0 1 0-.28h.28a1.14 1.14 0 0 0 .54-.19 6 6 0 0 0 .84-2.12z"/>
    <path class="i" d="M338.17 44.91h11.1v22.14h-11.1z"/>
    <path class="d" d="M338.17 44.91h11.1v22.14h-11.1z"/>
    <path class="e" d="M344.07 51.94a.4.4 0 0 1 0 .06v6.52q0 .42.22.53a2.25 2.25 0 0 0 .83.14v.15h-3.05v-.16a1.79 1.79 0 0 0 .86-.18.76.76 0 0 0 .2-.63v-5a.93.93 0 0 0-.07-.4.28.28 0 0 0-.28-.14 1.17 1.17 0 0 0-.37.08l-.42.17v-.15l2-1h.08z"/>
    <path class="i" d="M327.08 44.91h11.1v22.14h-11.1z"/>
    <path class="d" d="M327.08 44.91h11.1v22.14h-11.1z"/>
    <path class="e" d="M331.33 58.7a1.64 1.64 0 0 0 .83.31 1.3 1.3 0 0 0 1.13-.51 1.87 1.87 0 0 0 .37-1.11 1.77 1.77 0 0 0-.3-1 1.9 1.9 0 0 0-1.7-.74h-.29v-.14a4.69 4.69 0 0 0 1.36-.72 1.31 1.31 0 0 0 .5-1.07 1.07 1.07 0 0 0-.39-.9 1.41 1.41 0 0 0-.9-.31 1.47 1.47 0 0 0-1 .44 3.37 3.37 0 0 0-.54.74h-.17a2.48 2.48 0 0 1 .81-1.31 2.07 2.07 0 0 1 1.36-.49 1.73 1.73 0 0 1 1.28.45 1.44 1.44 0 0 1 .08 2 3.46 3.46 0 0 1-.69.49 2.8 2.8 0 0 1 .83.52 1.91 1.91 0 0 1 .59 1.44 2.45 2.45 0 0 1-.81 1.81 3.17 3.17 0 0 1-2.3.78 1.64 1.64 0 0 1-.93-.2.55.55 0 0 1-.27-.42.47.47 0 0 1 .09-.27.33.33 0 0 1 .29-.13 1.62 1.62 0 0 1 .77.34z"/>
    <path class="d" d="M349.27 55.84h13.37"/>
    <path class="h" d="M365.91 55.83l-4.33 2.16a4.94 4.94 0 0 0 0-4.33l4.33 2.17"/>
    <path class="d" d="M61.27 83.41h13.32"/>
    <path class="h" d="M77.86 83.41l-4.33 2.16a4.94 4.94 0 0 0 0-4.33l4.33 2.16"/>
    <path class="d" d="M205.08 83.41h13.76"/>
    <path class="h" d="M222.16 83.41l-4.38 2.16a4.94 4.94 0 0 0 0-4.33l4.38 2.16"/>
    <path class="d" d="M349.6 83.41h13.04"/>
    <path class="h" d="M365.91 83.41l-4.33 2.16a4.94 4.94 0 0 0 0-4.33l4.33 2.16"/>
    <path class="e" d="M198.96 83.11a1.73 1.73 0 0 1-.84-.51 1.2 1.2 0 0 1-.29-.8 1.24 1.24 0 0 1 .55-1 2.35 2.35 0 0 1 1.43-.4 2.81 2.81 0 0 1 1.31.28q.53.28.53.68a.42.42 0 0 1-.12.32.45.45 0 0 1-.33.12.53.53 0 0 1-.33-.1 1.1 1.1 0 0 1-.27-.36 1.13 1.13 0 0 0-.35-.43.91.91 0 0 0-.5-.12.72.72 0 0 0-.61.28 1.28 1.28 0 0 0-.21.79 1.34 1.34 0 0 0 .22.81.68.68 0 0 0 .58.3 1.7 1.7 0 0 0 .44-.08 1.69 1.69 0 0 1 .42-.08.41.41 0 0 1 .29.1.35.35 0 0 1 .11.27.36.36 0 0 1-.4.4 1.2 1.2 0 0 1-.42-.11 1.21 1.21 0 0 0-.43-.11.71.71 0 0 0-.61.31 1.41 1.41 0 0 0-.22.84 1.37 1.37 0 0 0 .33 1 1.13 1.13 0 0 0 .88.37 1.35 1.35 0 0 0 .86-.28 2.32 2.32 0 0 0 .64-.88l.34.16a2.45 2.45 0 0 1-.85 1.13 2.3 2.3 0 0 1-1.34.37 2.19 2.19 0 0 1-1.45-.46 1.5 1.5 0 0 1-.55-1.21 1.41 1.41 0 0 1 .31-.92 1.82 1.82 0 0 1 .88-.68z"/>
    <path class="c" d="M.3 72.32h60.97v22.19H.3z"/>
    <path class="d" d="M.3 72.32h60.97v22.19H.3z"/>
    <path class="e" d="M32.95 86.33a.21.21 0 0 1 0 .28h-2.53a.16.16 0 0 1 0-.28h.34a.61.61 0 0 0 .43-.18 1.79 1.79 0 0 0 .12-.69l.1-1.48c0-.25 0-.29-.23-.29h-1.6c-.33 0-.35 0-.57.34l-.81 1.26a4.79 4.79 0 0 0-.5.83c0 .07 0 .13.25.17l.41.07a.18.18 0 0 1 0 .28H26a.23.23 0 0 1 0-.28h.3a1.16 1.16 0 0 0 .77-.53c.32-.4 1-1.29 1.83-2.49l2-2.75a3.83 3.83 0 0 0 .67-1.14 2.54 2.54 0 0 0 .81-.37c.06 0 .13 0 .13.09s-.06.66-.11 1.63l-.22 4.19c-.07 1.23-.06 1.24.54 1.31zm-1.76-3.11c.19 0 .21 0 .22-.22l.18-2.43v-.29s-.1.07-.42.54l-1.54 2.23c-.09.13-.06.17.19.17zm312.4-.11a1.73 1.73 0 0 1-.84-.51 1.2 1.2 0 0 1-.29-.8 1.24 1.24 0 0 1 .55-1 2.35 2.35 0 0 1 1.43-.4 2.81 2.81 0 0 1 1.31.28q.53.28.53.68a.42.42 0 0 1-.12.32.45.45 0 0 1-.33.12.53.53 0 0 1-.33-.1 1.1 1.1 0 0 1-.27-.36 1.13 1.13 0 0 0-.35-.43.91.91 0 0 0-.5-.12.72.72 0 0 0-.61.28 1.28 1.28 0 0 0-.21.79 1.34 1.34 0 0 0 .22.81.68.68 0 0 0 .58.3 1.7 1.7 0 0 0 .44-.08 1.69 1.69 0 0 1 .42-.08.41.41 0 0 1 .29.1.35.35 0 0 1 .11.27.36.36 0 0 1-.4.4 1.2 1.2 0 0 1-.42-.11 1.21 1.21 0 0 0-.43-.11.71.71 0 0 0-.61.31 1.41 1.41 0 0 0-.22.84 1.37 1.37 0 0 0 .33 1 1.13 1.13 0 0 0 .88.37 1.35 1.35 0 0 0 .86-.28 2.32 2.32 0 0 0 .64-.88l.34.16a2.45 2.45 0 0 1-.85 1.13 2.3 2.3 0 0 1-1.34.37 2.19 2.19 0 0 1-1.45-.46 1.5 1.5 0 0 1-.55-1.21 1.41 1.41 0 0 1 .31-.92 1.82 1.82 0 0 1 .88-.68z"/>
  </g>
</svg>
