<svg xmlns="http://www.w3.org/2000/svg" viewBox="0 0 960 720">
  <defs>
    <style>
      .e{fill:none}.c{fill-opacity:0}.e,.g{stroke:#000}.e{stroke-linejoin:round}.g{stroke-miterlimit:10}.h{fill:#fff}
    </style>
    <clipPath id="a">
      <path fill="none" d="M0 0h960v720H0z"/>
    </clipPath>
  </defs>
  <g clip-path="url(#a)">
    <path class="c" d="M0 0h960v720H0z"/>
    <path d="M344 60.2A16.3 16.3 0 0 1 360.3 44h239.4A16.3 16.3 0 0 1 616 60.2v65a16.3 16.3 0 0 1-16.3 16.3H360.4a16.2 16.2 0 0 1-16.3-16.3z" fill="#93c47d"/>
    <path class="e" d="M344 60.2A16.3 16.3 0 0 1 360.3 44h239.4A16.3 16.3 0 0 1 616 60.2v65a16.3 16.3 0 0 1-16.3 16.3H360.4a16.2 16.2 0 0 1-16.3-16.3z"/>
    <path d="M100.5 60.2A16.3 16.3 0 0 1 116.7 44h155a16.3 16.3 0 0 1 16.2 16.3v65a16.3 16.3 0 0 1-16.3 16.2H116.7a16.3 16.3 0 0 1-16.2-16.3z"/>
    <path class="e" d="M100.5 60.2A16.3 16.3 0 0 1 116.7 44h155a16.3 16.3 0 0 1 16.2 16.3v65a16.3 16.3 0 0 1-16.3 16.2H116.7a16.3 16.3 0 0 1-16.2-16.3z"/>
    <path d="M58.2 223.3A16.3 16.3 0 0 1 74.5 207h239.4a16.3 16.3 0 0 1 16.3 16.3v65a16.3 16.3 0 0 1-16.3 16.2H74.5a16.3 16.3 0 0 1-16.3-16.3z" fill="#e06666"/>
    <path class="e" d="M58.2 223.3A16.3 16.3 0 0 1 74.5 207h239.4a16.3 16.3 0 0 1 16.3 16.3v65a16.3 16.3 0 0 1-16.3 16.2H74.5a16.3 16.3 0 0 1-16.3-16.3z"/>
    <path class="c" d="M194.2 141.5V207"/>
    <path class="e" d="M194.2 141.5V201"/>
    <path class="g" d="M192.5 201l1.7 4.5 1.6-4.5z"/>
    <path class="h" d="M397.5 184h165v143.6h-165z"/>
    <path class="e" d="M397.5 184h165v143.6h-165z"/>
    <path class="c" d="M330.2 255.8h67.3"/>
    <path class="e" d="M330.2 255.8h61.3"/>
    <path class="g" d="M391.5 257.4l4.5-1.6-4.5-1.7z"/>
    <path class="c" d="M480 141.5v42.4"/>
    <path class="e" d="M480 141.5v36.4"/>
    <path class="g" d="M478.3 178l1.7 4.4 1.6-4.5z"/>
    <path class="h" d="M111.7 370h165v143.8h-165z"/>
    <path class="e" d="M111.7 370h165v143.8h-165z"/>
    <path class="c" d="M194.2 304.5V370"/>
    <path class="e" d="M194.2 304.5V364"/>
    <path class="g" d="M192.5 364l1.7 4.5 1.6-4.5z"/>
    <path d="M58.2 595.5a16.3 16.3 0 0 1 16.3-16.2h239.4a16.3 16.3 0 0 1 16.3 16.3v65a16.3 16.3 0 0 1-16.3 16.2H74.5a16.3 16.3 0 0 1-16.3-16.3z" fill="#6d9eeb"/>
    <path class="e" d="M58.2 595.5a16.3 16.3 0 0 1 16.3-16.2h239.4a16.3 16.3 0 0 1 16.3 16.3v65a16.3 16.3 0 0 1-16.3 16.2H74.5a16.3 16.3 0 0 1-16.3-16.3z"/>
    <path class="c" d="M194.2 513.8v65.5"/>
    <path class="e" d="M194.2 513.8v59.5"/>
    <path class="g" d="M192.6 573.3l1.6 4.5 1.7-4.5z"/>
    <path d="M344 407.8a16.2 16.2 0 0 1 16.3-16.2h239.4a16.3 16.3 0 0 1 16.3 16.2v65a16.3 16.3 0 0 1-16.3 16.3H360.4a16.3 16.3 0 0 1-16.3-16.3z" fill="#ffd966"/>
    <path class="e" d="M344 407.8a16.2 16.2 0 0 1 16.3-16.2h239.4a16.3 16.3 0 0 1 16.3 16.2v65a16.3 16.3 0 0 1-16.3 16.3H360.4a16.3 16.3 0 0 1-16.3-16.3z"/>
    <path class="c" d="M480 327.6v64"/>
    <path class="e" d="M480 327.6v58"/>
    <path class="g" d="M478.4 385.6l1.6 4.5 1.6-4.5z"/>
    <path class="h" d="M683.3 367.7h165v143.7h-165z"/>
    <path class="e" d="M683.3 367.7h165v143.7h-165z"/>
    <path class="h" d="M672 59.4a16.3 16.3 0 0 1 16.3-16.2h155a16.3 16.3 0 0 1 16.2 16.2v65a16.2 16.2 0 0 1-16.2 16.3h-155a16.3 16.3 0 0 1-16.2-16.3z"/>
    <path class="e" d="M672 59.4a16.3 16.3 0 0 1 16.3-16.2h155a16.3 16.3 0 0 1 16.2 16.2v65a16.2 16.2 0 0 1-16.2 16.3h-155a16.3 16.3 0 0 1-16.2-16.3z"/>
    <path class="c" d="M765.8 140.7v227"/>
    <path class="e" d="M765.8 140.7v221"/>
    <path class="g" d="M764.1 361.7l1.7 4.5 1.6-4.5z"/>
    <path d="M629.8 595.5a16.2 16.2 0 0 1 16.3-16.2h239.4a16.3 16.3 0 0 1 16.3 16.3v65a16.3 16.3 0 0 1-16.3 16.2H646.1a16.3 16.3 0 0 1-16.3-16.3z" fill="#f90"/>
    <path class="e" d="M629.8 595.5a16.2 16.2 0 0 1 16.3-16.2h239.4a16.3 16.3 0 0 1 16.3 16.3v65a16.3 16.3 0 0 1-16.3 16.2H646.1a16.3 16.3 0 0 1-16.3-16.3z"/>
    <path class="c" d="M616 440.3l67.3-.8"/>
    <path class="e" d="M616 440.3l61.3-.7"/>
    <path class="g" d="M677.3 441.3l4.5-1.8-4.5-1.5z"/>
    <path class="c" d="M765.8 511.4v67.9"/>
    <path class="e" d="M765.8 511.4v61.9"/>
    <path class="g" d="M764.2 573.3l1.6 4.5 1.7-4.5z"/>
  </g>
  <path class="h" d="M159.6 85.7c0-3.4-.1-4-1.6-4.2l-1.1-.2a.6.6 0 0 1 0-.9c2-.2 4.5-.3 8-.3a12.8 12.8 0 0 1 6 1.1 5.4 5.4 0 0 1 3 5c0 3.4-2.7 5.3-4.5 6-.2.2 0 .6.1.9 3 4.6 4.8 7.5 7.3 9.5a4.3 4.3 0 0 0 2.5 1 .3.3 0 0 1 0 .5 6 6 0 0 1-1.6.2c-3 0-5-.9-7.5-4.5l-3.5-5.4a2.6 2.6 0 0 0-2.6-1.2c-1.6 0-1.6 0-1.6.8v4.6c0 3.8 0 4.2 2.1 4.5l.8.1a.7.7 0 0 1-.1 1c-1.6-.2-2.8-.2-4.3-.2l-4.5.1a.7.7 0 0 1 0-.9l.8-.1c2.1-.3 2.2-.7 2.2-4.5zm3 5.1a2.8 2.8 0 0 0 0 1.2c.2.1.7.2 2.6.2a6 6 0 0 0 3.7-1c1-.7 1.8-2 1.8-4.4 0-2.8-1.8-5.5-5.8-5.5-2.2 0-2.3.1-2.3 1.1zM202.2 97.9l.1 6.3a.6.6 0 0 1-.7.4L197 99l-8.3-9.5-4.2-4.8a9.3 9.3 0 0 0-.3 2.3V95c0 1.7 0 6.4.7 7.5.2.3 1 .6 1.8.6l1.1.1a.7.7 0 0 1 0 1l-4.2-.2-3.8.1a.7.7 0 0 1 0-.9h1c.8-.2 1.3-.4 1.5-.8.5-1.3.5-5.7.5-7.4V84.6a3.3 3.3 0 0 0-.8-2.6 3.8 3.8 0 0 0-2.2-.9h-.6a.6.6 0 0 1 0-1c1.5.2 3.5.2 4.1.2a10.7 10.7 0 0 0 1.7-.1c.7 1.8 5 6.5 6.1 7.9l3.5 3.9c2.5 2.8 4.2 4.8 5.9 6.5a3.5 3.5 0 0 0 .2-1.5v-7.7c0-1.7 0-6.4-.7-7.5-.2-.3-.8-.5-2.2-.7h-.7c-.2-.3-.2-.8.1-1l4.3.2c1.5 0 2.5 0 3.7-.2a.6.6 0 0 1 0 1h-.4c-1.2.2-2 .5-2 .8-.7 1.3-.6 5.7-.6 7.4zM229.7 100.3c0 1.5.3 2.3.9 2.6a.3.3 0 0 1 0 .4 8 8 0 0 0-1.8.3 28.4 28.4 0 0 1-6.4 1 15 15 0 0 1-11-4 11.3 11.3 0 0 1-3.3-8.2 12.3 12.3 0 0 1 3.2-8.5c2.4-2.5 6-4.2 11.4-4.2a21 21 0 0 1 4.6.5 9.8 9.8 0 0 0 2.2.3 39.4 39.4 0 0 0 .6 5.2c-.1.3-.8.4-1 .2-1-4-3.7-5.2-7.4-5.2-7 0-10 5-10 10.4 0 7 3.5 12.4 10.8 12.4 2.2 0 3.5-.5 4-1.1a4 4 0 0 0 .3-2v-1.5c0-3 0-3.3-2.3-3.5l-1.6-.2a.6.6 0 0 1 0-.9l5.1.1h3.9a.6.6 0 0 1 0 .8h-.6c-1.5.3-1.6 1.3-1.6 3z"/>
  <path d="M126 234.8c-1 0-1 0-1 1 0 3.6 2.1 6.7 6 6.7a3.9 3.9 0 0 0 3.3-1.8.5.5 0 0 1 .7.5 6.3 6.3 0 0 1-5.7 3.3 6.5 6.5 0 0 1-5.2-2.3 7.7 7.7 0 0 1-1.5-4.7c0-4.5 2.9-8.2 7.2-8.2 3.1 0 5.1 2.2 5.1 4.3a2 2 0 0 1-.1 1c-.1.2-.6.2-2.1.2zm2.2-1c2.7 0 3.5-.2 3.8-.5 0 0 .2-.2.2-.6 0-1-.7-2.3-2.8-2.3s-4 2-4 3.1c0 .1 0 .2.3.2zM138.7 233.7c0-1.4 0-1.6-1-2.3l-.3-.2a.5.5 0 0 1 0-.6 22 22 0 0 0 3.5-2 .4.4 0 0 1 .4.3l-.1 1.6c0 .3 0 .5.3.5a11.4 11.4 0 0 1 5-1.7c3.7 0 6 3 6 6.6a8.4 8.4 0 0 1-8.8 8.6 14.2 14.2 0 0 1-2-.1c-.3 0-.5.2-.5 1v3.7c0 2.6.1 3 1.4 3.1l1.4.2a.6.6 0 0 1 0 .9l-4-.1a33 33 0 0 0-3.5 0 .6.6 0 0 1 0-.8l.7-.1c1.4-.2 1.4-.6 1.4-3.2zm2.6 6.7a2.3 2.3 0 0 0 1.1 2.1 4.8 4.8 0 0 0 2.6.8c3 0 4.7-2.7 4.7-6.5 0-2.8-1.6-5.8-4.9-5.8a4.4 4.4 0 0 0-3 1 3.2 3.2 0 0 0-.5 2.2zM157 223.7c0-2.1 0-2.3-1.1-3l-.4-.2a.6.6 0 0 1 0-.7 24.3 24.3 0 0 0 4-1.6.4.4 0 0 1 .3.3l-.1 4.4v7.6a1 1 0 0 0 .1.7 8.2 8.2 0 0 1 4.9-1.9c3.4 0 4.6 2.1 4.6 4.7v6c0 2.5 0 3 1.4 3l1 .2a.6.6 0 0 1-.1.9 62.6 62.6 0 0 0-7 0 .6.6 0 0 1 0-1h.7c1.3-.2 1.4-.6 1.4-3.1v-5.2c0-2.3-1.1-3.9-3.5-3.9a4.3 4.3 0 0 0-2.8 1c-.6.6-.7.8-.7 2v6.1c0 2.6 0 3 1.4 3.1l.7.1c.3.2.2.8 0 1l-3.4-.2-3.6.1a.6.6 0 0 1 0-.9h.9c1.3-.2 1.3-.6 1.3-3.2zM177 234.8c-.8 0-1 0-1 1 0 3.6 2.2 6.7 6 6.7a3.9 3.9 0 0 0 3.4-1.8.5.5 0 0 1 .7.5 6.3 6.3 0 0 1-5.7 3.3 6.4 6.4 0 0 1-5.2-2.3 7.7 7.7 0 0 1-1.5-4.7c0-4.5 2.9-8.2 7.2-8.2 3.1 0 5.1 2.2 5.1 4.3a2.2 2.2 0 0 1-.1 1c-.1.2-.6.2-2.2.2zm2.3-1c2.7 0 3.5-.2 3.8-.5 0 0 .2-.2.2-.6 0-1-.7-2.3-2.8-2.3s-4 2-4 3.1c0 .1 0 .2.3.2zM209.3 234.8c0-2.5-1.1-3.8-3.4-3.8a3.9 3.9 0 0 0-3 1.3c-.4.5-.5.9-.5 2.2v5.5c0 2.6 0 3 1.4 3.1l.7.1a.6.6 0 0 1 0 1l-3.4-.2-3.3.1a.6.6 0 0 1 0-.9h.6c1.3-.3 1.3-.6 1.3-3.2v-5.2c0-2.4-1-3.7-3.3-3.7a3.8 3.8 0 0 0-3 1.3 2.8 2.8 0 0 0-.5 2v5.6c0 2.6 0 3 1.3 3.1l.7.1a.6.6 0 0 1 0 1 45 45 0 0 0-6.9 0 .6.6 0 0 1 0-1h.8c1.4-.2 1.4-.6 1.4-3.2v-6.3c0-1.4 0-1.6-1-2.2l-.3-.3a.5.5 0 0 1 0-.6 19 19 0 0 0 3.6-1.8.4.4 0 0 1 .4.3v1.7a.4.4 0 0 0 .3.4 8.7 8.7 0 0 1 4.8-1.9 4 4 0 0 1 3.8 2.2 1.1 1.1 0 0 0 .9-.3 9 9 0 0 1 4.9-1.9c2.9 0 4.3 2 4.3 4.5v6.2c0 2.6 0 3 1.4 3.1l.8.1a.6.6 0 0 1 0 1l-3.5-.2-3.3.1a.6.6 0 0 1-.1-.9h.7c1.3-.3 1.3-.6 1.3-3.2zM219.7 234.8c-1 0-1 0-1 1 0 3.6 2.1 6.7 6 6.7a3.9 3.9 0 0 0 3.3-1.8.5.5 0 0 1 .6.5 6.3 6.3 0 0 1-5.6 3.3 6.4 6.4 0 0 1-5.2-2.4 7.7 7.7 0 0 1-1.5-4.6c0-4.5 2.9-8.2 7.2-8.2 3.1 0 5.1 2.1 5.1 4.3a2.3 2.3 0 0 1-.1 1c-.1.2-.6.2-2.2.2zm2.2-1c2.7 0 3.5-.2 3.7-.5.2 0 .3-.2.3-.6 0-1-.7-2.3-2.8-2.3s-4 2-4 3.1c0 .1 0 .2.3.2zM232.8 233.7c0-1.4 0-1.6-1-2.3l-.4-.2a.5.5 0 0 1 0-.6 26.8 26.8 0 0 0 3.7-1.8c.2 0 .3.1.3.3v2.4c1.3-1 2.7-2.2 4-2.2a1.5 1.5 0 0 1 1.7 1.4 1.6 1.6 0 0 1-1.6 1.7 1.4 1.4 0 0 1-.7-.2 3 3 0 0 0-1.6-.6 1.6 1.6 0 0 0-1.3.7 5.5 5.5 0 0 0-.5 2.8v4.9c0 2.6 0 3 1.4 3.1l1.3.1a.6.6 0 0 1 0 1l-4-.2-3.3.1a.6.6 0 0 1-.1-.9h.7c1.3-.3 1.3-.6 1.3-3.2zM249.7 236.6c.6-.2.7-.6.7-1.1v-1.6c0-1.4-.4-3.2-2.7-3.2-1 0-2.2.5-2.3 1.6 0 .6 0 1-.3 1.3a3.9 3.9 0 0 1-2 .7.5.5 0 0 1-.6-.6c0-1.8 4-4.4 6.7-4.4s3.8 1.5 3.7 4.2l-.2 6.3c0 1.6.3 3.1 1.7 3.1a2 2 0 0 0 .9-.2l.4-.3c.1 0 .3.3.3.5a3.8 3.8 0 0 1-3 1.6 2.9 2.9 0 0 1-2.3-1.1c-.2-.2-.4-.5-.6-.5a5.8 5.8 0 0 0-1.4.7 5.2 5.2 0 0 1-2.6.9 3.7 3.7 0 0 1-2.5-.8 3.4 3.4 0 0 1-1.2-2.5c0-1.4.7-2.3 3-3.1zm-2.2 6.3a4 4 0 0 0 2.2-1c.4-.3.4-.8.5-1.6v-2.1c0-.4-.1-.5-.3-.5a6.5 6.5 0 0 0-1.5.4c-2.1.7-3.2 1.2-3.2 2.6a2.2 2.2 0 0 0 2.3 2.2zM261.6 240c0 2.6 0 3 1.3 3.1l1 .1a.6.6 0 0 1-.2 1l-3.4-.2-3.5.1a.6.6 0 0 1 0-.9h.8c1.3-.2 1.3-.6 1.3-3.2v-16.3c0-2.1 0-2.3-1.1-3l-.4-.2a.6.6 0 0 1 0-.7 24.3 24.3 0 0 0 4-1.6.4.4 0 0 1 .3.3l-.1 4.4zM148.8 273.2a8.5 8.5 0 0 1 .5 2.9.6.6 0 0 1-.8 0c-.6-1.5-1.7-2.5-3.2-2.5a2.1 2.1 0 0 0-2.3 2.2c0 1.4 1.5 2.2 2.8 3 1.9 1 3.6 2.3 3.6 4.8 0 2.8-2.5 4.1-5.1 4.1a6 6 0 0 1-3.9-1 11 11 0 0 1-.4-3.7.6.6 0 0 1 .8 0c.6 2 1.8 3.7 3.9 3.7a2.2 2.2 0 0 0 2.4-2.3c0-1.7-1.5-2.6-2.8-3.3-2.1-1.2-3.6-2.5-3.6-4.4 0-2.7 2.2-4.1 5-4.1a6.4 6.4 0 0 1 3 .6zM163.7 273.1a2 2 0 0 1 .6 1.5c0 .6-.4 1.3-.8 1.3a.6.6 0 0 1-.5-.3 5 5 0 0 0-3.6-1.9c-2.5 0-5 2-5 5.8a6 6 0 0 0 5.8 6.2 4.4 4.4 0 0 0 4-2.2.6.6 0 0 1 .6.5 6.6 6.6 0 0 1-6 3.7 7 7 0 0 1-5-1.8 7.2 7.2 0 0 1-2-5.4c0-3.8 2.7-8 8.7-8a8.8 8.8 0 0 1 3.2.6zM173.4 279.8c.6-.2.7-.6.7-1V277c0-1.3-.4-3.1-2.7-3.1-1 0-2.2.5-2.3 1.6 0 .5 0 1-.3 1.2a3.9 3.9 0 0 1-2 .7.5.5 0 0 1-.6-.5c0-1.9 4-4.4 6.7-4.4s3.9 1.5 3.7 4.2l-.2 6.2c0 1.7.3 3.2 1.7 3.2a2 2 0 0 0 .9-.3l.5-.2c.2 0 .2.2.2.5a3.8 3.8 0 0 1-3 1.5 2.9 2.9 0 0 1-2.3-1c-.2-.3-.4-.6-.6-.6a5.8 5.8 0 0 0-1.4.7 5.3 5.3 0 0 1-2.6 1 3.7 3.7 0 0 1-2.5-.9 3.4 3.4 0 0 1-1.1-2.5c0-1.4.6-2.2 3-3zm-2.2 6.3a4 4 0 0 0 2.2-1c.4-.4.4-.9.5-1.6v-2.1c0-.4 0-.5-.3-.5a6.5 6.5 0 0 0-1.5.4c-2.1.7-3.1 1.2-3.1 2.6a2.2 2.2 0 0 0 2.2 2.2zM185.3 283.2c0 2.6 0 3 1.4 3.1l.8.1a.6.6 0 0 1 0 1c-1.2-.2-2.3-.2-3.5-.2l-3.5.1a.6.6 0 0 1 0-.9l.8-.1c1.3-.2 1.3-.5 1.3-3.1v-16.3c0-2.1 0-2.3-1-3l-.4-.2a.6.6 0 0 1 0-.7 25 25 0 0 0 3.8-1.6.4.4 0 0 1 .4.3l-.1 4.4zM196.9 279.8c.5-.2.6-.6.6-1V277c0-1.3-.4-3.1-2.6-3.1-1 0-2.3.5-2.3 1.6 0 .5-.1 1-.4 1.2a3.9 3.9 0 0 1-2 .7.5.5 0 0 1-.6-.5c0-1.9 4.1-4.4 6.7-4.4s3.9 1.5 3.8 4.2l-.2 6.2c-.1 1.7.2 3.2 1.6 3.2a2 2 0 0 0 1-.3l.4-.2s.2.2.2.5a3.8 3.8 0 0 1-3 1.5 2.9 2.9 0 0 1-2.3-1c-.1-.3-.4-.6-.6-.6a5.8 5.8 0 0 0-1.4.7 5.2 5.2 0 0 1-2.6 1 3.7 3.7 0 0 1-2.5-.9 3.4 3.4 0 0 1-1-2.5c0-1.4.6-2.2 3-3zm-2.2 6.3a4 4 0 0 0 2.2-1c.4-.4.4-.9.4-1.6v-2.1c0-.4 0-.5-.3-.5a6.5 6.5 0 0 0-1.4.4c-2.2.7-3.2 1.2-3.2 2.6a2.2 2.2 0 0 0 2.3 2.2zM206.4 276.9c0-1.4 0-1.6-1-2.3l-.3-.2a.5.5 0 0 1 0-.6 26.7 26.7 0 0 0 3.7-1.8c.2 0 .3.1.3.3v2l.1.4c1.3-1 2.6-2.2 4-2.2a1.5 1.5 0 0 1 1.6 1.4 1.6 1.6 0 0 1-1.5 1.7 1.4 1.4 0 0 1-.8-.3 3 3 0 0 0-1.6-.5 1.6 1.6 0 0 0-1.3.7 5.5 5.5 0 0 0-.5 2.8v4.9c0 2.5.1 3 1.5 3l1.3.2a.6.6 0 0 1-.1.9l-4-.1-3.3.1a.6.6 0 0 1 0-.9l.6-.1c1.3-.2 1.4-.6 1.4-3.1zM230.8 278h-13.9v-1.8h13.9zm0 5.4h-13.9v-1.8h13.9zM237.5 278c-.9 0-1 0-1 1 0 3.6 2.2 6.7 6 6.7a3.9 3.9 0 0 0 3.4-1.7.5.5 0 0 1 .6.4 6.3 6.3 0 0 1-5.7 3.3 6.5 6.5 0 0 1-5.2-2.3 7.7 7.7 0 0 1-1.5-4.7c0-4.4 3-8.1 7.2-8.1 3.1 0 5.2 2 5.2 4.2a2 2 0 0 1-.2 1c0 .2-.6.2-2.1.2zm2.3-1c2.6 0 3.4-.2 3.7-.4.1-.1.2-.3.2-.7 0-1-.7-2.3-2.7-2.3s-4 2-4 3.1c0 .1 0 .2.2.2zM161.4 419.2a.6.6 0 0 1 0 1 104.2 104.2 0 0 0-9.2 0 .8.8 0 0 1 0-1l1-.1c.8 0 1.2-.2 1.2-.5s-.1-.5-.8-1.6l-5.2-7.2a87.3 87.3 0 0 0-5 7.7 2.9 2.9 0 0 0-.5 1.1c0 .2.3.4 1 .5l1 .1a.7.7 0 0 1 0 1c-1.3-.2-2.7-.2-3.9-.2l-3.7.1a.6.6 0 0 1-.1-.9l.9-.1c2-.2 3.2-1.8 4.3-3.2l4.9-6.6a1.6 1.6 0 0 0 .3-.8 2.3 2.3 0 0 0-.4-.8l-5.4-7.7c-1.2-1.7-2-2.4-3.2-2.7l-1.1-.3c-.2-.2-.2-.8 0-.9l4.2.1h4c.3 0 .4.6.2.8l-1 .1c-.7 0-1.1.3-1.1.5a5.3 5.3 0 0 0 1 2c1.2 1.7 3.4 5 4.7 6.6.9-1.2 4.1-6.3 4.8-7.4a3 3 0 0 0 .5-1.2c0-.1-.5-.4-1.2-.4l-1-.1c-.1-.3-.1-.8.1-1l3.9.2 3.4-.1a.7.7 0 0 1 0 .9h-.8c-1 .1-2.4 1.2-3.8 3.1l-4.7 6.4a2.1 2.1 0 0 0-.4.6c0 .2 0 .4.5 1l6 8.5c1.3 1.7 2.2 2.3 3.4 2.4z"/>
  <path d="M172 417.8c1.6 0 2.7-.3 3.4-.8a4.7 4.7 0 0 0 1.1-1.5.7.7 0 0 1 .8.2 16 16 0 0 1-1.6 4.4l-4.7-.1h-5.2l-4 .1a.5.5 0 0 1-.2-.5l.4-.4c1.6-1 2.8-2.3 5.5-5.1 2.3-2.6 5.1-6 5.1-10 0-3.2-1.6-5.2-4.5-5.2-2.1 0-3.7 1.5-4.7 3.6a.6.6 0 0 1-.8-.5 7.6 7.6 0 0 1 7.2-5 5.6 5.6 0 0 1 6 5.8c0 2.3-1 4.7-4 8l-2.1 2.5c-3 3.3-3.3 4-3.3 4.1s.2.4 1.1.4zM183.3 398.6c.2-.5.3-.9 1-1l8.6-1.2c.2 0 .3.2.3.3a6.4 6.4 0 0 1-1.3 2.3l-6.8 1c-.8 0-1 .3-1.2 1l-.7 2.1c0 .5 0 .6.6.7h.7c4.5.5 9.5 2.5 9.5 8 0 6.2-7.1 10.5-12.8 10.7a.7.7 0 0 1-.1-1.2c5.5-.3 10.3-3.7 10.3-8.6 0-5.1-5.5-6.4-9.7-6.5-.5 0-.6-.3-.3-1.1zM201.3 398.6c.2-.5.3-.9 1-1l8.6-1.2c.2 0 .3.2.3.3a6.4 6.4 0 0 1-1.3 2.3l-6.8 1c-.8 0-1 .3-1.2 1l-.7 2.1c0 .5 0 .6.6.7h.7c4.5.5 9.5 2.5 9.5 8 0 6.2-7.1 10.5-12.8 10.7a.7.7 0 0 1-.1-1.2c5.5-.3 10.3-3.7 10.3-8.6 0-5.1-5.5-6.4-9.7-6.5-.5 0-.6-.3-.3-1.1zM222.5 403.4c0-2.5-.1-3.3-1.7-3.4l-1.8-.2a.5.5 0 0 1 0-.7 16.5 16.5 0 0 0 6-2.1.5.5 0 0 1 .3.1l-.1 4.5v14c0 2.8 0 3.4 1.5 3.5l1.6.1c.2.3.1.8-.1 1a91.3 91.3 0 0 0-8.6 0c-.3-.2-.3-.7 0-1h1.4c1.5-.2 1.5-.8 1.5-3.6zM237.2 403c0 2.8 1.4 6 4 6a5.3 5.3 0 0 0 1.7-.1.3.3 0 0 1 0 .4 5 5 0 0 1-3.2 1c-2.9 0-5.4-2.3-5.4-6a7.2 7.2 0 0 1 7.3-7.4c4.5 0 7.2 3.9 7.2 9.2a16.2 16.2 0 0 1-5.3 11.9 18.6 18.6 0 0 1-8.5 4.1.6.6 0 0 1-.3-.8 17.5 17.5 0 0 0 5.4-2.5c3.3-2.5 5.5-6.2 5.5-13 0-3.3-1-7.8-4.4-7.8-2.3 0-4 1.8-4 5zM132.5 449.2a8.5 8.5 0 0 1 .6 2.9.6.6 0 0 1-.9 0c-.6-1.5-1.6-2.5-3.1-2.5a2.1 2.1 0 0 0-2.3 2.2c0 1.4 1.5 2.2 2.7 3 2 1 3.7 2.3 3.7 4.8 0 2.8-2.5 4.1-5.2 4.1a6 6 0 0 1-3.8-1 10.7 10.7 0 0 1-.4-3.7.6.6 0 0 1 .8 0c.6 2 1.7 3.7 3.8 3.7a2.2 2.2 0 0 0 2.4-2.3c0-1.6-1.4-2.5-2.8-3.3-2-1.2-3.5-2.4-3.5-4.4 0-2.7 2.1-4.1 4.9-4.1a6.3 6.3 0 0 1 3.1.6zM147.5 449.1a2 2 0 0 1 .5 1.5c0 .6-.3 1.3-.8 1.3a.6.6 0 0 1-.5-.3 4.9 4.9 0 0 0-3.6-1.9c-2.5 0-5 2-5 5.8a6 6 0 0 0 5.8 6.2 4.4 4.4 0 0 0 4-2.2.6.6 0 0 1 .7.5 6.5 6.5 0 0 1-6 3.7 7 7 0 0 1-5-1.8 7.2 7.2 0 0 1-2-5.4c0-3.8 2.7-8 8.7-8a8.9 8.9 0 0 1 3.2.6zM157.2 455.8c.6-.2.6-.6.6-1V453c0-1.3-.4-3.1-2.6-3.1-1 0-2.2.5-2.3 1.6 0 .5 0 1-.4 1.2a3.9 3.9 0 0 1-2 .7.5.5 0 0 1-.5-.5c0-1.9 4-4.4 6.7-4.4s3.8 1.5 3.7 4.2l-.2 6.2c0 1.7.3 3.2 1.7 3.2a2 2 0 0 0 .9-.3l.4-.2c.1 0 .3.2.3.5a3.8 3.8 0 0 1-3 1.5 2.9 2.9 0 0 1-2.3-1c-.2-.3-.4-.6-.6-.6a5.6 5.6 0 0 0-1.4.7 5.2 5.2 0 0 1-2.6 1 3.7 3.7 0 0 1-2.5-.9 3.4 3.4 0 0 1-1.1-2.5c0-1.4.6-2.2 3-3zM155 462a4 4 0 0 0 2.2-1c.4-.4.4-.9.5-1.6v-2.1c0-.4-.1-.5-.3-.5a6.5 6.5 0 0 0-1.5.4c-2.1.7-3.2 1.2-3.2 2.6a2.2 2.2 0 0 0 2.3 2.2zM169 459.2c0 2.6.1 3 1.4 3.1l.9.1a.6.6 0 0 1 0 1c-1.3-.2-2.3-.2-3.6-.2l-3.4.1a.6.6 0 0 1 0-.9l.7-.1c1.4-.2 1.4-.5 1.4-3.1v-16.3c0-2.1 0-2.3-1.1-3l-.4-.2a.6.6 0 0 1 0-.7 25.4 25.4 0 0 0 4-1.6.4.4 0 0 1 .3.3l-.1 4.4zM180.7 455.8c.5-.2.6-.6.6-1V453c0-1.3-.4-3.1-2.7-3.1-1 0-2.2.5-2.3 1.6 0 .5 0 1-.3 1.2a3.9 3.9 0 0 1-2 .7.5.5 0 0 1-.6-.5c0-1.9 4-4.4 6.7-4.4s3.9 1.5 3.8 4.2l-.3 6.2c0 1.7.3 3.2 1.7 3.2a2 2 0 0 0 .9-.3l.5-.2s.2.2.2.5a3.8 3.8 0 0 1-3 1.5 2.9 2.9 0 0 1-2.3-1c-.2-.3-.4-.6-.6-.6a5.8 5.8 0 0 0-1.4.7 5.3 5.3 0 0 1-2.6 1 3.7 3.7 0 0 1-2.5-.9 3.4 3.4 0 0 1-1.1-2.5c0-1.4.6-2.2 3-3zm-2.3 6.3a4 4 0 0 0 2.2-1c.5-.4.5-.9.5-1.6v-2.1c0-.4 0-.5-.3-.5a6.5 6.5 0 0 0-1.5.4c-2 .7-3.1 1.2-3.1 2.6a2.2 2.2 0 0 0 2.2 2.2zM190.2 452.9c0-1.4 0-1.6-1-2.3l-.3-.2a.5.5 0 0 1 0-.6 26.8 26.8 0 0 0 3.6-1.8c.2 0 .3.1.3.3v2l.1.4c1.3-1 2.6-2.2 4-2.2a1.5 1.5 0 0 1 1.6 1.4 1.6 1.6 0 0 1-1.5 1.7 1.4 1.4 0 0 1-.8-.2 3 3 0 0 0-1.6-.6 1.6 1.6 0 0 0-1.3.7 5.5 5.5 0 0 0-.5 2.8v4.9c0 2.6.1 3 1.5 3.1l1.3.1a.6.6 0 0 1 0 1c-1.8-.2-2.8-.2-4-.2l-3.4.1a.6.6 0 0 1 0-.9l.6-.1c1.3-.2 1.4-.5 1.4-3.1zM221.2 454c0-2.5-1-3.7-3.3-3.7a3.9 3.9 0 0 0-3 1.3c-.5.5-.6.8-.6 2.1v5.5c0 2.6.1 3 1.4 3.2h.8a.6.6 0 0 1-.1 1l-3.4-.1h-3.3a.6.6 0 0 1 0-.8l.6-.1c1.3-.3 1.4-.6 1.4-3.2V454c0-2.4-1.1-3.7-3.3-3.7a3.8 3.8 0 0 0-3 1.3 2.8 2.8 0 0 0-.6 2v5.6c0 2.6 0 2.9 1.4 3.1l.6.1a.6.6 0 0 1 0 1c-1-.2-2-.2-3.3-.2l-3.5.1a.6.6 0 0 1 0-.9l.8-.1c1.3-.2 1.4-.5 1.4-3.1v-6.3c0-1.4 0-1.6-1-2.3l-.4-.2a.5.5 0 0 1 0-.6 19 19 0 0 0 3.6-1.8.4.4 0 0 1 .4.3v1.6a.4.4 0 0 0 .4.5 8.7 8.7 0 0 1 4.7-1.9 4.1 4.1 0 0 1 3.9 2.1 1.1 1.1 0 0 0 .9-.3 9 9 0 0 1 4.9-1.8c2.8 0 4.2 2 4.2 4.5v6.2c0 2.6.1 3 1.4 3.1l.9.1a.6.6 0 0 1-.1 1c-1.2-.2-2.2-.2-3.5-.2l-3.3.1a.6.6 0 0 1 0-.9l.6-.1c1.3-.2 1.4-.5 1.4-3.1zM232.7 458c0 2.4.6 4 3.3 4a4.7 4.7 0 0 0 3-1 2.5 2.5 0 0 0 .7-2.1V453c0-2.3-.3-2.4-1.4-2.9l-.4-.1a.5.5 0 0 1 0-.8 14.2 14.2 0 0 0 4.2-.7c.1 0 .3.1.3.3a31 31 0 0 0-.1 3.1v6.1c0 2.8.1 4 1.1 4a6.7 6.7 0 0 0 1.4-.3c.2.2.3 1 0 1a18.9 18.9 0 0 0-4.7 1.4.5.5 0 0 1-.4-.3v-1.5c0-.3-.1-.5-.4-.5a9.3 9.3 0 0 1-5 2c-3.1 0-4.3-1.7-4.3-4.6v-6c0-2.2 0-2.6-1-3l-.5-.2a.5.5 0 0 1 0-.8 12.5 12.5 0 0 0 3.9-.7c.2 0 .3.1.4.3a27.3 27.3 0 0 0-.2 3.1zM251.2 459.2c0 2.6 0 3 1.4 3.1l.9.1a.6.6 0 0 1-.1 1c-1.2-.2-2.2-.2-3.5-.2l-3.5.1a.6.6 0 0 1 0-.9l.8-.1c1.3-.2 1.4-.5 1.4-3.1v-16.3c0-2.1 0-2.3-1.2-3l-.3-.2a.6.6 0 0 1 0-.7 25.4 25.4 0 0 0 3.9-1.6.4.4 0 0 1 .3.3v4.4zM260.8 450.5c-.7 0-.7.1-.7.9v6.7c0 2.1.3 4 2.6 4a2.7 2.7 0 0 0 1-.2c.4 0 .8-.5 1-.5.2 0 .4.4.3.7a5 5 0 0 1-3.8 1.6c-3 0-3.7-1.7-3.7-3.9v-8.2c0-1 0-1-.8-1h-1a.6.6 0 0 1 0-.8 7.2 7.2 0 0 0 2.2-1.1 8.8 8.8 0 0 0 1.5-2.1.7.7 0 0 1 .8.1v1.7c0 .6 0 .7.6.7h4a1.2 1.2 0 0 1 0 1.5zM148 495.6c0 .2 0 .3-.3.3-3-2-5-5.9-5-10.4s2-8.4 5-10.4c.2 0 .3.2.3.4a15.5 15.5 0 0 0 0 20zM150.8 484.3c0-.7 0-.8-.5-.8h-.8a.3.3 0 0 1 0-.4l1-.5a.5.5 0 0 0 .3-.5 10.1 10.1 0 0 1 .7-4 5.1 5.1 0 0 1 4.7-3.2c1.6 0 3 .8 3 1.8a1 1 0 0 1-1 1 .7.7 0 0 1-.6-.3 2.8 2.8 0 0 0-2.3-1.6c-1.9 0-2.7 2-2.7 5.8v.3c0 .6 0 .7.4.7h2.7a12.2 12.2 0 0 0 3.2-.4.3.3 0 0 1 .2.2l-.1 3v4c0 1.7 0 2 .9 2l.5.1a.4.4 0 0 1 0 .6h-4.5a.4.4 0 0 1-.1-.6h.5c.9-.2 1-.4 1-2.2v-4.1c0-1.5-.2-1.6-1.3-1.6h-3c-.4 0-.4.2-.4.7v5c0 1.8 0 2 .9 2.1h.7a.4.4 0 0 1 0 .7h-4.8a.4.4 0 0 1 0-.6h.6c.9-.2.9-.4.9-2.2zM163.1 484.2a2.1 2.1 0 0 0-1.4-1h-.4v-.7h4.2a.4.4 0 0 1 0 .6h-.4c-.7.2-.6.3-.2 1l1.1 1.6a2.7 2.7 0 0 0 .3.4l1.4-2c.4-.6.4-.7-.2-.9h-.3a.4.4 0 0 1 .2-.6h3.5a.4.4 0 0 1 0 .5l-.4.1a2.7 2.7 0 0 0-1.2.4 20.7 20.7 0 0 0-2.2 2.8c-.3.4-.3.4 0 .9l2.2 3.1c.6.8 1 1 1.6 1.1h.4v.6H166.5a.4.4 0 0 1 0-.6h.6c.7-.1.7-.3.4-.8l-1.2-1.8a3.8 3.8 0 0 0-.6-.7 6.2 6.2 0 0 0-.4.6l-1 1.6c-.5.8-.5 1 0 1l.5.1v.6h-3.6a.4.4 0 0 1 0-.6h.6a2.1 2.1 0 0 0 1.2-.8c.5-.5 1.5-2.1 2-2.8.3-.3.4-.4.2-.6zM174.3 485.9c-.7 0-.7 0-.7.6 0 2.4 1.4 4.5 4 4.5a2.6 2.6 0 0 0 2.2-1.2.3.3 0 0 1 .4.3 4.2 4.2 0 0 1-3.7 2.2 4.3 4.3 0 0 1-3.5-1.6 5 5 0 0 1-1-3c0-3 2-5.5 4.8-5.5a3.1 3.1 0 0 1 3.4 2.9 1.5 1.5 0 0 1 0 .6c-.1.1-.5.2-1.5.2zm1.4-.8c1.8 0 2.3 0 2.5-.2s.2-.1.2-.5c0-.6-.5-1.5-1.9-1.5a2.8 2.8 0 0 0-2.6 2.1l.1.1zM190.8 488.5c0 1.9 0 2.8.7 2.8a4 4 0 0 0 1-.3c.2 0 .2.7 0 .8a17.2 17.2 0 0 0-3.2.8l-.2-.2v-.4a2.6 2.6 0 0 0 0-.8h-.2a5 5 0 0 1-3 1.2 4.4 4.4 0 0 1-4.4-4.6c0-3.4 2.5-5.6 5.8-5.6a5.2 5.2 0 0 1 1.6.2c.1 0 .2-.1.2-.3v-3.6c0-1.4 0-1.6-.8-2l-.2-.2a.4.4 0 0 1 0-.4 18.5 18.5 0 0 0 2.6-1 .3.3 0 0 1 .2.1v3zm-1.8-3.6a1.4 1.4 0 0 0-.3-1 2.5 2.5 0 0 0-2-1c-2.1 0-3.3 2-3.3 4s1.3 4.3 3.6 4.3a3 3 0 0 0 1.9-.7 1.5 1.5 0 0 0 .1-.9zM199.4 486a.9.9 0 0 1 .4.8 1 1 0 0 1-.2.6l-5.6.6a1 1 0 0 1-.4-.8 1 1 0 0 1 .2-.6zM202.3 478.5c0-1.5 0-1.6-.7-2l-.3-.2a.4.4 0 0 1 0-.5 22.3 22.3 0 0 0 2.7-1 .3.3 0 0 1 .2.2l-.1 3v4.5c0 .4.1.5.2.5a5.6 5.6 0 0 1 2.8-.8 4.5 4.5 0 0 1 4.6 4.7 5.3 5.3 0 0 1-5.5 5.5 6.6 6.6 0 0 1-2-.4 6 6 0 0 0-1-.3c-.2 0-.4.2-.5.4s0 0-.1 0a.3.3 0 0 1-.3-.2v-2zm1.8 10.2a3.3 3.3 0 0 0 .6 2.1 2.3 2.3 0 0 0 1.8.8c2.3 0 3.2-1.9 3.2-4 0-2.5-1.3-4.4-3.7-4.4a3.2 3.2 0 0 0-1.6.4c-.2.2-.3.4-.3 1.4zM218.2 487c.4-.1.4-.3.4-.7v-1.1c0-.9-.2-2-1.7-2-.7 0-1.5.3-1.6 1 0 .4 0 .7-.2.8a2.6 2.6 0 0 1-1.4.5.3.3 0 0 1-.3-.4c0-1.2 2.7-3 4.4-3s2.6 1 2.5 2.8l-.1 4.2c0 1.1.2 2.1 1.1 2.1a1.4 1.4 0 0 0 .6-.1.9.9 0 0 1 .3-.2c.1 0 .2.1.2.3a2.5 2.5 0 0 1-2 1 2 2 0 0 1-1.6-.7c0-.1-.2-.3-.4-.3a3.5 3.5 0 0 0-.9.5 3.7 3.7 0 0 1-1.7.6 2.5 2.5 0 0 1-1.7-.6 2.2 2.2 0 0 1-.7-1.7c0-1 .4-1.5 2-2zm-1.5 4.2a2.7 2.7 0 0 0 1.5-.6c.3-.3.3-.6.3-1.1v-1.4c0-.3 0-.3-.2-.3a4.8 4.8 0 0 0-1 .2c-1.4.5-2.1.8-2.1 1.8a1.4 1.4 0 0 0 1.5 1.5zM228.8 482.6a5.5 5.5 0 0 1 .4 2 .4.4 0 0 1-.6 0 2.4 2.4 0 0 0-2.1-1.7 1.4 1.4 0 0 0-1.5 1.5c0 1 1 1.5 1.8 2 1.3.7 2.5 1.5 2.5 3.2s-1.7 2.7-3.5 2.7a4 4 0 0 1-2.6-.7 7.5 7.5 0 0 1-.3-2.4.4.4 0 0 1 .6 0c.4 1.3 1.2 2.5 2.5 2.5a1.5 1.5 0 0 0 1.6-1.6c0-1-1-1.7-1.8-2.2-1.4-.8-2.4-1.6-2.4-3 0-1.7 1.5-2.7 3.3-2.7a4.3 4.3 0 0 1 2.1.4zM233.1 485.9c-.6 0-.7 0-.7.6 0 2.4 1.5 4.5 4 4.5a2.6 2.6 0 0 0 2.3-1.2.3.3 0 0 1 .4.3 4.2 4.2 0 0 1-3.8 2.2 4.3 4.3 0 0 1-3.5-1.6 5 5 0 0 1-1-3c0-3 2-5.5 4.9-5.5a3.1 3.1 0 0 1 3.4 2.9 1.5 1.5 0 0 1-.1.6c-.1.1-.4.2-1.4.2zm1.5-.8c1.8 0 2.3 0 2.5-.2s.1-.1.1-.5c0-.6-.4-1.5-1.8-1.5a2.8 2.8 0 0 0-2.7 2.1l.2.1zM240 475.5c0-.2.1-.3.3-.4 3 2 5 6 5 10.4s-2 8.5-5 10.4c-.2 0-.3-.1-.3-.4a15.4 15.4 0 0 0 0-20zM448.4 242.2a.6.6 0 0 1 0 1c-1.6-.2-3-.2-4.5-.2l-4.7.1a.8.8 0 0 1 0-.9l1-.1c.8 0 1.2-.2 1.2-.5s0-.5-.8-1.5c-1.5-2.3-3.5-5.2-5.1-7.3a87.3 87.3 0 0 0-5 7.7 2.9 2.9 0 0 0-.6 1.1c0 .2.4.4 1 .5l1 .1a.7.7 0 0 1 0 1c-1.3-.2-2.6-.2-3.8-.2l-3.8.1a.6.6 0 0 1 0-.9l.8-.1c2-.2 3.2-1.8 4.3-3.2l5-6.6a1.6 1.6 0 0 0 .2-.8 2.3 2.3 0 0 0-.4-.8l-5.4-7.7c-1.2-1.7-1.9-2.4-3.1-2.7l-1.2-.3c-.2-.2-.1-.8 0-.9l4.3.1h4c.3 0 .3.6.1.8l-1 .1c-.6 0-1 .3-1 .5a5.3 5.3 0 0 0 1 2c1.2 1.7 3.3 5 4.6 6.6 1-1.2 4.2-6.3 4.8-7.4a3 3 0 0 0 .6-1.2c0-.1-.6-.4-1.2-.4l-1-.1c-.2-.3-.2-.8 0-1l4 .2 3.4-.1a.7.7 0 0 1 0 .9h-.8c-1.1.1-2.4 1.2-3.9 3.1l-4.7 6.4a2.1 2.1 0 0 0-.3.6c0 .2 0 .4.5 1l6 8.6c1.3 1.6 2.2 2.2 3.3 2.3z"/>
  <path d="M459 240.8c1.6 0 2.7-.3 3.4-.8a4.7 4.7 0 0 0 1.1-1.5.7.7 0 0 1 .8.2 16 16 0 0 1-1.6 4.4l-4.7-.1h-5.2l-4 .1a.5.5 0 0 1-.2-.5l.4-.4c1.6-1 2.8-2.3 5.5-5.1 2.3-2.6 5.1-6 5.1-10 0-3.2-1.6-5.2-4.5-5.2-2.2 0-3.7 1.5-4.7 3.6a.6.6 0 0 1-.8-.5 7.6 7.6 0 0 1 7.2-5 5.6 5.6 0 0 1 6 5.8c0 2.3-1 4.7-4 8l-2.1 2.5c-3 3.3-3.3 4-3.3 4.1s.2.4 1.1.4zM470.3 221.7c.2-.6.4-1 1-1l8.6-1.3c.2 0 .3.2.3.4a6.4 6.4 0 0 1-1.3 2.2l-6.8 1c-.8 0-1 .3-1.2 1l-.7 2.1c0 .5 0 .6.6.7h.7c4.5.5 9.5 2.5 9.5 8 0 6.2-7.1 10.5-12.8 10.7a.7.7 0 0 1-.1-1.2c5.5-.3 10.3-3.7 10.3-8.6 0-5.1-5.4-6.4-9.7-6.5-.5 0-.6-.3-.3-1.1zM488.3 221.7c.2-.6.4-1 1-1l8.6-1.3c.2 0 .3.2.3.4a6.4 6.4 0 0 1-1.3 2.2l-6.8 1c-.8 0-1 .3-1.2 1l-.7 2.1c0 .5 0 .6.6.7h.7c4.5.5 9.5 2.5 9.5 8 0 6.2-7.1 10.5-12.8 10.7a.7.7 0 0 1-.1-1.2c5.5-.3 10.3-3.7 10.3-8.6 0-5.1-5.4-6.4-9.7-6.5-.5 0-.6-.3-.3-1.1zM509.5 226.4c0-2.5-.1-3.3-1.7-3.4l-1.8-.2a.5.5 0 0 1 0-.8 16.4 16.4 0 0 0 6-2 .5.5 0 0 1 .3.1l-.1 4.5v14c0 2.8 0 3.4 1.5 3.5l1.6.1c.2.3.1.8-.1 1a91.3 91.3 0 0 0-8.6 0c-.3-.2-.3-.7 0-1h1.4c1.5-.2 1.5-.8 1.5-3.6zM524.1 226c0 2.8 1.4 6 4.2 6a5.3 5.3 0 0 0 1.6-.1.3.3 0 0 1 0 .4 5 5 0 0 1-3.2 1c-2.9 0-5.4-2.3-5.4-6a7.2 7.2 0 0 1 7.3-7.4c4.5 0 7.2 3.9 7.2 9.2a16.2 16.2 0 0 1-5.3 11.9 18.6 18.6 0 0 1-8.6 4.1.6.6 0 0 1-.2-.8 17.5 17.5 0 0 0 5.4-2.5c3.3-2.5 5.5-6.2 5.5-13 0-3.3-1-7.8-4.4-7.8-2.3 0-4 1.8-4 5zM419.5 272.2a8.5 8.5 0 0 1 .6 2.9.6.6 0 0 1-.9 0c-.6-1.5-1.7-2.5-3.1-2.5a2.1 2.1 0 0 0-2.3 2.2c0 1.4 1.5 2.2 2.7 3 2 1 3.7 2.3 3.7 4.8 0 2.8-2.5 4.1-5.2 4.1a6 6 0 0 1-3.8-1 10.7 10.7 0 0 1-.5-3.7.6.6 0 0 1 .9 0c.6 2 1.7 3.7 3.8 3.7a2.2 2.2 0 0 0 2.4-2.3c0-1.6-1.4-2.5-2.8-3.3-2-1.2-3.5-2.4-3.5-4.4 0-2.7 2.1-4.1 4.9-4.1a6.3 6.3 0 0 1 3.1.6zM434.5 272.1a2 2 0 0 1 .5 1.5c0 .6-.3 1.3-.7 1.3a.6.6 0 0 1-.6-.3 4.9 4.9 0 0 0-3.5-1.9c-2.6 0-5 2-5 5.8a6 6 0 0 0 5.7 6.2 4.4 4.4 0 0 0 4-2.2.6.6 0 0 1 .7.5 6.5 6.5 0 0 1-6 3.7 7 7 0 0 1-5-1.8 7.2 7.2 0 0 1-2-5.4c0-3.8 2.7-8 8.7-8a8.9 8.9 0 0 1 3.2.6zM444.2 278.8c.6-.2.6-.6.6-1V276c0-1.3-.3-3.1-2.6-3.1-1 0-2.2.5-2.3 1.6 0 .5 0 1-.3 1.2a3.9 3.9 0 0 1-2.1.7.5.5 0 0 1-.5-.5c0-1.9 4-4.4 6.7-4.4s3.8 1.5 3.7 4.2l-.2 6.2c0 1.7.3 3.2 1.7 3.2a2 2 0 0 0 .9-.3l.4-.2c.1 0 .3.2.3.5a3.8 3.8 0 0 1-3 1.5 2.9 2.9 0 0 1-2.3-1c-.2-.3-.4-.6-.6-.6a5.6 5.6 0 0 0-1.4.7 5.2 5.2 0 0 1-2.6 1 3.7 3.7 0 0 1-2.5-.9 3.4 3.4 0 0 1-1.1-2.5c0-1.4.6-2.2 3-3zM442 285a4 4 0 0 0 2.2-1c.4-.4.4-.9.5-1.6v-2.1c0-.4-.1-.5-.3-.5a6.5 6.5 0 0 0-1.5.4c-2.1.7-3.2 1.2-3.2 2.6a2.2 2.2 0 0 0 2.3 2.2zM456 282.2c0 2.6.1 3 1.4 3.1l.9.1a.6.6 0 0 1 0 1c-1.3-.2-2.3-.2-3.6-.2l-3.4.1a.6.6 0 0 1 0-.9l.7-.1c1.4-.2 1.4-.5 1.4-3.1v-16.3c0-2.1 0-2.3-1.1-3l-.4-.2a.6.6 0 0 1 0-.7 25.4 25.4 0 0 0 4-1.6.4.4 0 0 1 .3.3l-.1 4.4zM467.7 278.8c.5-.2.6-.6.6-1V276c0-1.3-.4-3.1-2.7-3.1-1 0-2.2.5-2.3 1.6 0 .5 0 1-.3 1.2a3.9 3.9 0 0 1-2 .7.5.5 0 0 1-.5-.5c0-1.9 4-4.4 6.7-4.4s3.8 1.5 3.7 4.2l-.2 6.2c0 1.7.3 3.2 1.7 3.2a2 2 0 0 0 .9-.3l.4-.2c.1 0 .3.2.3.5a3.8 3.8 0 0 1-3 1.5 2.9 2.9 0 0 1-2.4-1c-.1-.3-.3-.6-.5-.6a5.8 5.8 0 0 0-1.4.7 5.3 5.3 0 0 1-2.6 1 3.7 3.7 0 0 1-2.6-.9 3.4 3.4 0 0 1-1-2.5c0-1.4.6-2.2 3-3zm-2.3 6.3a4 4 0 0 0 2.2-1c.5-.4.5-.9.5-1.6v-2.1c0-.4 0-.5-.3-.5a6.5 6.5 0 0 0-1.5.4c-2 .7-3.1 1.2-3.1 2.6a2.2 2.2 0 0 0 2.2 2.2zM477.2 275.9c0-1.4 0-1.6-1-2.3l-.3-.2a.5.5 0 0 1 0-.6 26.8 26.8 0 0 0 3.6-1.8c.2 0 .3.1.3.3v2l.1.4c1.3-1 2.6-2.2 4-2.2a1.5 1.5 0 0 1 1.6 1.4 1.6 1.6 0 0 1-1.5 1.7 1.4 1.4 0 0 1-.8-.2 3 3 0 0 0-1.6-.6 1.6 1.6 0 0 0-1.3.7 5.5 5.5 0 0 0-.5 2.8v4.9c0 2.6.1 3 1.5 3.1l1.3.1a.6.6 0 0 1 0 1c-1.8-.2-2.8-.2-4-.2l-3.4.1a.6.6 0 0 1 0-.9l.6-.1c1.4-.2 1.4-.5 1.4-3.1zM508.2 277c0-2.5-1-3.7-3.3-3.7a3.9 3.9 0 0 0-3 1.3c-.5.5-.6.8-.6 2.1v5.5c0 2.6.1 3 1.4 3.2h.8a.6.6 0 0 1-.1 1l-3.4-.1h-3.3a.6.6 0 0 1 0-.8l.6-.1c1.3-.3 1.4-.6 1.4-3.2V277c0-2.4-1.1-3.7-3.3-3.7a3.8 3.8 0 0 0-3 1.3 2.8 2.8 0 0 0-.6 2v5.6c0 2.6 0 2.9 1.4 3.1l.6.1a.6.6 0 0 1 0 1c-1-.2-2-.2-3.3-.2l-3.5.1a.6.6 0 0 1 0-.9l.8-.1c1.3-.2 1.4-.5 1.4-3.1v-6.3c0-1.4 0-1.6-1-2.3l-.4-.2a.5.5 0 0 1 0-.6 19 19 0 0 0 3.6-1.8.4.4 0 0 1 .4.3v1.6a.4.4 0 0 0 .4.5 8.7 8.7 0 0 1 4.7-1.9 4.1 4.1 0 0 1 3.9 2.1 1.1 1.1 0 0 0 .9-.3 9 9 0 0 1 4.9-1.8c2.8 0 4.2 2 4.2 4.5v6.2c0 2.6.1 3 1.4 3.1l.9.1a.6.6 0 0 1-.1 1c-1.2-.2-2.2-.2-3.5-.2l-3.3.1a.6.6 0 0 1 0-.9l.6-.1c1.3-.2 1.4-.5 1.4-3.1zM519.7 281c0 2.4.6 4 3.3 4a4.7 4.7 0 0 0 3-1 2.5 2.5 0 0 0 .7-2.1V276c0-2.3-.3-2.4-1.4-2.9l-.4-.1a.5.5 0 0 1 0-.8 14.2 14.2 0 0 0 4.2-.7c.1 0 .3.1.3.3a31 31 0 0 0-.1 3.1v6.1c0 2.8.1 4 1.1 4a6.7 6.7 0 0 0 1.4-.3c.2.2.3 1 0 1a18.9 18.9 0 0 0-4.7 1.4.5.5 0 0 1-.4-.3v-1.5c0-.3-.1-.5-.4-.5a9.3 9.3 0 0 1-5 2c-3.1 0-4.3-1.7-4.3-4.6v-6c0-2.2 0-2.6-1-3l-.5-.2a.5.5 0 0 1 0-.8 12.5 12.5 0 0 0 3.9-.7c.2 0 .3.1.4.3a27.3 27.3 0 0 0-.2 3.1zM538.2 282.2c0 2.6 0 3 1.4 3.1l.9.1a.6.6 0 0 1-.1 1c-1.2-.2-2.2-.2-3.5-.2l-3.5.1a.6.6 0 0 1 0-.9l.8-.1c1.3-.2 1.4-.5 1.4-3.1v-16.3c0-2.1 0-2.3-1.2-3l-.3-.2a.6.6 0 0 1 0-.7 25.4 25.4 0 0 0 3.9-1.6.4.4 0 0 1 .3.3v4.4zM547.8 273.5c-.6 0-.7.1-.7.9v6.7c0 2.1.3 4 2.6 4a2.7 2.7 0 0 0 1-.2c.4 0 .8-.5 1-.5.2 0 .4.4.3.7a5 5 0 0 1-3.8 1.6c-3 0-3.7-1.7-3.7-3.9v-8.2c0-1 0-1-.8-1h-1a.6.6 0 0 1 0-.8 7.2 7.2 0 0 0 2.2-1.1 8.8 8.8 0 0 0 1.5-2.1.7.7 0 0 1 .8.1v1.7c0 .6 0 .7.6.7h4a1.2 1.2 0 0 1 0 1.5zM391.4 89.7c0-1.4 0-1.6-1-2.3l-.3-.2a.5.5 0 0 1 0-.6 22 22 0 0 0 3.5-2 .4.4 0 0 1 .4.3l-.1 1.6c0 .3 0 .5.3.5a11.4 11.4 0 0 1 5-1.7c3.7 0 6 3 6 6.6a8.4 8.4 0 0 1-8.8 8.6 14.2 14.2 0 0 1-2-.1c-.3 0-.5.2-.5 1v3.7c0 2.6.1 3 1.4 3.1l1.4.2a.6.6 0 0 1 0 .9l-4-.1h-3.4a.6.6 0 0 1-.1-.8l.7-.1c1.4-.2 1.4-.6 1.4-3.2zm2.6 6.7a2.3 2.3 0 0 0 1 2.1 4.8 4.8 0 0 0 2.7.8c3 0 4.6-2.7 4.6-6.5 0-2.8-1.6-5.8-4.8-5.8a4.4 4.4 0 0 0-3 1 3.2 3.2 0 0 0-.5 2.2zM412.3 94.7c0 2.5.6 4.1 3.3 4.1a4.8 4.8 0 0 0 3-1 2.5 2.5 0 0 0 .7-2.1v-6c0-2.3-.3-2.3-1.4-2.8l-.4-.2a.5.5 0 0 1 0-.7 14.2 14.2 0 0 0 4.2-.7c.2 0 .3.1.3.3v9.1c0 2.8 0 4 1 4a6.7 6.7 0 0 0 1.4-.3c.2.2.3 1 0 1a18.9 18.9 0 0 0-4.7 1.4.5.5 0 0 1-.4-.3v-1.4c0-.3-.1-.5-.3-.5a9.3 9.3 0 0 1-5 1.9c-3.2 0-4.4-1.6-4.4-4.5v-6c0-2.3 0-2.6-1-3l-.5-.2a.5.5 0 0 1 0-.8 12.5 12.5 0 0 0 4-.7l.3.3a27.3 27.3 0 0 0-.1 3.1zM427.7 79.7c0-2.1 0-2.3-1.1-3l-.4-.2a.6.6 0 0 1 0-.7 32.5 32.5 0 0 0 4-1.5.4.4 0 0 1 .3.2 82 82 0 0 0-.1 4.4v6.8c0 .6.1.8.3.8a8.3 8.3 0 0 1 4.2-1.2 6.8 6.8 0 0 1 6.8 7 7.9 7.9 0 0 1-8.2 8.2 10.6 10.6 0 0 1-3.1-.5 7.2 7.2 0 0 0-1.5-.4c-.3 0-.6.3-.8.5h-.1a.4.4 0 0 1-.4-.2l.1-3zm2.7 15.4a5 5 0 0 0 .9 3.1 3.5 3.5 0 0 0 2.7 1.2c3.4 0 4.7-2.9 4.7-6 0-3.7-1.9-6.6-5.5-6.6a4.6 4.6 0 0 0-2.4.6c-.4.3-.4.7-.4 2zM448.8 96c0 2.6.1 3 1.4 3.1l.9.1a.6.6 0 0 1-.1 1l-3.5-.2-3.5.1a.6.6 0 0 1 0-.9h.8c1.3-.3 1.4-.6 1.4-3.2V79.7c0-2.1 0-2.3-1.1-3l-.4-.2a.6.6 0 0 1 0-.7 24.3 24.3 0 0 0 3.9-1.5.4.4 0 0 1 .3.2v4.4zM455.4 89.7c0-1.4 0-1.6-1-2.3l-.3-.2a.5.5 0 0 1 0-.6 24 24 0 0 0 3.7-1.8.3.3 0 0 1 .4.2l-.2 4.5V96c0 2.6 0 3 1.4 3.1l.7.1a.6.6 0 0 1 0 1 50.5 50.5 0 0 0-6.8 0 .6.6 0 0 1 0-1h.7c1.3-.3 1.4-.6 1.4-3.2zm3-10.3a1.9 1.9 0 0 1-3.7 0 1.9 1.9 0 0 1 2-1.9 1.8 1.8 0 0 1 1.7 2zM474.4 86a2 2 0 0 1 .5 1.4c0 .6-.4 1.3-.8 1.3a.6.6 0 0 1-.5-.3 4.9 4.9 0 0 0-3.6-1.9c-2.5 0-5 2-5 5.8a6 6 0 0 0 5.8 6.2 4.4 4.4 0 0 0 4-2.2.6.6 0 0 1 .7.5 6.5 6.5 0 0 1-6 3.7 7 7 0 0 1-5-1.8 7.2 7.2 0 0 1-2-5.4c0-3.8 2.7-8 8.6-8a8.8 8.8 0 0 1 3.3.6zM487.7 79.7c0-2.1 0-2.3-1.1-3l-.4-.2a.6.6 0 0 1 0-.7 23.9 23.9 0 0 0 4-1.5.4.4 0 0 1 .3.2l-.1 4.4v12.4c0 .5 0 .5.6.5a3.5 3.5 0 0 0 2.5-1.4l1.5-1.6c1-1 1.3-1.4 1.3-1.6s-.2-.3-.8-.4h-.9a.5.5 0 0 1 0-1h.8a55 55 0 0 0 5.7-.3c.3.1.3.7.1 1l-1.1.1a5.1 5.1 0 0 0-2.3 1.3c-1.4 1.1-2.6 2.4-3.3 3-.4.4-.4.6-.2.9a35.5 35.5 0 0 0 2.4 2.8l3.4 3.7a3.7 3.7 0 0 0 1.8.8h.6c.2.3.2.9-.1 1l-3.4-.1h-3.8c-.3 0-.3-.7 0-.8l.6-.1c.5 0 .9-.2.9-.4s-.2-.5-.6-1l-3.9-4.4a1.4 1.4 0 0 0-1-.5c-.7 0-.8 0-.8 1.2v2c0 2.6.1 3 1.4 3.1l.9.1a.6.6 0 0 1-.1 1c-1.2-.2-2.3-.2-3.5-.2l-3.5.1a.6.6 0 0 1 0-.9h.8c1.4-.3 1.4-.6 1.4-3.2zM506.6 90.8c-1 0-1 0-1 1 0 3.6 2.1 6.7 6 6.7a3.9 3.9 0 0 0 3.3-1.7.5.5 0 0 1 .6.4 6.3 6.3 0 0 1-5.6 3.3 6.4 6.4 0 0 1-5.2-2.3 7.7 7.7 0 0 1-1.6-4.7c0-4.4 3-8.2 7.3-8.2 3 0 5 2.2 5 4.3a2.3 2.3 0 0 1 0 1c-.2.2-.7.2-2.2.2zm2.2-1c2.7 0 3.5-.2 3.7-.4.2-.1.3-.3.3-.7 0-1-.7-2.3-2.8-2.3s-4 2-4 3.1c0 .1 0 .2.2.2zM517 107.4a1.3 1.3 0 0 1 1.4-1.4h.7a1.3 1.3 0 0 0 1.2-.7 22.6 22.6 0 0 0 2-4 5.4 5.4 0 0 0 .5-1.5 6.8 6.8 0 0 0-.7-2.5l-2.8-7.7c-.6-1.7-.8-2.6-2-2.8l-1-.2c-.2-.2-.2-.8.1-.9l3.4.1h3.2c.3 0 .3.6 0 .8l-.9.2c-.5.1-.7.2-.7.5a28.2 28.2 0 0 0 1 3.3l1.2 3.4a19.7 19.7 0 0 0 1 2.6 17.5 17.5 0 0 0 1.3-2.7l1.3-2.9a16.8 16.8 0 0 0 1.2-3.6c0-.3-.2-.5-.8-.6l-1.2-.2a.6.6 0 0 1 .1-.9l3.2.1h2.7a.6.6 0 0 1 0 .8l-.5.1c-1.2.2-1.9 1.3-3 3.8l-2 4.2c-1.3 2.4-4.2 8.6-6 12.6a2.4 2.4 0 0 1-2.3 1.7 1.4 1.4 0 0 1-1.6-1.6zM547.9 90.8H534V89h13.9zm0 5.4H534v-1.8h13.9zM557.5 94.6c0 3.8 0 4.3 2.4 4.5l1 .1a.7.7 0 0 1-.1 1c-2-.2-3.3-.2-4.7-.2l-4.4.1a.7.7 0 0 1 0-.9l.7-.1c2-.3 2.2-.7 2.2-4.5V81.3c0-3-.1-3.7-1.8-3.8l-1.2-.2a.6.6 0 0 1 0-.9 57.1 57.1 0 0 1 7.2-.3c3 0 5.2.4 6.9 1.5a6.3 6.3 0 0 1 2.8 5.4 6.1 6.1 0 0 1-3.6 5.7 12.2 12.2 0 0 1-5 1c-.2 0-.2-.6 0-.6 4-.8 5.3-3 5.3-6 0-3.5-2-5.8-5.8-5.8-1.9 0-1.9.1-1.9 1.3zM126 605.8c-1 0-1 0-1 1 0 3.6 2.1 6.7 6 6.7a3.9 3.9 0 0 0 3.3-1.8.5.5 0 0 1 .7.5 6.3 6.3 0 0 1-5.7 3.3 6.5 6.5 0 0 1-5.2-2.3 7.7 7.7 0 0 1-1.5-4.7c0-4.4 2.9-8.2 7.2-8.2 3.1 0 5.1 2.2 5.1 4.3a2 2 0 0 1-.1 1c-.1.2-.6.2-2.1.2zm2.2-1c2.7 0 3.5-.2 3.8-.5 0 0 .2-.2.2-.6 0-1-.7-2.3-2.8-2.3s-4 2-4 3.1c0 .1 0 .2.3.2zM138.7 604.7c0-1.4 0-1.6-1-2.3l-.3-.2a.5.5 0 0 1 0-.6 22 22 0 0 0 3.5-2 .4.4 0 0 1 .4.3l-.1 1.6c0 .3 0 .5.3.5a11.4 11.4 0 0 1 5-1.7c3.7 0 6 3 6 6.6a8.4 8.4 0 0 1-8.8 8.6 14.2 14.2 0 0 1-2-.1c-.3 0-.5.2-.5 1v3.7c0 2.6.1 3 1.4 3.1l1.4.2a.6.6 0 0 1 0 .9l-4-.1a33 33 0 0 0-3.5 0 .6.6 0 0 1 0-.8l.7-.1c1.4-.2 1.4-.6 1.4-3.2zm2.6 6.7a2.3 2.3 0 0 0 1.1 2.1 4.8 4.8 0 0 0 2.6.8c3 0 4.7-2.7 4.7-6.5 0-2.8-1.6-5.8-4.9-5.8a4.4 4.4 0 0 0-3 1 3.2 3.2 0 0 0-.5 2.2zM157 594.7c0-2.1 0-2.3-1.1-3l-.4-.2a.6.6 0 0 1 0-.7 25.4 25.4 0 0 0 4-1.5.4.4 0 0 1 .3.2l-.1 4.4v7.6a1 1 0 0 0 .1.7 8.2 8.2 0 0 1 4.9-1.9c3.4 0 4.6 2.1 4.6 4.7v6c0 2.5 0 3 1.4 3l1 .2a.6.6 0 0 1-.1.9 62.6 62.6 0 0 0-7 0 .6.6 0 0 1 0-1h.7c1.3-.2 1.4-.6 1.4-3.1v-5.2c0-2.3-1.1-3.8-3.5-3.8a4.3 4.3 0 0 0-2.8 1c-.6.5-.7.7-.7 2v6c0 2.6 0 3 1.4 3.1l.7.1c.3.2.2.8 0 1l-3.4-.2-3.6.1a.6.6 0 0 1 0-.9h.9c1.3-.2 1.3-.6 1.3-3.2zM177 605.8c-.8 0-1 0-1 1 0 3.6 2.2 6.7 6 6.7a3.9 3.9 0 0 0 3.4-1.8.5.5 0 0 1 .7.5 6.3 6.3 0 0 1-5.7 3.3 6.4 6.4 0 0 1-5.2-2.3 7.7 7.7 0 0 1-1.5-4.7c0-4.4 2.9-8.2 7.2-8.2 3.1 0 5.1 2.2 5.1 4.3a2.2 2.2 0 0 1-.1 1c-.1.2-.6.2-2.2.2zm2.3-1c2.7 0 3.5-.2 3.8-.5 0 0 .2-.2.2-.6 0-1-.7-2.3-2.8-2.3s-4 2-4 3.1c0 .1 0 .2.3.2zM209.3 605.8c0-2.5-1.1-3.8-3.4-3.8a3.9 3.9 0 0 0-3 1.3c-.4.5-.5.9-.5 2.2v5.5c0 2.6 0 3 1.4 3.1l.7.1a.6.6 0 0 1 0 1l-3.4-.2-3.3.1a.6.6 0 0 1 0-.9h.6c1.3-.3 1.3-.6 1.3-3.2v-5.2c0-2.4-1-3.7-3.3-3.7a3.8 3.8 0 0 0-3 1.3 2.8 2.8 0 0 0-.5 2v5.6c0 2.6 0 3 1.3 3.1l.7.1a.6.6 0 0 1 0 1 45 45 0 0 0-6.9 0 .6.6 0 0 1 0-1h.8c1.4-.3 1.4-.6 1.4-3.2v-6.3c0-1.4 0-1.6-1-2.2l-.3-.2a.5.5 0 0 1 0-.7 19 19 0 0 0 3.6-1.8.4.4 0 0 1 .4.3v1.7a.4.4 0 0 0 .3.4 8.7 8.7 0 0 1 4.8-1.9 4 4 0 0 1 3.8 2.2 1.1 1.1 0 0 0 .9-.3 9 9 0 0 1 4.9-1.9c2.9 0 4.3 2 4.3 4.5v6.2c0 2.6 0 3 1.4 3.1l.8.1a.6.6 0 0 1 0 1l-3.5-.2-3.3.1a.6.6 0 0 1-.1-.9h.7c1.3-.3 1.3-.6 1.3-3.2zM219.7 605.8c-1 0-1 0-1 1 0 3.6 2.1 6.7 6 6.7a3.9 3.9 0 0 0 3.3-1.8.5.5 0 0 1 .6.5 6.3 6.3 0 0 1-5.6 3.3 6.4 6.4 0 0 1-5.2-2.4 7.7 7.7 0 0 1-1.5-4.7c0-4.4 2.9-8 7.2-8 3.1 0 5.1 2 5.1 4.2a2.3 2.3 0 0 1-.1 1c-.1.1-.6.2-2.2.2zm2.2-1c2.7 0 3.5-.2 3.7-.5.2 0 .3-.2.3-.6 0-1-.7-2.3-2.8-2.3s-4 2-4 3.1c0 .1 0 .2.3.2zM232.8 604.7c0-1.4 0-1.6-1-2.3l-.4-.2a.5.5 0 0 1 0-.6 26.8 26.8 0 0 0 3.7-1.8c.2 0 .3.1.3.3v2.4c1.3-1 2.7-2.2 4-2.2a1.5 1.5 0 0 1 1.7 1.5 1.6 1.6 0 0 1-1.6 1.6 1.4 1.4 0 0 1-.7-.2 3 3 0 0 0-1.6-.6 1.6 1.6 0 0 0-1.3.7 5.5 5.5 0 0 0-.5 2.8v4.9c0 2.6 0 3 1.4 3.1l1.3.1a.6.6 0 0 1 0 1l-4-.2-3.3.1a.6.6 0 0 1-.1-.9h.7c1.3-.3 1.3-.6 1.3-3.2zM249.7 607.5c.6-.1.7-.5.7-1V605c0-1.3-.4-3.1-2.7-3.1-1 0-2.2.5-2.3 1.6 0 .6 0 1-.3 1.2a3.9 3.9 0 0 1-2 .7.5.5 0 0 1-.6-.5c0-1.9 4-4.4 6.7-4.4s3.8 1.5 3.7 4.2l-.2 6.2c0 1.7.3 3.2 1.7 3.2a2 2 0 0 0 .9-.2l.4-.3c.1 0 .3.2.3.5a3.8 3.8 0 0 1-3 1.6 2.9 2.9 0 0 1-2.3-1.2c-.2-.2-.4-.5-.6-.5a5.8 5.8 0 0 0-1.4.8 5.2 5.2 0 0 1-2.6.9 3.7 3.7 0 0 1-2.5-.9 3.4 3.4 0 0 1-1.2-2.5c0-1.4.7-2.2 3-3zm-2.2 6.4a4 4 0 0 0 2.2-1c.4-.3.4-.8.5-1.6v-2.1c0-.4-.1-.5-.3-.5a6.5 6.5 0 0 0-1.5.4c-2.1.7-3.2 1.2-3.2 2.6a2.2 2.2 0 0 0 2.3 2.2zM261.6 611c0 2.6 0 3 1.3 3.1l1 .1a.6.6 0 0 1-.2 1l-3.4-.2-3.5.1a.6.6 0 0 1 0-.9h.8c1.3-.3 1.3-.6 1.3-3.2v-16.3c0-2.1 0-2.3-1.1-3l-.4-.2a.6.6 0 0 1 0-.7 25.4 25.4 0 0 0 4-1.5.4.4 0 0 1 .3.2l-.1 4.4zM104.8 647.9c0-1.4 0-1.6-1-2.3l-.4-.2a.5.5 0 0 1 0-.6 22 22 0 0 0 3.6-2 .4.4 0 0 1 .4.3l-.1 1.6c0 .3 0 .5.3.5a11.4 11.4 0 0 1 5-1.7c3.6 0 6 3 6 6.6a8.4 8.4 0 0 1-8.8 8.6 14.2 14.2 0 0 1-2-.1c-.3 0-.5.2-.5 1v3.7c0 2.6 0 3 1.4 3.1l1.4.2a.6.6 0 0 1 0 .9l-4-.1h-3.5a.6.6 0 0 1 0-.8l.7-.1c1.3-.2 1.4-.6 1.4-3.2zm2.6 6.7a2.3 2.3 0 0 0 1 2.1 4.8 4.8 0 0 0 2.7.8c3 0 4.7-2.7 4.7-6.5 0-2.8-1.7-5.8-4.9-5.8a4.4 4.4 0 0 0-3 1 3.2 3.2 0 0 0-.5 2.2zM125.7 653c0 2.4.6 4 3.3 4a4.7 4.7 0 0 0 3-1 2.5 2.5 0 0 0 .6-2.1V648c0-2.3-.2-2.4-1.3-2.9l-.5-.1a.5.5 0 0 1 0-.8 14.2 14.2 0 0 0 4.3-.7l.3.3a31 31 0 0 0-.1 3.1v6.1c0 2.8 0 4 1 4a6.7 6.7 0 0 0 1.5-.3c.2.2.2 1 0 1a18.9 18.9 0 0 0-4.7 1.4.5.5 0 0 1-.4-.3v-1.4c0-.4-.2-.6-.4-.6a9.3 9.3 0 0 1-5 2c-3.1 0-4.3-1.7-4.3-4.6v-6c0-2.2 0-2.6-1.1-3l-.4-.2a.5.5 0 0 1 0-.8 12.5 12.5 0 0 0 3.9-.7c.2 0 .3.2.3.3a27.3 27.3 0 0 0 0 3.1zM141 637.9c0-2.1 0-2.3-1-3l-.4-.2a.6.6 0 0 1 0-.7 34.6 34.6 0 0 0 4-1.6.4.4 0 0 1 .3.3 82 82 0 0 0-.2 4.4v6.9c0 .6.2.8.4.8a8.3 8.3 0 0 1 4.1-1.2 6.8 6.8 0 0 1 7 7 7.9 7.9 0 0 1-8.4 8.1 10.6 10.6 0 0 1-3-.4 7.2 7.2 0 0 0-1.5-.5c-.3 0-.6.3-.8.6h-.1a.4.4 0 0 1-.4-.3v-3zm2.7 15.4a5 5 0 0 0 1 3.1 3.5 3.5 0 0 0 2.7 1.2c3.3 0 4.7-2.9 4.7-6 0-3.7-2-6.6-5.5-6.6a4.6 4.6 0 0 0-2.4.6c-.4.3-.5.7-.5 2zM162.2 654.2c0 2.6 0 3 1.4 3.1l.8.1a.6.6 0 0 1 0 1c-1.2-.2-2.3-.2-3.5-.2l-3.5.1a.6.6 0 0 1 0-.9l.8-.1c1.3-.2 1.3-.5 1.3-3.1v-16.3c0-2.1 0-2.3-1-3l-.4-.2a.6.6 0 0 1 0-.7 25.4 25.4 0 0 0 3.9-1.6.4.4 0 0 1 .3.3l-.1 4.4zM168.8 647.9c0-1.4 0-1.6-1-2.3l-.3-.2a.5.5 0 0 1 0-.6 24 24 0 0 0 3.7-1.8.3.3 0 0 1 .3.2l-.1 4.5v6.5c0 2.6 0 3 1.3 3.1l.8.1a.6.6 0 0 1 0 1 50.5 50.5 0 0 0-6.8 0 .6.6 0 0 1-.1-1l.8-.1c1.3-.2 1.3-.5 1.3-3.1zm3-10.3a1.9 1.9 0 0 1-3.8 0 1.9 1.9 0 0 1 2-1.9 1.8 1.8 0 0 1 1.8 2zM187.7 644.1a2 2 0 0 1 .6 1.5c0 .6-.4 1.3-.8 1.3a.6.6 0 0 1-.5-.2 4.9 4.9 0 0 0-3.6-2c-2.6 0-5 2-5 5.8a6 6 0 0 0 5.8 6.2 4.4 4.4 0 0 0 4-2.2.6.6 0 0 1 .6.5 6.5 6.5 0 0 1-6 3.7 7 7 0 0 1-5-1.8 7.2 7.2 0 0 1-2-5.4c0-3.9 2.7-8 8.7-8a8.8 8.8 0 0 1 3.2.6zM201 637.9c0-2.1 0-2.3-1-3l-.4-.2a.6.6 0 0 1 0-.7 25 25 0 0 0 3.9-1.6.4.4 0 0 1 .3.3v16.8c0 .5 0 .5.6.5a3.4 3.4 0 0 0 2.4-1.4l1.5-1.6c1-1 1.3-1.4 1.3-1.6s-.2-.3-.8-.4h-.9a.5.5 0 0 1 0-1h.8a55 55 0 0 0 5.8-.3c.2.1.3.7 0 1l-1.1.1a5.1 5.1 0 0 0-2.3 1.3c-1.4 1.1-2.6 2.4-3.3 3-.4.4-.4.6-.2.9a35.5 35.5 0 0 0 2.4 2.8l3.4 3.7a3.7 3.7 0 0 0 1.9.8h.5c.2.3.2.9-.1 1l-3.4-.1h-3.8a.6.6 0 0 1 0-.8l.6-.1c.5-.1 1-.2 1-.4s-.2-.5-.7-1l-3.9-4.5a1.5 1.5 0 0 0-1-.5c-.7 0-.8.1-.8 1.3v2c0 2.6.1 3 1.4 3.1l.9.1a.6.6 0 0 1-.1 1 56 56 0 0 0-7 0 .6.6 0 0 1 0-1l.8-.1c1.4-.2 1.4-.5 1.4-3.1zM220 649c-1 0-1 0-1 1 0 3.6 2 6.7 6 6.7a3.9 3.9 0 0 0 3.2-1.7.5.5 0 0 1 .7.4 6.3 6.3 0 0 1-5.7 3.3 6.4 6.4 0 0 1-5.2-2.3 7.7 7.7 0 0 1-1.5-4.7c0-4.4 3-8.1 7.2-8.1 3.2 0 5.2 2 5.2 4.2a2.3 2.3 0 0 1-.2 1c0 .2-.6.2-2.1.2zm2.2-1c2.6 0 3.4-.2 3.7-.4.1-.1.2-.3.2-.7 0-1-.6-2.3-2.7-2.3s-4 2-4 3.1c0 .1 0 .2.2.2zM230.4 665.6a1.3 1.3 0 0 1 1.4-1.4h.7a1.3 1.3 0 0 0 1.2-.7 22.6 22.6 0 0 0 2-4 5.4 5.4 0 0 0 .4-1.5 6.8 6.8 0 0 0-.6-2.5l-2.8-7.7c-.6-1.7-.8-2.6-2.1-2.8l-.9-.2c-.2-.2-.2-.8.1-.9l3.4.1h3.2c.2 0 .3.6 0 .8l-.9.2c-.5.1-.8.2-.8.5a28.2 28.2 0 0 0 1 3.3l1.2 3.4a19.7 19.7 0 0 0 1 2.5 17.5 17.5 0 0 0 1.3-2.7l1.3-2.8a16.8 16.8 0 0 0 1.2-3.6c0-.3-.2-.5-.9-.6l-1-.2a.6.6 0 0 1 0-.9l3.2.1h2.7a.6.6 0 0 1 0 .8l-.5.1c-1.2.2-1.9 1.3-3 3.8l-2 4.2c-1.3 2.4-4.2 8.6-6 12.6a2.4 2.4 0 0 1-2.3 1.7 1.4 1.4 0 0 1-1.5-1.6zM261.2 649h-13.8v-1.8h13.8zm0 5.4h-13.8v-1.8h13.8zM267.9 639.8c0-3.7 0-4.2-2.2-4.5h-.6a.7.7 0 0 1 .1-1l4.2.1h6.8a47.5 47.5 0 0 0 4.9 0 41.1 41.1 0 0 1 .5 4.7.7.7 0 0 1-.9 0c-.5-1.6-.8-3-2.7-3.3a16.4 16.4 0 0 0-3.5-.2H272c-1 0-1 0-1 1.4v7.2c0 1 0 1 1.1 1h2.1a13.4 13.4 0 0 0 3-.2c.5-.2.8-.4 1-1.3l.2-1.5c.2-.2.8-.2 1 0l-.2 3.7.2 3.4c-.2.3-.8.3-1 0l-.3-1.3a1.5 1.5 0 0 0-1.1-1.4 11.8 11.8 0 0 0-2.8-.1H272c-1 0-1.2 0-1.2 1v5c0 2 .1 3.2.7 3.8.4.4 1.2.8 4.4.8 2.7 0 3.8-.1 4.6-.5a9 9 0 0 0 2.5-3.5.7.7 0 0 1 1 .2 31 31 0 0 1-1.7 5H264.5a.7.7 0 0 1 0-.9h1.1c2-.3 2.3-.8 2.3-4.6zM383.5 437a8.5 8.5 0 0 1 .6 3 .6.6 0 0 1-.9 0c-.6-1.6-1.7-2.6-3.1-2.6a2.1 2.1 0 0 0-2.3 2.2c0 1.5 1.5 2.3 2.7 3 2 1 3.7 2.3 3.7 4.9 0 2.7-2.5 4-5.2 4a6 6 0 0 1-3.8-1 10.4 10.4 0 0 1-.5-3.7.6.6 0 0 1 .9 0c.6 2 1.7 3.8 3.8 3.8a2.2 2.2 0 0 0 2.4-2.3c0-1.7-1.4-2.6-2.8-3.4-2-1.1-3.5-2.4-3.5-4.4 0-2.6 2.1-4.1 4.9-4.1a6.4 6.4 0 0 1 3.1.6zM388.5 430.7c0-2.1 0-2.3-1.2-3l-.3-.2a.6.6 0 0 1 0-.7 25 25 0 0 0 3.9-1.6.4.4 0 0 1 .3.3v12.7a8.2 8.2 0 0 1 5-1.9c3.3 0 4.6 2.1 4.6 4.7v6c0 2.5 0 3 1.3 3l1 .2a.6.6 0 0 1 0 .9l-3.6-.1H396a.6.6 0 0 1 0-.8l.7-.1c1.3-.2 1.3-.6 1.3-3.2v-5.1c0-2.3-1-3.9-3.4-3.9a4.3 4.3 0 0 0-2.8 1c-.6.6-.8.8-.8 2v6.1c0 2.6.1 3 1.4 3.1l.8.1c.2.2.2.8 0 1a50.5 50.5 0 0 0-7 0 .6.6 0 0 1 0-1h.8c1.3-.2 1.4-.6 1.4-3.2zM412.4 443.6c.5-.2.6-.6.6-1.1v-1.6c0-1.4-.4-3.2-2.6-3.2-1 0-2.3.5-2.3 1.6 0 .6-.1 1-.4 1.3a3.9 3.9 0 0 1-2 .7.5.5 0 0 1-.6-.6c0-1.8 4.1-4.4 6.7-4.4s3.9 1.5 3.8 4.2l-.2 6.3c-.1 1.6.2 3.1 1.6 3.1a2 2 0 0 0 1-.2l.4-.2.2.4a3.8 3.8 0 0 1-3 1.6 2.9 2.9 0 0 1-2.3-1.1c-.1-.2-.4-.5-.6-.5a5.8 5.8 0 0 0-1.4.7 5.2 5.2 0 0 1-2.6.9 3.7 3.7 0 0 1-2.5-.8 3.4 3.4 0 0 1-1.1-2.5c0-1.4.7-2.3 3-3.1zm-2.3 6.3a4 4 0 0 0 2.2-1c.5-.3.5-.8.5-1.6v-2.1c0-.4 0-.5-.3-.5a6.5 6.5 0 0 0-1.5.4c-2 .7-3.1 1.2-3.1 2.6a2.2 2.2 0 0 0 2.2 2.2zM421.9 440.7c0-1.4 0-1.6-1-2.3l-.3-.2a.5.5 0 0 1 0-.6 26.8 26.8 0 0 0 3.6-1.8c.2 0 .3.1.3.3v2l.1.4c1.3-1 2.6-2.2 4-2.2a1.5 1.5 0 0 1 1.6 1.4 1.6 1.6 0 0 1-1.5 1.7 1.4 1.4 0 0 1-.8-.2 3 3 0 0 0-1.6-.6 1.6 1.6 0 0 0-1.3.7 5.5 5.5 0 0 0-.5 2.8v4.9c0 2.6.1 3 1.5 3.1l1.3.1a.6.6 0 0 1 0 1l-4-.2a31 31 0 0 0-3.4.1.6.6 0 0 1 0-.9h.6c1.3-.3 1.4-.6 1.4-3.2zM434.6 441.8c-.9 0-1 0-1 1 0 3.6 2.2 6.7 6 6.7a3.9 3.9 0 0 0 3.4-1.7.5.5 0 0 1 .6.4 6.3 6.3 0 0 1-5.6 3.3 6.4 6.4 0 0 1-5.2-2.4 7.7 7.7 0 0 1-1.5-4.7c0-4.4 2.9-8 7.2-8 3.1 0 5.1 2 5.1 4.2a2.3 2.3 0 0 1-.1 1c-.1.2-.6.2-2.1.2zm2.3-1c2.6 0 3.4-.2 3.7-.4.1-.1.2-.3.2-.7 0-1-.6-2.3-2.7-2.3s-4 2-4 3.1c0 .1 0 .2.2.2zM459.5 445.8c0 2.8 0 4.1 1 4.1a5.9 5.9 0 0 0 1.5-.3c.3 0 .3 1 0 1.1a28 28 0 0 0-4.7 1.2c-.2 0-.4-.1-.4-.3v-.6a4 4 0 0 0 0-1.1h-.2a7.5 7.5 0 0 1-4.6 1.6 6.6 6.6 0 0 1-6.6-6.9c0-5 3.8-8.3 8.7-8.3a7.2 7.2 0 0 1 2.4.4c.2 0 .2-.2.2-.5v-5.5c0-2.1 0-2.3-1-3l-.5-.2a.6.6 0 0 1 0-.7 25 25 0 0 0 4-1.6.4.4 0 0 1 .3.3l-.1 4.4zm-2.7-5.5a2.1 2.1 0 0 0-.4-1.4 3.8 3.8 0 0 0-3-1.5c-3.2 0-5 2.9-5 6s1.9 6.4 5.4 6.4a4.5 4.5 0 0 0 2.8-1 2.2 2.2 0 0 0 .2-1.3zM481.4 437a8.5 8.5 0 0 1 .6 3 .6.6 0 0 1-.9 0c-.6-1.6-1.7-2.6-3.1-2.6a2.1 2.1 0 0 0-2.4 2.2c0 1.5 1.6 2.3 2.8 3 2 1 3.7 2.3 3.7 4.9 0 2.7-2.5 4-5.2 4a6 6 0 0 1-3.8-1 10.7 10.7 0 0 1-.5-3.7.6.6 0 0 1 .9 0c.6 2 1.7 3.8 3.8 3.8a2.2 2.2 0 0 0 2.4-2.3c0-1.7-1.5-2.6-2.8-3.4-2-1.1-3.6-2.4-3.6-4.4 0-2.6 2.2-4.1 5-4.1a6.3 6.3 0 0 1 3.1.6zM487.9 441.8c-1 0-1 0-1 1 0 3.6 2 6.7 6 6.7a3.9 3.9 0 0 0 3.3-1.7.5.5 0 0 1 .6.4 6.3 6.3 0 0 1-5.6 3.3 6.4 6.4 0 0 1-5.2-2.3 7.7 7.7 0 0 1-1.6-4.7c0-4.4 3-8.2 7.3-8.2 3 0 5 2.2 5 4.3a2.3 2.3 0 0 1 0 1c-.2.2-.7.2-2.2.2zm2.2-1c2.7 0 3.4-.2 3.7-.4.1-.1.3-.3.3-.7 0-1-.7-2.3-2.8-2.3s-4 2-4 3.1c0 .1 0 .2.2.2zM510.6 437a2 2 0 0 1 .6 1.4c0 .6-.4 1.3-.8 1.3a.6.6 0 0 1-.5-.3 5 5 0 0 0-3.6-1.9c-2.5 0-5 2-5 5.8a6 6 0 0 0 5.8 6.2 4.4 4.4 0 0 0 4-2.2.6.6 0 0 1 .6.5 6.6 6.6 0 0 1-6 3.7 7 7 0 0 1-4.9-1.8 7.1 7.1 0 0 1-2-5.4c0-3.8 2.6-8 8.6-8a8.8 8.8 0 0 1 3.2.6zM515.4 440.7c0-1.4 0-1.6-1-2.3l-.4-.2a.5.5 0 0 1 0-.6 26.7 26.7 0 0 0 3.7-1.8c.1 0 .2.1.2.3v2c0 .2 0 .3.2.4 1.2-1 2.6-2.2 4-2.2a1.5 1.5 0 0 1 1.6 1.4 1.6 1.6 0 0 1-1.6 1.7 1.4 1.4 0 0 1-.8-.2 3 3 0 0 0-1.5-.6 1.6 1.6 0 0 0-1.3.7 5.5 5.5 0 0 0-.5 2.8v4.9c0 2.6 0 3 1.4 3.1l1.3.1a.6.6 0 0 1 0 1l-4-.2-3.4.1a.6.6 0 0 1 0-.9h.7c1.3-.3 1.3-.6 1.3-3.2zM528.1 441.8c-1 0-1 0-1 1 0 3.6 2.1 6.7 6 6.7a3.9 3.9 0 0 0 3.3-1.7.5.5 0 0 1 .7.4 6.3 6.3 0 0 1-5.7 3.3 6.5 6.5 0 0 1-5.2-2.3 7.7 7.7 0 0 1-1.5-4.7c0-4.4 2.9-8.2 7.2-8.2 3.1 0 5.1 2.2 5.1 4.3a2 2 0 0 1-.1 1c-.1.2-.6.2-2.1.2zm2.2-1c2.7 0 3.5-.2 3.8-.4 0-.1.2-.3.2-.7 0-1-.7-2.3-2.8-2.3s-4 2-4 3.1c0 .1 0 .2.3.2zM544.2 438.3c-.7 0-.7.1-.7.9v6.7c0 2.1.3 4 2.6 4a2.7 2.7 0 0 0 1-.2c.4 0 .8-.5 1-.5.2 0 .4.4.3.7a5 5 0 0 1-3.8 1.6c-3 0-3.7-1.7-3.7-3.9v-8.2c0-1 0-1-.8-1h-1a.6.6 0 0 1 0-.8 7.1 7.1 0 0 0 2.2-1.1 8.8 8.8 0 0 0 1.5-2.1.7.7 0 0 1 .8.2v1.6c0 .6 0 .7.6.7h4a1.2 1.2 0 0 1 0 1.5zM564.7 441.8h-13.9V440h13.9zm0 5.4h-13.9v-1.8h13.9zM574.8 451.6a11.1 11.1 0 0 1-5.6-1.4 16.6 16.6 0 0 1-1-5c.2-.2.7-.3.8 0 .6 1.8 2 5.3 6.2 5.3 3 0 4.5-2 4.5-4.1 0-1.6-.3-3.4-3-5l-3.4-2.3c-1.8-1.2-3.9-3.2-3.9-6.2 0-3.4 2.7-6.2 7.4-6.2a14 14 0 0 1 3.3.5 4.7 4.7 0 0 0 1.3.2 15.5 15.5 0 0 1 .6 4.4c-.1.2-.7.3-.9.1-.4-1.7-1.4-4-4.9-4s-4.3 2.3-4.3 4c0 2 1.8 3.6 3.1 4.4l3 1.7c2.3 1.4 4.5 3.5 4.5 7 0 3.9-3 6.6-7.7 6.6zM724 423.4c-1.7 0-1.8 0-1.8 1.1v5.1c0 3.8.2 4.3 2.2 4.5l1 .1c.2.2.1.8 0 1-2-.2-3.2-.2-4.7-.2l-4.1.1a.7.7 0 0 1-.1-.9l.6-.1c2-.4 2.1-.7 2.1-4.5v-13c0-3.8-.3-4.4-2.1-4.5l-1-.1c-.2-.1-.1-.8.1-1l4.5.2 4.2-.1c.2.1.3.8 0 .9h-.6c-2 .3-2.1.8-2.1 4.6v4.1c0 1.2 0 1.2 1.8 1.2h10.2c1.8 0 1.8 0 1.8-1.2v-4.1c0-3.8 0-4.3-2.1-4.5l-.7-.1a.7.7 0 0 1 0-1c1.7.2 3 .2 4.4.2l4.2-.1a.7.7 0 0 1 .1.9h-.7c-2.1.3-2.2.8-2.2 4.6v13c0 3.8 0 4.3 2.2 4.5l.8.1c.2.2.2.8 0 1-1.8-.2-3-.2-4.4-.2l-4.4.1a.7.7 0 0 1 0-.9l.6-.1c2.2-.4 2.2-.7 2.2-4.5v-5c0-1.1 0-1.2-1.8-1.2zM748.2 416.6c0-3.7 0-4.3-2.1-4.5h-1a.7.7 0 0 1 .2-1l4.5.1h4.2a.7.7 0 0 1 0 .8l-.6.1c-2.1.2-2.2.8-2.2 4.5v4.2c0 .7 0 1.3.5 1.3a2 2 0 0 0 1-.4l1.8-1.7 3.9-3.8a38.7 38.7 0 0 0 2.8-3 1.1 1.1 0 0 0 .2-.6c0-.2-.1-.3-.6-.4l-1-.2a.6.6 0 0 1 .1-.9l4 .1h3.6a.7.7 0 0 1 0 .8 9 9 0 0 0-3.3 1 35.9 35.9 0 0 0-5 4.2l-3.2 3c-.6.6-.9.9-.9 1.2s.2.5.7 1c3.4 4 6.2 7.3 9 10.2a4.5 4.5 0 0 0 2.9 1.5h1a.6.6 0 0 1 0 1l-4-.1h-4.5c-.2 0-.3-.6-.1-.8l.8-.2c.5 0 .9-.1.9-.3s-.3-.5-.5-.8c-.7-1-1.7-1.9-3-3.4l-3-3.3c-2-2.3-2.5-3-3.4-3-.6 0-.6.5-.6 1.8v4.6c0 3.8 0 4.3 2 4.5l1 .1c.3.2.2.8 0 1-1.8-.2-3-.2-4.4-.2l-4.2.1a.7.7 0 0 1 0-.9l.7-.1c1.9-.3 2-.7 2-4.5zM772.5 416c0-2.6-.1-3.3-1.7-3.6h-.7a.5.5 0 0 1 0-1l9-.3a22.7 22.7 0 0 1 7.9 1.1 10.8 10.8 0 0 1 7.3 10.6 11.8 11.8 0 0 1-6.3 10.8 17.4 17.4 0 0 1-8 1.7c-2.4 0-4.7-.3-6-.3l-4.5.1a.7.7 0 0 1 0-.9l.8-.1c2.1-.3 2.2-.7 2.2-4.5zm3 12.8c0 1.9.1 3 .8 3.9.8 1.1 2.1 1.5 4.4 1.5 7 0 10.1-4.6 10.1-11.3 0-4-1.9-10.6-11.3-10.6a8.2 8.2 0 0 0-3.6.5c-.3.2-.4 1-.4 2.7zM803.6 421.4c0 1 0 1 1.2 1h2.4a13.8 13.8 0 0 0 3-.2c.5-.2.8-.4 1-1.3l.3-1.4a.8.8 0 0 1 1 0l-.2 3.6.1 3.5a.8.8 0 0 1-1 0l-.3-1.4a1.7 1.7 0 0 0-1.1-1.4 11.7 11.7 0 0 0-2.8-.2h-2.4c-1.1 0-1.2 0-1.2 1v5c0 3.8 0 4.4 2.2 4.5l1.2.1c.2.2.1.8 0 1l-4.9-.2-4.5.1a.7.7 0 0 1 0-.9h.9c2-.3 2.1-.8 2.1-4.6v-13c0-3.7 0-4.2-2.1-4.5h-.6c-.2-.2-.2-.9 0-1l4.2.1h6.7a48 48 0 0 0 4.8 0l.1 4.7a.6.6 0 0 1-.8 0c-.3-1.5-.8-2.9-2.6-3.3a15 15 0 0 0-3.4-.2h-2.2c-1.1 0-1.1 0-1.1 1.4zM725.5 464.2a7.5 7.5 0 0 1-3.7-.9 11.1 11.1 0 0 1-.7-3.4c.1-.1.5-.2.6 0 .4 1.2 1.3 3.5 4.1 3.5a2.7 2.7 0 0 0 3-2.7 3.6 3.6 0 0 0-2-3.4l-2.3-1.5a5.1 5.1 0 0 1-2.5-4.1c0-2.3 1.8-4.1 4.9-4.1a9.2 9.2 0 0 1 2.2.3 3.5 3.5 0 0 0 .9.1 10.4 10.4 0 0 1 .4 3 .5.5 0 0 1-.6 0 3.1 3.1 0 0 0-3.3-2.7c-2.3 0-2.8 1.6-2.8 2.7a3.8 3.8 0 0 0 2 3l1.9 1.1c1.5 1 3 2.4 3 4.6 0 2.7-2 4.5-5 4.5zM738.1 456c-1.1 0-1.2 0-1.2.8v3.4c0 2.5.1 2.9 1.5 3h.7v.7l-3-.1h-2.9a.5.5 0 0 1 0-.5l.4-.1c1.4-.2 1.4-.5 1.4-3v-8.6c0-2.6-.2-3-1.4-3h-.6c-.2-.1-.1-.6 0-.6h5.8c.1 0 .2.5 0 .6h-.4c-1.4.1-1.5.5-1.5 3v2.7c0 .8 0 .8 1.2.8h6.9c1.1 0 1.2 0 1.2-.8v-2.7c0-2.6 0-3-1.5-3h-.4c-.2-.1-.1-.6 0-.6H750c.2 0 .2.5 0 .6h-.4c-1.4.1-1.5.5-1.5 3v8.6c0 2.5 0 2.8 1.5 3h.5a.5.5 0 0 1 0 .7l-2.9-.1h-2.9a.5.5 0 0 1 0-.5l.5-.1c1.5-.2 1.5-.5 1.5-3v-3.4c0-.7-.1-.8-1.2-.8zM761 458.2c-.2-.5-.3-.6-1-.6h-3.6c-.6 0-.8.1-1 .6l-.8 2.5a9.3 9.3 0 0 0-.5 2c0 .3.1.5.7.5h.8a.4.4 0 0 1 0 .7h-4.9a.5.5 0 0 1 0-.6h.8a1.6 1.6 0 0 0 1.5-1.3l2-5.3 2.5-6.5a3.4 3.4 0 0 0 .4-1.7 2.7 2.7 0 0 0 1.3-1 .3.3 0 0 1 .3.3l1 3.2 3.4 9.7c.7 2 1 2.4 2 2.5h.6a.5.5 0 0 1 0 .7H761a.4.4 0 0 1 0-.6h.7c.5-.1.8-.3.8-.5a4.9 4.9 0 0 0-.3-1.3zm-4.8-2.1c-.1.6-.1.6.6.6h3c.7 0 .7-.1.5-.8L759 452l-.6-1.5-.5 1.4zM772.7 457.9a.9.9 0 0 1 .4.7 1 1 0 0 1-.2.6l-5.6.6a1 1 0 0 1-.4-.8 1 1 0 0 1 .2-.6zM781.4 462.3a3.4 3.4 0 0 0 2.3-.5 3.1 3.1 0 0 0 .8-1 .5.5 0 0 1 .5.1 10.7 10.7 0 0 1-1.1 3l-3.1-.1h-6.2a.3.3 0 0 1-.1-.3l.2-.2a19.8 19.8 0 0 0 3.7-3.5c1.6-1.7 3.4-4 3.4-6.6 0-2.2-1-3.5-3-3.5a3.5 3.5 0 0 0-3 2.4.4.4 0 0 1-.7-.3 5 5 0 0 1 4.9-3.4 3.7 3.7 0 0 1 4 4c0 1.4-.7 3-2.6 5.2l-1.5 1.7c-2 2.3-2.1 2.6-2.1 2.8s0 .2.7.2zM789 449.6c.1-.4.2-.6.6-.7l5.8-.8.2.2a4.1 4.1 0 0 1-.8 1.5l-4.6.7c-.5 0-.7.2-.8.6l-.4 1.4c-.1.3 0 .5.3.5h.5c3 .3 6.4 1.6 6.4 5.2 0 4.2-4.8 7-8.6 7.2-.3-.1-.3-.6 0-.8 3.6-.2 6.8-2.5 6.8-5.8s-3.6-4.2-6.5-4.3c-.3 0-.3-.2-.2-.7zM802 450.6a12.5 12.5 0 0 1 6.9-3.4.4.4 0 0 1 0 .5 12.1 12.1 0 0 0-5.2 3 10.3 10.3 0 0 0-2.8 7.4c0 2.7 1 5.3 3.4 5.3 1.8 0 2.7-1.6 2.7-3.7s-1-4-3-4a3.8 3.8 0 0 0-1.1.2.3.3 0 0 1-.1-.4 4.3 4.3 0 0 1 2.3-.7c2.3 0 3.9 1.9 3.9 4.3a4.9 4.9 0 0 1-5.1 5c-3.5 0-5.2-2.7-5.2-6a10.6 10.6 0 0 1 3.3-7.5zM751.8 86a8.3 8.3 0 0 1 .6 3 .6.6 0 0 1-.9 0c-.6-1.6-1.7-2.6-3.2-2.6a2.1 2.1 0 0 0-2.2 2.2c0 1.5 1.5 2.3 2.7 3 2 1 3.7 2.3 3.7 4.9 0 2.7-2.5 4-5.2 4a6 6 0 0 1-3.8-1 11 11 0 0 1-.5-3.7.6.6 0 0 1 .9 0c.6 2 1.7 3.8 3.8 3.8a2.2 2.2 0 0 0 2.4-2.3c0-1.7-1.5-2.6-2.8-3.4-2-1.1-3.6-2.4-3.6-4.4 0-2.6 2.2-4.1 5-4.1a6.3 6.3 0 0 1 3.1.6zM762.1 92.5c.5-.1.6-.5.6-1V90c0-1.3-.4-3.1-2.6-3.1-1 0-2.2.5-2.3 1.6 0 .6 0 1-.4 1.2a3.9 3.9 0 0 1-2 .7.5.5 0 0 1-.5-.5c0-1.9 4-4.4 6.7-4.4s3.8 1.5 3.7 4.2l-.2 6.2c0 1.7.2 3.2 1.6 3.2a2 2 0 0 0 1-.3l.4-.2c.1 0 .3.2.3.5a3.8 3.8 0 0 1-3 1.5 2.9 2.9 0 0 1-2.4-1.1c-.1-.2-.4-.5-.6-.5a5.8 5.8 0 0 0-1.4.7 5.3 5.3 0 0 1-2.6.9 3.7 3.7 0 0 1-2.5-.8 3.4 3.4 0 0 1-1.1-2.5c0-1.4.7-2.3 3-3.1zm-2.2 6.4a4 4 0 0 0 2.2-1c.4-.4.4-.9.4-1.6l.1-2.1c0-.4-.1-.5-.3-.5a6.5 6.5 0 0 0-1.5.4c-2.1.7-3.2 1.2-3.2 2.6a2.2 2.2 0 0 0 2.3 2.2zM774 96c0 2.6 0 3 1.4 3.1l.8.1a.6.6 0 0 1 0 1l-3.5-.2a35 35 0 0 0-3.5.1.6.6 0 0 1 0-.9h.8c1.3-.3 1.3-.6 1.3-3.2V79.7c0-2.1 0-2.3-1-3l-.4-.2a.6.6 0 0 1 0-.7 23.9 23.9 0 0 0 3.8-1.5.4.4 0 0 1 .4.2l-.1 4.4zM783.5 87.3c-.6 0-.7.1-.7.9v6.7c0 2.1.3 4 2.7 4a2.7 2.7 0 0 0 1-.2c.3 0 .8-.5.9-.5.2 0 .4.4.3.6a5 5 0 0 1-3.8 1.7c-3 0-3.7-1.7-3.7-3.9v-8.2c0-1 0-1-.8-1h-1a.6.6 0 0 1 0-.8 7.1 7.1 0 0 0 2.2-1.1 9.1 9.1 0 0 0 1.5-2.1c.2-.1.7-.1.8.1v1.7c0 .6 0 .7.7.7h4a1.1 1.1 0 0 1 0 1.5zM731.4 609.8c0 2.8 0 4.1 1 4.1a5.9 5.9 0 0 0 1.6-.3c.3 0 .3 1 0 1.1a28 28 0 0 0-4.8 1.2c-.2 0-.4-.1-.4-.3v-.6a4 4 0 0 0 0-1.1h-.2a7.5 7.5 0 0 1-4.5 1.6 6.6 6.6 0 0 1-6.7-6.9c0-5 3.9-8.3 8.7-8.3a7.1 7.1 0 0 1 2.5.4c.1 0 .2-.2.2-.5v-5.5c0-2.1 0-2.3-1.1-3l-.4-.2a.6.6 0 0 1 0-.7 25 25 0 0 0 3.9-1.5.4.4 0 0 1 .3.2v4.4zm-2.7-5.4a2 2 0 0 0-.4-1.5 3.8 3.8 0 0 0-3-1.5c-3.2 0-5 2.9-5 6s1.9 6.4 5.4 6.4a4.5 4.5 0 0 0 2.8-1 2.2 2.2 0 0 0 .2-1.3zM739.1 605.8c-.9 0-1 0-1 1 0 3.6 2.2 6.7 6 6.7a3.9 3.9 0 0 0 3.4-1.8.5.5 0 0 1 .6.5 6.3 6.3 0 0 1-5.6 3.3 6.4 6.4 0 0 1-5.3-2.3 7.7 7.7 0 0 1-1.5-4.7c0-4.4 3-8.2 7.3-8.2 3 0 5 2.2 5 4.3a2.3 2.3 0 0 1 0 1c-.2.2-.7.2-2.2.2zm2.3-1c2.7 0 3.4-.2 3.7-.5.1 0 .2-.2.2-.6 0-1-.6-2.3-2.7-2.3s-4 2-4 3.1c0 .1 0 .2.2.2zM752.3 604.7c0-1.4 0-1.6-1-2.3l-.4-.2a.5.5 0 0 1 0-.6 26.7 26.7 0 0 0 3.7-1.8c.1 0 .2.1.2.3v2c0 .2 0 .3.2.4 1.2-1 2.6-2.2 4-2.2a1.5 1.5 0 0 1 1.6 1.5 1.6 1.6 0 0 1-1.6 1.6 1.4 1.4 0 0 1-.8-.2 3 3 0 0 0-1.5-.6 1.6 1.6 0 0 0-1.3.7 5.5 5.5 0 0 0-.5 2.8v4.9c0 2.6 0 3 1.4 3.1l1.3.1a.6.6 0 0 1 0 1l-4-.2-3.4.1a.6.6 0 0 1 0-.9h.6c1.4-.3 1.4-.6 1.4-3.2zM764.2 604.7c0-1.4 0-1.6-1-2.3l-.3-.2a.5.5 0 0 1 0-.6 24 24 0 0 0 3.7-1.8.3.3 0 0 1 .4.2l-.2 4.5v6.5c0 2.6 0 3 1.4 3.1l.7.1a.6.6 0 0 1 0 1 50.5 50.5 0 0 0-6.8 0 .6.6 0 0 1 0-1h.7c1.3-.3 1.3-.6 1.3-3.2zm3-10.3a1.9 1.9 0 0 1-3.7 0 1.9 1.9 0 0 1 2-1.9 1.8 1.8 0 0 1 1.7 2zM772.9 604.4c-.5-1.3-.9-2.5-2.2-2.7h-.7c-.2-.4-.2-.9.1-1l3.4.1h3a.6.6 0 0 1 0 .8h-.5c-1.1.3-1.2.4-.8 1.5a85 85 0 0 0 2.7 6.9 6 6 0 0 0 .6 1.2 4.3 4.3 0 0 0 .6-1.4l2.1-5.3a8.2 8.2 0 0 0 .6-2.2c0-.4-.2-.5-.6-.6h-.8a.7.7 0 0 1 0-1l2.7.1h2.6a.7.7 0 0 1 0 .8h-.5c-1.3.3-1.6 1.2-2.6 3.2-.5 1-2.8 6.2-3.3 7.7-.4.9-.8 1.7-1.2 3a.4.4 0 0 1-.4 0 .6.6 0 0 1-.5 0c-.2-1-.8-2.5-1.3-3.8zM790 605.8c-1 0-1 0-1 1 0 3.6 2.1 6.7 6 6.7a3.9 3.9 0 0 0 3.3-1.8.5.5 0 0 1 .7.5 6.3 6.3 0 0 1-5.7 3.3 6.4 6.4 0 0 1-5.2-2.3 7.7 7.7 0 0 1-1.5-4.7c0-4.4 2.9-8.2 7.2-8.2 3.1 0 5.1 2.2 5.1 4.3a2.2 2.2 0 0 1-.1 1c-.1.2-.6.2-2.1.2zm2.2-1c2.7 0 3.5-.2 3.8-.5 0 0 .2-.2.2-.6 0-1-.7-2.3-2.8-2.3s-4 2-4 3.1c0 .1 0 .2.3.2zM814.8 609.8c0 2.8 0 4.1 1 4.1a5.9 5.9 0 0 0 1.5-.3c.3 0 .3 1 0 1.1a28 28 0 0 0-4.7 1.2c-.2 0-.4-.1-.4-.3v-.6a3.6 3.6 0 0 0 0-1.1h-.2a7.5 7.5 0 0 1-4.5 1.6 6.6 6.6 0 0 1-6.7-6.9c0-5 3.8-8.3 8.7-8.3a7.2 7.2 0 0 1 2.4.4c.2 0 .2-.2.2-.5v-5.5c0-2.1 0-2.3-1-3l-.4-.2a.6.6 0 0 1 0-.7 25.4 25.4 0 0 0 3.9-1.5.4.4 0 0 1 .3.2v4.4zm-2.7-5.4a2.1 2.1 0 0 0-.4-1.5 3.8 3.8 0 0 0-3-1.5c-3.2 0-5 2.9-5 6s1.9 6.4 5.4 6.4a4.4 4.4 0 0 0 2.8-1 2.2 2.2 0 0 0 .2-1.3zM658.5 644.2a8.3 8.3 0 0 1 .6 2.9.6.6 0 0 1-.9 0c-.6-1.5-1.7-2.5-3.1-2.5a2.1 2.1 0 0 0-2.3 2.1c0 1.5 1.5 2.3 2.7 3 2 1.1 3.7 2.3 3.7 5 0 2.6-2.5 4-5.2 4a6 6 0 0 1-3.8-1 11 11 0 0 1-.5-3.7.6.6 0 0 1 .9 0c.6 2 1.7 3.7 3.8 3.7a2.2 2.2 0 0 0 2.4-2.3c0-1.6-1.4-2.5-2.8-3.3-2-1.2-3.5-2.4-3.5-4.4 0-2.7 2.1-4.1 4.9-4.1a6.3 6.3 0 0 1 3.1.6zM661.1 665.6a1.3 1.3 0 0 1 1.5-1.4h.7a1.3 1.3 0 0 0 1.2-.7 22.6 22.6 0 0 0 2-4 5.4 5.4 0 0 0 .4-1.5 6.8 6.8 0 0 0-.6-2.5l-2.8-7.7c-.6-1.7-.9-2.6-2.1-2.8l-1-.2c-.2-.2-.1-.8.2-.9l3.4.1h3.1c.3 0 .3.6 0 .8l-.8.2c-.5.1-.8.2-.8.5a28.2 28.2 0 0 0 1 3.3l1.2 3.4a19.7 19.7 0 0 0 1 2.5 17.5 17.5 0 0 0 1.3-2.7l1.2-2.8a16.2 16.2 0 0 0 1.3-3.6c0-.3-.2-.5-.9-.6l-1.1-.2a.6.6 0 0 1 0-.9l3.2.1h2.8a.6.6 0 0 1 0 .8l-.6.1c-1.2.2-1.8 1.3-3 3.8l-2 4.2a604 604 0 0 0-6 12.6 2.4 2.4 0 0 1-2.2 1.7 1.4 1.4 0 0 1-1.6-1.6zM698.6 649c0-2.5-1-3.7-3.3-3.7a3.9 3.9 0 0 0-3 1.3c-.4.5-.5.8-.5 2.1v5.5c0 2.6 0 3 1.3 3.1l.8.2a.6.6 0 0 1 0 .9l-3.5-.2c-1.3 0-2.2 0-3.2.2a.6.6 0 0 1-.1-1h.6c1.4-.3 1.4-.6 1.4-3.2V649c0-2.4-1-3.7-3.3-3.7a3.9 3.9 0 0 0-3 1.3 2.8 2.8 0 0 0-.5 2v5.6c0 2.6 0 3 1.3 3.1l.7.2a.6.6 0 0 1-.1.9l-3.3-.2a35 35 0 0 0-3.5.2.6.6 0 0 1 0-1h.8c1.3-.2 1.4-.6 1.4-3.2V648c0-1.4 0-1.6-1-2.2l-.3-.2a.5.5 0 0 1 0-.7 19.3 19.3 0 0 0 3.6-1.7.4.4 0 0 1 .4.2l-.1 1.7a.4.4 0 0 0 .4.4 8.7 8.7 0 0 1 4.8-1.8 4.1 4.1 0 0 1 3.8 2 1.1 1.1 0 0 0 .9-.2 9 9 0 0 1 4.9-1.8c2.9 0 4.3 2 4.3 4.4v6.2c0 2.6 0 3 1.3 3.1l.9.2a.6.6 0 0 1 0 .9l-3.6-.1h-3.2a.6.6 0 0 1-.1-.8l.6-.1c1.4-.3 1.4-.6 1.4-3.2zM727 649c0-2.5-1-3.7-3.3-3.7a3.9 3.9 0 0 0-3 1.3c-.5.5-.6.8-.6 2.1v5.5c0 2.6 0 3 1.4 3.1l.7.2a.6.6 0 0 1 0 .9l-3.4-.2c-1.2 0-2.3 0-3.3.2a.6.6 0 0 1 0-1h.6c1.3-.3 1.4-.6 1.4-3.2V649c0-2.4-1.1-3.7-3.4-3.7a3.9 3.9 0 0 0-3 1.3 2.8 2.8 0 0 0-.5 2v5.6c0 2.6 0 3 1.4 3.1l.6.2a.6.6 0 0 1 0 .9l-3.3-.2a35 35 0 0 0-3.5.2.6.6 0 0 1-.1-1h.9c1.3-.2 1.3-.6 1.3-3.2V648c0-1.4 0-1.6-1-2.2l-.3-.2a.5.5 0 0 1 0-.7 19.3 19.3 0 0 0 3.6-1.7.4.4 0 0 1 .4.2v1.7a.4.4 0 0 0 .3.4 8.7 8.7 0 0 1 4.8-1.8 4.1 4.1 0 0 1 3.8 2 1.1 1.1 0 0 0 1-.2 9 9 0 0 1 4.8-1.8c3 0 4.3 2 4.3 4.4v6.2c0 2.6 0 3 1.4 3.1l.8.2a.6.6 0 0 1 0 .9l-3.5-.1H725a.6.6 0 0 1 0-.8l.6-.1c1.3-.3 1.3-.6 1.3-3.2zM737.4 649c-1 0-1 0-1 1 0 3.6 2.1 6.7 6 6.7a3.9 3.9 0 0 0 3.3-1.7.5.5 0 0 1 .6.4 6.3 6.3 0 0 1-5.6 3.3 6.5 6.5 0 0 1-5.2-2.3 7.7 7.7 0 0 1-1.5-4.7c0-4.4 2.9-8.1 7.2-8.1 3.1 0 5.1 2 5.1 4.2a2 2 0 0 1-.1 1c-.1.2-.6.2-2.1.2zm2.2-1c2.7 0 3.5-.2 3.8-.4 0-.1.2-.3.2-.7 0-1-.7-2.3-2.8-2.3s-4 2-4 3.1c0 .1 0 .2.3.2zM753.5 645.5c-.7 0-.7.1-.7.9v6.7c0 2.1.3 4 2.6 4a2.7 2.7 0 0 0 1-.2c.4 0 .8-.5 1-.5.2 0 .4.4.3.7a5 5 0 0 1-3.8 1.6c-3 0-3.7-1.7-3.7-3.9v-8.2c0-1 0-1-.8-1h-1a.6.6 0 0 1-.1-.8 7.1 7.1 0 0 0 2.3-1.1 9.1 9.1 0 0 0 1.5-2.1c.2-.1.6-.1.8.2v1.6c0 .6 0 .7.6.7h4a1.1 1.1 0 0 1 0 1.5zM761.5 647.9c0-1.4 0-1.6-1-2.3l-.3-.2a.5.5 0 0 1 0-.6 27.3 27.3 0 0 0 3.7-1.8c.1 0 .2.1.2.3v2c0 .2 0 .3.2.4 1.2-1 2.6-2.2 4-2.2a1.5 1.5 0 0 1 1.6 1.5 1.6 1.6 0 0 1-1.6 1.7 1.4 1.4 0 0 1-.7-.3 3 3 0 0 0-1.6-.6 1.6 1.6 0 0 0-1.3.7 5.5 5.5 0 0 0-.5 2.8v5c0 2.5 0 3 1.4 3l1.4.2a.6.6 0 0 1-.1.9l-4-.2c-1.2 0-2.4 0-3.3.2a.6.6 0 0 1-.1-1h.7c1.3-.3 1.3-.6 1.3-3.2zM773.5 647.9c0-1.4 0-1.6-1-2.3l-.3-.2a.5.5 0 0 1 0-.6 24 24 0 0 0 3.8-1.8c.2 0 .3 0 .3.2v11c0 2.6 0 3 1.3 3l.7.2a.6.6 0 0 1 0 .9l-3.4-.1-3.4.1a.6.6 0 0 1 0-.9l.7-.1c1.3-.2 1.3-.5 1.3-3.1zm3-10.3a1.9 1.9 0 0 1-3.8 0 1.9 1.9 0 0 1 2-1.9 1.8 1.8 0 0 1 1.8 2zM792.4 644.1a2 2 0 0 1 .6 1.5c0 .6-.4 1.3-.8 1.3a.6.6 0 0 1-.5-.2 5 5 0 0 0-3.6-2c-2.5 0-5 2-5 5.8a6 6 0 0 0 5.8 6.2 4.4 4.4 0 0 0 4-2.2.6.6 0 0 1 .6.5 6.6 6.6 0 0 1-6 3.7 7 7 0 0 1-5-1.8 7.2 7.2 0 0 1-2-5.4c0-3.9 2.7-8 8.7-8a8.8 8.8 0 0 1 3.2.6zM805.8 637.9c0-2.1 0-2.3-1.1-3l-.4-.2a.6.6 0 0 1 0-.7 25.4 25.4 0 0 0 3.9-1.6.4.4 0 0 1 .4.3l-.2 4.4v12.4c0 .5 0 .5.7.5a3.4 3.4 0 0 0 2.4-1.4l1.5-1.6c1-1 1.3-1.5 1.3-1.6s-.2-.3-.8-.4l-.9-.1a.5.5 0 0 1 0-1h.8a55.2 55.2 0 0 0 5.8-.2c.2.1.3.7 0 .9l-1.1.2a5.1 5.1 0 0 0-2.3 1.3 43.5 43.5 0 0 0-3.3 3c-.4.4-.4.6-.2.8l2.4 3 3.4 3.6a3.6 3.6 0 0 0 1.9.8h.5a.6.6 0 0 1-.1 1l-3.4-.2-3.8.1a.6.6 0 0 1 0-.9h.6c.5-.1.9-.2.9-.4s-.1-.5-.6-1l-3.9-4.5a1.5 1.5 0 0 0-1-.5c-.7 0-.8.1-.8 1.2v2c0 2.6.1 3 1.4 3.2h.9a.6.6 0 0 1-.1 1 56.3 56.3 0 0 0-7 0 .6.6 0 0 1 0-1h.8c1.4-.2 1.4-.6 1.4-3.2zM824.6 649c-.9 0-1 0-1 1 0 3.6 2.2 6.7 6 6.7a3.9 3.9 0 0 0 3.4-1.7.5.5 0 0 1 .6.4 6.3 6.3 0 0 1-5.6 3.3 6.5 6.5 0 0 1-5.2-2.4 7.7 7.7 0 0 1-1.5-4.6c0-4.5 2.9-8.2 7.2-8.2 3.1 0 5.1 2.1 5.1 4.3a2 2 0 0 1-.1 1c-.1.2-.6.2-2.1.2zm2.3-1c2.7 0 3.4-.2 3.7-.4.1-.1.2-.3.2-.7 0-1-.6-2.3-2.7-2.3s-4 2-4 3.1c0 .1 0 .2.2.2zM835 665.6a1.3 1.3 0 0 1 1.5-1.4h.7a1.3 1.3 0 0 0 1.2-.7 22 22 0 0 0 2-4 5.4 5.4 0 0 0 .5-1.5 6.8 6.8 0 0 0-.7-2.5l-2.8-7.7c-.6-1.7-.8-2.6-2-2.8l-1-.2c-.2-.2-.2-.8.1-.9l3.4.1h3.2c.3 0 .3.6 0 .8l-.9.2c-.5.1-.7.2-.7.5a28.2 28.2 0 0 0 1 3.3l1.1 3.4a19.5 19.5 0 0 0 1 2.5 17.5 17.5 0 0 0 1.4-2.7l1.2-2.8a16.2 16.2 0 0 0 1.3-3.6c0-.3-.2-.5-.9-.7l-1.1-.1c-.3-.2-.2-.8 0-1l3.2.2 2.8-.1a.6.6 0 0 1 0 .9h-.6c-1.1.3-1.8 1.3-3 3.9l-2 4.1-6 12.6a2.4 2.4 0 0 1-2.2 1.7 1.4 1.4 0 0 1-1.6-1.5zM866 649h-14v-1.8h14zm0 5.4h-14v-1.8h14zM871.2 637.9c0-2.1 0-2.3-1.2-3l-.3-.2a.6.6 0 0 1 0-.7 25.4 25.4 0 0 0 3.9-1.6.4.4 0 0 1 .3.3v16.8c0 .5 0 .5.6.5.8 0 1.4-.4 2.4-1.4l1.5-1.6c1-1 1.3-1.5 1.3-1.6s-.2-.3-.8-.4l-.9-.1a.5.5 0 0 1 0-1h.8a55 55 0 0 0 5.8-.2c.2.1.2.7 0 .9l-1.1.2a5 5 0 0 0-2.3 1.3 44 44 0 0 0-3.3 3c-.4.4-.4.6-.2.8l2.4 3 3.4 3.6a3.7 3.7 0 0 0 1.9.8h.5c.2.2.2.8-.1 1l-3.4-.2-3.8.1c-.3-.1-.3-.7 0-.9h.6c.5-.1.9-.2.9-.4s-.1-.5-.6-1l-3.9-4.5a1.5 1.5 0 0 0-1-.5c-.7 0-.8.1-.8 1.2v2c0 2.6.1 3 1.4 3.2h.9a.6.6 0 0 1-.1 1l-3.5-.1H869a.6.6 0 0 1 0-.8l.8-.1c1.4-.2 1.4-.6 1.4-3.2z"/>
</svg>
