<svg xmlns="http://www.w3.org/2000/svg" viewBox="0 0 960 720">
  <defs>
    <style>
      .e{fill:none}.c{fill-opacity:0}.e,.g{stroke:#000}.e{stroke-linejoin:round}.g{stroke-miterlimit:10}.h{fill:#fff}
    </style>
    <clipPath id="a" transform="translate(131 87)">
      <path fill="none" d="M-131-87h960v720h-960z"/>
    </clipPath>
  </defs>
  <g clip-path="url(#a)">
    <path d="M0 0h960v720H0z" class="c"/>
    <path fill="#93c47d" d="M384 148.32a11.48 11.48 0 0 1 11.48-11.47h169.06A11.49 11.49 0 0 1 576 148.32v45.9a11.48 11.48 0 0 1-11.48 11.48H395.46A11.48 11.48 0 0 1 384 194.22z"/>
    <path d="M384 148.32a11.48 11.48 0 0 1 11.48-11.47h169.06A11.49 11.49 0 0 1 576 148.32v45.9a11.48 11.48 0 0 1-11.48 11.48H395.46A11.48 11.48 0 0 1 384 194.22z" class="e"/>
    <path d="M212 148.32a11.48 11.48 0 0 1 11.49-11.47h109.39a11.47 11.47 0 0 1 11.48 11.47v45.9a11.48 11.48 0 0 1-11.48 11.48H223.49A11.48 11.48 0 0 1 212 194.22z"/>
    <path d="M212 148.32a11.48 11.48 0 0 1 11.49-11.47h109.39a11.47 11.47 0 0 1 11.48 11.47v45.9a11.48 11.48 0 0 1-11.48 11.48H223.49A11.48 11.48 0 0 1 212 194.22z" class="e"/>
    <path fill="#e06666" d="M182.17 263.45A11.47 11.47 0 0 1 193.64 252h169.08a11.47 11.47 0 0 1 11.48 11.47v45.9a11.48 11.48 0 0 1-11.48 11.48H193.64a11.48 11.48 0 0 1-11.47-11.48z"/>
    <path d="M182.17 263.45A11.47 11.47 0 0 1 193.64 252h169.08a11.47 11.47 0 0 1 11.48 11.47v45.9a11.48 11.48 0 0 1-11.48 11.48H193.64a11.48 11.48 0 0 1-11.47-11.48z" class="e"/>
    <path d="M278.18 205.7V252" class="c"/>
    <path d="M278.18 205.7V246" class="e"/>
    <path d="M276.53 246l1.65 4.54 1.66-4.54z" class="g"/>
    <path d="M421.75 235.66h116.5v101.48h-116.5z" class="h"/>
    <path d="M421.75 235.66h116.5v101.48h-116.5z" class="e"/>
    <path d="M374.2 286.4h47.56" class="c"/>
    <path d="M374.2 286.4h41.56" class="e"/>
    <path d="M415.76 288.05l4.54-1.65-4.54-1.65z" class="g"/>
    <path d="M480 205.7v30" class="c"/>
    <path d="M480 205.7v24" class="e"/>
    <path d="M478.35 229.65l1.65 4.54 1.65-4.54z" class="g"/>
    <path d="M219.93 367.1h116.51v101.48H219.93z" class="h"/>
    <path d="M219.93 367.1h116.51v101.48H219.93z" class="e"/>
    <path d="M278.18 320.83v46.26" class="c"/>
    <path d="M278.18 320.83v40.26" class="e"/>
    <path d="M276.53 361.09l1.65 4.54 1.66-4.54z" class="g"/>
    <path fill="#6d9eeb" d="M182.17 526.33a11.47 11.47 0 0 1 11.47-11.47h169.08a11.47 11.47 0 0 1 11.48 11.47v45.9a11.48 11.48 0 0 1-11.48 11.48H193.64a11.48 11.48 0 0 1-11.47-11.48z"/>
    <path d="M182.17 526.33a11.47 11.47 0 0 1 11.47-11.47h169.08a11.47 11.47 0 0 1 11.48 11.47v45.9a11.48 11.48 0 0 1-11.48 11.48H193.64a11.48 11.48 0 0 1-11.47-11.48z" class="e"/>
    <path d="M278.18 468.58v46.27" class="c"/>
    <path d="M278.18 468.58v40.27" class="e"/>
    <path d="M276.53 508.85l1.65 4.54 1.66-4.54z" class="g"/>
    <path fill="#ffd966" d="M384 393.77a11.48 11.48 0 0 1 11.48-11.48h169.06A11.49 11.49 0 0 1 576 393.77v45.9a11.47 11.47 0 0 1-11.48 11.47H395.46A11.47 11.47 0 0 1 384 439.67z"/>
    <path d="M384 393.77a11.48 11.48 0 0 1 11.48-11.48h169.06A11.49 11.49 0 0 1 576 393.77v45.9a11.47 11.47 0 0 1-11.48 11.47H395.46A11.47 11.47 0 0 1 384 439.67z" class="e"/>
    <path d="M480 337.14v45.17" class="c"/>
    <path d="M480 337.14v39.17" class="e"/>
    <path d="M478.35 376.31l1.65 4.53 1.65-4.53z" class="g"/>
    <path d="M623.56 365.42h116.51V466.9H623.56z" class="h"/>
    <path d="M623.56 365.42h116.51V466.9H623.56z" class="e"/>
    <path d="M615.64 147.77a11.48 11.48 0 0 1 11.48-11.48h109.39A11.47 11.47 0 0 1 748 147.77v45.9a11.47 11.47 0 0 1-11.48 11.47h-109.4a11.47 11.47 0 0 1-11.48-11.47z" class="h"/>
    <path d="M615.64 147.77a11.48 11.48 0 0 1 11.48-11.48h109.39A11.47 11.47 0 0 1 748 147.77v45.9a11.47 11.47 0 0 1-11.48 11.47h-109.4a11.47 11.47 0 0 1-11.48-11.47z" class="e"/>
    <path d="M681.82 205.14v160.29" class="c"/>
    <path d="M681.82 205.14v154.29" class="e"/>
    <path d="M680.16 359.43l1.66 4.53 1.65-4.53z" class="g"/>
    <path fill="#f90" d="M585.8 526.33a11.47 11.47 0 0 1 11.48-11.47h169.08a11.47 11.47 0 0 1 11.47 11.47v45.9a11.48 11.48 0 0 1-11.47 11.48H597.28a11.48 11.48 0 0 1-11.48-11.48z"/>
    <path d="M585.8 526.33a11.47 11.47 0 0 1 11.48-11.47h169.08a11.47 11.47 0 0 1 11.47 11.47v45.9a11.48 11.48 0 0 1-11.47 11.48H597.28a11.48 11.48 0 0 1-11.48-11.48z" class="e"/>
    <path d="M576 416.72l47.55-.57" class="c"/>
    <path d="M576 416.72l41.56-.5" class="e"/>
    <path d="M617.59 417.87l4.52-1.7-4.55-1.6z" class="g"/>
    <path d="M681.82 466.9v48" class="c"/>
    <path d="M681.82 466.9v42" class="e"/>
    <path d="M680.16 508.87l1.66 4.54 1.65-4.54z" class="g"/>
  </g>
  <path d="M257.07 166.78c0-2.28-.07-2.69-1-2.81l-.77-.09a.4.4 0 0 1 0-.6c1.35-.12 3-.19 5.35-.19a8.49 8.49 0 0 1 4 .72 3.56 3.56 0 0 1 2 3.36 4.44 4.44 0 0 1-3 4c-.12.14 0 .38.12.57 1.93 3.1 3.2 5 4.83 6.39a2.9 2.9 0 0 0 1.66.67.2.2 0 0 1 0 .33 3.49 3.49 0 0 1-1.06.12c-2 0-3.26-.6-5-3-.63-.89-1.61-2.54-2.36-3.62a1.7 1.7 0 0 0-1.7-.77c-1.08 0-1.13 0-1.13.53v3c0 2.52.05 2.81 1.44 3l.5.07a.47.47 0 0 1 0 .6c-1.08 0-1.9-.07-2.86-.07s-1.87 0-3 .07a.47.47 0 0 1 0-.6l.6-.07c1.39-.17 1.44-.48 1.44-3zm2 3.44a2 2 0 0 0 .07.79c.07.07.43.12 1.66.12a4 4 0 0 0 2.47-.63 3.42 3.42 0 0 0 1.2-3 3.54 3.54 0 0 0-3.84-3.7c-1.49 0-1.56.1-1.56.77zm26.39 4.7c0 .72 0 3.58.08 4.2a.45.45 0 0 1-.46.26c-.29-.4-1-1.24-3.07-3.62l-5.57-6.34c-.65-.74-2.28-2.71-2.78-3.24a5.93 5.93 0 0 0-.12 1.56V173c0 1.12 0 4.24.43 5 .14.27.62.41 1.22.46l.75.07a.44.44 0 0 1 0 .6c-1.08 0-1.92-.07-2.81-.07s-1.65 0-2.49.07a.44.44 0 0 1 0-.6l.65-.07c.55-.07.93-.22 1.05-.48a22.87 22.87 0 0 0 .16-4.98v-7a2.21 2.21 0 0 0-.52-1.73 2.67 2.67 0 0 0-1.49-.58h-.41c-.14-.15-.14-.51 0-.6 1 .07 2.28.07 2.71.07a9.12 9.12 0 0 0 1.1-.07c.48 1.22 3.32 4.39 4.11 5.28l2.38 2.63c1.65 1.85 2.83 3.2 4 4.35a2.35 2.35 0 0 0 .1-1v-5.17c0-1.12 0-4.25-.48-5-.14-.21-.53-.36-1.49-.48h-.41c-.16-.15-.14-.53.05-.6 1.11 0 1.92.07 2.83.07s1.66 0 2.48-.07a.42.42 0 0 1 0 .6h-.33c-.77.12-1.25.32-1.35.51-.4.86-.36 3.84-.36 4.94zm18.36 1.63c0 1 .15 1.54.58 1.71a.19.19 0 0 1 0 .28 5.47 5.47 0 0 0-1.18.22 18.52 18.52 0 0 1-4.3.62 10 10 0 0 1-7.32-2.66 7.56 7.56 0 0 1-2.2-5.45 8.24 8.24 0 0 1 2.16-5.69c1.6-1.68 4-2.81 7.6-2.81a14.79 14.79 0 0 1 3.05.36 6.09 6.09 0 0 0 1.49.22 26.33 26.33 0 0 0 .36 3.48c-.07.19-.5.22-.65.07-.67-2.59-2.47-3.41-4.92-3.41-4.65 0-6.69 3.32-6.69 6.92 0 4.61 2.37 8.23 7.2 8.23 1.48 0 2.37-.31 2.64-.72a2.68 2.68 0 0 0 .24-1.37v-1c0-2-.08-2.16-1.56-2.33l-1.06-.12c-.19-.09-.17-.52 0-.6.7 0 2 .08 3.43.08.94 0 1.75 0 2.55-.08a.42.42 0 0 1 0 .6h-.38c-1 .12-1 .79-1 2z" class="h"/>
  <path d="M195.12 285.86c-.62 0-.65 0-.65.64 0 2.43 1.42 4.49 4 4.49a2.58 2.58 0 0 0 2.2-1.17.32.32 0 0 1 .44.28 4.2 4.2 0 0 1-3.77 2.24 4.3 4.3 0 0 1-3.48-1.59 5.08 5.08 0 0 1-1-3.12c0-2.95 1.94-5.42 4.82-5.42a3.14 3.14 0 0 1 3.41 2.85 1.71 1.71 0 0 1-.09.63c-.08.14-.41.17-1.42.17zm1.49-.72c1.77 0 2.3-.1 2.49-.24s.15-.15.15-.46c0-.67-.46-1.51-1.85-1.51a2.8 2.8 0 0 0-2.66 2.07s0 .12.16.12zm6.93-.03c0-.93 0-1.05-.64-1.49l-.22-.14a.32.32 0 0 1 0-.43 14.32 14.32 0 0 0 2.38-1.3.28.28 0 0 1 .29.17 10.38 10.38 0 0 0-.1 1.1c0 .17 0 .32.22.32a7.51 7.51 0 0 1 3.36-1.13c2.42 0 4 2 4 4.39a5.59 5.59 0 0 1-5.83 5.74 8.56 8.56 0 0 1-1.32-.1c-.22 0-.34.17-.34.67v2.52c0 1.71.05 1.92.91 2l.94.12a.42.42 0 0 1 0 .6c-1.15-.05-1.85-.07-2.69-.07s-1.58 0-2.25.07a.42.42 0 0 1-.05-.6l.5-.07c.89-.12.91-.36.91-2.09zm1.78 4.47A1.56 1.56 0 0 0 206 291a3.14 3.14 0 0 0 1.73.52c2 0 3.12-1.82 3.12-4.32 0-1.92-1.08-3.86-3.24-3.86a2.94 2.94 0 0 0-2 .67 2.13 2.13 0 0 0-.29 1.42zm10.46-11.12c0-1.41 0-1.56-.74-2l-.24-.14a.36.36 0 0 1 0-.48 18.48 18.48 0 0 0 2.59-1 .27.27 0 0 1 .24.14c0 .72-.07 1.92-.07 3v5c0 .22 0 .41.1.46a5.38 5.38 0 0 1 3.24-1.25 2.79 2.79 0 0 1 3.1 3.11v4c0 1.73.05 2 .91 2.09l.65.07a.42.42 0 0 1 0 .6c-.86 0-1.56-.07-2.4-.07s-1.58 0-2.23.07a.43.43 0 0 1-.05-.6l.48-.07c.89-.14.92-.36.92-2.09v-3.43c0-1.54-.75-2.57-2.28-2.57a2.91 2.91 0 0 0-1.88.65c-.43.36-.5.48-.5 1.32v4c0 1.73 0 2 .91 2.09l.51.07a.43.43 0 0 1 0 .6c-.72 0-1.42-.07-2.26-.07s-1.58 0-2.35.07a.42.42 0 0 1 0-.6l.6-.07c.89-.1.91-.36.91-2.09zm13.37 7.4c-.62 0-.65 0-.65.64 0 2.43 1.42 4.49 4 4.49a2.61 2.61 0 0 0 2.21-1.17.31.31 0 0 1 .43.28 4.19 4.19 0 0 1-3.77 2.24 4.32 4.32 0 0 1-3.48-1.59 5.08 5.08 0 0 1-1-3.12c0-2.95 1.95-5.42 4.83-5.42a3.13 3.13 0 0 1 3.4 2.85 1.52 1.52 0 0 1-.09.63c-.07.14-.41.17-1.42.17zm1.49-.72c1.78 0 2.3-.1 2.5-.24s.14-.15.14-.46c0-.67-.46-1.51-1.85-1.51a2.81 2.81 0 0 0-2.66 2.07s0 .12.17.12zm19.97.69c0-1.63-.72-2.47-2.23-2.47a2.6 2.6 0 0 0-2 .84 1.89 1.89 0 0 0-.36 1.44v3.67c0 1.73 0 2 .92 2.09l.5.07a.42.42 0 0 1 0 .6c-.72 0-1.41-.07-2.25-.07s-1.52 0-2.19.07a.43.43 0 0 1 0-.6l.44-.07c.88-.14.91-.36.91-2.09v-3.48c0-1.61-.72-2.47-2.21-2.47a2.59 2.59 0 0 0-2 .86 1.88 1.88 0 0 0-.36 1.37v3.72c0 1.73 0 1.95.92 2.09l.43.07a.42.42 0 0 1-.05.6c-.65 0-1.34-.07-2.18-.07s-1.59 0-2.33.07a.42.42 0 0 1 0-.6l.58-.07c.88-.12.91-.36.91-2.09v-4.2c0-.93 0-1.05-.65-1.49l-.22-.14c-.09-.1-.09-.36 0-.43a13.7 13.7 0 0 0 2.4-1.18.28.28 0 0 1 .26.17v1.13a.25.25 0 0 0 .27.26 5.74 5.74 0 0 1 3.19-1.22 2.73 2.73 0 0 1 2.54 1.41.72.72 0 0 0 .6-.19 6 6 0 0 1 3.27-1.22 2.71 2.71 0 0 1 2.86 3v4.13c0 1.73 0 2 .91 2.09l.57.07a.42.42 0 0 1 0 .6c-.8 0-1.49-.07-2.33-.07s-1.52 0-2.19.07a.43.43 0 0 1 0-.6l.44-.07c.88-.14.91-.36.91-2.09zm6.93.03c-.62 0-.64 0-.64.64 0 2.43 1.41 4.49 4 4.49a2.61 2.61 0 0 0 2.21-1.17.31.31 0 0 1 .43.28 4.19 4.19 0 0 1-3.77 2.24 4.32 4.32 0 0 1-3.48-1.59 5.08 5.08 0 0 1-1-3.12c0-2.95 1.95-5.42 4.83-5.42a3.14 3.14 0 0 1 3.41 2.85 1.46 1.46 0 0 1-.1.63c-.07.14-.41.17-1.42.17zm1.49-.72c1.78 0 2.31-.1 2.5-.24s.14-.15.14-.46c0-.67-.45-1.51-1.85-1.51a2.81 2.81 0 0 0-2.66 2.09s0 .12.17.12zm7.25-.03c0-.93 0-1.05-.65-1.49l-.21-.14a.32.32 0 0 1 0-.43 19.82 19.82 0 0 0 2.42-1.18c.12 0 .2.07.2.17v1.39c0 .12 0 .19.07.22a4.82 4.82 0 0 1 2.64-1.44 1 1 0 0 1 1.08 1 1.06 1.06 0 0 1-1 1.1.91.91 0 0 1-.53-.17 2 2 0 0 0-1.06-.38 1.07 1.07 0 0 0-.86.48 3.66 3.66 0 0 0-.31 1.85v3.26c0 1.73 0 2 1 2.09l.86.07a.42.42 0 0 1 0 .6c-1.13 0-1.82-.07-2.66-.07s-1.59 0-2.21.07a.42.42 0 0 1-.05-.6l.46-.07c.89-.14.91-.36.91-2.09zm11.3 1.89c.36-.12.41-.33.41-.69v-1.11c0-.89-.27-2.09-1.76-2.09-.67 0-1.49.34-1.53 1.08 0 .39 0 .68-.24.82a2.58 2.58 0 0 1-1.37.46.31.31 0 0 1-.34-.34c0-1.25 2.71-2.95 4.47-2.95s2.57 1 2.49 2.81l-.14 4.17c0 1.11.17 2.09 1.1 2.09a1.4 1.4 0 0 0 .6-.14.83.83 0 0 1 .32-.17c.09 0 .16.14.16.31a2.51 2.51 0 0 1-2 1.06 1.91 1.91 0 0 1-1.56-.75c-.1-.14-.24-.33-.39-.33a3.6 3.6 0 0 0-.93.48 3.66 3.66 0 0 1-1.73.6 2.48 2.48 0 0 1-1.68-.56 2.21 2.21 0 0 1-.75-1.68c0-.93.46-1.48 2-2zm-1.49 4.23a2.73 2.73 0 0 0 1.47-.6c.29-.29.29-.63.31-1.13v-1.42c0-.26-.1-.31-.24-.31a5 5 0 0 0-1 .24c-1.41.48-2.11.84-2.11 1.78a1.45 1.45 0 0 0 1.57 1.47zm9.39-1.92c0 1.73.05 2 .91 2.09l.58.07a.42.42 0 0 1-.05.6c-.79 0-1.49-.07-2.33-.07s-1.58 0-2.3.07a.42.42 0 0 1 0-.6l.55-.07c.89-.12.91-.36.91-2.09v-10.85c0-1.41 0-1.56-.74-2l-.24-.14a.36.36 0 0 1 0-.48 18.48 18.48 0 0 0 2.59-1 .27.27 0 0 1 .24.14c0 .72-.07 1.92-.07 3zm14.62-6.67a5.77 5.77 0 0 1 .38 1.94.43.43 0 0 1-.58.08 2.34 2.34 0 0 0-2.11-1.76 1.42 1.42 0 0 0-1.54 1.47c0 1 1 1.51 1.85 2 1.28.72 2.45 1.54 2.45 3.24s-1.68 2.74-3.46 2.74a4 4 0 0 1-2.56-.72 6.94 6.94 0 0 1-.29-2.43.4.4 0 0 1 .55 0c.41 1.32 1.18 2.47 2.54 2.47a1.48 1.48 0 0 0 1.61-1.54c0-1.1-1-1.7-1.85-2.2-1.39-.8-2.37-1.64-2.37-3 0-1.75 1.44-2.73 3.26-2.73a4.32 4.32 0 0 1 2.12.44zm9.98-.02a1.35 1.35 0 0 1 .36 1c0 .43-.24.88-.53.88a.39.39 0 0 1-.33-.16 3.29 3.29 0 0 0-2.41-1.28c-1.67 0-3.31 1.32-3.31 3.87a4 4 0 0 0 3.87 4.1 2.91 2.91 0 0 0 2.66-1.44.37.37 0 0 1 .43.34 4.37 4.37 0 0 1-4 2.45 4.62 4.62 0 0 1-3.28-1.23 4.77 4.77 0 0 1-1.4-3.55c0-2.59 1.83-5.35 5.81-5.35a5.94 5.94 0 0 1 2.13.37zm6.48 4.38c.36-.12.41-.33.41-.69v-1.11c0-.89-.26-2.09-1.75-2.09-.67 0-1.49.34-1.54 1.08 0 .39 0 .68-.24.82a2.58 2.58 0 0 1-1.37.46.3.3 0 0 1-.33-.34c0-1.25 2.71-2.95 4.46-2.95s2.57 1 2.5 2.81l-.15 4.17c0 1.11.17 2.09 1.11 2.09a1.43 1.43 0 0 0 .6-.14.89.89 0 0 1 .31-.17c.1 0 .17.14.17.31a2.52 2.52 0 0 1-2 1.06 1.93 1.93 0 0 1-1.56-.75c-.09-.14-.24-.33-.38-.33a3.45 3.45 0 0 0-.94.48 3.62 3.62 0 0 1-1.73.6 2.5 2.5 0 0 1-1.68-.56 2.24 2.24 0 0 1-.74-1.68c0-.93.46-1.48 2-2zm-1.49 4.23a2.7 2.7 0 0 0 1.46-.6c.29-.29.29-.63.32-1.13v-1.42c0-.26-.09-.31-.24-.31a4.8 4.8 0 0 0-1 .24c-1.42.48-2.11.84-2.11 1.78a1.45 1.45 0 0 0 1.57 1.47zm9.38-1.92c0 1.73.05 2 .92 2.09l.57.07a.42.42 0 0 1-.05.6c-.79 0-1.48-.07-2.32-.07s-1.59 0-2.31.07a.43.43 0 0 1 0-.6l.56-.07c.88-.12.91-.36.91-2.09v-10.85c0-1.41 0-1.56-.75-2l-.24-.14a.36.36 0 0 1 0-.48 19 19 0 0 0 2.6-1 .28.28 0 0 1 .24.14c0 .72-.08 1.92-.08 3zm7.73-2.31c.36-.12.41-.33.41-.69v-1.11c0-.89-.26-2.09-1.75-2.09-.67 0-1.49.34-1.53 1.08 0 .39-.05.68-.24.82a2.58 2.58 0 0 1-1.37.46.31.31 0 0 1-.34-.34c0-1.25 2.71-2.95 4.47-2.95s2.57 1 2.49 2.81l-.14 4.17c0 1.11.17 2.09 1.1 2.09a1.4 1.4 0 0 0 .6-.14.89.89 0 0 1 .31-.17c.1 0 .17.14.17.31a2.51 2.51 0 0 1-2 1.06 1.9 1.9 0 0 1-1.56-.75c-.1-.14-.24-.33-.39-.33a3.45 3.45 0 0 0-.93.48 3.66 3.66 0 0 1-1.73.6 2.48 2.48 0 0 1-1.68-.56 2.21 2.21 0 0 1-.75-1.68c0-.93.46-1.48 2-2zm-1.49 4.23a2.73 2.73 0 0 0 1.47-.6c.29-.29.29-.63.31-1.13l.05-1.42c0-.26-.1-.31-.24-.31a4.85 4.85 0 0 0-1 .24c-1.41.48-2.11.84-2.11 1.78a1.45 1.45 0 0 0 1.52 1.47zm7.85-6.12c0-.93 0-1.05-.65-1.49l-.21-.14a.32.32 0 0 1 0-.43 19.93 19.93 0 0 0 2.43-1.18c.12 0 .19.07.19.17v1.39c0 .12 0 .19.07.22a4.82 4.82 0 0 1 2.64-1.44 1 1 0 0 1 1.08 1 1.06 1.06 0 0 1-1 1.1.91.91 0 0 1-.53-.17 2 2 0 0 0-1.06-.38 1.07 1.07 0 0 0-.86.48 3.66 3.66 0 0 0-.31 1.85v3.26c0 1.73.05 2 1 2.09l.86.07a.42.42 0 0 1 0 .6c-1.12 0-1.82-.07-2.66-.07s-1.58 0-2.21.07a.43.43 0 0 1-.05-.6l.46-.07c.89-.14.91-.36.91-2.09zm16.25.75h-9.24v-1.18h9.24zm0 3.6h-9.24v-1.18h9.24zm4.49-3.6c-.63 0-.65 0-.65.64 0 2.43 1.42 4.49 4 4.49a2.58 2.58 0 0 0 2.21-1.17.31.31 0 0 1 .43.28 4.18 4.18 0 0 1-3.76 2.24 4.3 4.3 0 0 1-3.48-1.59 5.08 5.08 0 0 1-1-3.12c0-2.95 1.94-5.42 4.82-5.42a3.14 3.14 0 0 1 3.41 2.85 1.46 1.46 0 0 1-.1.63c-.07.14-.4.17-1.41.17zm1.49-.72c1.77 0 2.3-.1 2.49-.24s.15-.15.15-.46c0-.67-.46-1.51-1.85-1.51a2.82 2.82 0 0 0-2.67 2.09s0 .12.17.12zm-104.5 115.33a.43.43 0 0 1 0 .6c-1.11-.05-2-.07-3-.07s-2.23 0-3.1.07a.51.51 0 0 1 0-.6l.69-.07c.56 0 .82-.14.82-.31s0-.39-.53-1.06c-1-1.46-2.37-3.45-3.43-4.82a55.67 55.67 0 0 0-3.39 5.11 2 2 0 0 0-.31.77c0 .14.22.26.7.31l.65.07a.44.44 0 0 1 0 .6c-.86-.05-1.77-.07-2.59-.07s-1.7 0-2.47.07a.38.38 0 0 1-.07-.6l.6-.07a4.43 4.43 0 0 0 2.85-2.14c.29-.38 2-2.49 3.27-4.41a1.07 1.07 0 0 0 .21-.48 1.28 1.28 0 0 0-.29-.55l-3.6-5.16c-.79-1.13-1.24-1.61-2.08-1.81l-.77-.16c-.12-.15-.1-.53 0-.6 1.12 0 1.92.07 2.78.07s2 0 2.71-.07c.17.07.19.43.05.6h-.67c-.43 0-.72.17-.72.32a3.64 3.64 0 0 0 .72 1.32c.79 1.15 2.21 3.31 3.07 4.39.62-.77 2.78-4.18 3.22-4.9a2 2 0 0 0 .33-.79c0-.12-.36-.26-.79-.31l-.62-.07c-.15-.17-.15-.51 0-.6.85 0 1.61.07 2.55.07s1.56 0 2.3-.07a.44.44 0 0 1 0 .6h-.57c-.72.08-1.59.8-2.57 2s-2 2.65-3.12 4.25a1.3 1.3 0 0 0-.24.46c0 .07 0 .24.31.62l4.06 5.72c.81 1.12 1.44 1.51 2.18 1.58z"/>
  <path d="M263.3 399.51a3.38 3.38 0 0 0 2.26-.53 3.15 3.15 0 0 0 .76-1 .49.49 0 0 1 .53.14 10.68 10.68 0 0 1-1.1 2.93c-1-.05-2-.07-3.1-.07h-3.48c-1.34 0-2.13 0-2.66.07a.34.34 0 0 1-.17-.31c0-.07.12-.17.26-.26a19.79 19.79 0 0 0 3.68-3.46c1.58-1.7 3.43-4 3.43-6.6 0-2.19-1.06-3.51-3-3.51a3.52 3.52 0 0 0-3.12 2.4.39.39 0 0 1-.59-.31 5.06 5.06 0 0 1 4.83-3.38 3.73 3.73 0 0 1 4 3.91c0 1.49-.7 3.12-2.57 5.28l-1.47 1.68c-2 2.26-2.18 2.64-2.18 2.79s.12.21.74.21zm7.56-12.74c.12-.39.24-.6.62-.65l5.79-.82c.14 0 .21.12.21.22a4.14 4.14 0 0 1-.86 1.49l-4.54.65c-.55.07-.67.19-.81.64l-.43 1.44c-.1.29 0 .41.33.43l.51.05c3 .29 6.36 1.61 6.36 5.26 0 4.15-4.78 7-8.6 7.15-.26-.09-.28-.57-.07-.74 3.72-.22 6.89-2.5 6.89-5.79s-3.62-4.27-6.46-4.32c-.36 0-.38-.19-.21-.74zm12 0c.12-.39.24-.6.62-.65l5.79-.82c.14 0 .21.12.21.22a4.14 4.14 0 0 1-.86 1.49l-4.54.65c-.55.07-.67.19-.81.64l-.43 1.44c-.1.29 0 .41.33.43l.51.05c3 .29 6.36 1.61 6.36 5.26 0 4.15-4.78 7-8.6 7.15-.26-.09-.28-.57-.07-.74 3.72-.22 6.89-2.5 6.89-5.79s-3.62-4.27-6.46-4.32c-.36 0-.38-.19-.21-.74zm14.14 3.14c0-1.63-.08-2.16-1.16-2.25l-1.15-.1a.32.32 0 0 1 0-.53 11.13 11.13 0 0 0 4-1.39.31.31 0 0 1 .24.12c-.05.43-.1 1.63-.1 3v9.31c0 1.85 0 2.26 1 2.33l1 .07c.15.15.12.53-.05.6-.93-.05-2-.07-2.85-.07s-1.95 0-2.88.07c-.17-.07-.19-.45-.05-.6l1-.07c1-.07 1-.48 1-2.33zm9.76-.24c0 1.87.94 4 2.76 4a3.77 3.77 0 0 0 1.06-.09.22.22 0 0 1 .07.29 3.35 3.35 0 0 1-2.16.69 3.76 3.76 0 0 1-3.65-4 4.79 4.79 0 0 1 4.92-4.9c3 0 4.78 2.59 4.78 6.12a10.8 10.8 0 0 1-3.53 7.92 12.4 12.4 0 0 1-5.71 2.76.4.4 0 0 1-.14-.55 11.61 11.61 0 0 0 3.55-1.68c2.21-1.63 3.69-4.11 3.69-8.64 0-2.19-.62-5.21-3-5.21-1.48-.02-2.64 1.16-2.64 3.29zM237 420.44a5.54 5.54 0 0 1 .39 1.94.43.43 0 0 1-.58.08 2.35 2.35 0 0 0-2.11-1.76 1.42 1.42 0 0 0-1.54 1.47c0 1 1 1.51 1.85 2 1.27.72 2.45 1.54 2.45 3.24s-1.68 2.74-3.46 2.74a4 4 0 0 1-2.57-.72 7.21 7.21 0 0 1-.28-2.43.4.4 0 0 1 .55 0c.4 1.32 1.17 2.47 2.54 2.47a1.48 1.48 0 0 0 1.61-1.54c0-1.1-1-1.7-1.85-2.2-1.39-.8-2.37-1.64-2.37-3 0-1.75 1.43-2.73 3.26-2.73a4.24 4.24 0 0 1 2.11.44zm10-.02a1.35 1.35 0 0 1 .36 1c0 .43-.24.88-.53.88a.43.43 0 0 1-.34-.17 3.29 3.29 0 0 0-2.4-1.27c-1.68 0-3.31 1.32-3.31 3.87a3.94 3.94 0 0 0 3.86 4.1 2.92 2.92 0 0 0 2.67-1.44.37.37 0 0 1 .43.34 4.39 4.39 0 0 1-4 2.45 4.65 4.65 0 0 1-3.29-1.23 4.76 4.76 0 0 1-1.39-3.55c0-2.59 1.82-5.35 5.81-5.35a6 6 0 0 1 2.13.37zm6.49 4.41c.36-.12.4-.33.4-.69v-1.11c0-.89-.27-2.09-1.75-2.09-.68 0-1.49.34-1.54 1.08 0 .39 0 .68-.24.82a2.56 2.56 0 0 1-1.37.45.3.3 0 0 1-.33-.33c0-1.25 2.71-2.95 4.46-2.95s2.57 1 2.5 2.81l-.12 4.18c0 1.11.17 2.09 1.11 2.09a1.43 1.43 0 0 0 .6-.14.89.89 0 0 1 .31-.17c.09 0 .17.14.17.31a2.52 2.52 0 0 1-2 1.06 1.91 1.91 0 0 1-1.56-.75c-.1-.14-.24-.33-.38-.33a3.45 3.45 0 0 0-.94.48 3.66 3.66 0 0 1-1.73.6 2.5 2.5 0 0 1-1.68-.56 2.2 2.2 0 0 1-.74-1.68c0-.93.45-1.48 2-2zm-1.49 4.23a2.7 2.7 0 0 0 1.46-.6c.29-.29.29-.63.31-1.13v-1.42c0-.26-.09-.31-.24-.31a4.8 4.8 0 0 0-1 .24c-1.42.48-2.11.84-2.11 1.78a1.44 1.44 0 0 0 1.58 1.44zm9.38-1.95c0 1.73.05 2 .91 2.09l.58.07a.42.42 0 0 1-.05.6c-.79-.05-1.49-.07-2.33-.07s-1.58 0-2.3.07a.42.42 0 0 1 0-.6l.55-.07c.89-.12.91-.36.91-2.09v-10.85c0-1.41 0-1.56-.74-2l-.24-.14a.36.36 0 0 1 0-.48 18.48 18.48 0 0 0 2.59-1 .27.27 0 0 1 .24.14c0 .72-.07 1.92-.07 3zm7.73-2.28c.36-.12.41-.33.41-.69v-1.11c0-.89-.26-2.09-1.75-2.09-.67 0-1.49.34-1.54 1.08 0 .39-.05.68-.24.82a2.56 2.56 0 0 1-1.37.45.3.3 0 0 1-.33-.33c0-1.25 2.71-2.95 4.46-2.95s2.57 1 2.5 2.81l-.15 4.17c0 1.11.17 2.09 1.11 2.09a1.4 1.4 0 0 0 .6-.14.89.89 0 0 1 .31-.17c.1 0 .17.14.17.31a2.52 2.52 0 0 1-2 1.06 1.93 1.93 0 0 1-1.56-.75c-.09-.14-.24-.33-.38-.33a3.45 3.45 0 0 0-.94.48 3.62 3.62 0 0 1-1.73.6 2.5 2.5 0 0 1-1.68-.56 2.24 2.24 0 0 1-.74-1.68c0-.93.46-1.48 2-2zm-1.49 4.23a2.7 2.7 0 0 0 1.46-.6c.29-.29.29-.63.32-1.13v-1.42c0-.26-.09-.31-.23-.31a4.7 4.7 0 0 0-1 .24c-1.42.48-2.11.84-2.11 1.78a1.45 1.45 0 0 0 1.56 1.44zm7.85-6.15c0-.93 0-1.05-.65-1.49l-.22-.14c-.09-.1-.09-.36 0-.43a18.46 18.46 0 0 0 2.42-1.18c.12 0 .19.07.19.17v1.39c0 .12 0 .19.08.22A4.82 4.82 0 0 1 280 420a1 1 0 0 1 1.08 1 1.06 1.06 0 0 1-1 1.1.85.85 0 0 1-.52-.17 2 2 0 0 0-1.06-.38 1.07 1.07 0 0 0-.86.48 3.62 3.62 0 0 0-.32 1.85v3.26c0 1.73 0 2 1 2.09l.87.07a.42.42 0 0 1 0 .6c-1.13-.05-1.82-.07-2.66-.07s-1.59 0-2.21.07a.42.42 0 0 1-.05-.6l.46-.07c.88-.14.91-.36.91-2.09zm20.69.72c0-1.63-.72-2.47-2.23-2.47a2.6 2.6 0 0 0-2 .84 1.89 1.89 0 0 0-.36 1.44v3.67c0 1.73.05 2 .91 2.09l.51.07a.42.42 0 0 1-.05.6c-.72-.05-1.42-.07-2.26-.07s-1.51 0-2.18.07a.42.42 0 0 1-.05-.6l.43-.07c.89-.14.92-.36.92-2.09v-3.48c0-1.61-.72-2.47-2.21-2.47a2.58 2.58 0 0 0-2 .86 1.88 1.88 0 0 0-.36 1.37v3.72c0 1.73 0 1.95.91 2.09l.44.07a.43.43 0 0 1-.05.6c-.65-.05-1.35-.07-2.19-.07s-1.58 0-2.32.07a.42.42 0 0 1-.05-.6l.57-.07c.89-.12.92-.36.92-2.09v-4.2c0-.93 0-1.05-.65-1.49l-.22-.14c-.09-.1-.09-.36 0-.43a13 13 0 0 0 2.4-1.18.28.28 0 0 1 .26.17v1.13a.25.25 0 0 0 .27.26 5.74 5.74 0 0 1 3.19-1.22 2.73 2.73 0 0 1 2.54 1.41.72.72 0 0 0 .6-.19 6 6 0 0 1 3.27-1.22 2.71 2.71 0 0 1 2.85 3v4.13c0 1.73 0 2 .92 2.09l.57.07a.42.42 0 0 1 0 .6c-.79-.05-1.48-.07-2.32-.07s-1.52 0-2.19.07a.43.43 0 0 1-.05-.6l.44-.07c.88-.14.91-.36.91-2.09zm7.63 2.64c0 1.66.41 2.76 2.23 2.76a3.08 3.08 0 0 0 1.94-.72 1.65 1.65 0 0 0 .48-1.39V423c0-1.56-.16-1.6-.88-1.89l-.32-.12a.33.33 0 0 1 0-.53 9.49 9.49 0 0 0 2.81-.43c.12 0 .19.07.21.16 0 .46-.07 1.21-.07 2.09v4c0 1.89.07 2.61.74 2.61a4.75 4.75 0 0 0 .94-.12c.14.12.17.6 0 .7a12.27 12.27 0 0 0-3.15.89.35.35 0 0 1-.29-.17v-1c0-.21-.07-.33-.21-.33a6.34 6.34 0 0 1-3.31 1.25c-2.12 0-2.91-1.06-2.91-3v-4c0-1.51 0-1.73-.72-2L301 421c-.14-.12-.12-.46.05-.53a8.43 8.43 0 0 0 2.57-.43c.14 0 .22.07.24.16a17.92 17.92 0 0 0-.07 2.09zm12.36.84c0 1.73 0 2 .91 2.09l.58.07a.43.43 0 0 1 0 .6c-.79-.05-1.49-.07-2.33-.07s-1.58 0-2.3.07a.42.42 0 0 1-.05-.6l.55-.07c.89-.12.91-.36.91-2.09v-10.85c0-1.41 0-1.56-.74-2l-.24-.14a.36.36 0 0 1 0-.48 18.48 18.48 0 0 0 2.59-1 .27.27 0 0 1 .24.14c0 .72-.07 1.92-.07 3zm6.36-5.76c-.41 0-.43.07-.43.58v4.49c0 1.39.16 2.66 1.75 2.66a1.93 1.93 0 0 0 .65-.12c.21-.07.52-.34.6-.34s.28.27.24.41a3.33 3.33 0 0 1-2.52 1.11c-2.07 0-2.5-1.16-2.5-2.6v-5.49c0-.65 0-.7-.51-.7h-.67a.41.41 0 0 1-.07-.5 4.74 4.74 0 0 0 1.54-.75 6 6 0 0 0 1-1.41.44.44 0 0 1 .5.12v1.08c0 .43 0 .45.43.45h2.67a.77.77 0 0 1 0 1zm-78.98 32.72c0 .18-.07.25-.25.26a10 10 0 0 1 0-15.59c.18 0 .25.09.25.27a11.62 11.62 0 0 0 0 15.06zm2.07-8.49c0-.48 0-.52-.36-.52h-.63a.24.24 0 0 1 0-.34l.77-.38a.4.4 0 0 0 .27-.36 7.64 7.64 0 0 1 .56-3 3.83 3.83 0 0 1 3.49-2.43c1.23 0 2.23.64 2.23 1.4a.73.73 0 0 1-.73.74.51.51 0 0 1-.47-.27 2.13 2.13 0 0 0-1.69-1.19c-1.41 0-2.06 1.55-2.06 4.34v.2c0 .45 0 .56.35.56h2a9.34 9.34 0 0 0 2.36-.27.21.21 0 0 1 .18.09c0 .64-.07 1.51-.07 2.25v3c0 1.3 0 1.48.68 1.57l.38.05a.32.32 0 0 1 0 .45c-.54 0-1.07-.05-1.7-.05s-1.19 0-1.69.05c-.13-.05-.16-.36 0-.45l.38-.05c.67-.09.69-.27.69-1.57v-3.13c0-1.1-.13-1.19-.9-1.19h-2.25c-.31 0-.35.13-.35.56v3.76c0 1.3 0 1.52.69 1.57l.57.05a.32.32 0 0 1 0 .45c-.74 0-1.26-.05-1.89-.05s-1.19 0-1.73.05c-.13-.05-.16-.36 0-.45l.42-.05c.66-.09.68-.27.68-1.57zm9.25-.05a1.57 1.57 0 0 0-1.08-.77l-.29-.06c-.1-.09-.09-.39 0-.45.7 0 1.12.06 1.57.06s.83 0 1.53-.06a.35.35 0 0 1 0 .45l-.27.06c-.49.09-.47.19-.17.63l.87 1.26a3.24 3.24 0 0 0 .23.3c.07-.05.67-.95 1-1.53s.25-.56-.15-.66l-.21-.06a.31.31 0 0 1 .07-.45c.41 0 .88.06 1.31.06s1 0 1.32-.06a.32.32 0 0 1 0 .45l-.27.06a2.13 2.13 0 0 0-.9.3 16.21 16.21 0 0 0-1.69 2.06c-.22.28-.22.34 0 .66l1.67 2.36c.42.58.7.81 1.19.85h.42c.11.11.09.4 0 .45-.66 0-1.26-.05-1.78-.05-.67 0-1.13 0-1.71.05a.3.3 0 0 1 0-.45l.49.01c.52-.05.54-.22.3-.54l-.93-1.35a2.77 2.77 0 0 0-.4-.52 2.73 2.73 0 0 0-.32.43l-.76 1.19c-.36.57-.39.72.06.79l.3.05c.11.09.09.4 0 .45-.45 0-.9-.05-1.34-.05s-.84 0-1.31.05a.3.3 0 0 1 0-.45l.42-.07a1.54 1.54 0 0 0 .9-.54c.38-.39 1.19-1.6 1.6-2.1.16-.2.2-.27 0-.47zm8.34 1.26c-.47 0-.49 0-.49.49 0 1.82 1.06 3.36 3 3.36a2 2 0 0 0 1.66-.88.24.24 0 0 1 .32.22 3.15 3.15 0 0 1-2.83 1.67 3.22 3.22 0 0 1-2.61-1.19 4.08 4.08 0 0 1 2.87-6.41 2.36 2.36 0 0 1 2.55 2.15 1.1 1.1 0 0 1-.07.47c-.05.1-.31.12-1.06.12zm1.11-.54c1.34 0 1.73-.07 1.88-.18s.1-.11.1-.34c0-.51-.34-1.14-1.38-1.14a2.13 2.13 0 0 0-2 1.57s0 .09.13.09zm11.31 2.52c0 1.42 0 2.09.52 2.09a3 3 0 0 0 .78-.18c.12 0 .14.49 0 .58a12.62 12.62 0 0 0-2.38.57c-.11 0-.2-.05-.2-.14v-.31a2.46 2.46 0 0 0 0-.56h-.08a3.73 3.73 0 0 1-2.26.83 3.31 3.31 0 0 1-3.34-3.45 4.09 4.09 0 0 1 4.36-4.15 3.47 3.47 0 0 1 1.21.17c.09 0 .11-.11.11-.26v-2.71c0-1.07 0-1.17-.56-1.5l-.18-.11a.27.27 0 0 1 0-.36 12.51 12.51 0 0 0 1.94-.75.19.19 0 0 1 .18.1v2.24zm-1.33-2.7a1.08 1.08 0 0 0-.2-.7 1.87 1.87 0 0 0-1.51-.76c-1.64 0-2.49 1.43-2.49 3s.92 3.19 2.68 3.19a2.2 2.2 0 0 0 1.39-.51 1 1 0 0 0 .13-.66zm7.77.93a.64.64 0 0 1 .27.58.71.71 0 0 1-.14.45l-4.2.4a.76.76 0 0 1-.27-.58.72.72 0 0 1 .15-.45zm2.2-5.75c0-1.07 0-1.17-.56-1.5l-.18-.11a.27.27 0 0 1 0-.36 16.06 16.06 0 0 0 2-.75.2.2 0 0 1 .18.1c0 .63-.07 1.45-.07 2.24v3.4c0 .31.07.38.18.38a4.17 4.17 0 0 1 2.07-.6 3.38 3.38 0 0 1 3.44 3.53 3.94 3.94 0 0 1-4.14 4.07 5.08 5.08 0 0 1-1.53-.23 3.85 3.85 0 0 0-.76-.24c-.14 0-.29.15-.38.27s0 0-.07 0a.19.19 0 0 1-.18-.11v-1.53zm1.33 7.7a2.48 2.48 0 0 0 .45 1.57 1.7 1.7 0 0 0 1.37.59c1.69 0 2.36-1.44 2.36-3 0-1.85-1-3.29-2.74-3.29a2.32 2.32 0 0 0-1.23.29c-.18.12-.21.32-.21 1zm10.58-1.28c.27-.09.31-.25.31-.52v-.83c0-.66-.2-1.56-1.32-1.56-.5 0-1.11.25-1.15.81 0 .28 0 .5-.18.61a2 2 0 0 1-1 .34.23.23 0 0 1-.25-.25c0-.94 2-2.22 3.35-2.22s1.93.76 1.87 2.11l-.1 3.13c0 .83.12 1.57.82 1.57a.93.93 0 0 0 .45-.11.76.76 0 0 1 .24-.12c.07 0 .12.1.12.23a1.89 1.89 0 0 1-1.51.79 1.43 1.43 0 0 1-1.17-.56c-.07-.1-.18-.25-.29-.25a2.79 2.79 0 0 0-.7.36 2.6 2.6 0 0 1-1.3.45 1.87 1.87 0 0 1-1.26-.41 1.7 1.7 0 0 1-.55-1.26c0-.7.34-1.12 1.49-1.53zm-1.11 3.17a2 2 0 0 0 1.1-.45c.21-.21.21-.47.23-.84v-1.07c0-.19-.08-.23-.18-.23a3.22 3.22 0 0 0-.74.18c-1.07.36-1.59.63-1.59 1.33a1.09 1.09 0 0 0 1.18 1.08zm9.05-6.46a4.21 4.21 0 0 1 .29 1.46.31.31 0 0 1-.43.05 1.76 1.76 0 0 0-1.59-1.31 1.06 1.06 0 0 0-1.15 1.09c0 .74.76 1.14 1.39 1.5.95.54 1.83 1.15 1.83 2.43s-1.26 2-2.59 2a3 3 0 0 1-1.93-.54 5.35 5.35 0 0 1-.21-1.82.31.31 0 0 1 .41 0c.31 1 .88 1.85 1.91 1.85a1.11 1.11 0 0 0 1.21-1.15c0-.83-.72-1.28-1.39-1.66-1-.59-1.78-1.22-1.78-2.21 0-1.32 1.08-2.06 2.45-2.06a3.09 3.09 0 0 1 1.58.37zm3.22 2.41c-.47 0-.48 0-.48.49 0 1.82 1.06 3.36 3 3.36a1.94 1.94 0 0 0 1.65-.88.25.25 0 0 1 .33.22 3.16 3.16 0 0 1-2.83 1.67 3.21 3.21 0 0 1-2.61-1.19 4.07 4.07 0 0 1 2.86-6.41 2.37 2.37 0 0 1 2.56 2.15 1.3 1.3 0 0 1-.07.47c-.06.1-.31.12-1.07.12zm1.12-.54c1.33 0 1.73-.07 1.87-.18s.11-.11.11-.34c0-.51-.34-1.14-1.39-1.14a2.13 2.13 0 0 0-2 1.57s0 .09.13.09zm4.03-7.25c0-.18.07-.25.25-.27a10 10 0 0 1 0 15.59c-.18 0-.25-.08-.25-.26a11.62 11.62 0 0 0 0-15.06zm145.8-162.53a.43.43 0 0 1 0 .6c-1.11 0-2-.07-3-.07s-2.23 0-3.1.07a.51.51 0 0 1 0-.6l.69-.07c.56-.05.82-.14.82-.31s0-.39-.53-1.06c-1-1.46-2.37-3.45-3.43-4.82a55.67 55.67 0 0 0-3.39 5.11 2 2 0 0 0-.31.77c0 .14.22.26.7.31l.65.07a.44.44 0 0 1 0 .6c-.86 0-1.77-.07-2.59-.07s-1.7 0-2.47.07a.38.38 0 0 1-.07-.6l.6-.07a4.43 4.43 0 0 0 2.85-2.14c.29-.38 1.95-2.49 3.27-4.41a1.07 1.07 0 0 0 .21-.48 1.28 1.28 0 0 0-.29-.55l-3.6-5.16c-.79-1.13-1.24-1.61-2.08-1.81l-.77-.16c-.12-.15-.1-.53.05-.6 1.12 0 1.92.07 2.78.07s2 0 2.71-.07c.17.07.19.43 0 .6h-.67c-.43 0-.72.17-.72.32a3.64 3.64 0 0 0 .72 1.32c.79 1.15 2.21 3.31 3.07 4.39.62-.77 2.78-4.18 3.22-4.9a2 2 0 0 0 .33-.79c0-.12-.36-.26-.79-.31l-.62-.07c-.15-.17-.15-.51 0-.6.85 0 1.61.07 2.55.07s1.56 0 2.3-.07a.44.44 0 0 1 .05.6h-.57c-.72.08-1.59.8-2.57 2s-2 2.65-3.12 4.25a1.3 1.3 0 0 0-.24.46c0 .07 0 .24.31.62l4.06 5.72c.81 1.12 1.44 1.51 2.18 1.58z"/>
  <path d="M465.3 275.51a3.38 3.38 0 0 0 2.26-.53 3.15 3.15 0 0 0 .76-1 .49.49 0 0 1 .53.14 10.68 10.68 0 0 1-1.1 2.93c-1 0-2-.07-3.1-.07h-3.48c-1.34 0-2.13 0-2.66.07a.34.34 0 0 1-.17-.31c0-.07.12-.17.26-.26a19.79 19.79 0 0 0 3.68-3.46c1.58-1.7 3.43-4 3.43-6.6 0-2.19-1.06-3.51-3-3.51a3.52 3.52 0 0 0-3.12 2.4.39.39 0 0 1-.59-.31 5.06 5.06 0 0 1 4.83-3.38 3.73 3.73 0 0 1 4 3.91c0 1.49-.7 3.12-2.57 5.28l-1.47 1.68c-2 2.26-2.18 2.64-2.18 2.79s.12.21.74.21zm7.56-12.74c.12-.39.24-.6.62-.65l5.79-.82c.14 0 .21.12.21.22a4.14 4.14 0 0 1-.86 1.49l-4.54.65c-.55.07-.67.19-.81.64l-.43 1.44c-.1.29 0 .41.33.43l.51.05c3 .29 6.36 1.61 6.36 5.26 0 4.15-4.78 7-8.6 7.15-.26-.09-.28-.57-.07-.74 3.72-.22 6.89-2.5 6.89-5.79s-3.62-4.27-6.46-4.32c-.36 0-.38-.19-.21-.74zm12 0c.12-.39.24-.6.62-.65l5.79-.82c.14 0 .21.12.21.22a4.14 4.14 0 0 1-.86 1.49l-4.54.65c-.55.07-.67.19-.81.64l-.43 1.44c-.1.29 0 .41.33.43l.51.05c3 .29 6.36 1.61 6.36 5.26 0 4.15-4.78 7-8.6 7.15-.26-.09-.28-.57-.07-.74 3.72-.22 6.89-2.5 6.89-5.79s-3.62-4.27-6.46-4.32c-.36 0-.38-.19-.21-.74zm14.14 3.14c0-1.63-.08-2.16-1.16-2.25l-1.15-.1a.32.32 0 0 1 0-.53 11.13 11.13 0 0 0 4-1.39.31.31 0 0 1 .24.12c-.05.43-.1 1.63-.1 3v9.31c0 1.85.05 2.26 1 2.33l1 .07c.15.15.12.53-.05.6-.93 0-2-.07-2.85-.07s-2 0-2.88.07c-.17-.07-.19-.45 0-.6l1-.07c1-.07 1-.48 1-2.33zm9.76-.24c0 1.87.94 4 2.76 4a3.77 3.77 0 0 0 1.06-.09.22.22 0 0 1 .07.29 3.35 3.35 0 0 1-2.16.69 3.76 3.76 0 0 1-3.65-4.05 4.79 4.79 0 0 1 4.92-4.9c3 0 4.78 2.59 4.78 6.12a10.8 10.8 0 0 1-3.53 7.92 12.4 12.4 0 0 1-5.71 2.76.4.4 0 0 1-.14-.55 11.61 11.61 0 0 0 3.55-1.68c2.21-1.63 3.69-4.11 3.69-8.64 0-2.19-.62-5.21-2.95-5.21-1.53.03-2.69 1.21-2.69 3.34zM439 296.44a5.54 5.54 0 0 1 .39 1.94.43.43 0 0 1-.58.08 2.35 2.35 0 0 0-2.11-1.76 1.42 1.42 0 0 0-1.54 1.47c0 1 1 1.51 1.85 2 1.27.72 2.45 1.54 2.45 3.24s-1.68 2.74-3.46 2.74a4 4 0 0 1-2.57-.72 7.21 7.21 0 0 1-.28-2.43.4.4 0 0 1 .55 0c.4 1.32 1.17 2.47 2.54 2.47a1.48 1.48 0 0 0 1.61-1.54c0-1.1-1-1.7-1.85-2.2-1.39-.8-2.37-1.64-2.37-3 0-1.75 1.43-2.73 3.26-2.73a4.24 4.24 0 0 1 2.11.44zm10-.02a1.35 1.35 0 0 1 .36 1c0 .43-.24.88-.53.88a.43.43 0 0 1-.34-.17 3.29 3.29 0 0 0-2.4-1.27c-1.68 0-3.31 1.32-3.31 3.87a3.94 3.94 0 0 0 3.86 4.1 2.92 2.92 0 0 0 2.67-1.44.37.37 0 0 1 .43.34 4.39 4.39 0 0 1-4 2.45 4.65 4.65 0 0 1-3.29-1.23 4.76 4.76 0 0 1-1.39-3.55c0-2.59 1.82-5.35 5.81-5.35a6 6 0 0 1 2.13.37zm6.49 4.41c.36-.12.4-.33.4-.69v-1.11c0-.89-.27-2.09-1.75-2.09-.68 0-1.49.34-1.54 1.08 0 .39-.05.68-.24.82a2.56 2.56 0 0 1-1.37.45.3.3 0 0 1-.33-.33c0-1.25 2.71-3 4.46-3s2.57 1 2.5 2.81l-.12 4.23c-.05 1.11.17 2.09 1.11 2.09a1.43 1.43 0 0 0 .6-.14.89.89 0 0 1 .31-.17c.09 0 .17.14.17.31a2.52 2.52 0 0 1-2 1.06 1.91 1.91 0 0 1-1.56-.75c-.1-.14-.24-.33-.38-.33a3.45 3.45 0 0 0-.94.48 3.66 3.66 0 0 1-1.73.6 2.5 2.5 0 0 1-1.68-.56 2.2 2.2 0 0 1-.74-1.68c0-.93.45-1.48 2-2zm-1.49 4.23a2.7 2.7 0 0 0 1.46-.6c.29-.29.29-.63.31-1.13l.05-1.42c0-.26-.09-.31-.24-.31a4.8 4.8 0 0 0-1 .24c-1.42.48-2.11.84-2.11 1.78a1.44 1.44 0 0 0 1.53 1.44zm9.38-1.95c0 1.73.05 2 .91 2.09l.58.07a.42.42 0 0 1-.05.6c-.79-.05-1.49-.07-2.33-.07s-1.58 0-2.3.07a.42.42 0 0 1-.05-.6l.55-.07c.89-.12.91-.36.91-2.09v-10.85c0-1.41 0-1.56-.74-2l-.24-.14a.36.36 0 0 1 0-.48 18.48 18.48 0 0 0 2.59-1 .27.27 0 0 1 .24.14c0 .72-.07 1.92-.07 3zm7.73-2.28c.36-.12.41-.33.41-.69v-1.11c0-.89-.26-2.09-1.75-2.09-.67 0-1.49.34-1.54 1.08 0 .39-.05.68-.24.82a2.56 2.56 0 0 1-1.37.45.3.3 0 0 1-.33-.33c0-1.25 2.71-3 4.46-3s2.57 1 2.5 2.81l-.15 4.17c0 1.11.17 2.09 1.11 2.09a1.4 1.4 0 0 0 .6-.14.89.89 0 0 1 .31-.17c.1 0 .17.14.17.31a2.52 2.52 0 0 1-2 1.06 1.93 1.93 0 0 1-1.56-.75c-.09-.14-.24-.33-.38-.33a3.45 3.45 0 0 0-.94.48 3.62 3.62 0 0 1-1.73.6 2.5 2.5 0 0 1-1.68-.56 2.24 2.24 0 0 1-.74-1.68c0-.93.46-1.48 2-2zm-1.49 4.23a2.7 2.7 0 0 0 1.46-.6c.29-.29.29-.63.32-1.13v-1.42c0-.26-.09-.31-.23-.31a4.7 4.7 0 0 0-1 .24c-1.42.48-2.11.84-2.11 1.78a1.45 1.45 0 0 0 1.56 1.44zm7.85-6.15c0-.93 0-1-.65-1.49l-.22-.14c-.09-.1-.09-.36 0-.43a18.46 18.46 0 0 0 2.42-1.18c.12 0 .19.07.19.17v1.39c0 .12 0 .19.08.22A4.82 4.82 0 0 1 482 296a1 1 0 0 1 1.08 1 1.06 1.06 0 0 1-1 1.1.85.85 0 0 1-.52-.17 2 2 0 0 0-1.06-.38 1.07 1.07 0 0 0-.86.48 3.62 3.62 0 0 0-.32 1.85v3.26c0 1.73.05 2 1 2.09l.86.07a.42.42 0 0 1-.05.6c-1.13-.05-1.82-.07-2.66-.07s-1.59 0-2.21.07a.42.42 0 0 1 0-.6l.46-.07c.88-.14.91-.36.91-2.09zm20.69.72c0-1.63-.72-2.47-2.23-2.47a2.6 2.6 0 0 0-2 .84c-.29.36-.36.6-.36 1.44v3.67c0 1.73.05 2 .91 2.09l.51.07a.42.42 0 0 1-.05.6c-.72-.05-1.41-.07-2.26-.07s-1.51 0-2.18.07a.43.43 0 0 1-.05-.6l.43-.07c.89-.14.92-.36.92-2.09v-3.48c0-1.61-.72-2.47-2.21-2.47a2.58 2.58 0 0 0-2 .86 1.88 1.88 0 0 0-.36 1.37v3.72c0 1.73.05 1.95.91 2.09l.44.07a.43.43 0 0 1-.05.6c-.65-.05-1.35-.07-2.19-.07s-1.58 0-2.32.07a.42.42 0 0 1-.05-.6l.57-.07c.89-.12.92-.36.92-2.09v-4.2c0-.93 0-1-.65-1.49l-.22-.14c-.09-.1-.09-.36 0-.43a13 13 0 0 0 2.4-1.18.28.28 0 0 1 .26.17c-.05.55-.05.91-.05 1.13a.25.25 0 0 0 .27.26 5.74 5.74 0 0 1 3.19-1.22 2.73 2.73 0 0 1 2.54 1.41.72.72 0 0 0 .6-.19 6 6 0 0 1 3.27-1.22 2.71 2.71 0 0 1 2.85 3v4.13c0 1.73.05 2 .92 2.09l.57.07a.42.42 0 0 1-.05.6c-.79-.05-1.49-.07-2.33-.07s-1.51 0-2.18.07a.42.42 0 0 1-.05-.6l.44-.07c.88-.14.91-.36.91-2.09zm7.63 2.64c0 1.66.41 2.76 2.23 2.76a3.08 3.08 0 0 0 1.94-.72 1.65 1.65 0 0 0 .48-1.39V299c0-1.56-.16-1.6-.88-1.89l-.32-.12a.33.33 0 0 1 0-.53 9.49 9.49 0 0 0 2.81-.43c.12 0 .19.07.21.16-.05.46-.07 1.21-.07 2.09v4c0 1.89.07 2.61.74 2.61a4.75 4.75 0 0 0 .94-.12c.14.12.17.6 0 .7a12.27 12.27 0 0 0-3.15.89.35.35 0 0 1-.29-.17v-1c0-.21-.07-.33-.21-.33a6.34 6.34 0 0 1-3.31 1.25c-2.12 0-2.91-1.06-2.91-3v-4c0-1.51 0-1.73-.72-2L503 297c-.14-.12-.12-.46.05-.53a8.43 8.43 0 0 0 2.57-.43c.14 0 .22.07.24.16a17.92 17.92 0 0 0-.07 2.09zm12.36.84c0 1.73.05 2 .91 2.09l.58.07a.43.43 0 0 1-.05.6c-.79-.05-1.49-.07-2.33-.07s-1.58 0-2.3.07a.42.42 0 0 1 0-.6l.55-.07c.89-.12.91-.36.91-2.09v-10.85c0-1.41 0-1.56-.74-2l-.24-.14a.36.36 0 0 1 0-.48 18.48 18.48 0 0 0 2.59-1 .27.27 0 0 1 .24.14c0 .72-.07 1.92-.07 3zm6.36-5.76c-.41 0-.43.07-.43.58v4.49c0 1.39.16 2.66 1.75 2.66a1.93 1.93 0 0 0 .65-.12c.21-.07.52-.34.6-.34s.28.27.24.41a3.33 3.33 0 0 1-2.53 1.11c-2.06 0-2.49-1.16-2.49-2.6v-5.49c0-.65 0-.7-.51-.7h-.67a.41.41 0 0 1-.07-.5 4.74 4.74 0 0 0 1.54-.75 6 6 0 0 0 1-1.41.45.45 0 0 1 .5.12v1.08c0 .43 0 .45.43.45h2.67a.77.77 0 0 1 0 1zM419.58 170.11c0-.93 0-1-.64-1.49l-.22-.14a.31.31 0 0 1 0-.43 14.64 14.64 0 0 0 2.37-1.3.27.27 0 0 1 .29.17 10.38 10.38 0 0 0-.1 1.1c0 .17.05.32.22.32a7.51 7.51 0 0 1 3.36-1.13c2.42 0 4 2 4 4.39a5.59 5.59 0 0 1-5.86 5.74 8.67 8.67 0 0 1-1.32-.1c-.22.05-.34.17-.34.67v2.52c0 1.71.05 1.92.91 2l.94.12a.42.42 0 0 1 0 .6c-1.15 0-1.85-.07-2.69-.07s-1.58 0-2.25.07a.42.42 0 0 1-.05-.6l.5-.07c.89-.12.91-.36.91-2.09zm1.78 4.47a1.56 1.56 0 0 0 .72 1.44 3.17 3.17 0 0 0 1.73.52c2 0 3.12-1.82 3.12-4.32 0-1.92-1.08-3.86-3.24-3.86a2.94 2.94 0 0 0-2 .67 2.13 2.13 0 0 0-.29 1.42zm12.17-1.11c0 1.66.41 2.76 2.23 2.76a3.13 3.13 0 0 0 1.95-.72 1.68 1.68 0 0 0 .48-1.39v-3.94c0-1.56-.17-1.6-.89-1.89l-.31-.12a.33.33 0 0 1 0-.53 9.49 9.49 0 0 0 2.81-.43.2.2 0 0 1 .21.17c0 .45-.07 1.2-.07 2.08v4c0 1.89.07 2.61.75 2.61a4.65 4.65 0 0 0 .93-.12c.15.12.17.6 0 .7a12.27 12.27 0 0 0-3.15.89.32.32 0 0 1-.28-.17v-1c0-.21-.08-.33-.22-.33a6.34 6.34 0 0 1-3.31 1.25c-2.12 0-2.91-1.06-2.91-3v-4c0-1.51 0-1.73-.72-2l-.28-.12a.35.35 0 0 1 0-.53 8.43 8.43 0 0 0 2.57-.43c.15 0 .22.07.24.17a17.59 17.59 0 0 0-.07 2.08zm10.27-10.01c0-1.41 0-1.56-.74-2l-.24-.14a.36.36 0 0 1 0-.48 22.91 22.91 0 0 0 2.61-1 .27.27 0 0 1 .24.14c-.05.84-.09 1.92-.09 3v4.52c0 .4.09.5.24.5a5.52 5.52 0 0 1 2.76-.79 4.49 4.49 0 0 1 4.58 4.7 5.26 5.26 0 0 1-5.52 5.43 6.63 6.63 0 0 1-2-.32 5.66 5.66 0 0 0-1-.31c-.19 0-.38.19-.5.36s0 0-.1 0a.27.27 0 0 1-.24-.15c0-.33.05-.79.05-2zm1.78 10.28a3.28 3.28 0 0 0 .6 2.08 2.25 2.25 0 0 0 1.82.8c2.26 0 3.15-1.92 3.15-4 0-2.47-1.28-4.39-3.65-4.39a3.24 3.24 0 0 0-1.64.38c-.24.17-.28.44-.28 1.37zm12.31.57c0 1.73.05 2 .91 2.09l.58.07a.43.43 0 0 1-.05.6c-.79 0-1.49-.07-2.33-.07s-1.58 0-2.3.07a.42.42 0 0 1-.05-.6l.55-.07c.89-.12.91-.36.91-2.09v-10.85c0-1.41 0-1.56-.74-2l-.24-.14a.36.36 0 0 1 0-.48 18.48 18.48 0 0 0 2.59-1 .27.27 0 0 1 .28.16c0 .72-.07 1.92-.07 3zm4.39-4.2c0-.93 0-1-.65-1.49l-.21-.14a.32.32 0 0 1 0-.43 17.32 17.32 0 0 0 2.47-1.18c.12 0 .22 0 .24.15 0 .83-.09 2-.09 3v4.32c0 1.73 0 2 .91 2.09l.5.07a.42.42 0 0 1-.05.6c-.72 0-1.41-.07-2.25-.07s-1.59 0-2.26.07a.43.43 0 0 1-.05-.6l.51-.07c.89-.12.91-.36.91-2.09zm2-6.84a1.25 1.25 0 0 1-2.49 0 1.25 1.25 0 0 1 1.29-1.3 1.2 1.2 0 0 1 1.19 1.3zm10.62 4.35a1.31 1.31 0 0 1 .37 1c0 .43-.25.88-.53.88a.42.42 0 0 1-.34-.16A3.29 3.29 0 0 0 472 168c-1.68 0-3.31 1.32-3.31 3.87a3.94 3.94 0 0 0 3.86 4.1 2.93 2.93 0 0 0 2.67-1.44.38.38 0 0 1 .43.34 4.39 4.39 0 0 1-4 2.45 4.65 4.65 0 0 1-3.29-1.23 4.76 4.76 0 0 1-1.36-3.53c0-2.59 1.82-5.35 5.81-5.35a5.89 5.89 0 0 1 2.09.41zm8.91-4.16c0-1.41 0-1.56-.75-2l-.24-.14a.36.36 0 0 1 0-.48 19 19 0 0 0 2.6-1 .28.28 0 0 1 .24.14c0 .72-.08 1.92-.08 3v8.23c0 .31 0 .36.44.36a2.3 2.3 0 0 0 1.63-.93l1-1.06c.67-.72.84-1 .84-1.1s-.12-.2-.53-.24l-.57-.08c-.22-.07-.22-.52 0-.6h.55a35.91 35.91 0 0 0 3.82-.19c.16.07.19.48.05.6l-.77.15a3.39 3.39 0 0 0-1.52.84c-.93.74-1.75 1.6-2.18 2s-.31.39-.17.58a24.62 24.62 0 0 0 1.61 1.92c.94 1 1.78 2 2.26 2.45a2.37 2.37 0 0 0 1.24.52h.34c.17.12.14.53-.05.6-.69 0-1.51-.07-2.28-.07-1 0-1.8 0-2.49.07a.4.4 0 0 1 0-.6l.43-.07c.36-.05.6-.1.6-.24s-.1-.31-.41-.67l-2.57-3a1 1 0 0 0-.74-.33c-.43 0-.46.07-.46.81v1.32c0 1.73.05 2 .92 2.09l.57.07a.42.42 0 0 1-.05.6c-.79 0-1.48-.07-2.32-.07s-1.59 0-2.31.07a.4.4 0 0 1 0-.6l.53-.07c.88-.12.91-.36.91-2.09zm12.57 7.4c-.62 0-.64 0-.64.64 0 2.43 1.41 4.49 4 4.49a2.61 2.61 0 0 0 2.21-1.17.31.31 0 0 1 .43.28 4.19 4.19 0 0 1-3.77 2.24 4.32 4.32 0 0 1-3.48-1.59 5.08 5.08 0 0 1-1-3.12c0-2.95 1.95-5.42 4.83-5.42a3.14 3.14 0 0 1 3.41 2.85 1.46 1.46 0 0 1-.1.63c-.07.14-.41.17-1.42.17zm1.49-.72c1.78 0 2.31-.1 2.5-.24s.14-.15.14-.46c0-.67-.45-1.51-1.85-1.51A2.81 2.81 0 0 0 496 170s0 .12.17.12zm5.47 11.8a.9.9 0 0 1 1-1h.46a.86.86 0 0 0 .79-.43 14.76 14.76 0 0 0 1.39-2.66 3.4 3.4 0 0 0 .24-1 4.57 4.57 0 0 0-.4-1.66l-1.88-5.14c-.4-1.12-.57-1.7-1.41-1.87l-.6-.12c-.15-.12-.12-.53.07-.6.77 0 1.49.07 2.28.07s1.32 0 2.09-.07c.19.07.21.48.05.6l-.6.12c-.34.07-.53.15-.53.31a18.8 18.8 0 0 0 .69 2.26l.77 2.21a14 14 0 0 0 .7 1.7 12.88 12.88 0 0 0 .89-1.77l.81-1.9a11.15 11.15 0 0 0 .84-2.4c0-.17-.14-.34-.57-.41l-.75-.12c-.17-.12-.14-.53.05-.6.77 0 1.49.07 2.11.07s1.15 0 1.83-.07a.4.4 0 0 1 0 .6l-.4.07c-.8.15-1.23.84-2 2.55l-1.35 2.76c-.79 1.61-2.76 5.78-3.93 8.4a1.61 1.61 0 0 1-1.58 1.16 1 1 0 0 1-1.06-1.06zm20.57-11.08h-9.24v-1.18h9.24zm0 3.6h-9.24v-1.18h9.24zm6.41-1.06c0 2.52.05 2.83 1.58 3l.65.07a.46.46 0 0 1-.05.6c-1.36 0-2.16-.07-3.12-.07s-1.87 0-2.92.07a.45.45 0 0 1 0-.6l.5-.07c1.39-.19 1.44-.48 1.44-3v-8.86c0-2-.05-2.45-1.13-2.57l-.86-.09a.39.39 0 0 1 .05-.6 37.48 37.48 0 0 1 4.75-.19 8.65 8.65 0 0 1 4.61 1 4.14 4.14 0 0 1 1.92 3.6 4.07 4.07 0 0 1-2.4 3.81 8 8 0 0 1-3.31.72c-.17-.07-.17-.43 0-.48 2.59-.48 3.53-1.94 3.53-4a3.54 3.54 0 0 0-3.86-3.84c-1.28 0-1.3.1-1.3.86zM230.36 534.86c-.62 0-.65 0-.65.64 0 2.43 1.42 4.49 4 4.49a2.61 2.61 0 0 0 2.21-1.17.31.31 0 0 1 .43.28 4.19 4.19 0 0 1-3.77 2.24 4.32 4.32 0 0 1-3.48-1.59 5.08 5.08 0 0 1-1-3.12c0-2.95 1.94-5.42 4.83-5.42a3.13 3.13 0 0 1 3.4 2.85 1.52 1.52 0 0 1-.09.63c-.07.14-.41.17-1.42.17zm1.49-.72c1.78 0 2.3-.1 2.5-.24s.14-.15.14-.46c0-.67-.46-1.51-1.85-1.51A2.81 2.81 0 0 0 230 534s0 .12.17.12zm6.93-.03c0-.93 0-1.05-.64-1.49l-.22-.14a.32.32 0 0 1 0-.43 14.32 14.32 0 0 0 2.38-1.3.28.28 0 0 1 .29.17 10.38 10.38 0 0 0-.1 1.1c0 .17 0 .31.22.31a7.67 7.67 0 0 1 3.36-1.12c2.42 0 4 2 4 4.39a5.59 5.59 0 0 1-5.85 5.74 8.67 8.67 0 0 1-1.32-.1c-.22.05-.34.17-.34.67v2.52c0 1.71 0 1.92.91 2l.94.12a.42.42 0 0 1 0 .6c-1.15-.05-1.85-.07-2.69-.07s-1.58 0-2.25.07a.42.42 0 0 1 0-.6l.5-.07c.89-.12.91-.36.91-2.09zm1.78 4.47a1.56 1.56 0 0 0 .72 1.44 3.14 3.14 0 0 0 1.73.52c2 0 3.12-1.82 3.12-4.32 0-1.92-1.08-3.86-3.24-3.86a2.94 2.94 0 0 0-2 .67c-.22.26-.29.63-.29 1.42zM251 527.46c0-1.41 0-1.56-.74-2l-.24-.14a.36.36 0 0 1 0-.48 18.48 18.48 0 0 0 2.59-1 .27.27 0 0 1 .24.14c0 .72-.07 1.92-.07 3v5c0 .21 0 .41.1.46a5.38 5.38 0 0 1 3.24-1.25 2.79 2.79 0 0 1 3.09 3.09v4c0 1.73.05 2 .92 2.09l.64.07a.42.42 0 0 1 0 .6c-.87-.05-1.56-.07-2.41-.07s-1.58 0-2.23.07a.43.43 0 0 1 0-.6l.48-.07c.89-.14.92-.36.92-2.09v-3.43c0-1.54-.75-2.57-2.28-2.57a2.91 2.91 0 0 0-1.88.65c-.43.36-.5.48-.5 1.32v4c0 1.73 0 2 .91 2.09l.51.07a.43.43 0 0 1 0 .6c-.72-.05-1.42-.07-2.26-.07s-1.58 0-2.35.07a.42.42 0 0 1 0-.6l.6-.07c.89-.1.91-.36.91-2.09zm13.39 7.4c-.62 0-.65 0-.65.64 0 2.43 1.42 4.49 4 4.49a2.61 2.61 0 0 0 2.21-1.17.31.31 0 0 1 .43.28 4.19 4.19 0 0 1-3.77 2.24 4.32 4.32 0 0 1-3.48-1.59 5.08 5.08 0 0 1-1-3.12c0-2.95 1.95-5.42 4.83-5.42a3.14 3.14 0 0 1 3.41 2.85 1.46 1.46 0 0 1-.1.63c-.07.14-.41.17-1.42.17zm1.49-.72c1.78 0 2.31-.1 2.5-.24s.14-.15.14-.46c0-.67-.46-1.51-1.85-1.51A2.81 2.81 0 0 0 264 534s0 .12.17.12zm19.97.69c0-1.63-.72-2.47-2.23-2.47a2.58 2.58 0 0 0-2 .84c-.29.36-.36.6-.36 1.44v3.67c0 1.73 0 2 .91 2.09l.5.07a.42.42 0 0 1-.05.6c-.72-.05-1.41-.07-2.25-.07s-1.51 0-2.19.07a.42.42 0 0 1 0-.6l.43-.07c.89-.14.91-.36.91-2.09v-3.48c0-1.61-.72-2.47-2.21-2.47a2.59 2.59 0 0 0-2 .86 1.88 1.88 0 0 0-.36 1.37v3.72c0 1.73 0 1.95.92 2.09l.43.07a.42.42 0 0 1-.05.6c-.65-.05-1.34-.07-2.18-.07s-1.59 0-2.33.07a.42.42 0 0 1-.05-.6l.58-.07c.88-.12.91-.36.91-2.09v-4.2c0-.93 0-1.05-.65-1.49l-.22-.14c-.09-.1-.09-.36 0-.43a13 13 0 0 0 2.4-1.18.28.28 0 0 1 .26.17v1.13a.25.25 0 0 0 .27.26 5.74 5.74 0 0 1 3.19-1.22 2.76 2.76 0 0 1 2.55 1.41.73.73 0 0 0 .6-.19 6 6 0 0 1 3.26-1.22 2.71 2.71 0 0 1 2.86 3v4.13c0 1.73 0 2 .91 2.09l.57.07a.42.42 0 0 1 0 .6c-.8-.05-1.49-.07-2.33-.07s-1.51 0-2.19.07a.42.42 0 0 1 0-.6l.43-.07c.89-.14.91-.36.91-2.09zm6.93.03c-.62 0-.64 0-.64.64 0 2.43 1.41 4.49 4 4.49a2.61 2.61 0 0 0 2.21-1.17.31.31 0 0 1 .43.28 4.19 4.19 0 0 1-3.77 2.24 4.32 4.32 0 0 1-3.48-1.59 5.08 5.08 0 0 1-1-3.12c0-2.95 1.95-5.42 4.83-5.42a3.14 3.14 0 0 1 3.41 2.85 1.46 1.46 0 0 1-.1.63c-.07.14-.41.17-1.42.17zm1.49-.72c1.78 0 2.31-.1 2.5-.24s.14-.15.14-.46c0-.67-.45-1.51-1.85-1.51a2.81 2.81 0 0 0-2.66 2.07s0 .12.17.12zm7.25-.03c0-.93 0-1.05-.65-1.49l-.21-.14a.32.32 0 0 1 0-.43 18.46 18.46 0 0 0 2.42-1.18c.12 0 .2.07.2.17v1.39c0 .12 0 .19.07.22a4.82 4.82 0 0 1 2.64-1.44 1 1 0 0 1 1.08 1 1.06 1.06 0 0 1-1 1.1.91.91 0 0 1-.53-.17 2 2 0 0 0-1.06-.38 1.07 1.07 0 0 0-.86.48 3.66 3.66 0 0 0-.31 1.85v3.26c0 1.73 0 2 1 2.09l.86.07a.42.42 0 0 1-.05.6c-1.13-.05-1.82-.07-2.66-.07s-1.59 0-2.21.07a.42.42 0 0 1 0-.6l.46-.07c.89-.14.91-.36.91-2.09zm11.3 1.89c.36-.12.41-.33.41-.69v-1.11c0-.89-.27-2.09-1.76-2.09-.67 0-1.48.34-1.53 1.08 0 .39-.05.68-.24.82a2.58 2.58 0 0 1-1.37.46.31.31 0 0 1-.34-.34c0-1.25 2.72-3 4.47-3s2.57 1 2.49 2.81l-.14 4.17c-.05 1.11.17 2.09 1.1 2.09a1.4 1.4 0 0 0 .6-.14.83.83 0 0 1 .32-.17c.09 0 .16.14.16.31a2.51 2.51 0 0 1-2 1.06 1.91 1.91 0 0 1-1.56-.75c-.1-.14-.24-.33-.39-.33a3.6 3.6 0 0 0-.93.48 3.66 3.66 0 0 1-1.73.6 2.48 2.48 0 0 1-1.68-.56 2.2 2.2 0 0 1-.74-1.68c0-.93.45-1.48 2-2zm-1.48 4.23a2.7 2.7 0 0 0 1.46-.6c.29-.29.29-.63.31-1.13v-1.42c0-.26-.1-.31-.24-.31a4.8 4.8 0 0 0-1 .24c-1.42.48-2.12.84-2.12 1.78a1.45 1.45 0 0 0 1.59 1.47zm9.38-1.92c0 1.73.05 2 .91 2.09l.58.07a.42.42 0 0 1-.05.6c-.79-.05-1.49-.07-2.33-.07s-1.58 0-2.3.07a.42.42 0 0 1-.05-.6l.55-.07c.89-.12.91-.36.91-2.09v-10.85c0-1.41 0-1.56-.74-2l-.24-.14a.36.36 0 0 1 0-.48 18.48 18.48 0 0 0 2.59-1 .27.27 0 0 1 .24.14c0 .72-.07 1.92-.07 3zm-104.55 24.6c0-.93 0-1.05-.65-1.49l-.22-.14c-.09-.1-.09-.36 0-.43a14.64 14.64 0 0 0 2.37-1.3.27.27 0 0 1 .29.17 10.38 10.38 0 0 0-.1 1.1c0 .17 0 .31.22.31a7.67 7.67 0 0 1 3.39-1.13c2.42 0 4 2 4 4.39a5.59 5.59 0 0 1-5.85 5.74 8.67 8.67 0 0 1-1.32-.1c-.22 0-.34.17-.34.67v2.52c0 1.71 0 1.92.91 2l.94.12a.42.42 0 0 1-.05.6c-1.15-.05-1.85-.07-2.69-.07s-1.58 0-2.25.07a.42.42 0 0 1 0-.6l.5-.07c.89-.12.92-.36.92-2.09zm1.77 4.47a1.56 1.56 0 0 0 .72 1.44 3.17 3.17 0 0 0 1.73.52c2 0 3.12-1.82 3.12-4.32 0-1.92-1.08-3.86-3.24-3.86a2.94 2.94 0 0 0-2 .67c-.22.26-.29.63-.29 1.42zm12.17-1.11c0 1.66.41 2.76 2.23 2.76a3.13 3.13 0 0 0 2-.72 1.68 1.68 0 0 0 .48-1.39V563c0-1.56-.17-1.6-.89-1.89l-.31-.12a.33.33 0 0 1 0-.53 9.49 9.49 0 0 0 2.81-.43c.12 0 .19.07.21.16 0 .46-.07 1.21-.07 2.09v4c0 1.89.07 2.61.75 2.61a4.65 4.65 0 0 0 .93-.12c.15.12.17.6 0 .7a12.27 12.27 0 0 0-3.15.89.32.32 0 0 1-.28-.17v-1c0-.21-.08-.33-.22-.33a6.34 6.34 0 0 1-3.31 1.25c-2.12 0-2.91-1.06-2.91-3v-4c0-1.51 0-1.73-.72-2l-.28-.12a.36.36 0 0 1 0-.53 8.43 8.43 0 0 0 2.57-.43c.15 0 .22.07.24.16a17.92 17.92 0 0 0-.07 2.09zm10.27-10.01c0-1.41 0-1.56-.74-2l-.24-.14a.36.36 0 0 1 0-.48 22.91 22.91 0 0 0 2.61-1 .26.26 0 0 1 .24.14c0 .84-.09 1.92-.09 3v4.53c0 .41.09.51.24.51a5.52 5.52 0 0 1 2.76-.79 4.49 4.49 0 0 1 4.58 4.7 5.26 5.26 0 0 1-5.52 5.43 6.63 6.63 0 0 1-2-.32 5.66 5.66 0 0 0-1-.31c-.19 0-.38.19-.5.36s0 0-.1 0a.27.27 0 0 1-.24-.15v-2zm1.78 10.28a3.28 3.28 0 0 0 .6 2.08 2.26 2.26 0 0 0 1.82.8c2.26 0 3.15-1.92 3.15-4 0-2.47-1.28-4.39-3.65-4.39a3.24 3.24 0 0 0-1.64.38c-.23.17-.28.44-.28 1.37zm12.31.57c0 1.73 0 2 .91 2.09l.58.07a.43.43 0 0 1 0 .6c-.79-.05-1.49-.07-2.33-.07s-1.58 0-2.3.07a.42.42 0 0 1 0-.6l.55-.07c.89-.12.91-.36.91-2.09v-10.85c0-1.41 0-1.56-.74-2l-.24-.14a.36.36 0 0 1 0-.48 18.48 18.48 0 0 0 2.59-1 .27.27 0 0 1 .24.14c0 .72-.07 1.92-.07 3zm4.39-4.2c0-.93 0-1.05-.65-1.49l-.21-.14a.32.32 0 0 1 0-.43 16.31 16.31 0 0 0 2.47-1.18c.12 0 .22.05.24.14 0 .85-.09 2-.09 3v4.32c0 1.73 0 2 .91 2.09l.5.07a.42.42 0 0 1-.05.6c-.72-.05-1.41-.07-2.25-.07s-1.59 0-2.26.07a.43.43 0 0 1 0-.6l.51-.07c.89-.12.91-.36.91-2.09zm2-6.84a1.25 1.25 0 0 1-2.49.05 1.25 1.25 0 0 1 1.29-1.3 1.2 1.2 0 0 1 1.19 1.25zm10.62 4.35a1.31 1.31 0 0 1 .37 1c0 .43-.25.88-.53.88a.43.43 0 0 1-.34-.17 3.31 3.31 0 0 0-2.4-1.27c-1.68 0-3.31 1.32-3.31 3.87a3.94 3.94 0 0 0 3.86 4.1 2.93 2.93 0 0 0 2.67-1.44.37.37 0 0 1 .43.34 4.39 4.39 0 0 1-4 2.45 4.65 4.65 0 0 1-3.29-1.23 4.76 4.76 0 0 1-1.39-3.55c0-2.59 1.82-5.35 5.81-5.35a5.89 5.89 0 0 1 2.12.37zm8.91-4.16c0-1.41 0-1.56-.75-2l-.24-.14a.36.36 0 0 1 0-.48 19 19 0 0 0 2.6-1 .28.28 0 0 1 .24.14c0 .72-.08 1.92-.08 3V564c0 .31 0 .36.44.36a2.3 2.3 0 0 0 1.63-.93l1-1.06c.67-.72.84-1 .84-1.11s-.12-.19-.53-.24l-.57-.07c-.22-.07-.22-.52 0-.6h.55c1.06 0 2.47 0 3.82-.19.16.07.19.48 0 .6l-.76.15a3.39 3.39 0 0 0-1.52.84c-.93.74-1.75 1.6-2.18 2s-.31.39-.17.58c.41.55.79 1 1.61 1.92s1.78 2 2.26 2.45a2.37 2.37 0 0 0 1.24.52h.34c.17.12.14.53-.05.6-.69-.05-1.51-.07-2.28-.07-1 0-1.8 0-2.49.07a.4.4 0 0 1-.05-.6l.43-.07c.36-.05.6-.1.6-.24s-.1-.31-.41-.67l-2.57-3a1 1 0 0 0-.74-.33c-.43 0-.46.07-.46.81v1.32c0 1.73.05 2 .92 2.09l.57.07a.42.42 0 0 1-.05.6c-.79-.05-1.48-.07-2.32-.07s-1.59 0-2.31.07a.4.4 0 0 1 0-.6l.53-.07c.88-.12.91-.36.91-2.09zm12.61 7.4c-.62 0-.64 0-.64.64 0 2.43 1.41 4.49 4 4.49a2.61 2.61 0 0 0 2.21-1.17.31.31 0 0 1 .43.28 4.19 4.19 0 0 1-3.77 2.24 4.32 4.32 0 0 1-3.48-1.59 5.08 5.08 0 0 1-1-3.12c0-2.95 1.95-5.42 4.83-5.42a3.14 3.14 0 0 1 3.41 2.85 1.46 1.46 0 0 1-.1.63c-.07.14-.41.17-1.42.17zm1.49-.72c1.78 0 2.31-.1 2.5-.24s.14-.15.14-.46c0-.67-.45-1.51-1.85-1.51a2.81 2.81 0 0 0-2.66 2.09s0 .12.17.12zm5.43 11.8a.9.9 0 0 1 1-1h.46a.86.86 0 0 0 .79-.43 14.76 14.76 0 0 0 1.39-2.66 3.4 3.4 0 0 0 .24-1 4.57 4.57 0 0 0-.4-1.66l-1.88-5.14c-.4-1.12-.57-1.7-1.41-1.87l-.6-.12c-.15-.12-.12-.53.07-.6.77.05 1.49.07 2.28.07s1.32 0 2.09-.07c.19.07.21.48.05.6l-.6.12c-.34.07-.53.14-.53.31a18.8 18.8 0 0 0 .69 2.26l.77 2.21a14 14 0 0 0 .7 1.7 12.88 12.88 0 0 0 .89-1.77l.81-1.9a11.15 11.15 0 0 0 .84-2.4c0-.17-.14-.34-.57-.41l-.75-.12c-.17-.12-.14-.53 0-.6.77.05 1.49.07 2.11.07s1.15 0 1.83-.07a.4.4 0 0 1 0 .6l-.4.07c-.8.15-1.23.84-2 2.55l-1.35 2.76c-.79 1.61-2.76 5.78-3.93 8.4a1.61 1.61 0 0 1-1.54 1.13 1 1 0 0 1-1.05-1.03zm20.57-11.08h-9.24v-1.18h9.24zm0 3.6h-9.24v-1.18h9.24zm4.44-9.7c0-2.5-.05-2.86-1.46-3h-.39c-.14-.1-.09-.53 0-.6 1 0 1.85.07 2.83.07h4.52c1.53 0 3 0 3.24-.07a28.56 28.56 0 0 1 .38 3.19.48.48 0 0 1-.6.05c-.36-1.13-.58-2-1.82-2.28a11.45 11.45 0 0 0-2.33-.15h-1.73c-.72 0-.72.05-.72 1v4.8c0 .67.07.67.79.67h1.39a8.69 8.69 0 0 0 2-.14c.29-.09.46-.24.58-.84l.19-1a.47.47 0 0 1 .63 0c0 .58-.1 1.51-.1 2.43s.1 1.77.1 2.3a.47.47 0 0 1-.63 0l-.21-.93a1 1 0 0 0-.75-.92 8.57 8.57 0 0 0-1.85-.11h-1.39c-.72 0-.79 0-.79.64V566c0 1.27.07 2.09.46 2.49s.79.56 2.9.56a7.08 7.08 0 0 0 3.07-.36 6.1 6.1 0 0 0 1.71-2.33.44.44 0 0 1 .6.17 21.32 21.32 0 0 1-1.08 3.33c-2.16-.05-4.3-.07-6.44-.07H326c-1 0-1.84 0-3.26.07a.47.47 0 0 1 0-.6l.79-.07c1.37-.12 1.49-.48 1.49-3zm93.42-143.92a5.54 5.54 0 0 1 .39 1.94.43.43 0 0 1-.58.08 2.35 2.35 0 0 0-2.11-1.76 1.42 1.42 0 0 0-1.54 1.47c0 1 1 1.51 1.85 2 1.27.72 2.45 1.54 2.45 3.24s-1.68 2.74-3.46 2.74a4 4 0 0 1-2.56-.72 6.94 6.94 0 0 1-.29-2.43.4.4 0 0 1 .55 0c.41 1.32 1.18 2.47 2.54 2.47a1.48 1.48 0 0 0 1.61-1.54c0-1.1-1-1.7-1.85-2.2-1.39-.8-2.37-1.64-2.37-3 0-1.75 1.44-2.73 3.26-2.73a4.24 4.24 0 0 1 2.11.44zm3.29-4.18c0-1.41 0-1.56-.74-2l-.24-.14a.36.36 0 0 1 0-.48 18.48 18.48 0 0 0 2.59-1 .27.27 0 0 1 .24.14c0 .72-.07 1.92-.07 3v5c0 .21 0 .41.09.46a5.43 5.43 0 0 1 3.24-1.25 2.8 2.8 0 0 1 3.1 3.09v4c0 1.73 0 2 .91 2.09l.65.07a.42.42 0 0 1-.05.6c-.86-.05-1.56-.07-2.4-.07s-1.58 0-2.23.07a.42.42 0 0 1-.05-.6l.48-.07c.89-.14.91-.36.91-2.09v-3.43c0-1.54-.74-2.57-2.28-2.57a2.88 2.88 0 0 0-1.87.65c-.43.36-.5.48-.5 1.32v4c0 1.73.05 2 .91 2.09l.5.07c.17.1.12.53 0 .6-.72-.05-1.42-.07-2.26-.07s-1.59 0-2.35.07a.42.42 0 0 1-.05-.6l.6-.07c.89-.1.91-.36.91-2.09zm15.94 8.54c.36-.12.41-.33.41-.69v-1.11c0-.89-.26-2.09-1.75-2.09-.68 0-1.49.34-1.54 1.08 0 .39-.05.68-.24.82a2.58 2.58 0 0 1-1.37.46.3.3 0 0 1-.33-.34c0-1.25 2.71-3 4.46-3s2.57 1 2.5 2.81l-.15 4.17c0 1.11.17 2.09 1.11 2.09a1.43 1.43 0 0 0 .6-.14.89.89 0 0 1 .31-.17c.1 0 .17.14.17.31a2.52 2.52 0 0 1-2 1.06 1.93 1.93 0 0 1-1.56-.75c-.1-.14-.24-.33-.38-.33a3.45 3.45 0 0 0-.94.48 3.62 3.62 0 0 1-1.73.6 2.5 2.5 0 0 1-1.68-.56 2.24 2.24 0 0 1-.74-1.68c0-.93.45-1.48 2-2zm-1.49 4.23a2.7 2.7 0 0 0 1.46-.6c.29-.29.29-.63.32-1.13v-1.42c0-.26-.09-.31-.24-.31a4.8 4.8 0 0 0-1 .24c-1.42.48-2.11.84-2.11 1.78a1.44 1.44 0 0 0 1.57 1.47zm7.85-6.12c0-.93 0-1.05-.65-1.49l-.22-.14c-.09-.1-.09-.36 0-.43a18.46 18.46 0 0 0 2.42-1.18c.12 0 .19.07.19.17v1.39a.27.27 0 0 0 .07.22 4.84 4.84 0 0 1 2.65-1.44 1 1 0 0 1 1.08 1 1.06 1.06 0 0 1-1 1.1.91.91 0 0 1-.53-.17 1.93 1.93 0 0 0-1.05-.38 1.09 1.09 0 0 0-.87.48 3.66 3.66 0 0 0-.31 1.85v3.26c0 1.73.05 2 1 2.09l.87.07a.42.42 0 0 1-.05.6c-1.13-.05-1.82-.07-2.67-.07s-1.58 0-2.2.07a.42.42 0 0 1-.05-.6l.45-.07c.89-.14.92-.36.92-2.09zm8.49.75c-.62 0-.65 0-.65.64 0 2.43 1.42 4.49 4 4.49a2.61 2.61 0 0 0 2.21-1.17.31.31 0 0 1 .43.28 4.19 4.19 0 0 1-3.77 2.24 4.32 4.32 0 0 1-3.48-1.59 5.08 5.08 0 0 1-1-3.12c0-2.95 2-5.42 4.83-5.42a3.14 3.14 0 0 1 3.41 2.85 1.46 1.46 0 0 1-.1.63c-.07.14-.41.17-1.42.17zm1.49-.72c1.78 0 2.31-.1 2.5-.24s.14-.15.14-.46c0-.67-.46-1.51-1.85-1.51a2.81 2.81 0 0 0-2.66 2.09s0 .12.17.12zM469 419.5c0 1.89 0 2.78.7 2.78a4 4 0 0 0 1-.24c.17 0 .19.65 0 .77a17.13 17.13 0 0 0-3.17.77c-.14 0-.26-.08-.26-.2V423a2.63 2.63 0 0 0 0-.75h-.1a5 5 0 0 1-3 1.11 4.41 4.41 0 0 1-4.44-4.61c0-3.36 2.54-5.52 5.8-5.52a5.13 5.13 0 0 1 1.61.21c.12 0 .15-.14.15-.33v-3.63c0-1.41 0-1.56-.75-2l-.24-.14a.36.36 0 0 1 0-.48 19 19 0 0 0 2.6-1 .28.28 0 0 1 .24.14c0 .72-.08 1.92-.08 3zm-1.77-3.6a1.41 1.41 0 0 0-.23-.9 2.51 2.51 0 0 0-2-1c-2.19 0-3.32 1.9-3.32 4s1.23 4.24 3.58 4.24a2.89 2.89 0 0 0 1.85-.67 1.47 1.47 0 0 0 .17-.89zm16.38-2.26a5.77 5.77 0 0 1 .38 1.94.41.41 0 0 1-.57.08 2.35 2.35 0 0 0-2.12-1.76 1.42 1.42 0 0 0-1.53 1.47c0 1 1 1.51 1.85 2 1.27.72 2.44 1.54 2.44 3.24s-1.68 2.74-3.45 2.74a4 4 0 0 1-2.57-.72 7.19 7.19 0 0 1-.29-2.43.4.4 0 0 1 .55 0c.41 1.32 1.18 2.47 2.55 2.47a1.48 1.48 0 0 0 1.61-1.54c0-1.1-1-1.7-1.85-2.2-1.39-.8-2.38-1.64-2.38-3 0-1.75 1.44-2.73 3.27-2.73a4.3 4.3 0 0 1 2.11.44zm4.29 3.22c-.62 0-.64 0-.64.64 0 2.43 1.41 4.49 4 4.49a2.59 2.59 0 0 0 2.21-1.17.31.31 0 0 1 .43.28 4.19 4.19 0 0 1-3.77 2.24 4.32 4.32 0 0 1-3.48-1.59 5.08 5.08 0 0 1-1-3.12c0-2.95 1.95-5.42 4.83-5.42a3.14 3.14 0 0 1 3.41 2.85 1.46 1.46 0 0 1-.1.63c-.07.14-.41.17-1.42.17zm1.49-.72c1.78 0 2.31-.1 2.5-.24s.14-.15.14-.46c0-.67-.45-1.51-1.85-1.51a2.81 2.81 0 0 0-2.66 2.09s0 .12.17.12zm13.71-2.52a1.35 1.35 0 0 1 .36 1c0 .43-.24.88-.53.88a.41.41 0 0 1-.34-.17 3.29 3.29 0 0 0-2.4-1.27c-1.68 0-3.31 1.32-3.31 3.87a3.94 3.94 0 0 0 3.86 4.1 2.92 2.92 0 0 0 2.67-1.44.37.37 0 0 1 .43.34 4.38 4.38 0 0 1-4 2.45 4.65 4.65 0 0 1-3.29-1.23 4.76 4.76 0 0 1-1.39-3.55c0-2.59 1.83-5.35 5.81-5.35a6 6 0 0 1 2.13.37zm3.14 2.49c0-.93 0-1.05-.65-1.49l-.21-.14a.32.32 0 0 1 0-.43 18.46 18.46 0 0 0 2.42-1.18c.12 0 .2.07.2.17v1.39c0 .12 0 .19.07.22a4.82 4.82 0 0 1 2.64-1.44 1 1 0 0 1 1.08 1 1.06 1.06 0 0 1-1 1.1.91.91 0 0 1-.53-.17 2 2 0 0 0-1.06-.38 1.07 1.07 0 0 0-.86.48 3.66 3.66 0 0 0-.31 1.85v3.26c0 1.73 0 2 1 2.09l.86.07a.42.42 0 0 1 0 .6c-1.13-.05-1.82-.07-2.66-.07s-1.59 0-2.21.07a.42.42 0 0 1-.05-.6l.46-.07c.89-.14.91-.36.91-2.09zm8.5.75c-.63 0-.65 0-.65.64 0 2.43 1.41 4.49 4 4.49a2.59 2.59 0 0 0 2.21-1.17.31.31 0 0 1 .43.28 4.19 4.19 0 0 1-3.77 2.24 4.32 4.32 0 0 1-3.48-1.59 5.07 5.07 0 0 1-1-3.12c0-2.95 1.94-5.42 4.82-5.42a3.14 3.14 0 0 1 3.41 2.85 1.46 1.46 0 0 1-.1.63c-.07.14-.41.17-1.41.17zm1.48-.72c1.78 0 2.31-.1 2.5-.24s.14-.15.14-.46c0-.67-.45-1.51-1.84-1.51a2.82 2.82 0 0 0-2.67 2.09s0 .12.17.12zm9.22-1.59c-.41 0-.43.07-.43.58v4.49c0 1.39.17 2.66 1.75 2.66a1.88 1.88 0 0 0 .65-.12c.21-.07.53-.34.6-.34s.29.27.24.41a3.31 3.31 0 0 1-2.52 1.11c-2.07 0-2.5-1.16-2.5-2.6v-5.49c0-.65 0-.7-.5-.7h-.67a.39.39 0 0 1-.08-.5 4.74 4.74 0 0 0 1.54-.75 5.8 5.8 0 0 0 1-1.41c.12-.05.41-.05.5.12v1.08c0 .43 0 .45.43.45h2.67a.76.76 0 0 1 0 1zm13.68 2.31h-9.24v-1.18h9.24zm0 3.6h-9.24v-1.18h9.24zm6.74 2.92a7.58 7.58 0 0 1-3.74-.88 11.14 11.14 0 0 1-.65-3.36c.12-.17.48-.22.58-.08.36 1.23 1.34 3.58 4.13 3.58a2.73 2.73 0 0 0 3-2.76 3.61 3.61 0 0 0-2-3.36l-2.25-1.52a5.11 5.11 0 0 1-2.59-4.13c0-2.28 1.77-4.13 4.89-4.13a9.08 9.08 0 0 1 2.23.32 3.54 3.54 0 0 0 .84.14 10.35 10.35 0 0 1 .44 2.93c-.1.14-.48.22-.6.07a3.15 3.15 0 0 0-3.27-2.71c-2.35 0-2.85 1.56-2.85 2.66a3.75 3.75 0 0 0 2 2.95l1.92 1.2c1.51.94 3 2.33 3 4.61.06 2.67-1.94 4.47-5.08 4.47zm107.79-20.13c-1.15 0-1.2 0-1.2.77v3.38c0 2.52.12 2.86 1.47 3l.69.07c.15.1.1.53-.05.6-1.29-.05-2.11-.07-3-.07s-1.85.05-2.79.07a.47.47 0 0 1-.05-.6l.41-.07c1.35-.24 1.39-.48 1.39-3v-8.64c0-2.52-.16-2.93-1.41-3h-.63c-.14-.1-.09-.53 0-.6 1.18 0 2 .07 3 .07s1.75 0 2.78-.07c.14.07.19.5.05.6h-.46c-1.39.15-1.44.51-1.44 3v2.76c0 .74 0 .77 1.2.77h6.87c1.15 0 1.2 0 1.2-.77v-2.76c0-2.52-.05-2.88-1.47-3h-.45c-.15-.1-.1-.53 0-.6 1.11 0 1.93.07 2.91.07s1.75 0 2.83-.07a.47.47 0 0 1 0 .6h-.5c-1.4.15-1.44.51-1.44 3v8.64c0 2.52 0 2.83 1.44 3l.57.07c.15.1.1.53-.05.6-1.15-.05-2-.07-2.9-.07s-1.85 0-2.91.07a.46.46 0 0 1 0-.6l.45-.07c1.47-.24 1.47-.48 1.47-3V404c0-.73-.05-.77-1.2-.77zm16.18-4.49c0-2.52-.05-2.91-1.44-3h-.6c-.15-.1-.1-.53.05-.6 1.17 0 1.94.07 3 .07s1.75 0 2.78-.07c.15.07.2.5.05.6h-.45c-1.4.15-1.44.51-1.44 3v2.76c0 .46 0 .91.31.91a1.39 1.39 0 0 0 .67-.26c.34-.29 1-.92 1.22-1.15l2.6-2.57c.45-.44 1.63-1.66 1.87-2a.72.72 0 0 0 .17-.39c0-.1-.1-.17-.41-.24l-.65-.14a.4.4 0 0 1 0-.6c.84 0 1.8.07 2.64.07s1.65 0 2.38-.07a.45.45 0 0 1 0 .6 5.68 5.68 0 0 0-2.23.67 24.3 24.3 0 0 0-3.36 2.78l-2.16 2c-.34.34-.55.56-.55.75s.14.36.45.74c2.28 2.62 4.13 4.78 6 6.75a3.06 3.06 0 0 0 1.93 1l.64.07a.42.42 0 0 1 0 .6c-.63-.05-1.57-.07-2.69-.07s-1.83 0-2.93.07c-.17-.05-.24-.45-.1-.6l.56-.09c.33-.05.57-.12.57-.24s-.17-.34-.33-.56c-.46-.57-1.08-1.22-2-2.25l-1.92-2.16c-1.37-1.54-1.75-2-2.33-2-.36 0-.4.31-.4 1.15v3.1c0 2.52 0 2.86 1.39 3l.65.07c.14.1.09.53-.05.6-1.18-.05-2-.07-2.93-.07s-1.8 0-2.78.07a.45.45 0 0 1-.05-.6l.48-.07c1.27-.19 1.32-.48 1.32-3zm16.17-.48c0-1.68-.12-2.19-1.13-2.33l-.53-.07a.36.36 0 0 1 0-.6c2-.12 4-.19 6-.19a14.94 14.94 0 0 1 5.28.72 7.18 7.18 0 0 1 4.87 7.08 7.86 7.86 0 0 1-4.2 7.15 11.59 11.59 0 0 1-5.37 1.15c-1.54 0-3.08-.19-3.92-.19-1 0-1.87 0-3 .07a.46.46 0 0 1 0-.6l.55-.07c1.39-.19 1.44-.48 1.44-3zm2 8.57a4.4 4.4 0 0 0 .48 2.61c.52.75 1.44 1 2.95 1 4.65 0 6.74-3.05 6.74-7.51 0-2.65-1.27-7.11-7.56-7.11a5.2 5.2 0 0 0-2.37.34c-.2.14-.24.74-.24 1.82zm18.72-4.92c0 .65.07.65.79.65h1.63a8.73 8.73 0 0 0 2-.15c.26-.1.46-.22.6-.84l.22-1a.51.51 0 0 1 .62 0c0 .58-.1 1.54-.1 2.43s.1 1.77.1 2.32a.48.48 0 0 1-.62 0l-.24-.93a1.16 1.16 0 0 0-.77-.91 8 8 0 0 0-1.85-.12h-1.63c-.72 0-.79 0-.79.64v3.34c0 2.52 0 2.88 1.46 3l.82.07c.14.1.09.53 0 .6-1.42-.05-2.23-.07-3.19-.07s-1.88 0-3 .07a.45.45 0 0 1 0-.6l.6-.07c1.39-.17 1.44-.48 1.44-3v-8.64c0-2.52 0-2.86-1.44-3h-.39c-.14-.1-.09-.53.05-.6 1 0 1.83.07 2.79.07h4.41c1.54 0 2.93 0 3.24-.07 0 1.1 0 2.25.07 3.16a.42.42 0 0 1-.57.08c-.19-1.08-.48-2-1.68-2.28a9.87 9.87 0 0 0-2.33-.15h-1.46c-.72 0-.72.05-.72 1zm-55.33 30.96a5.59 5.59 0 0 1-2.81-.67 8.27 8.27 0 0 1-.48-2.52c.09-.13.36-.16.43-.05a3.27 3.27 0 0 0 3.1 2.68 2 2 0 0 0 2.25-2.07 2.71 2.71 0 0 0-1.48-2.52l-1.71-1.12a3.83 3.83 0 0 1-1.94-3.09c0-1.72 1.33-3.1 3.67-3.1a7.24 7.24 0 0 1 1.67.23 2.6 2.6 0 0 0 .63.11 7.92 7.92 0 0 1 .33 2.2c-.08.11-.36.16-.45 0a2.36 2.36 0 0 0-2.45-2 1.89 1.89 0 0 0-2.15 2 2.83 2.83 0 0 0 1.54 2.22l1.44.9a4.07 4.07 0 0 1 2.25 3.46c0 1.99-1.5 3.34-3.84 3.34zm9.45-6.11c-.86 0-.9 0-.9.58v2.54c0 1.89.09 2.14 1.1 2.25l.52.05a.36.36 0 0 1 0 .45h-4.38c-.11 0-.14-.34 0-.45l.31-.05c1-.18 1-.36 1-2.25v-6.48c0-1.89-.12-2.2-1.06-2.27h-.47c-.1-.07-.07-.39 0-.45.88 0 1.49.06 2.27.06s1.31 0 2.09-.06c.11.06.14.38 0 .45h-.34c-1 .11-1.08.38-1.08 2.27v2.07c0 .56 0 .57.9.57h5.2c.87 0 .9 0 .9-.57v-2.07c0-1.89 0-2.16-1.1-2.27h-.34c-.11-.07-.07-.39 0-.45.83 0 1.44.06 2.18.06s1.31 0 2.12-.06c.11.06.14.38 0 .45h-.38c-1.05.11-1.08.38-1.08 2.27v6.48c0 1.89 0 2.12 1.08 2.25l.43.05a.35.35 0 0 1 0 .45h-4.35a.34.34 0 0 1 0-.45l.34-.05c1.1-.18 1.1-.36 1.1-2.25v-2.54c0-.54 0-.58-.9-.58zm17.16 1.64c-.13-.39-.2-.45-.74-.45h-2.72c-.45 0-.56.06-.69.43l-.63 1.89a7.53 7.53 0 0 0-.39 1.5c0 .22.09.32.52.36l.6.05a.3.3 0 0 1 0 .45h-3.6a.35.35 0 0 1 0-.45l.6-.05a1.21 1.21 0 0 0 1.08-.88c.32-.83.82-2 1.58-4l1.84-4.86a2.52 2.52 0 0 0 .3-1.28 2 2 0 0 0 .94-.68.25.25 0 0 1 .27.16c.23.79.52 1.62.79 2.41l2.47 7.24c.52 1.55.75 1.82 1.53 1.91l.49.05a.36.36 0 0 1 0 .45h-4.25a.3.3 0 0 1 0-.45l.52-.05c.38 0 .63-.14.63-.32a3.8 3.8 0 0 0-.23-1zm-3.57-1.6c-.14.41-.13.43.38.43H677c.53 0 .56-.07.4-.56l-1-2.93c-.15-.43-.31-.92-.42-1.14a8.54 8.54 0 0 0-.43 1.07zm12.37 1.33a.64.64 0 0 1 .27.58.72.72 0 0 1-.15.45l-4.19.39a.73.73 0 0 1-.27-.57.71.71 0 0 1 .14-.45zm6.53 3.33a2.52 2.52 0 0 0 1.69-.39 2.37 2.37 0 0 0 .58-.74.36.36 0 0 1 .4.11 8.17 8.17 0 0 1-.83 2.19h-6.94a.24.24 0 0 1-.13-.23c0-.05.09-.13.2-.2a14.71 14.71 0 0 0 2.75-2.59c1.19-1.28 2.58-3 2.58-4.95 0-1.64-.8-2.63-2.25-2.63a2.63 2.63 0 0 0-2.34 1.8.29.29 0 0 1-.44-.23 3.79 3.79 0 0 1 3.62-2.54 2.79 2.79 0 0 1 3 2.93c0 1.12-.52 2.34-1.92 4l-1.1 1.26c-1.48 1.69-1.64 2-1.64 2.09s.09.16.56.16zm5.67-9.56c.09-.29.18-.45.47-.48l4.34-.62a.15.15 0 0 1 .16.17 3.39 3.39 0 0 1-.65 1.11l-3.4.49c-.42.05-.51.14-.61.49l-.33 1.08c-.07.21 0 .3.25.32h.38c2.25.21 4.77 1.2 4.77 3.94 0 3.11-3.58 5.27-6.44 5.36a.35.35 0 0 1-.06-.55c2.79-.17 5.17-1.88 5.17-4.34s-2.72-3.21-4.84-3.24c-.27 0-.29-.15-.16-.56zm9.77.79a9.36 9.36 0 0 1 5.17-2.55.26.26 0 0 1 .07.38 8.94 8.94 0 0 0-4 2.3 7.76 7.76 0 0 0-2.01 5.46c0 2.08.72 4 2.51 4 1.35 0 2-1.22 2-2.75s-.68-3-2.21-3a2.93 2.93 0 0 0-.83.14.18.18 0 0 1-.06-.28 3.19 3.19 0 0 1 1.77-.54 2.93 2.93 0 0 1 2.86 3.22 3.67 3.67 0 0 1-3.8 3.76c-2.63 0-3.87-2.05-3.87-4.5a8 8 0 0 1 2.4-5.64zM672.2 167.64a5.54 5.54 0 0 1 .39 1.94.43.43 0 0 1-.58.08 2.35 2.35 0 0 0-2.11-1.76 1.42 1.42 0 0 0-1.54 1.47c0 1 1 1.51 1.85 2 1.27.72 2.45 1.54 2.45 3.24s-1.68 2.74-3.46 2.74a4 4 0 0 1-2.56-.72 6.94 6.94 0 0 1-.29-2.43.4.4 0 0 1 .55 0c.41 1.32 1.18 2.47 2.54 2.47a1.48 1.48 0 0 0 1.61-1.54c0-1.1-1-1.7-1.85-2.2-1.39-.8-2.37-1.64-2.37-3 0-1.75 1.44-2.73 3.26-2.73a4.24 4.24 0 0 1 2.11.44zm6.87 4.36c.36-.12.41-.33.41-.69v-1.11c0-.89-.26-2.09-1.75-2.09-.67 0-1.49.34-1.54 1.08 0 .39-.05.68-.24.82a2.58 2.58 0 0 1-1.37.46.3.3 0 0 1-.33-.34c0-1.25 2.71-3 4.46-3s2.57 1 2.5 2.81l-.15 4.17c0 1.11.17 2.09 1.11 2.09a1.43 1.43 0 0 0 .6-.14.89.89 0 0 1 .31-.17c.1 0 .17.14.17.31a2.52 2.52 0 0 1-2 1.06 1.93 1.93 0 0 1-1.56-.75c-.09-.14-.24-.33-.38-.33a3.45 3.45 0 0 0-.94.48 3.62 3.62 0 0 1-1.73.6 2.5 2.5 0 0 1-1.68-.56 2.24 2.24 0 0 1-.74-1.68c0-.93.46-1.48 2-2zm-1.49 4.23a2.7 2.7 0 0 0 1.46-.6c.29-.29.29-.63.32-1.13v-1.42c0-.26-.09-.31-.24-.31a4.8 4.8 0 0 0-1 .24c-1.42.48-2.11.84-2.11 1.78a1.45 1.45 0 0 0 1.57 1.47zm9.42-1.92c0 1.73 0 2 .92 2.09l.57.07a.42.42 0 0 1-.05.6c-.79 0-1.48-.07-2.32-.07s-1.59 0-2.31.07a.43.43 0 0 1 0-.6l.56-.07c.88-.12.91-.36.91-2.09v-10.85c0-1.41 0-1.56-.75-2l-.24-.14a.36.36 0 0 1 0-.48 19 19 0 0 0 2.6-1 .28.28 0 0 1 .11.16c0 .72-.08 1.92-.08 3zm6.32-5.76c-.4 0-.43.07-.43.58v4.49c0 1.39.17 2.66 1.75 2.66a1.88 1.88 0 0 0 .65-.12c.22-.07.53-.34.6-.34s.29.27.24.41a3.29 3.29 0 0 1-2.52 1.11c-2.06 0-2.49-1.16-2.49-2.6v-5.49c0-.65 0-.7-.51-.7h-.67a.39.39 0 0 1-.07-.5 4.77 4.77 0 0 0 1.53-.75 5.54 5.54 0 0 0 1-1.41.46.46 0 0 1 .51.12v1.08c0 .43 0 .45.43.45H696a.77.77 0 0 1 0 1zM658.28 537.5c0 1.89 0 2.78.69 2.78a3.92 3.92 0 0 0 1-.24c.16 0 .19.65 0 .77a17.33 17.33 0 0 0-3.17.77c-.14 0-.26-.08-.26-.2V541a2.63 2.63 0 0 0 0-.75h-.09a5 5 0 0 1-3 1.11 4.41 4.41 0 0 1-4.44-4.61c0-3.36 2.55-5.52 5.81-5.52a5.18 5.18 0 0 1 1.61.21c.12 0 .14-.14.14-.33v-3.63c0-1.41 0-1.56-.74-2l-.24-.14a.36.36 0 0 1 0-.48 18.48 18.48 0 0 0 2.59-1 .27.27 0 0 1 .24.14c0 .72-.07 1.92-.07 3zm-1.78-3.6a1.41 1.41 0 0 0-.26-.94 2.52 2.52 0 0 0-2-1c-2.18 0-3.31 1.9-3.31 4s1.22 4.24 3.58 4.24a2.89 2.89 0 0 0 1.84-.67 1.4 1.4 0 0 0 .17-.89zm6.94.96c-.63 0-.65 0-.65.64 0 2.43 1.42 4.49 4 4.49a2.58 2.58 0 0 0 2.21-1.17.31.31 0 0 1 .43.28 4.19 4.19 0 0 1-3.77 2.24 4.28 4.28 0 0 1-3.47-1.59 5 5 0 0 1-1-3.12c0-2.95 1.94-5.42 4.82-5.42a3.14 3.14 0 0 1 3.41 2.85 1.46 1.46 0 0 1-.1.63c-.07.14-.41.17-1.41.17zm1.48-.72c1.78 0 2.31-.1 2.5-.24s.15-.15.15-.46c0-.67-.46-1.51-1.85-1.51a2.82 2.82 0 0 0-2.67 2.09s0 .12.17.12zm7.25-.03c0-.93 0-1.05-.65-1.49l-.21-.14a.32.32 0 0 1 0-.43 18.56 18.56 0 0 0 2.43-1.18c.12 0 .19.07.19.17v1.39c0 .12 0 .19.07.22a4.82 4.82 0 0 1 2.64-1.44 1 1 0 0 1 1.08 1 1.06 1.06 0 0 1-1 1.1.91.91 0 0 1-.53-.17 2 2 0 0 0-1.06-.38 1.07 1.07 0 0 0-.86.48 3.66 3.66 0 0 0-.31 1.85v3.26c0 1.73 0 2 1 2.09l.86.07a.42.42 0 0 1 0 .6c-1.12-.05-1.82-.07-2.66-.07s-1.58 0-2.21.07a.43.43 0 0 1-.05-.6l.46-.07c.89-.14.91-.36.91-2.09zm7.97 0c0-.93 0-1.05-.65-1.49l-.21-.14a.32.32 0 0 1 0-.43 16.31 16.31 0 0 0 2.47-1.18c.12 0 .22.05.24.15 0 .84-.09 2-.09 3v4.32c0 1.73 0 2 .91 2.09l.5.07a.42.42 0 0 1-.05.6c-.72-.05-1.41-.07-2.25-.07s-1.59 0-2.26.07a.43.43 0 0 1 0-.6l.51-.07c.89-.12.91-.36.91-2.09zm2-6.84a1.25 1.25 0 0 1-2.49.05 1.25 1.25 0 0 1 1.29-1.3 1.2 1.2 0 0 1 1.19 1.25zm3.78 6.65c-.36-.89-.57-1.66-1.44-1.78l-.48-.07c-.14-.19-.12-.53.08-.6.59 0 1.44.07 2.25.07.65 0 1.13 0 1.95-.07a.43.43 0 0 1 0 .6l-.29.05c-.74.12-.77.24-.53 1 .56 1.66 1.25 3.34 1.8 4.58a4.16 4.16 0 0 0 .39.77 3.08 3.08 0 0 0 .45-.91c.32-.82 1.13-2.9 1.37-3.53a5.16 5.16 0 0 0 .43-1.49c0-.21-.14-.31-.43-.36l-.55-.07a.44.44 0 0 1 0-.6c.74 0 1.34.07 1.8.07s1 0 1.68-.07a.45.45 0 0 1 0 .6l-.36.05c-.84.12-1.06.74-1.76 2.09-.33.65-1.82 4.13-2.2 5.11-.24.6-.48 1.15-.8 2a.27.27 0 0 1-.24.09.44.44 0 0 1-.31-.09c-.19-.67-.55-1.61-.91-2.5zm11.38.94c-.62 0-.65 0-.65.64 0 2.43 1.42 4.49 4 4.49a2.58 2.58 0 0 0 2.2-1.17.32.32 0 0 1 .44.28 4.2 4.2 0 0 1-3.77 2.24 4.3 4.3 0 0 1-3.48-1.59 5.08 5.08 0 0 1-1-3.12c0-2.95 1.94-5.42 4.82-5.42a3.14 3.14 0 0 1 3.41 2.85 1.71 1.71 0 0 1-.09.63c-.08.14-.41.17-1.42.17zm1.49-.72c1.77 0 2.3-.1 2.49-.24s.15-.15.15-.46c0-.67-.46-1.51-1.85-1.51a2.8 2.8 0 0 0-2.66 2.09s0 .12.16.12zm15.07 3.36c0 1.89 0 2.78.7 2.78a4 4 0 0 0 1-.24c.17 0 .19.65 0 .77a17.21 17.21 0 0 0-3.16.77c-.15 0-.27-.08-.27-.2V541a2.63 2.63 0 0 0 0-.75H712a5 5 0 0 1-3 1.11 4.41 4.41 0 0 1-4.44-4.61c0-3.36 2.55-5.52 5.81-5.52a5.13 5.13 0 0 1 1.61.21c.12 0 .14-.14.14-.33v-3.63c0-1.41 0-1.56-.74-2l-.24-.14a.36.36 0 0 1 0-.48 18.48 18.48 0 0 0 2.59-1 .27.27 0 0 1 .24.14c0 .72-.07 1.92-.07 3zm-1.78-3.6a1.41 1.41 0 0 0-.26-.94 2.52 2.52 0 0 0-2-1c-2.18 0-3.31 1.9-3.31 4s1.23 4.24 3.58 4.24a2.92 2.92 0 0 0 1.85-.67 1.48 1.48 0 0 0 .16-.89zm-102.4 26.54a5.77 5.77 0 0 1 .38 1.94.41.41 0 0 1-.57.08 2.35 2.35 0 0 0-2.12-1.76 1.42 1.42 0 0 0-1.53 1.47c0 1 1 1.51 1.85 2 1.27.72 2.44 1.54 2.44 3.24s-1.68 2.74-3.45 2.74a4 4 0 0 1-2.57-.72 7.19 7.19 0 0 1-.29-2.43.4.4 0 0 1 .55 0c.41 1.32 1.18 2.47 2.55 2.47a1.48 1.48 0 0 0 1.61-1.54c0-1.1-1-1.7-1.85-2.2-1.39-.8-2.38-1.64-2.38-3 0-1.75 1.44-2.73 3.27-2.73a4.3 4.3 0 0 1 2.11.44zm1.75 14.3a.9.9 0 0 1 1-1h.46a.86.86 0 0 0 .79-.43 16.22 16.22 0 0 0 1.39-2.66 3.72 3.72 0 0 0 .24-1 4.64 4.64 0 0 0-.41-1.66l-1.9-5.13c-.41-1.12-.58-1.7-1.42-1.87l-.6-.12c-.14-.12-.12-.53.08-.6.76.05 1.48.07 2.28.07.64 0 1.32 0 2.08-.07.2.07.22.48 0 .6l-.6.12c-.33.07-.53.14-.53.31a19 19 0 0 0 .7 2.26l.77 2.21a14.19 14.19 0 0 0 .69 1.7 10.73 10.73 0 0 0 .89-1.77l.82-1.9a11.15 11.15 0 0 0 .84-2.4c0-.17-.15-.34-.58-.41l-.74-.12c-.17-.12-.15-.53 0-.6.76.05 1.48.07 2.11.07s1.15 0 1.82-.07a.4.4 0 0 1 .05.6l-.41.07c-.79.15-1.22.84-2 2.55l-1.25 2.76c-.79 1.61-2.76 5.78-3.94 8.4a1.6 1.6 0 0 1-1.53 1.13 1 1 0 0 1-1.1-1.04zm25.01-11.11c0-1.63-.72-2.47-2.23-2.47a2.6 2.6 0 0 0-2 .84 1.89 1.89 0 0 0-.36 1.44v3.67c0 1.73 0 2 .92 2.09l.5.07a.42.42 0 0 1 0 .6c-.72-.05-1.41-.07-2.25-.07s-1.52 0-2.19.07a.43.43 0 0 1 0-.6l.44-.07c.88-.14.91-.36.91-2.09v-3.48c0-1.61-.72-2.47-2.21-2.47a2.59 2.59 0 0 0-2 .86 1.88 1.88 0 0 0-.36 1.37v3.72c0 1.73.05 1.95.92 2.09l.43.07a.42.42 0 0 1 0 .6c-.65-.05-1.34-.07-2.18-.07s-1.59 0-2.33.07a.42.42 0 0 1 0-.6l.58-.07c.88-.12.91-.36.91-2.09v-4.2c0-.93 0-1.05-.65-1.49l-.22-.14c-.09-.1-.09-.36 0-.43a13 13 0 0 0 2.4-1.18.28.28 0 0 1 .26.17c-.05.55-.05.91-.05 1.13a.25.25 0 0 0 .27.26A5.74 5.74 0 0 1 629 560a2.73 2.73 0 0 1 2.54 1.41.72.72 0 0 0 .6-.19 6 6 0 0 1 3.27-1.22 2.71 2.71 0 0 1 2.85 3v4.13c0 1.73.05 2 .92 2.09l.57.07a.42.42 0 0 1 0 .6c-.8-.05-1.49-.07-2.33-.07s-1.52 0-2.19.07a.43.43 0 0 1-.05-.6l.44-.07c.88-.14.91-.36.91-2.09zm18.89 0c0-1.63-.72-2.47-2.24-2.47a2.6 2.6 0 0 0-2 .84c-.29.36-.36.6-.36 1.44v3.67c0 1.73 0 2 .91 2.09l.51.07a.42.42 0 0 1 0 .6c-.72-.05-1.42-.07-2.26-.07s-1.51 0-2.18.07a.42.42 0 0 1 0-.6l.43-.07c.89-.14.92-.36.92-2.09v-3.48c0-1.61-.72-2.47-2.21-2.47a2.58 2.58 0 0 0-2 .86 1.88 1.88 0 0 0-.36 1.37v3.72c0 1.73 0 1.95.91 2.09l.44.07a.43.43 0 0 1-.05.6c-.65-.05-1.35-.07-2.19-.07s-1.58 0-2.32.07a.42.42 0 0 1-.05-.6l.57-.07c.89-.12.92-.36.92-2.09v-4.2c0-.93 0-1.05-.65-1.49l-.22-.14a.34.34 0 0 1 0-.43 12.81 12.81 0 0 0 2.41-1.18.28.28 0 0 1 .26.17v1.13a.25.25 0 0 0 .27.26 5.74 5.74 0 0 1 3.19-1.22 2.73 2.73 0 0 1 2.54 1.41.72.72 0 0 0 .6-.19 6 6 0 0 1 3.27-1.22 2.71 2.71 0 0 1 2.85 3v4.13c0 1.73 0 2 .91 2.09l.58.07a.42.42 0 0 1-.05.6c-.79-.05-1.49-.07-2.33-.07s-1.51 0-2.18.07a.42.42 0 0 1 0-.6l.43-.07c.89-.14.92-.36.92-2.09zm6.93.03c-.62 0-.65 0-.65.64 0 2.43 1.42 4.49 4 4.49a2.61 2.61 0 0 0 2.21-1.17.32.32 0 0 1 .43.28 4.19 4.19 0 0 1-3.77 2.24 4.3 4.3 0 0 1-3.48-1.59 5.08 5.08 0 0 1-1-3.12c0-2.95 1.94-5.42 4.82-5.42a3.14 3.14 0 0 1 3.41 2.85 1.52 1.52 0 0 1-.09.63c-.08.14-.41.17-1.42.17zm1.49-.72c1.78 0 2.3-.1 2.5-.24s.14-.15.14-.46c0-.67-.46-1.51-1.85-1.51a2.8 2.8 0 0 0-2.66 2.09s0 .12.16.12zm9.25-1.59c-.4 0-.43.07-.43.58v4.49c0 1.39.17 2.66 1.76 2.66a1.82 1.82 0 0 0 .64-.12c.22-.07.53-.34.6-.34s.29.27.24.41a3.29 3.29 0 0 1-2.52 1.11c-2.06 0-2.49-1.16-2.49-2.6v-5.49c0-.65 0-.7-.51-.7h-.67a.39.39 0 0 1-.07-.5 4.66 4.66 0 0 0 1.53-.75 5.73 5.73 0 0 0 1-1.41.46.46 0 0 1 .51.12v1.08c0 .43 0 .45.43.45h2.66a.77.77 0 0 1 0 1zm5.37 1.56c0-.93 0-1.05-.65-1.49l-.22-.14a.34.34 0 0 1 0-.43 18 18 0 0 0 2.43-1.18c.12 0 .19.07.19.17v1.39a.27.27 0 0 0 .07.22 4.82 4.82 0 0 1 2.64-1.44 1 1 0 0 1 1.08 1 1.06 1.06 0 0 1-1 1.1.91.91 0 0 1-.53-.17 2 2 0 0 0-1-.38 1.09 1.09 0 0 0-.87.48 3.64 3.64 0 0 0-.31 1.85v3.26c0 1.73.05 2 1 2.09l.86.07a.42.42 0 0 1 0 .6c-1.13-.05-1.83-.07-2.67-.07s-1.58 0-2.21.07a.42.42 0 0 1 0-.6l.45-.07c.89-.14.92-.36.92-2.09zm7.96 0c0-.93 0-1.05-.65-1.49l-.21-.14a.32.32 0 0 1 0-.43 16.31 16.31 0 0 0 2.47-1.18.24.24 0 0 1 .25.14c-.05.85-.1 2-.1 3v4.32c0 1.73 0 2 .91 2.09l.51.07a.43.43 0 0 1 0 .6c-.72-.05-1.42-.07-2.26-.07s-1.58 0-2.26.07a.42.42 0 0 1 0-.6l.5-.07c.89-.12.91-.36.91-2.09zm2-6.84a1.25 1.25 0 0 1-2.5.05 1.25 1.25 0 0 1 1.29-1.3 1.21 1.21 0 0 1 1.21 1.25zm10.67 4.35a1.35 1.35 0 0 1 .36 1c0 .43-.24.88-.53.88a.43.43 0 0 1-.34-.17 3.29 3.29 0 0 0-2.4-1.27c-1.68 0-3.31 1.32-3.31 3.87a3.94 3.94 0 0 0 3.86 4.1 2.92 2.92 0 0 0 2.67-1.44.37.37 0 0 1 .43.34 4.39 4.39 0 0 1-4 2.45 4.65 4.65 0 0 1-3.29-1.23 4.76 4.76 0 0 1-1.39-3.55c0-2.59 1.83-5.35 5.81-5.35a6 6 0 0 1 2.13.37zm8.86-4.16c0-1.41 0-1.56-.74-2l-.24-.14a.36.36 0 0 1 0-.48 19 19 0 0 0 2.59-1 .28.28 0 0 1 .24.14c0 .72-.07 1.92-.07 3V564c0 .31 0 .36.43.36s1-.26 1.63-.93l1-1.06c.68-.72.84-1 .84-1.11s-.12-.19-.52-.24l-.58-.07c-.21-.07-.21-.52 0-.6h.56c1.06 0 2.48 0 3.82-.19.17.07.19.48.05.6l-.77.15a3.32 3.32 0 0 0-1.51.84 28.31 28.31 0 0 0-2.19 2c-.29.27-.31.39-.16.58.4.55.79 1 1.6 1.92s1.78 2 2.26 2.45a2.4 2.4 0 0 0 1.25.52h.33c.17.12.15.53 0 .6-.7-.05-1.52-.07-2.28-.07-1 0-1.81 0-2.5.07a.4.4 0 0 1-.05-.6l.43-.07c.36-.05.6-.1.6-.24s-.09-.31-.41-.67l-2.56-3a1 1 0 0 0-.75-.33c-.43 0-.45.07-.45.81v1.32c0 1.73 0 2 .91 2.09l.57.07a.42.42 0 0 1 0 .6c-.8-.05-1.49-.07-2.33-.07s-1.59 0-2.31.07a.41.41 0 0 1 0-.6l.53-.07c.89-.12.91-.36.91-2.09zm12.58 7.4c-.63 0-.65 0-.65.64 0 2.43 1.41 4.49 4 4.49a2.59 2.59 0 0 0 2.21-1.17.31.31 0 0 1 .43.28 4.19 4.19 0 0 1-3.77 2.24 4.32 4.32 0 0 1-3.48-1.59 5.07 5.07 0 0 1-1-3.12c0-2.95 1.94-5.42 4.82-5.42a3.14 3.14 0 0 1 3.41 2.85 1.46 1.46 0 0 1-.1.63c-.07.14-.41.17-1.41.17zm1.48-.72c1.78 0 2.31-.1 2.5-.24s.14-.15.14-.46c0-.67-.45-1.51-1.84-1.51a2.82 2.82 0 0 0-2.67 2.09s0 .12.17.12zm5.48 11.8a.9.9 0 0 1 1-1h.45a.84.84 0 0 0 .79-.43 15.67 15.67 0 0 0 1.4-2.66 3.72 3.72 0 0 0 .24-1 4.64 4.64 0 0 0-.41-1.66l-1.87-5.13c-.41-1.12-.58-1.7-1.42-1.87l-.6-.12c-.15-.12-.12-.53.07-.6.77.05 1.49.07 2.28.07s1.32 0 2.09-.07c.19.07.22.48 0 .6l-.6.12c-.34.07-.53.14-.53.31a17.29 17.29 0 0 0 .7 2.26l.76 2.21a14 14 0 0 0 .7 1.7 11.71 11.71 0 0 0 .89-1.77l.81-1.9a11.15 11.15 0 0 0 .84-2.4c0-.17-.14-.34-.57-.41l-.75-.12c-.16-.12-.14-.53.05-.6.77.05 1.49.07 2.11.07s1.16 0 1.83-.07a.41.41 0 0 1 .05.6l-.41.07c-.79.15-1.23.84-2 2.55l-1.35 2.76c-.79 1.61-2.76 5.78-3.93 8.4a1.61 1.61 0 0 1-1.54 1.13 1 1 0 0 1-1.08-1.04zm20.6-11.08h-9.24v-1.18H748zm0 3.6h-9.24v-1.18H748zm3.44-11c0-1.41 0-1.56-.74-2l-.24-.14a.36.36 0 0 1 0-.48 18.48 18.48 0 0 0 2.59-1 .27.27 0 0 1 .24.14c0 .72-.07 1.92-.07 3V564c0 .31 0 .36.43.36a2.27 2.27 0 0 0 1.63-.93l1-1.06c.67-.72.84-1 .84-1.11s-.12-.19-.53-.24l-.58-.07c-.21-.07-.21-.52 0-.6h.56c1.05 0 2.47 0 3.81-.19.17.07.19.48 0 .6l-.77.15a3.32 3.32 0 0 0-1.51.84 27.8 27.8 0 0 0-2.18 2c-.29.27-.32.39-.17.58.41.55.79 1 1.61 1.92s1.77 2 2.25 2.45a2.43 2.43 0 0 0 1.25.52h.34c.16.12.14.53 0 .6-.7-.05-1.51-.07-2.28-.07-1 0-1.8 0-2.5.07a.41.41 0 0 1 0-.6l.44-.07c.36-.05.6-.1.6-.24s-.1-.31-.41-.67l-2.57-3a1 1 0 0 0-.74-.33c-.44 0-.46.07-.46.81v1.32c0 1.73 0 2 .91 2.09l.58.07a.42.42 0 0 1-.05.6c-.79-.05-1.49-.07-2.33-.07s-1.58 0-2.3.07a.4.4 0 0 1 0-.6l.53-.07c.89-.12.91-.36.91-2.09z"/>
</svg>
